G04 #@! TF.FileFunction,Soldermask,Top*
%FSLAX46Y46*%
G04 Gerber Fmt 4.6, Leading zero omitted, Abs format (unit mm)*
G04 Created by KiCad (PCBNEW 4.0.1-stable) date 2017/06/24 18:36:10*
%MOMM*%
G01*
G04 APERTURE LIST*
%ADD10C,0.100000*%
%ADD11C,1.900000*%
%ADD12R,1.900000X1.900000*%
%ADD13C,2.400000*%
%ADD14C,2.200000*%
%ADD15R,1.797000X1.797000*%
%ADD16C,1.797000*%
%ADD17C,1.924000*%
%ADD18C,2.076400*%
%ADD19C,1.600000*%
%ADD20R,2.900000X1.900000*%
%ADD21O,2.900000X1.900000*%
%ADD22C,5.400000*%
%ADD23O,1.600000X1.200000*%
%ADD24C,1.800000*%
G04 APERTURE END LIST*
D10*
D11*
X128570000Y-88000000D03*
X131110000Y-88000000D03*
X133650000Y-88000000D03*
X136190000Y-88000000D03*
D12*
X151430000Y-88000000D03*
D11*
X148890000Y-88000000D03*
X146350000Y-88000000D03*
X143810000Y-88000000D03*
X141270000Y-88000000D03*
X138730000Y-88000000D03*
D13*
X140000000Y-91500000D03*
X140000000Y-96500000D03*
D14*
X165064000Y-111540000D03*
X165064000Y-106460000D03*
D12*
X151430000Y-98842000D03*
D11*
X148890000Y-98842000D03*
X146350000Y-98842000D03*
X143810000Y-98842000D03*
X141270000Y-98842000D03*
X138730000Y-98842000D03*
X136190000Y-98842000D03*
X133650000Y-98842000D03*
X131110000Y-98842000D03*
X128570000Y-98842000D03*
X148890000Y-86142000D03*
X150160000Y-86142000D03*
X131110000Y-86142000D03*
X129840000Y-86142000D03*
D15*
X119490000Y-121810000D03*
D16*
X122030000Y-121810000D03*
X124570000Y-121810000D03*
X127110000Y-121810000D03*
X129650000Y-121810000D03*
X132190000Y-121810000D03*
X134730000Y-121810000D03*
X137270000Y-121810000D03*
X139810000Y-121810000D03*
X142350000Y-121810000D03*
X144890000Y-121810000D03*
X147430000Y-121810000D03*
X149970000Y-121810000D03*
X152510000Y-121810000D03*
X152510000Y-114190000D03*
X149970000Y-114190000D03*
X147430000Y-114190000D03*
X144890000Y-114190000D03*
X142350000Y-114190000D03*
X139810000Y-114190000D03*
X137270000Y-114190000D03*
X134730000Y-114190000D03*
X132190000Y-114190000D03*
X129650000Y-114190000D03*
X127110000Y-114190000D03*
X124570000Y-114190000D03*
X122030000Y-114190000D03*
X119490000Y-114190000D03*
D17*
X124080000Y-108500000D03*
X113920000Y-108500000D03*
D16*
X152000000Y-135540000D03*
X152000000Y-130460000D03*
D15*
X156810000Y-102190000D03*
D16*
X154270000Y-102190000D03*
X151730000Y-102190000D03*
X149190000Y-102190000D03*
X149190000Y-109810000D03*
X151730000Y-109810000D03*
X154270000Y-109810000D03*
X156810000Y-109810000D03*
D12*
X121650000Y-141500000D03*
D11*
X124190000Y-141500000D03*
X126730000Y-141500000D03*
X129270000Y-141500000D03*
X131810000Y-141500000D03*
X134350000Y-141500000D03*
D12*
X113500000Y-113150000D03*
D11*
X113500000Y-115690000D03*
X113500000Y-118230000D03*
X113500000Y-120770000D03*
X113500000Y-123310000D03*
X113500000Y-125850000D03*
D16*
X156000000Y-117460000D03*
X156000000Y-122540000D03*
D17*
X148920000Y-140500000D03*
X159080000Y-140500000D03*
D16*
X141040000Y-124500000D03*
X135960000Y-124500000D03*
X138540000Y-127500000D03*
X133460000Y-127500000D03*
X119460000Y-112000000D03*
X124540000Y-112000000D03*
X144540000Y-102000000D03*
X139460000Y-102000000D03*
X139460000Y-111600000D03*
X144540000Y-111600000D03*
X160540000Y-128000000D03*
X155460000Y-128000000D03*
X144540000Y-105000000D03*
X139460000Y-105000000D03*
D18*
X121730000Y-89000000D03*
X124270000Y-89000000D03*
D17*
X113920000Y-101000000D03*
X124080000Y-101000000D03*
X157000000Y-100080000D03*
X157000000Y-89920000D03*
X154500000Y-89920000D03*
X154500000Y-100080000D03*
X113920000Y-103500000D03*
X124080000Y-103500000D03*
X159500000Y-100080000D03*
X159500000Y-89920000D03*
X118420000Y-127500000D03*
X128580000Y-127500000D03*
X159000000Y-125580000D03*
X159000000Y-115420000D03*
X151080000Y-127500000D03*
X140920000Y-127500000D03*
X161500000Y-115420000D03*
X161500000Y-125580000D03*
X148920000Y-138500000D03*
X159080000Y-138500000D03*
X148920000Y-142500000D03*
X159080000Y-142500000D03*
D13*
X118750000Y-93750000D03*
X125250000Y-93750000D03*
X125250000Y-98250000D03*
X118750000Y-98250000D03*
D17*
X113920000Y-106000000D03*
X124080000Y-106000000D03*
D19*
X131000000Y-104595000D03*
X131000000Y-106500000D03*
X131000000Y-108405000D03*
D20*
X166500000Y-135080000D03*
D21*
X166500000Y-132540000D03*
X166500000Y-130000000D03*
X166500000Y-127460000D03*
X166500000Y-124920000D03*
D22*
X114000000Y-89000000D03*
X166000000Y-89000000D03*
X114000000Y-141000000D03*
X166000000Y-141000000D03*
D23*
X143500000Y-123484000D03*
X143500000Y-125516000D03*
D24*
X113000000Y-131500000D03*
X113000000Y-134500000D03*
D16*
X135500000Y-103960000D03*
X135500000Y-109040000D03*
X153960000Y-112000000D03*
X159040000Y-112000000D03*
X127500000Y-109040000D03*
X127500000Y-103960000D03*
X144540000Y-108000000D03*
X139460000Y-108000000D03*
D20*
X166500000Y-121540000D03*
D21*
X166500000Y-119000000D03*
X166500000Y-116460000D03*
D13*
X125250000Y-135250000D03*
X118750000Y-135250000D03*
X118750000Y-130750000D03*
X125250000Y-130750000D03*
X137250000Y-135250000D03*
X130750000Y-135250000D03*
X130750000Y-130750000D03*
X137250000Y-130750000D03*
X149250000Y-135250000D03*
X142750000Y-135250000D03*
X142750000Y-130750000D03*
X149250000Y-130750000D03*
X161250000Y-135250000D03*
X154750000Y-135250000D03*
X154750000Y-130750000D03*
X161250000Y-130750000D03*
D14*
X165064000Y-100540000D03*
X165064000Y-95460000D03*
D11*
X131000000Y-96000000D03*
X131000000Y-93000000D03*
M02*
