M48
;DRILL file {KiCad 4.0.1-stable} date 2017/06/24 18:36:13
;FORMAT={-:-/ absolute / metric / decimal}
FMAT,2
METRIC,TZ
T1C0.400
T2C0.800
T3C0.900
T4C1.000
T5C1.200
T6C3.300
%
G90
G05
M71
T1
X125.356Y-128.144
X132.312Y-97.394
X133.5Y-122.7
X133.66Y-111.899
X133.7Y-110.2
X133.8Y-100.2
X136.94Y-106.232
X143.5Y-123.484
X143.5Y-125.516
X146.553Y-109.034
T2
X113.Y-131.5
X113.Y-134.5
X113.92Y-101.
X113.92Y-103.5
X113.92Y-106.
X113.92Y-108.5
X118.42Y-127.5
X119.46Y-112.
X119.49Y-114.19
X119.49Y-121.81
X122.03Y-114.19
X122.03Y-121.81
X124.08Y-101.
X124.08Y-103.5
X124.08Y-106.
X124.08Y-108.5
X124.54Y-112.
X124.57Y-114.19
X124.57Y-121.81
X127.11Y-114.19
X127.11Y-121.81
X127.5Y-103.96
X127.5Y-109.04
X128.58Y-127.5
X129.65Y-114.19
X129.65Y-121.81
X131.Y-104.595
X131.Y-106.5
X131.Y-108.405
X132.19Y-114.19
X132.19Y-121.81
X133.46Y-127.5
X134.73Y-114.19
X134.73Y-121.81
X135.5Y-103.96
X135.5Y-109.04
X135.96Y-124.5
X137.27Y-114.19
X137.27Y-121.81
X138.54Y-127.5
X139.46Y-102.
X139.46Y-105.
X139.46Y-108.
X139.46Y-111.6
X139.81Y-114.19
X139.81Y-121.81
X140.92Y-127.5
X141.04Y-124.5
X142.35Y-114.19
X142.35Y-121.81
X144.54Y-102.
X144.54Y-105.
X144.54Y-108.
X144.54Y-111.6
X144.89Y-114.19
X144.89Y-121.81
X147.43Y-114.19
X147.43Y-121.81
X148.92Y-138.5
X148.92Y-140.5
X148.92Y-142.5
X149.19Y-102.19
X149.19Y-109.81
X149.97Y-114.19
X149.97Y-121.81
X151.08Y-127.5
X151.73Y-102.19
X151.73Y-109.81
X152.Y-130.46
X152.Y-135.54
X152.51Y-114.19
X152.51Y-121.81
X153.96Y-112.
X154.27Y-102.19
X154.27Y-109.81
X154.5Y-89.92
X154.5Y-100.08
X155.46Y-128.
X156.Y-117.46
X156.Y-122.54
X156.81Y-102.19
X156.81Y-109.81
X157.Y-89.92
X157.Y-100.08
X159.Y-115.42
X159.Y-125.58
X159.04Y-112.
X159.08Y-138.5
X159.08Y-140.5
X159.08Y-142.5
X159.5Y-89.92
X159.5Y-100.08
X160.54Y-128.
X161.5Y-115.42
X161.5Y-125.58
T3
X121.73Y-89.
X124.27Y-89.
T4
X113.5Y-113.15
X113.5Y-115.69
X113.5Y-118.23
X113.5Y-120.77
X113.5Y-123.31
X113.5Y-125.85
X121.65Y-141.5
X124.19Y-141.5
X126.73Y-141.5
X128.57Y-88.
X128.57Y-98.842
X129.27Y-141.5
X129.84Y-86.142
X131.Y-93.
X131.Y-96.
X131.11Y-86.142
X131.11Y-88.
X131.11Y-98.842
X131.81Y-141.5
X133.65Y-88.
X133.65Y-98.842
X134.35Y-141.5
X136.19Y-88.
X136.19Y-98.842
X138.73Y-88.
X138.73Y-98.842
X141.27Y-88.
X141.27Y-98.842
X143.81Y-88.
X143.81Y-98.842
X146.35Y-88.
X146.35Y-98.842
X148.89Y-86.142
X148.89Y-88.
X148.89Y-98.842
X150.16Y-86.142
X151.43Y-88.
X151.43Y-98.842
X166.5Y-116.46
X166.5Y-119.
X166.5Y-121.54
X166.5Y-124.92
X166.5Y-127.46
X166.5Y-130.
X166.5Y-132.54
X166.5Y-135.08
T5
X118.75Y-93.75
X118.75Y-98.25
X118.75Y-130.75
X118.75Y-135.25
X125.25Y-93.75
X125.25Y-98.25
X125.25Y-130.75
X125.25Y-135.25
X130.75Y-130.75
X130.75Y-135.25
X137.25Y-130.75
X137.25Y-135.25
X140.Y-91.5
X140.Y-96.5
X142.75Y-130.75
X142.75Y-135.25
X149.25Y-130.75
X149.25Y-135.25
X154.75Y-130.75
X154.75Y-135.25
X161.25Y-130.75
X161.25Y-135.25
X165.064Y-95.46
X165.064Y-100.54
X165.064Y-106.46
X165.064Y-111.54
T6
X114.Y-89.
X114.Y-141.
X166.Y-89.
X166.Y-141.
T0
M30
