G04 #@! TF.FileFunction,Legend,Bot*
%FSLAX46Y46*%
G04 Gerber Fmt 4.6, Leading zero omitted, Abs format (unit mm)*
G04 Created by KiCad (PCBNEW 4.0.1-stable) date 2017/06/24 18:36:10*
%MOMM*%
G01*
G04 APERTURE LIST*
%ADD10C,0.100000*%
%ADD11C,0.170000*%
%ADD12C,0.200000*%
%ADD13C,0.300000*%
%ADD14C,0.250000*%
%ADD15C,0.150000*%
%ADD16C,0.254000*%
%ADD17C,0.180000*%
G04 APERTURE END LIST*
D10*
D11*
X154421429Y-133497619D02*
X154421429Y-132397619D01*
X154078572Y-132397619D01*
X153992858Y-132450000D01*
X153950001Y-132502381D01*
X153907144Y-132607143D01*
X153907144Y-132764286D01*
X153950001Y-132869048D01*
X153992858Y-132921429D01*
X154078572Y-132973810D01*
X154421429Y-132973810D01*
X153521429Y-133497619D02*
X153521429Y-132397619D01*
X152578573Y-133392857D02*
X152621430Y-133445238D01*
X152750001Y-133497619D01*
X152835715Y-133497619D01*
X152964287Y-133445238D01*
X153050001Y-133340476D01*
X153092858Y-133235714D01*
X153135715Y-133026190D01*
X153135715Y-132869048D01*
X153092858Y-132659524D01*
X153050001Y-132554762D01*
X152964287Y-132450000D01*
X152835715Y-132397619D01*
X152750001Y-132397619D01*
X152621430Y-132450000D01*
X152578573Y-132502381D01*
X152278573Y-132397619D02*
X151721430Y-132397619D01*
X152021430Y-132816667D01*
X151892858Y-132816667D01*
X151807144Y-132869048D01*
X151764287Y-132921429D01*
X151721430Y-133026190D01*
X151721430Y-133288095D01*
X151764287Y-133392857D01*
X151807144Y-133445238D01*
X151892858Y-133497619D01*
X152150001Y-133497619D01*
X152235715Y-133445238D01*
X152278573Y-133392857D01*
X151378572Y-132502381D02*
X151335715Y-132450000D01*
X151250001Y-132397619D01*
X151035715Y-132397619D01*
X150950001Y-132450000D01*
X150907144Y-132502381D01*
X150864287Y-132607143D01*
X150864287Y-132711905D01*
X150907144Y-132869048D01*
X151421430Y-133497619D01*
X150864287Y-133497619D01*
X150478572Y-133497619D02*
X150478572Y-132397619D01*
X150178572Y-133183333D01*
X149878572Y-132397619D01*
X149878572Y-133497619D01*
X149535716Y-132397619D02*
X148935716Y-133497619D01*
X148935716Y-132397619D02*
X149535716Y-133497619D01*
X148121430Y-133497619D02*
X148635715Y-133497619D01*
X148378573Y-133497619D02*
X148378573Y-132397619D01*
X148464287Y-132554762D01*
X148550001Y-132659524D01*
X148635715Y-132711905D01*
X147821430Y-132397619D02*
X147264287Y-132397619D01*
X147564287Y-132816667D01*
X147435715Y-132816667D01*
X147350001Y-132869048D01*
X147307144Y-132921429D01*
X147264287Y-133026190D01*
X147264287Y-133288095D01*
X147307144Y-133392857D01*
X147350001Y-133445238D01*
X147435715Y-133497619D01*
X147692858Y-133497619D01*
X147778572Y-133445238D01*
X147821430Y-133392857D01*
X146707144Y-132397619D02*
X146621429Y-132397619D01*
X146535715Y-132450000D01*
X146492858Y-132502381D01*
X146450001Y-132607143D01*
X146407144Y-132816667D01*
X146407144Y-133078571D01*
X146450001Y-133288095D01*
X146492858Y-133392857D01*
X146535715Y-133445238D01*
X146621429Y-133497619D01*
X146707144Y-133497619D01*
X146792858Y-133445238D01*
X146835715Y-133392857D01*
X146878572Y-133288095D01*
X146921429Y-133078571D01*
X146921429Y-132816667D01*
X146878572Y-132607143D01*
X146835715Y-132502381D01*
X146792858Y-132450000D01*
X146707144Y-132397619D01*
X146235715Y-133602381D02*
X145550001Y-133602381D01*
X145378572Y-133445238D02*
X145250001Y-133497619D01*
X145035715Y-133497619D01*
X144950001Y-133445238D01*
X144907144Y-133392857D01*
X144864287Y-133288095D01*
X144864287Y-133183333D01*
X144907144Y-133078571D01*
X144950001Y-133026190D01*
X145035715Y-132973810D01*
X145207144Y-132921429D01*
X145292858Y-132869048D01*
X145335715Y-132816667D01*
X145378572Y-132711905D01*
X145378572Y-132607143D01*
X145335715Y-132502381D01*
X145292858Y-132450000D01*
X145207144Y-132397619D01*
X144992858Y-132397619D01*
X144864287Y-132450000D01*
X144478572Y-132764286D02*
X144478572Y-133864286D01*
X144478572Y-132816667D02*
X144392858Y-132764286D01*
X144221429Y-132764286D01*
X144135715Y-132816667D01*
X144092858Y-132869048D01*
X144050001Y-132973810D01*
X144050001Y-133288095D01*
X144092858Y-133392857D01*
X144135715Y-133445238D01*
X144221429Y-133497619D01*
X144392858Y-133497619D01*
X144478572Y-133445238D01*
X143321429Y-133445238D02*
X143407143Y-133497619D01*
X143578572Y-133497619D01*
X143664286Y-133445238D01*
X143707143Y-133340476D01*
X143707143Y-132921429D01*
X143664286Y-132816667D01*
X143578572Y-132764286D01*
X143407143Y-132764286D01*
X143321429Y-132816667D01*
X143278572Y-132921429D01*
X143278572Y-133026190D01*
X143707143Y-133130952D01*
X142507143Y-133497619D02*
X142507143Y-132921429D01*
X142550000Y-132816667D01*
X142635714Y-132764286D01*
X142807143Y-132764286D01*
X142892857Y-132816667D01*
X142507143Y-133445238D02*
X142592857Y-133497619D01*
X142807143Y-133497619D01*
X142892857Y-133445238D01*
X142935714Y-133340476D01*
X142935714Y-133235714D01*
X142892857Y-133130952D01*
X142807143Y-133078571D01*
X142592857Y-133078571D01*
X142507143Y-133026190D01*
X142078571Y-133497619D02*
X142078571Y-132397619D01*
X141992857Y-133078571D02*
X141735714Y-133497619D01*
X141735714Y-132764286D02*
X142078571Y-133183333D01*
X141350000Y-133497619D02*
X141350000Y-132764286D01*
X141350000Y-132397619D02*
X141392857Y-132450000D01*
X141350000Y-132502381D01*
X141307143Y-132450000D01*
X141350000Y-132397619D01*
X141350000Y-132502381D01*
X140921429Y-132764286D02*
X140921429Y-133497619D01*
X140921429Y-132869048D02*
X140878572Y-132816667D01*
X140792858Y-132764286D01*
X140664286Y-132764286D01*
X140578572Y-132816667D01*
X140535715Y-132921429D01*
X140535715Y-133497619D01*
X139721429Y-132764286D02*
X139721429Y-133654762D01*
X139764286Y-133759524D01*
X139807143Y-133811905D01*
X139892858Y-133864286D01*
X140021429Y-133864286D01*
X140107143Y-133811905D01*
X139721429Y-133445238D02*
X139807143Y-133497619D01*
X139978572Y-133497619D01*
X140064286Y-133445238D01*
X140107143Y-133392857D01*
X140150000Y-133288095D01*
X140150000Y-132973810D01*
X140107143Y-132869048D01*
X140064286Y-132816667D01*
X139978572Y-132764286D01*
X139807143Y-132764286D01*
X139721429Y-132816667D01*
X138778572Y-133392857D02*
X138821429Y-133445238D01*
X138950000Y-133497619D01*
X139035714Y-133497619D01*
X139164286Y-133445238D01*
X139250000Y-133340476D01*
X139292857Y-133235714D01*
X139335714Y-133026190D01*
X139335714Y-132869048D01*
X139292857Y-132659524D01*
X139250000Y-132554762D01*
X139164286Y-132450000D01*
X139035714Y-132397619D01*
X138950000Y-132397619D01*
X138821429Y-132450000D01*
X138778572Y-132502381D01*
X138264286Y-133497619D02*
X138350000Y-133445238D01*
X138392857Y-133340476D01*
X138392857Y-132397619D01*
X137792857Y-133497619D02*
X137878571Y-133445238D01*
X137921428Y-133392857D01*
X137964285Y-133288095D01*
X137964285Y-132973810D01*
X137921428Y-132869048D01*
X137878571Y-132816667D01*
X137792857Y-132764286D01*
X137664285Y-132764286D01*
X137578571Y-132816667D01*
X137535714Y-132869048D01*
X137492857Y-132973810D01*
X137492857Y-133288095D01*
X137535714Y-133392857D01*
X137578571Y-133445238D01*
X137664285Y-133497619D01*
X137792857Y-133497619D01*
X136721428Y-133445238D02*
X136807142Y-133497619D01*
X136978571Y-133497619D01*
X137064285Y-133445238D01*
X137107142Y-133392857D01*
X137149999Y-133288095D01*
X137149999Y-132973810D01*
X137107142Y-132869048D01*
X137064285Y-132816667D01*
X136978571Y-132764286D01*
X136807142Y-132764286D01*
X136721428Y-132816667D01*
X136335713Y-133497619D02*
X136335713Y-132397619D01*
X136249999Y-133078571D02*
X135992856Y-133497619D01*
X135992856Y-132764286D02*
X136335713Y-133183333D01*
X135649999Y-132502381D02*
X135607142Y-132450000D01*
X135521428Y-132397619D01*
X135307142Y-132397619D01*
X135221428Y-132450000D01*
X135178571Y-132502381D01*
X135135714Y-132607143D01*
X135135714Y-132711905D01*
X135178571Y-132869048D01*
X135692857Y-133497619D01*
X135135714Y-133497619D01*
X134578571Y-132397619D02*
X134492856Y-132397619D01*
X134407142Y-132450000D01*
X134364285Y-132502381D01*
X134321428Y-132607143D01*
X134278571Y-132816667D01*
X134278571Y-133078571D01*
X134321428Y-133288095D01*
X134364285Y-133392857D01*
X134407142Y-133445238D01*
X134492856Y-133497619D01*
X134578571Y-133497619D01*
X134664285Y-133445238D01*
X134707142Y-133392857D01*
X134749999Y-133288095D01*
X134792856Y-133078571D01*
X134792856Y-132816667D01*
X134749999Y-132607143D01*
X134707142Y-132502381D01*
X134664285Y-132450000D01*
X134578571Y-132397619D01*
X133421428Y-133497619D02*
X133935713Y-133497619D01*
X133678571Y-133497619D02*
X133678571Y-132397619D01*
X133764285Y-132554762D01*
X133849999Y-132659524D01*
X133935713Y-132711905D01*
X133121428Y-132397619D02*
X132521428Y-132397619D01*
X132907142Y-133497619D01*
X132007142Y-132397619D02*
X131921427Y-132397619D01*
X131835713Y-132450000D01*
X131792856Y-132502381D01*
X131749999Y-132607143D01*
X131707142Y-132816667D01*
X131707142Y-133078571D01*
X131749999Y-133288095D01*
X131792856Y-133392857D01*
X131835713Y-133445238D01*
X131921427Y-133497619D01*
X132007142Y-133497619D01*
X132092856Y-133445238D01*
X132135713Y-133392857D01*
X132178570Y-133288095D01*
X132221427Y-133078571D01*
X132221427Y-132816667D01*
X132178570Y-132607143D01*
X132135713Y-132502381D01*
X132092856Y-132450000D01*
X132007142Y-132397619D01*
X131407142Y-132397619D02*
X130807142Y-132397619D01*
X131192856Y-133497619D01*
X130292856Y-132397619D02*
X130207141Y-132397619D01*
X130121427Y-132450000D01*
X130078570Y-132502381D01*
X130035713Y-132607143D01*
X129992856Y-132816667D01*
X129992856Y-133078571D01*
X130035713Y-133288095D01*
X130078570Y-133392857D01*
X130121427Y-133445238D01*
X130207141Y-133497619D01*
X130292856Y-133497619D01*
X130378570Y-133445238D01*
X130421427Y-133392857D01*
X130464284Y-133288095D01*
X130507141Y-133078571D01*
X130507141Y-132816667D01*
X130464284Y-132607143D01*
X130421427Y-132502381D01*
X130378570Y-132450000D01*
X130292856Y-132397619D01*
X129135713Y-133497619D02*
X129649998Y-133497619D01*
X129392856Y-133497619D02*
X129392856Y-132397619D01*
X129478570Y-132554762D01*
X129564284Y-132659524D01*
X129649998Y-132711905D01*
D12*
X129900000Y-93000000D02*
G75*
G03X129900000Y-93000000I-700000J0D01*
G01*
X129900000Y-96000000D02*
G75*
G03X129900000Y-96000000I-700000J0D01*
G01*
X129619047Y-95978571D02*
X128780952Y-95978571D01*
X129200000Y-96397619D02*
X129200000Y-95559524D01*
X129619047Y-92978571D02*
X128780952Y-92978571D01*
D11*
X111102381Y-124283333D02*
X112202381Y-124283333D01*
X112202381Y-124016667D01*
X112150000Y-123950000D01*
X112097619Y-123916667D01*
X111992857Y-123883333D01*
X111835714Y-123883333D01*
X111730952Y-123916667D01*
X111678571Y-123950000D01*
X111626190Y-124016667D01*
X111626190Y-124283333D01*
X112150000Y-123216667D02*
X112202381Y-123283333D01*
X112202381Y-123383333D01*
X112150000Y-123483333D01*
X112045238Y-123550000D01*
X111940476Y-123583333D01*
X111730952Y-123616667D01*
X111573810Y-123616667D01*
X111364286Y-123583333D01*
X111259524Y-123550000D01*
X111154762Y-123483333D01*
X111102381Y-123383333D01*
X111102381Y-123316667D01*
X111154762Y-123216667D01*
X111207143Y-123183333D01*
X111573810Y-123183333D01*
X111573810Y-123316667D01*
X111207143Y-122483333D02*
X111154762Y-122516667D01*
X111102381Y-122616667D01*
X111102381Y-122683333D01*
X111154762Y-122783333D01*
X111259524Y-122850000D01*
X111364286Y-122883333D01*
X111573810Y-122916667D01*
X111730952Y-122916667D01*
X111940476Y-122883333D01*
X112045238Y-122850000D01*
X112150000Y-122783333D01*
X112202381Y-122683333D01*
X112202381Y-122616667D01*
X112150000Y-122516667D01*
X112097619Y-122483333D01*
X111102381Y-121783333D02*
X112202381Y-121783333D01*
X112202381Y-121516667D01*
X112150000Y-121450000D01*
X112097619Y-121416667D01*
X111992857Y-121383333D01*
X111835714Y-121383333D01*
X111730952Y-121416667D01*
X111678571Y-121450000D01*
X111626190Y-121516667D01*
X111626190Y-121783333D01*
X112150000Y-120716667D02*
X112202381Y-120783333D01*
X112202381Y-120883333D01*
X112150000Y-120983333D01*
X112045238Y-121050000D01*
X111940476Y-121083333D01*
X111730952Y-121116667D01*
X111573810Y-121116667D01*
X111364286Y-121083333D01*
X111259524Y-121050000D01*
X111154762Y-120983333D01*
X111102381Y-120883333D01*
X111102381Y-120816667D01*
X111154762Y-120716667D01*
X111207143Y-120683333D01*
X111573810Y-120683333D01*
X111573810Y-120816667D01*
X111102381Y-120383333D02*
X112202381Y-120383333D01*
X112202381Y-120216667D01*
X112150000Y-120116667D01*
X112045238Y-120050000D01*
X111940476Y-120016667D01*
X111730952Y-119983333D01*
X111573810Y-119983333D01*
X111364286Y-120016667D01*
X111259524Y-120050000D01*
X111154762Y-120116667D01*
X111102381Y-120216667D01*
X111102381Y-120383333D01*
X112150000Y-118933333D02*
X112202381Y-118999999D01*
X112202381Y-119099999D01*
X112150000Y-119199999D01*
X112045238Y-119266666D01*
X111940476Y-119299999D01*
X111730952Y-119333333D01*
X111573810Y-119333333D01*
X111364286Y-119299999D01*
X111259524Y-119266666D01*
X111154762Y-119199999D01*
X111102381Y-119099999D01*
X111102381Y-119033333D01*
X111154762Y-118933333D01*
X111207143Y-118899999D01*
X111573810Y-118899999D01*
X111573810Y-119033333D01*
X111102381Y-118599999D02*
X112202381Y-118599999D01*
X111102381Y-118199999D01*
X112202381Y-118199999D01*
X111102381Y-117866666D02*
X112202381Y-117866666D01*
X112202381Y-117700000D01*
X112150000Y-117600000D01*
X112045238Y-117533333D01*
X111940476Y-117500000D01*
X111730952Y-117466666D01*
X111573810Y-117466666D01*
X111364286Y-117500000D01*
X111259524Y-117533333D01*
X111154762Y-117600000D01*
X111102381Y-117700000D01*
X111102381Y-117866666D01*
X112202381Y-116633333D02*
X111102381Y-116400000D01*
X112202381Y-116166667D01*
X111207143Y-115533333D02*
X111154762Y-115566667D01*
X111102381Y-115666667D01*
X111102381Y-115733333D01*
X111154762Y-115833333D01*
X111259524Y-115900000D01*
X111364286Y-115933333D01*
X111573810Y-115966667D01*
X111730952Y-115966667D01*
X111940476Y-115933333D01*
X112045238Y-115900000D01*
X112150000Y-115833333D01*
X112202381Y-115733333D01*
X112202381Y-115666667D01*
X112150000Y-115566667D01*
X112097619Y-115533333D01*
X111207143Y-114833333D02*
X111154762Y-114866667D01*
X111102381Y-114966667D01*
X111102381Y-115033333D01*
X111154762Y-115133333D01*
X111259524Y-115200000D01*
X111364286Y-115233333D01*
X111573810Y-115266667D01*
X111730952Y-115266667D01*
X111940476Y-115233333D01*
X112045238Y-115200000D01*
X112150000Y-115133333D01*
X112202381Y-115033333D01*
X112202381Y-114966667D01*
X112150000Y-114866667D01*
X112097619Y-114833333D01*
X111002381Y-114133333D02*
X112102381Y-114133333D01*
X111316667Y-113900000D01*
X112102381Y-113666667D01*
X111002381Y-113666667D01*
X111107143Y-112933333D02*
X111054762Y-112966667D01*
X111002381Y-113066667D01*
X111002381Y-113133333D01*
X111054762Y-113233333D01*
X111159524Y-113300000D01*
X111264286Y-113333333D01*
X111473810Y-113366667D01*
X111630952Y-113366667D01*
X111840476Y-113333333D01*
X111945238Y-113300000D01*
X112050000Y-113233333D01*
X112102381Y-113133333D01*
X112102381Y-113066667D01*
X112050000Y-112966667D01*
X111997619Y-112933333D01*
X111002381Y-112233333D02*
X111526190Y-112466667D01*
X111002381Y-112633333D02*
X112102381Y-112633333D01*
X112102381Y-112366667D01*
X112050000Y-112300000D01*
X111997619Y-112266667D01*
X111892857Y-112233333D01*
X111735714Y-112233333D01*
X111630952Y-112266667D01*
X111578571Y-112300000D01*
X111526190Y-112366667D01*
X111526190Y-112633333D01*
X112292000Y-114300000D02*
X112292000Y-112100000D01*
D12*
X142707107Y-96500000D02*
G75*
G03X142707107Y-96500000I-707107J0D01*
G01*
X142700000Y-91600000D02*
G75*
G03X142700000Y-91600000I-700000J0D01*
G01*
X142419047Y-91578571D02*
X141580952Y-91578571D01*
X142000000Y-91997619D02*
X142000000Y-91159524D01*
X142419047Y-96478571D02*
X141580952Y-96478571D01*
D11*
X139600000Y-89097619D02*
X139366667Y-90197619D01*
X139133334Y-89097619D01*
X138933334Y-90145238D02*
X138833334Y-90197619D01*
X138666667Y-90197619D01*
X138600000Y-90145238D01*
X138566667Y-90092857D01*
X138533334Y-89988095D01*
X138533334Y-89883333D01*
X138566667Y-89778571D01*
X138600000Y-89726190D01*
X138666667Y-89673810D01*
X138800000Y-89621429D01*
X138866667Y-89569048D01*
X138900000Y-89516667D01*
X138933334Y-89411905D01*
X138933334Y-89307143D01*
X138900000Y-89202381D01*
X138866667Y-89150000D01*
X138800000Y-89097619D01*
X138633334Y-89097619D01*
X138533334Y-89150000D01*
X138266667Y-90145238D02*
X138166667Y-90197619D01*
X138000000Y-90197619D01*
X137933333Y-90145238D01*
X137900000Y-90092857D01*
X137866667Y-89988095D01*
X137866667Y-89883333D01*
X137900000Y-89778571D01*
X137933333Y-89726190D01*
X138000000Y-89673810D01*
X138133333Y-89621429D01*
X138200000Y-89569048D01*
X138233333Y-89516667D01*
X138266667Y-89411905D01*
X138266667Y-89307143D01*
X138233333Y-89202381D01*
X138200000Y-89150000D01*
X138133333Y-89097619D01*
X137966667Y-89097619D01*
X137866667Y-89150000D01*
X141716666Y-90092857D02*
X141750000Y-90145238D01*
X141850000Y-90197619D01*
X141916666Y-90197619D01*
X142016666Y-90145238D01*
X142083333Y-90040476D01*
X142116666Y-89935714D01*
X142150000Y-89726190D01*
X142150000Y-89569048D01*
X142116666Y-89359524D01*
X142083333Y-89254762D01*
X142016666Y-89150000D01*
X141916666Y-89097619D01*
X141850000Y-89097619D01*
X141750000Y-89150000D01*
X141716666Y-89202381D01*
X141083333Y-90197619D02*
X141416666Y-90197619D01*
X141416666Y-89097619D01*
X140849999Y-90197619D02*
X140849999Y-89097619D01*
X140449999Y-90197619D02*
X140749999Y-89569048D01*
X140449999Y-89097619D02*
X140849999Y-89726190D01*
X144733333Y-89097619D02*
X144500000Y-90197619D01*
X144266667Y-89097619D01*
X144033333Y-90197619D02*
X144033333Y-89097619D01*
X143866667Y-89097619D01*
X143766667Y-89150000D01*
X143700000Y-89254762D01*
X143666667Y-89359524D01*
X143633333Y-89569048D01*
X143633333Y-89726190D01*
X143666667Y-89935714D01*
X143700000Y-90040476D01*
X143766667Y-90145238D01*
X143866667Y-90197619D01*
X144033333Y-90197619D01*
X143333333Y-90197619D02*
X143333333Y-89097619D01*
X143166667Y-89097619D01*
X143066667Y-89150000D01*
X143000000Y-89254762D01*
X142966667Y-89359524D01*
X142933333Y-89569048D01*
X142933333Y-89726190D01*
X142966667Y-89935714D01*
X143000000Y-90040476D01*
X143066667Y-90145238D01*
X143166667Y-90197619D01*
X143333333Y-90197619D01*
X146649999Y-90197619D02*
X146649999Y-89097619D01*
X146483333Y-89097619D01*
X146383333Y-89150000D01*
X146316666Y-89254762D01*
X146283333Y-89359524D01*
X146249999Y-89569048D01*
X146249999Y-89726190D01*
X146283333Y-89935714D01*
X146316666Y-90040476D01*
X146383333Y-90145238D01*
X146483333Y-90197619D01*
X146649999Y-90197619D01*
X145949999Y-90197619D02*
X145949999Y-89097619D01*
X149016666Y-90292857D02*
X149050000Y-90345238D01*
X149150000Y-90397619D01*
X149216666Y-90397619D01*
X149316666Y-90345238D01*
X149383333Y-90240476D01*
X149416666Y-90135714D01*
X149450000Y-89926190D01*
X149450000Y-89769048D01*
X149416666Y-89559524D01*
X149383333Y-89454762D01*
X149316666Y-89350000D01*
X149216666Y-89297619D01*
X149150000Y-89297619D01*
X149050000Y-89350000D01*
X149016666Y-89402381D01*
X148750000Y-90345238D02*
X148650000Y-90397619D01*
X148483333Y-90397619D01*
X148416666Y-90345238D01*
X148383333Y-90292857D01*
X148350000Y-90188095D01*
X148350000Y-90083333D01*
X148383333Y-89978571D01*
X148416666Y-89926190D01*
X148483333Y-89873810D01*
X148616666Y-89821429D01*
X148683333Y-89769048D01*
X148716666Y-89716667D01*
X148750000Y-89611905D01*
X148750000Y-89507143D01*
X148716666Y-89402381D01*
X148683333Y-89350000D01*
X148616666Y-89297619D01*
X148450000Y-89297619D01*
X148350000Y-89350000D01*
X149583333Y-89108000D02*
X148216666Y-89108000D01*
X169297619Y-124516667D02*
X168773810Y-124283333D01*
X169297619Y-124116667D02*
X168197619Y-124116667D01*
X168197619Y-124383333D01*
X168250000Y-124450000D01*
X168302381Y-124483333D01*
X168407143Y-124516667D01*
X168564286Y-124516667D01*
X168669048Y-124483333D01*
X168721429Y-124450000D01*
X168773810Y-124383333D01*
X168773810Y-124116667D01*
X169245238Y-124783333D02*
X169297619Y-124883333D01*
X169297619Y-125050000D01*
X169245238Y-125116667D01*
X169192857Y-125150000D01*
X169088095Y-125183333D01*
X168983333Y-125183333D01*
X168878571Y-125150000D01*
X168826190Y-125116667D01*
X168773810Y-125050000D01*
X168721429Y-124916667D01*
X168669048Y-124850000D01*
X168616667Y-124816667D01*
X168511905Y-124783333D01*
X168407143Y-124783333D01*
X168302381Y-124816667D01*
X168250000Y-124850000D01*
X168197619Y-124916667D01*
X168197619Y-125083333D01*
X168250000Y-125183333D01*
X168197619Y-125383334D02*
X168197619Y-125783334D01*
X169297619Y-125583334D02*
X168197619Y-125583334D01*
X168008000Y-123950000D02*
X168008000Y-125850000D01*
X168150000Y-126866667D02*
X168097619Y-126800001D01*
X168097619Y-126700001D01*
X168150000Y-126600001D01*
X168254762Y-126533334D01*
X168359524Y-126500001D01*
X168569048Y-126466667D01*
X168726190Y-126466667D01*
X168935714Y-126500001D01*
X169040476Y-126533334D01*
X169145238Y-126600001D01*
X169197619Y-126700001D01*
X169197619Y-126766667D01*
X169145238Y-126866667D01*
X169092857Y-126900001D01*
X168726190Y-126900001D01*
X168726190Y-126766667D01*
X169197619Y-127200001D02*
X168097619Y-127200001D01*
X169197619Y-127600001D01*
X168097619Y-127600001D01*
X169197619Y-127933334D02*
X168097619Y-127933334D01*
X168097619Y-128100000D01*
X168150000Y-128200000D01*
X168254762Y-128266667D01*
X168359524Y-128300000D01*
X168569048Y-128333334D01*
X168726190Y-128333334D01*
X168935714Y-128300000D01*
X169040476Y-128266667D01*
X169145238Y-128200000D01*
X169197619Y-128100000D01*
X169197619Y-127933334D01*
X169145238Y-129050000D02*
X169197619Y-129150000D01*
X169197619Y-129316667D01*
X169145238Y-129383334D01*
X169092857Y-129416667D01*
X168988095Y-129450000D01*
X168883333Y-129450000D01*
X168778571Y-129416667D01*
X168726190Y-129383334D01*
X168673810Y-129316667D01*
X168621429Y-129183334D01*
X168569048Y-129116667D01*
X168516667Y-129083334D01*
X168411905Y-129050000D01*
X168307143Y-129050000D01*
X168202381Y-129083334D01*
X168150000Y-129116667D01*
X168097619Y-129183334D01*
X168097619Y-129350000D01*
X168150000Y-129450000D01*
X169197619Y-129750001D02*
X168097619Y-129750001D01*
X168097619Y-129916667D01*
X168150000Y-130016667D01*
X168254762Y-130083334D01*
X168359524Y-130116667D01*
X168569048Y-130150001D01*
X168726190Y-130150001D01*
X168935714Y-130116667D01*
X169040476Y-130083334D01*
X169145238Y-130016667D01*
X169197619Y-129916667D01*
X169197619Y-129750001D01*
X168883333Y-130416667D02*
X168883333Y-130750001D01*
X169197619Y-130350001D02*
X168097619Y-130583334D01*
X169197619Y-130816667D01*
X169195238Y-131616666D02*
X169247619Y-131716666D01*
X169247619Y-131883333D01*
X169195238Y-131950000D01*
X169142857Y-131983333D01*
X169038095Y-132016666D01*
X168933333Y-132016666D01*
X168828571Y-131983333D01*
X168776190Y-131950000D01*
X168723810Y-131883333D01*
X168671429Y-131750000D01*
X168619048Y-131683333D01*
X168566667Y-131650000D01*
X168461905Y-131616666D01*
X168357143Y-131616666D01*
X168252381Y-131650000D01*
X168200000Y-131683333D01*
X168147619Y-131750000D01*
X168147619Y-131916666D01*
X168200000Y-132016666D01*
X169142857Y-132716667D02*
X169195238Y-132683333D01*
X169247619Y-132583333D01*
X169247619Y-132516667D01*
X169195238Y-132416667D01*
X169090476Y-132350000D01*
X168985714Y-132316667D01*
X168776190Y-132283333D01*
X168619048Y-132283333D01*
X168409524Y-132316667D01*
X168304762Y-132350000D01*
X168200000Y-132416667D01*
X168147619Y-132516667D01*
X168147619Y-132583333D01*
X168200000Y-132683333D01*
X168252381Y-132716667D01*
X169247619Y-133350000D02*
X169247619Y-133016667D01*
X168147619Y-133016667D01*
X168197619Y-134216667D02*
X169297619Y-134450000D01*
X168197619Y-134683333D01*
X169297619Y-134916667D02*
X168197619Y-134916667D01*
X168197619Y-135083333D01*
X168250000Y-135183333D01*
X168354762Y-135250000D01*
X168459524Y-135283333D01*
X168669048Y-135316667D01*
X168826190Y-135316667D01*
X169035714Y-135283333D01*
X169140476Y-135250000D01*
X169245238Y-135183333D01*
X169297619Y-135083333D01*
X169297619Y-134916667D01*
X169297619Y-135616667D02*
X168197619Y-135616667D01*
X168197619Y-135783333D01*
X168250000Y-135883333D01*
X168354762Y-135950000D01*
X168459524Y-135983333D01*
X168669048Y-136016667D01*
X168826190Y-136016667D01*
X169035714Y-135983333D01*
X169140476Y-135950000D01*
X169245238Y-135883333D01*
X169297619Y-135783333D01*
X169297619Y-135616667D01*
D12*
X134788095Y-142600000D02*
X134892857Y-142547619D01*
X135050000Y-142547619D01*
X135207142Y-142600000D01*
X135311904Y-142704762D01*
X135364285Y-142809524D01*
X135416666Y-143019048D01*
X135416666Y-143176190D01*
X135364285Y-143385714D01*
X135311904Y-143490476D01*
X135207142Y-143595238D01*
X135050000Y-143647619D01*
X134945238Y-143647619D01*
X134788095Y-143595238D01*
X134735714Y-143542857D01*
X134735714Y-143176190D01*
X134945238Y-143176190D01*
X134264285Y-143647619D02*
X134264285Y-142547619D01*
X133635714Y-143647619D01*
X133635714Y-142547619D01*
X133111904Y-143647619D02*
X133111904Y-142547619D01*
X132849999Y-142547619D01*
X132692857Y-142600000D01*
X132588095Y-142704762D01*
X132535714Y-142809524D01*
X132483333Y-143019048D01*
X132483333Y-143176190D01*
X132535714Y-143385714D01*
X132588095Y-143490476D01*
X132692857Y-143595238D01*
X132849999Y-143647619D01*
X133111904Y-143647619D01*
X126883333Y-143747619D02*
X127249999Y-143223810D01*
X127511904Y-143747619D02*
X127511904Y-142647619D01*
X127092857Y-142647619D01*
X126988095Y-142700000D01*
X126935714Y-142752381D01*
X126883333Y-142857143D01*
X126883333Y-143014286D01*
X126935714Y-143119048D01*
X126988095Y-143171429D01*
X127092857Y-143223810D01*
X127511904Y-143223810D01*
X126516666Y-142647619D02*
X125783333Y-143747619D01*
X125783333Y-142647619D02*
X126516666Y-143747619D01*
X125038095Y-142547619D02*
X124409524Y-142547619D01*
X124723809Y-143647619D02*
X124723809Y-142547619D01*
X124147619Y-142547619D02*
X123414286Y-143647619D01*
X123414286Y-142547619D02*
X124147619Y-143647619D01*
X152528571Y-117578571D02*
X152528571Y-116078571D01*
X152014285Y-117578571D02*
X152014285Y-116792857D01*
X152071428Y-116650000D01*
X152185714Y-116578571D01*
X152357142Y-116578571D01*
X152471428Y-116650000D01*
X152528571Y-116721429D01*
X151614285Y-116578571D02*
X151157142Y-116578571D01*
X151442857Y-116078571D02*
X151442857Y-117364286D01*
X151385714Y-117507143D01*
X151271428Y-117578571D01*
X151157142Y-117578571D01*
X150928571Y-116578571D02*
X150471428Y-116578571D01*
X150757143Y-116078571D02*
X150757143Y-117364286D01*
X150700000Y-117507143D01*
X150585714Y-117578571D01*
X150471428Y-117578571D01*
X150071429Y-116578571D02*
X150071429Y-118078571D01*
X150071429Y-116650000D02*
X149957143Y-116578571D01*
X149728572Y-116578571D01*
X149614286Y-116650000D01*
X149557143Y-116721429D01*
X149500000Y-116864286D01*
X149500000Y-117292857D01*
X149557143Y-117435714D01*
X149614286Y-117507143D01*
X149728572Y-117578571D01*
X149957143Y-117578571D01*
X150071429Y-117507143D01*
X149042858Y-117507143D02*
X148928572Y-117578571D01*
X148700000Y-117578571D01*
X148585715Y-117507143D01*
X148528572Y-117364286D01*
X148528572Y-117292857D01*
X148585715Y-117150000D01*
X148700000Y-117078571D01*
X148871429Y-117078571D01*
X148985715Y-117007143D01*
X149042858Y-116864286D01*
X149042858Y-116792857D01*
X148985715Y-116650000D01*
X148871429Y-116578571D01*
X148700000Y-116578571D01*
X148585715Y-116650000D01*
X148014286Y-117435714D02*
X147957143Y-117507143D01*
X148014286Y-117578571D01*
X148071429Y-117507143D01*
X148014286Y-117435714D01*
X148014286Y-117578571D01*
X148014286Y-116650000D02*
X147957143Y-116721429D01*
X148014286Y-116792857D01*
X148071429Y-116721429D01*
X148014286Y-116650000D01*
X148014286Y-116792857D01*
X146585714Y-116007143D02*
X147614285Y-117935714D01*
X145328571Y-116007143D02*
X146357142Y-117935714D01*
X144414285Y-116578571D02*
X144414285Y-117792857D01*
X144471428Y-117935714D01*
X144528571Y-118007143D01*
X144642856Y-118078571D01*
X144814285Y-118078571D01*
X144928571Y-118007143D01*
X144414285Y-117507143D02*
X144528571Y-117578571D01*
X144757142Y-117578571D01*
X144871428Y-117507143D01*
X144928571Y-117435714D01*
X144985714Y-117292857D01*
X144985714Y-116864286D01*
X144928571Y-116721429D01*
X144871428Y-116650000D01*
X144757142Y-116578571D01*
X144528571Y-116578571D01*
X144414285Y-116650000D01*
X143842857Y-117578571D02*
X143842857Y-116578571D01*
X143842857Y-116078571D02*
X143900000Y-116150000D01*
X143842857Y-116221429D01*
X143785714Y-116150000D01*
X143842857Y-116078571D01*
X143842857Y-116221429D01*
X143442856Y-116578571D02*
X142985713Y-116578571D01*
X143271428Y-116078571D02*
X143271428Y-117364286D01*
X143214285Y-117507143D01*
X143099999Y-117578571D01*
X142985713Y-117578571D01*
X142585714Y-117578571D02*
X142585714Y-116078571D01*
X142071428Y-117578571D02*
X142071428Y-116792857D01*
X142128571Y-116650000D01*
X142242857Y-116578571D01*
X142414285Y-116578571D01*
X142528571Y-116650000D01*
X142585714Y-116721429D01*
X140985714Y-116578571D02*
X140985714Y-117578571D01*
X141500000Y-116578571D02*
X141500000Y-117364286D01*
X141442857Y-117507143D01*
X141328571Y-117578571D01*
X141157143Y-117578571D01*
X141042857Y-117507143D01*
X140985714Y-117435714D01*
X140414286Y-117578571D02*
X140414286Y-116078571D01*
X140414286Y-116650000D02*
X140300000Y-116578571D01*
X140071429Y-116578571D01*
X139957143Y-116650000D01*
X139900000Y-116721429D01*
X139842857Y-116864286D01*
X139842857Y-117292857D01*
X139900000Y-117435714D01*
X139957143Y-117507143D01*
X140071429Y-117578571D01*
X140300000Y-117578571D01*
X140414286Y-117507143D01*
X139328572Y-117435714D02*
X139271429Y-117507143D01*
X139328572Y-117578571D01*
X139385715Y-117507143D01*
X139328572Y-117435714D01*
X139328572Y-117578571D01*
X138242857Y-117507143D02*
X138357143Y-117578571D01*
X138585714Y-117578571D01*
X138700000Y-117507143D01*
X138757143Y-117435714D01*
X138814286Y-117292857D01*
X138814286Y-116864286D01*
X138757143Y-116721429D01*
X138700000Y-116650000D01*
X138585714Y-116578571D01*
X138357143Y-116578571D01*
X138242857Y-116650000D01*
X137557143Y-117578571D02*
X137671429Y-117507143D01*
X137728572Y-117435714D01*
X137785715Y-117292857D01*
X137785715Y-116864286D01*
X137728572Y-116721429D01*
X137671429Y-116650000D01*
X137557143Y-116578571D01*
X137385715Y-116578571D01*
X137271429Y-116650000D01*
X137214286Y-116721429D01*
X137157143Y-116864286D01*
X137157143Y-117292857D01*
X137214286Y-117435714D01*
X137271429Y-117507143D01*
X137385715Y-117578571D01*
X137557143Y-117578571D01*
X136642858Y-117578571D02*
X136642858Y-116578571D01*
X136642858Y-116721429D02*
X136585715Y-116650000D01*
X136471429Y-116578571D01*
X136300001Y-116578571D01*
X136185715Y-116650000D01*
X136128572Y-116792857D01*
X136128572Y-117578571D01*
X136128572Y-116792857D02*
X136071429Y-116650000D01*
X135957143Y-116578571D01*
X135785715Y-116578571D01*
X135671429Y-116650000D01*
X135614286Y-116792857D01*
X135614286Y-117578571D01*
X134185715Y-116007143D02*
X135214286Y-117935714D01*
X133100000Y-117435714D02*
X133157143Y-117507143D01*
X133328572Y-117578571D01*
X133442858Y-117578571D01*
X133614286Y-117507143D01*
X133728572Y-117364286D01*
X133785715Y-117221429D01*
X133842858Y-116935714D01*
X133842858Y-116721429D01*
X133785715Y-116435714D01*
X133728572Y-116292857D01*
X133614286Y-116150000D01*
X133442858Y-116078571D01*
X133328572Y-116078571D01*
X133157143Y-116150000D01*
X133100000Y-116221429D01*
X132414286Y-117578571D02*
X132528572Y-117507143D01*
X132585715Y-117364286D01*
X132585715Y-116078571D01*
X131785715Y-117578571D02*
X131900001Y-117507143D01*
X131957144Y-117435714D01*
X132014287Y-117292857D01*
X132014287Y-116864286D01*
X131957144Y-116721429D01*
X131900001Y-116650000D01*
X131785715Y-116578571D01*
X131614287Y-116578571D01*
X131500001Y-116650000D01*
X131442858Y-116721429D01*
X131385715Y-116864286D01*
X131385715Y-117292857D01*
X131442858Y-117435714D01*
X131500001Y-117507143D01*
X131614287Y-117578571D01*
X131785715Y-117578571D01*
X130357144Y-117507143D02*
X130471430Y-117578571D01*
X130700001Y-117578571D01*
X130814287Y-117507143D01*
X130871430Y-117435714D01*
X130928573Y-117292857D01*
X130928573Y-116864286D01*
X130871430Y-116721429D01*
X130814287Y-116650000D01*
X130700001Y-116578571D01*
X130471430Y-116578571D01*
X130357144Y-116650000D01*
X129842859Y-117578571D02*
X129842859Y-116078571D01*
X129728573Y-117007143D02*
X129385716Y-117578571D01*
X129385716Y-116578571D02*
X129842859Y-117150000D01*
X128985715Y-116078571D02*
X128700001Y-117578571D01*
X128471430Y-116507143D01*
X128242858Y-117578571D01*
X127957144Y-116078571D01*
X127328572Y-117578571D02*
X127442858Y-117507143D01*
X127500001Y-117435714D01*
X127557144Y-117292857D01*
X127557144Y-116864286D01*
X127500001Y-116721429D01*
X127442858Y-116650000D01*
X127328572Y-116578571D01*
X127157144Y-116578571D01*
X127042858Y-116650000D01*
X126985715Y-116721429D01*
X126928572Y-116864286D01*
X126928572Y-117292857D01*
X126985715Y-117435714D01*
X127042858Y-117507143D01*
X127157144Y-117578571D01*
X127328572Y-117578571D01*
X126414287Y-117578571D02*
X126414287Y-116578571D01*
X126414287Y-116864286D02*
X126357144Y-116721429D01*
X126300001Y-116650000D01*
X126185715Y-116578571D01*
X126071430Y-116578571D01*
X125671430Y-117578571D02*
X125671430Y-116078571D01*
X125557144Y-117007143D02*
X125214287Y-117578571D01*
X125214287Y-116578571D02*
X125671430Y-117150000D01*
X124757144Y-117507143D02*
X124642858Y-117578571D01*
X124414286Y-117578571D01*
X124300001Y-117507143D01*
X124242858Y-117364286D01*
X124242858Y-117292857D01*
X124300001Y-117150000D01*
X124414286Y-117078571D01*
X124585715Y-117078571D01*
X124700001Y-117007143D01*
X124757144Y-116864286D01*
X124757144Y-116792857D01*
X124700001Y-116650000D01*
X124585715Y-116578571D01*
X124414286Y-116578571D01*
X124300001Y-116650000D01*
X123500000Y-116078571D02*
X123385715Y-116078571D01*
X123271429Y-116150000D01*
X123214286Y-116221429D01*
X123157143Y-116364286D01*
X123100000Y-116650000D01*
X123100000Y-117007143D01*
X123157143Y-117292857D01*
X123214286Y-117435714D01*
X123271429Y-117507143D01*
X123385715Y-117578571D01*
X123500000Y-117578571D01*
X123614286Y-117507143D01*
X123671429Y-117435714D01*
X123728572Y-117292857D01*
X123785715Y-117007143D01*
X123785715Y-116650000D01*
X123728572Y-116364286D01*
X123671429Y-116221429D01*
X123614286Y-116150000D01*
X123500000Y-116078571D01*
X122357143Y-116078571D02*
X122242858Y-116078571D01*
X122128572Y-116150000D01*
X122071429Y-116221429D01*
X122014286Y-116364286D01*
X121957143Y-116650000D01*
X121957143Y-117007143D01*
X122014286Y-117292857D01*
X122071429Y-117435714D01*
X122128572Y-117507143D01*
X122242858Y-117578571D01*
X122357143Y-117578571D01*
X122471429Y-117507143D01*
X122528572Y-117435714D01*
X122585715Y-117292857D01*
X122642858Y-117007143D01*
X122642858Y-116650000D01*
X122585715Y-116364286D01*
X122528572Y-116221429D01*
X122471429Y-116150000D01*
X122357143Y-116078571D01*
X120814286Y-117578571D02*
X121500001Y-117578571D01*
X121157143Y-117578571D02*
X121157143Y-116078571D01*
X121271429Y-116292857D01*
X121385715Y-116435714D01*
X121500001Y-116507143D01*
X160804988Y-106300000D02*
G75*
G03X160804988Y-106300000I-1004988J0D01*
G01*
X168250000Y-116638095D02*
X168197619Y-116533333D01*
X168197619Y-116376190D01*
X168250000Y-116219048D01*
X168354762Y-116114286D01*
X168459524Y-116061905D01*
X168669048Y-116009524D01*
X168826190Y-116009524D01*
X169035714Y-116061905D01*
X169140476Y-116114286D01*
X169245238Y-116219048D01*
X169297619Y-116376190D01*
X169297619Y-116480952D01*
X169245238Y-116638095D01*
X169192857Y-116690476D01*
X168826190Y-116690476D01*
X168826190Y-116480952D01*
X132642856Y-138042857D02*
X133328571Y-138042857D01*
X132985713Y-138042857D02*
X132985713Y-136842857D01*
X133099999Y-137014286D01*
X133214285Y-137128571D01*
X133328571Y-137185714D01*
X131499999Y-138042857D02*
X132185714Y-138042857D01*
X131842856Y-138042857D02*
X131842856Y-136842857D01*
X131957142Y-137014286D01*
X132071428Y-137128571D01*
X132185714Y-137185714D01*
X130414285Y-136842857D02*
X130985714Y-136842857D01*
X131042857Y-137414286D01*
X130985714Y-137357143D01*
X130871428Y-137300000D01*
X130585714Y-137300000D01*
X130471428Y-137357143D01*
X130414285Y-137414286D01*
X130357142Y-137528571D01*
X130357142Y-137814286D01*
X130414285Y-137928571D01*
X130471428Y-137985714D01*
X130585714Y-138042857D01*
X130871428Y-138042857D01*
X130985714Y-137985714D01*
X131042857Y-137928571D01*
X129900000Y-136957143D02*
X129842857Y-136900000D01*
X129728571Y-136842857D01*
X129442857Y-136842857D01*
X129328571Y-136900000D01*
X129271428Y-136957143D01*
X129214285Y-137071429D01*
X129214285Y-137185714D01*
X129271428Y-137357143D01*
X129957142Y-138042857D01*
X129214285Y-138042857D01*
X128471428Y-136842857D02*
X128357143Y-136842857D01*
X128242857Y-136900000D01*
X128185714Y-136957143D01*
X128128571Y-137071429D01*
X128071428Y-137300000D01*
X128071428Y-137585714D01*
X128128571Y-137814286D01*
X128185714Y-137928571D01*
X128242857Y-137985714D01*
X128357143Y-138042857D01*
X128471428Y-138042857D01*
X128585714Y-137985714D01*
X128642857Y-137928571D01*
X128700000Y-137814286D01*
X128757143Y-137585714D01*
X128757143Y-137300000D01*
X128700000Y-137071429D01*
X128642857Y-136957143D01*
X128585714Y-136900000D01*
X128471428Y-136842857D01*
X127328571Y-136842857D02*
X127214286Y-136842857D01*
X127100000Y-136900000D01*
X127042857Y-136957143D01*
X126985714Y-137071429D01*
X126928571Y-137300000D01*
X126928571Y-137585714D01*
X126985714Y-137814286D01*
X127042857Y-137928571D01*
X127100000Y-137985714D01*
X127214286Y-138042857D01*
X127328571Y-138042857D01*
X127442857Y-137985714D01*
X127500000Y-137928571D01*
X127557143Y-137814286D01*
X127614286Y-137585714D01*
X127614286Y-137300000D01*
X127557143Y-137071429D01*
X127500000Y-136957143D01*
X127442857Y-136900000D01*
X127328571Y-136842857D01*
X125500000Y-138042857D02*
X125500000Y-136842857D01*
X125500000Y-137300000D02*
X125385714Y-137242857D01*
X125157143Y-137242857D01*
X125042857Y-137300000D01*
X124985714Y-137357143D01*
X124928571Y-137471429D01*
X124928571Y-137814286D01*
X124985714Y-137928571D01*
X125042857Y-137985714D01*
X125157143Y-138042857D01*
X125385714Y-138042857D01*
X125500000Y-137985714D01*
X124414286Y-137242857D02*
X124414286Y-138442857D01*
X124414286Y-137300000D02*
X124300000Y-137242857D01*
X124071429Y-137242857D01*
X123957143Y-137300000D01*
X123900000Y-137357143D01*
X123842857Y-137471429D01*
X123842857Y-137814286D01*
X123900000Y-137928571D01*
X123957143Y-137985714D01*
X124071429Y-138042857D01*
X124300000Y-138042857D01*
X124414286Y-137985714D01*
X123385715Y-137985714D02*
X123271429Y-138042857D01*
X123042857Y-138042857D01*
X122928572Y-137985714D01*
X122871429Y-137871429D01*
X122871429Y-137814286D01*
X122928572Y-137700000D01*
X123042857Y-137642857D01*
X123214286Y-137642857D01*
X123328572Y-137585714D01*
X123385715Y-137471429D01*
X123385715Y-137414286D01*
X123328572Y-137300000D01*
X123214286Y-137242857D01*
X123042857Y-137242857D01*
X122928572Y-137300000D01*
X158545238Y-103969048D02*
X158597619Y-104126191D01*
X158597619Y-104388095D01*
X158545238Y-104492857D01*
X158492857Y-104545238D01*
X158388095Y-104597619D01*
X158283333Y-104597619D01*
X158178571Y-104545238D01*
X158126190Y-104492857D01*
X158073810Y-104388095D01*
X158021429Y-104178572D01*
X157969048Y-104073810D01*
X157916667Y-104021429D01*
X157811905Y-103969048D01*
X157707143Y-103969048D01*
X157602381Y-104021429D01*
X157550000Y-104073810D01*
X157497619Y-104178572D01*
X157497619Y-104440476D01*
X157550000Y-104597619D01*
X158597619Y-105069048D02*
X157497619Y-105069048D01*
X157497619Y-105488095D01*
X157550000Y-105592857D01*
X157602381Y-105645238D01*
X157707143Y-105697619D01*
X157864286Y-105697619D01*
X157969048Y-105645238D01*
X158021429Y-105592857D01*
X158073810Y-105488095D01*
X158073810Y-105069048D01*
X158021429Y-106169048D02*
X158021429Y-106535714D01*
X158597619Y-106692857D02*
X158597619Y-106169048D01*
X157497619Y-106169048D01*
X157497619Y-106692857D01*
X158283333Y-107111905D02*
X158283333Y-107635714D01*
X158597619Y-107007143D02*
X157497619Y-107373810D01*
X158597619Y-107740476D01*
X158597619Y-108107143D02*
X157497619Y-108107143D01*
X158597619Y-108735714D02*
X157969048Y-108264286D01*
X157497619Y-108735714D02*
X158126190Y-108107143D01*
X158021429Y-109207143D02*
X158021429Y-109573809D01*
X158597619Y-109730952D02*
X158597619Y-109207143D01*
X157497619Y-109207143D01*
X157497619Y-109730952D01*
X158597619Y-110830952D02*
X158073810Y-110464286D01*
X158597619Y-110202381D02*
X157497619Y-110202381D01*
X157497619Y-110621428D01*
X157550000Y-110726190D01*
X157602381Y-110778571D01*
X157707143Y-110830952D01*
X157864286Y-110830952D01*
X157969048Y-110778571D01*
X158021429Y-110726190D01*
X158073810Y-110621428D01*
X158073810Y-110202381D01*
X160850000Y-95500000D02*
G75*
G03X160850000Y-95500000I-1000000J0D01*
G01*
X160800000Y-102100000D02*
G75*
G03X160800000Y-102100000I-1000000J0D01*
G01*
X160900000Y-110500000D02*
G75*
G03X160900000Y-110500000I-1000000J0D01*
G01*
X169700000Y-116450000D02*
G75*
G03X169700000Y-116450000I-1000000J0D01*
G01*
D13*
X159814286Y-94890476D02*
X159814286Y-96109524D01*
X159814286Y-101490476D02*
X159814286Y-102709524D01*
X160423810Y-102100000D02*
X159204762Y-102100000D01*
D12*
X158697619Y-94109524D02*
X157597619Y-94109524D01*
X157597619Y-94528571D01*
X157650000Y-94633333D01*
X157702381Y-94685714D01*
X157807143Y-94738095D01*
X157964286Y-94738095D01*
X158069048Y-94685714D01*
X158121429Y-94633333D01*
X158173810Y-94528571D01*
X158173810Y-94109524D01*
X157597619Y-95419048D02*
X157597619Y-95628571D01*
X157650000Y-95733333D01*
X157754762Y-95838095D01*
X157964286Y-95890476D01*
X158330952Y-95890476D01*
X158540476Y-95838095D01*
X158645238Y-95733333D01*
X158697619Y-95628571D01*
X158697619Y-95419048D01*
X158645238Y-95314286D01*
X158540476Y-95209524D01*
X158330952Y-95157143D01*
X157964286Y-95157143D01*
X157754762Y-95209524D01*
X157650000Y-95314286D01*
X157597619Y-95419048D01*
X157597619Y-96257143D02*
X158697619Y-96519048D01*
X157911905Y-96728571D01*
X158697619Y-96938095D01*
X157597619Y-97200000D01*
X158121429Y-97619048D02*
X158121429Y-97985714D01*
X158697619Y-98142857D02*
X158697619Y-97619048D01*
X157597619Y-97619048D01*
X157597619Y-98142857D01*
X158697619Y-99242857D02*
X158173810Y-98876191D01*
X158697619Y-98614286D02*
X157597619Y-98614286D01*
X157597619Y-99033333D01*
X157650000Y-99138095D01*
X157702381Y-99190476D01*
X157807143Y-99242857D01*
X157964286Y-99242857D01*
X158069048Y-99190476D01*
X158121429Y-99138095D01*
X158173810Y-99033333D01*
X158173810Y-98614286D01*
X151542856Y-119778571D02*
X151542856Y-118278571D01*
X151028570Y-119778571D02*
X151028570Y-118992857D01*
X151085713Y-118850000D01*
X151199999Y-118778571D01*
X151371427Y-118778571D01*
X151485713Y-118850000D01*
X151542856Y-118921429D01*
X150628570Y-118778571D02*
X150171427Y-118778571D01*
X150457142Y-118278571D02*
X150457142Y-119564286D01*
X150399999Y-119707143D01*
X150285713Y-119778571D01*
X150171427Y-119778571D01*
X149942856Y-118778571D02*
X149485713Y-118778571D01*
X149771428Y-118278571D02*
X149771428Y-119564286D01*
X149714285Y-119707143D01*
X149599999Y-119778571D01*
X149485713Y-119778571D01*
X149085714Y-118778571D02*
X149085714Y-120278571D01*
X149085714Y-118850000D02*
X148971428Y-118778571D01*
X148742857Y-118778571D01*
X148628571Y-118850000D01*
X148571428Y-118921429D01*
X148514285Y-119064286D01*
X148514285Y-119492857D01*
X148571428Y-119635714D01*
X148628571Y-119707143D01*
X148742857Y-119778571D01*
X148971428Y-119778571D01*
X149085714Y-119707143D01*
X148000000Y-119635714D02*
X147942857Y-119707143D01*
X148000000Y-119778571D01*
X148057143Y-119707143D01*
X148000000Y-119635714D01*
X148000000Y-119778571D01*
X148000000Y-118850000D02*
X147942857Y-118921429D01*
X148000000Y-118992857D01*
X148057143Y-118921429D01*
X148000000Y-118850000D01*
X148000000Y-118992857D01*
X146571428Y-118207143D02*
X147599999Y-120135714D01*
X145314285Y-118207143D02*
X146342856Y-120135714D01*
X144399999Y-119707143D02*
X144514285Y-119778571D01*
X144742856Y-119778571D01*
X144857142Y-119707143D01*
X144914285Y-119635714D01*
X144971428Y-119492857D01*
X144971428Y-119064286D01*
X144914285Y-118921429D01*
X144857142Y-118850000D01*
X144742856Y-118778571D01*
X144514285Y-118778571D01*
X144399999Y-118850000D01*
X143714285Y-119778571D02*
X143828571Y-119707143D01*
X143885714Y-119564286D01*
X143885714Y-118278571D01*
X143085714Y-119778571D02*
X143200000Y-119707143D01*
X143257143Y-119635714D01*
X143314286Y-119492857D01*
X143314286Y-119064286D01*
X143257143Y-118921429D01*
X143200000Y-118850000D01*
X143085714Y-118778571D01*
X142914286Y-118778571D01*
X142800000Y-118850000D01*
X142742857Y-118921429D01*
X142685714Y-119064286D01*
X142685714Y-119492857D01*
X142742857Y-119635714D01*
X142800000Y-119707143D01*
X142914286Y-119778571D01*
X143085714Y-119778571D01*
X141657143Y-119707143D02*
X141771429Y-119778571D01*
X142000000Y-119778571D01*
X142114286Y-119707143D01*
X142171429Y-119635714D01*
X142228572Y-119492857D01*
X142228572Y-119064286D01*
X142171429Y-118921429D01*
X142114286Y-118850000D01*
X142000000Y-118778571D01*
X141771429Y-118778571D01*
X141657143Y-118850000D01*
X141142858Y-119778571D02*
X141142858Y-118278571D01*
X141028572Y-119207143D02*
X140685715Y-119778571D01*
X140685715Y-118778571D02*
X141142858Y-119350000D01*
X140285714Y-118778571D02*
X140057143Y-119778571D01*
X139828572Y-119064286D01*
X139600000Y-119778571D01*
X139371429Y-118778571D01*
X138742857Y-119778571D02*
X138857143Y-119707143D01*
X138914286Y-119635714D01*
X138971429Y-119492857D01*
X138971429Y-119064286D01*
X138914286Y-118921429D01*
X138857143Y-118850000D01*
X138742857Y-118778571D01*
X138571429Y-118778571D01*
X138457143Y-118850000D01*
X138400000Y-118921429D01*
X138342857Y-119064286D01*
X138342857Y-119492857D01*
X138400000Y-119635714D01*
X138457143Y-119707143D01*
X138571429Y-119778571D01*
X138742857Y-119778571D01*
X137828572Y-119778571D02*
X137828572Y-118778571D01*
X137828572Y-119064286D02*
X137771429Y-118921429D01*
X137714286Y-118850000D01*
X137600000Y-118778571D01*
X137485715Y-118778571D01*
X137085715Y-119778571D02*
X137085715Y-118278571D01*
X136971429Y-119207143D02*
X136628572Y-119778571D01*
X136628572Y-118778571D02*
X137085715Y-119350000D01*
X136171429Y-119707143D02*
X136057143Y-119778571D01*
X135828571Y-119778571D01*
X135714286Y-119707143D01*
X135657143Y-119564286D01*
X135657143Y-119492857D01*
X135714286Y-119350000D01*
X135828571Y-119278571D01*
X136000000Y-119278571D01*
X136114286Y-119207143D01*
X136171429Y-119064286D01*
X136171429Y-118992857D01*
X136114286Y-118850000D01*
X136000000Y-118778571D01*
X135828571Y-118778571D01*
X135714286Y-118850000D01*
X134914285Y-118278571D02*
X134800000Y-118278571D01*
X134685714Y-118350000D01*
X134628571Y-118421429D01*
X134571428Y-118564286D01*
X134514285Y-118850000D01*
X134514285Y-119207143D01*
X134571428Y-119492857D01*
X134628571Y-119635714D01*
X134685714Y-119707143D01*
X134800000Y-119778571D01*
X134914285Y-119778571D01*
X135028571Y-119707143D01*
X135085714Y-119635714D01*
X135142857Y-119492857D01*
X135200000Y-119207143D01*
X135200000Y-118850000D01*
X135142857Y-118564286D01*
X135085714Y-118421429D01*
X135028571Y-118350000D01*
X134914285Y-118278571D01*
X133371428Y-119778571D02*
X134057143Y-119778571D01*
X133714285Y-119778571D02*
X133714285Y-118278571D01*
X133828571Y-118492857D01*
X133942857Y-118635714D01*
X134057143Y-118707143D01*
X132857143Y-119635714D02*
X132800000Y-119707143D01*
X132857143Y-119778571D01*
X132914286Y-119707143D01*
X132857143Y-119635714D01*
X132857143Y-119778571D01*
X132285714Y-119778571D02*
X132285714Y-118278571D01*
X132285714Y-118850000D02*
X132171428Y-118778571D01*
X131942857Y-118778571D01*
X131828571Y-118850000D01*
X131771428Y-118921429D01*
X131714285Y-119064286D01*
X131714285Y-119492857D01*
X131771428Y-119635714D01*
X131828571Y-119707143D01*
X131942857Y-119778571D01*
X132171428Y-119778571D01*
X132285714Y-119707143D01*
X131028571Y-119778571D02*
X131142857Y-119707143D01*
X131200000Y-119564286D01*
X131200000Y-118278571D01*
X130400000Y-119778571D02*
X130514286Y-119707143D01*
X130571429Y-119635714D01*
X130628572Y-119492857D01*
X130628572Y-119064286D01*
X130571429Y-118921429D01*
X130514286Y-118850000D01*
X130400000Y-118778571D01*
X130228572Y-118778571D01*
X130114286Y-118850000D01*
X130057143Y-118921429D01*
X130000000Y-119064286D01*
X130000000Y-119492857D01*
X130057143Y-119635714D01*
X130114286Y-119707143D01*
X130228572Y-119778571D01*
X130400000Y-119778571D01*
X128971429Y-118778571D02*
X128971429Y-119992857D01*
X129028572Y-120135714D01*
X129085715Y-120207143D01*
X129200000Y-120278571D01*
X129371429Y-120278571D01*
X129485715Y-120207143D01*
X128971429Y-119707143D02*
X129085715Y-119778571D01*
X129314286Y-119778571D01*
X129428572Y-119707143D01*
X129485715Y-119635714D01*
X129542858Y-119492857D01*
X129542858Y-119064286D01*
X129485715Y-118921429D01*
X129428572Y-118850000D01*
X129314286Y-118778571D01*
X129085715Y-118778571D01*
X128971429Y-118850000D01*
X128457144Y-119707143D02*
X128342858Y-119778571D01*
X128114286Y-119778571D01*
X128000001Y-119707143D01*
X127942858Y-119564286D01*
X127942858Y-119492857D01*
X128000001Y-119350000D01*
X128114286Y-119278571D01*
X128285715Y-119278571D01*
X128400001Y-119207143D01*
X128457144Y-119064286D01*
X128457144Y-118992857D01*
X128400001Y-118850000D01*
X128285715Y-118778571D01*
X128114286Y-118778571D01*
X128000001Y-118850000D01*
X127428572Y-118778571D02*
X127428572Y-120278571D01*
X127428572Y-118850000D02*
X127314286Y-118778571D01*
X127085715Y-118778571D01*
X126971429Y-118850000D01*
X126914286Y-118921429D01*
X126857143Y-119064286D01*
X126857143Y-119492857D01*
X126914286Y-119635714D01*
X126971429Y-119707143D01*
X127085715Y-119778571D01*
X127314286Y-119778571D01*
X127428572Y-119707143D01*
X126171429Y-119778571D02*
X126285715Y-119707143D01*
X126342858Y-119635714D01*
X126400001Y-119492857D01*
X126400001Y-119064286D01*
X126342858Y-118921429D01*
X126285715Y-118850000D01*
X126171429Y-118778571D01*
X126000001Y-118778571D01*
X125885715Y-118850000D01*
X125828572Y-118921429D01*
X125771429Y-119064286D01*
X125771429Y-119492857D01*
X125828572Y-119635714D01*
X125885715Y-119707143D01*
X126000001Y-119778571D01*
X126171429Y-119778571D01*
X125428572Y-118778571D02*
X124971429Y-118778571D01*
X125257144Y-118278571D02*
X125257144Y-119564286D01*
X125200001Y-119707143D01*
X125085715Y-119778571D01*
X124971429Y-119778571D01*
X124571430Y-119635714D02*
X124514287Y-119707143D01*
X124571430Y-119778571D01*
X124628573Y-119707143D01*
X124571430Y-119635714D01*
X124571430Y-119778571D01*
X124000001Y-118778571D02*
X124000001Y-120064286D01*
X124057144Y-120207143D01*
X124171429Y-120278571D01*
X124228572Y-120278571D01*
X124000001Y-118278571D02*
X124057144Y-118350000D01*
X124000001Y-118421429D01*
X123942858Y-118350000D01*
X124000001Y-118278571D01*
X124000001Y-118421429D01*
X123428572Y-118778571D02*
X123428572Y-120278571D01*
X123428572Y-118850000D02*
X123314286Y-118778571D01*
X123085715Y-118778571D01*
X122971429Y-118850000D01*
X122914286Y-118921429D01*
X122857143Y-119064286D01*
X122857143Y-119492857D01*
X122914286Y-119635714D01*
X122971429Y-119707143D01*
X123085715Y-119778571D01*
X123314286Y-119778571D01*
X123428572Y-119707143D01*
X121485715Y-118207143D02*
X122514286Y-120135714D01*
D11*
X163752381Y-115621429D02*
X164752381Y-115921429D01*
X163752381Y-116221429D01*
X163752381Y-116692858D02*
X163752381Y-116864287D01*
X163800000Y-116950001D01*
X163895238Y-117035715D01*
X164085714Y-117078573D01*
X164419048Y-117078573D01*
X164609524Y-117035715D01*
X164704762Y-116950001D01*
X164752381Y-116864287D01*
X164752381Y-116692858D01*
X164704762Y-116607144D01*
X164609524Y-116521430D01*
X164419048Y-116478573D01*
X164085714Y-116478573D01*
X163895238Y-116521430D01*
X163800000Y-116607144D01*
X163752381Y-116692858D01*
X164752381Y-117892858D02*
X164752381Y-117464287D01*
X163752381Y-117464287D01*
X163752381Y-118192858D02*
X164561905Y-118192858D01*
X164657143Y-118235715D01*
X164704762Y-118278572D01*
X164752381Y-118364286D01*
X164752381Y-118535715D01*
X164704762Y-118621429D01*
X164657143Y-118664286D01*
X164561905Y-118707143D01*
X163752381Y-118707143D01*
X164752381Y-119135715D02*
X163752381Y-119135715D01*
X164466667Y-119435715D01*
X163752381Y-119735715D01*
X164752381Y-119735715D01*
X164228571Y-120164286D02*
X164228571Y-120464286D01*
X164752381Y-120592857D02*
X164752381Y-120164286D01*
X163752381Y-120164286D01*
X163752381Y-120592857D01*
D12*
X160497619Y-110261905D02*
X159397619Y-110261905D01*
X159397619Y-110680952D01*
X159450000Y-110785714D01*
X159502381Y-110838095D01*
X159607143Y-110890476D01*
X159764286Y-110890476D01*
X159869048Y-110838095D01*
X159921429Y-110785714D01*
X159973810Y-110680952D01*
X159973810Y-110261905D01*
X160347619Y-105985715D02*
X159247619Y-105985715D01*
X160347619Y-106614286D01*
X159247619Y-106614286D01*
X164847619Y-126523809D02*
X164847619Y-126000000D01*
X163747619Y-126000000D01*
X164742857Y-127519047D02*
X164795238Y-127466666D01*
X164847619Y-127309523D01*
X164847619Y-127204761D01*
X164795238Y-127047619D01*
X164690476Y-126942857D01*
X164585714Y-126890476D01*
X164376190Y-126838095D01*
X164219048Y-126838095D01*
X164009524Y-126890476D01*
X163904762Y-126942857D01*
X163800000Y-127047619D01*
X163747619Y-127204761D01*
X163747619Y-127309523D01*
X163800000Y-127466666D01*
X163852381Y-127519047D01*
X164847619Y-127990476D02*
X163747619Y-127990476D01*
X163747619Y-128252381D01*
X163800000Y-128409523D01*
X163904762Y-128514285D01*
X164009524Y-128566666D01*
X164219048Y-128619047D01*
X164376190Y-128619047D01*
X164585714Y-128566666D01*
X164690476Y-128514285D01*
X164795238Y-128409523D01*
X164847619Y-128252381D01*
X164847619Y-127990476D01*
X164428571Y-129090476D02*
X164428571Y-129928571D01*
X164847619Y-130452381D02*
X163747619Y-130452381D01*
X163852381Y-130923810D02*
X163800000Y-130976191D01*
X163747619Y-131080953D01*
X163747619Y-131342857D01*
X163800000Y-131447619D01*
X163852381Y-131500000D01*
X163957143Y-131552381D01*
X164061905Y-131552381D01*
X164219048Y-131500000D01*
X164847619Y-130871429D01*
X164847619Y-131552381D01*
X164742857Y-132652381D02*
X164795238Y-132600000D01*
X164847619Y-132442857D01*
X164847619Y-132338095D01*
X164795238Y-132180953D01*
X164690476Y-132076191D01*
X164585714Y-132023810D01*
X164376190Y-131971429D01*
X164219048Y-131971429D01*
X164009524Y-132023810D01*
X163904762Y-132076191D01*
X163800000Y-132180953D01*
X163747619Y-132338095D01*
X163747619Y-132442857D01*
X163800000Y-132600000D01*
X163852381Y-132652381D01*
X130633333Y-139742857D02*
X130685714Y-139795238D01*
X130842857Y-139847619D01*
X130947619Y-139847619D01*
X131104761Y-139795238D01*
X131209523Y-139690476D01*
X131261904Y-139585714D01*
X131314285Y-139376190D01*
X131314285Y-139219048D01*
X131261904Y-139009524D01*
X131209523Y-138904762D01*
X131104761Y-138800000D01*
X130947619Y-138747619D01*
X130842857Y-138747619D01*
X130685714Y-138800000D01*
X130633333Y-138852381D01*
X130161904Y-139847619D02*
X130161904Y-138747619D01*
X129533333Y-139847619D01*
X129533333Y-138747619D01*
X129009523Y-139428571D02*
X128171428Y-139428571D01*
X127647618Y-138747619D02*
X127647618Y-139638095D01*
X127595237Y-139742857D01*
X127542856Y-139795238D01*
X127438094Y-139847619D01*
X127228571Y-139847619D01*
X127123809Y-139795238D01*
X127071428Y-139742857D01*
X127019047Y-139638095D01*
X127019047Y-138747619D01*
X126547618Y-139533333D02*
X126023809Y-139533333D01*
X126652380Y-139847619D02*
X126285713Y-138747619D01*
X125919047Y-139847619D01*
X124923809Y-139847619D02*
X125290475Y-139323810D01*
X125552380Y-139847619D02*
X125552380Y-138747619D01*
X125133333Y-138747619D01*
X125028571Y-138800000D01*
X124976190Y-138852381D01*
X124923809Y-138957143D01*
X124923809Y-139114286D01*
X124976190Y-139219048D01*
X125028571Y-139271429D01*
X125133333Y-139323810D01*
X125552380Y-139323810D01*
X124609523Y-138747619D02*
X123980952Y-138747619D01*
X124295237Y-139847619D02*
X124295237Y-138747619D01*
X115207143Y-121802381D02*
X115154762Y-121854762D01*
X115102381Y-122011905D01*
X115102381Y-122116667D01*
X115154762Y-122273809D01*
X115259524Y-122378571D01*
X115364286Y-122430952D01*
X115573810Y-122483333D01*
X115730952Y-122483333D01*
X115940476Y-122430952D01*
X116045238Y-122378571D01*
X116150000Y-122273809D01*
X116202381Y-122116667D01*
X116202381Y-122011905D01*
X116150000Y-121854762D01*
X116097619Y-121802381D01*
X115102381Y-121330952D02*
X116202381Y-121330952D01*
X115102381Y-120702381D01*
X116202381Y-120702381D01*
X115521429Y-120178571D02*
X115521429Y-119340476D01*
X115102381Y-118816666D02*
X116202381Y-118816666D01*
X115207143Y-117664285D02*
X115154762Y-117716666D01*
X115102381Y-117873809D01*
X115102381Y-117978571D01*
X115154762Y-118135713D01*
X115259524Y-118240475D01*
X115364286Y-118292856D01*
X115573810Y-118345237D01*
X115730952Y-118345237D01*
X115940476Y-118292856D01*
X116045238Y-118240475D01*
X116150000Y-118135713D01*
X116202381Y-117978571D01*
X116202381Y-117873809D01*
X116150000Y-117716666D01*
X116097619Y-117664285D01*
X115154762Y-117245237D02*
X115102381Y-117088094D01*
X115102381Y-116826190D01*
X115154762Y-116721428D01*
X115207143Y-116669047D01*
X115311905Y-116616666D01*
X115416667Y-116616666D01*
X115521429Y-116669047D01*
X115573810Y-116721428D01*
X115626190Y-116826190D01*
X115678571Y-117035713D01*
X115730952Y-117140475D01*
X115783333Y-117192856D01*
X115888095Y-117245237D01*
X115992857Y-117245237D01*
X116097619Y-117192856D01*
X116150000Y-117140475D01*
X116202381Y-117035713D01*
X116202381Y-116773809D01*
X116150000Y-116616666D01*
X115102381Y-116145237D02*
X116202381Y-116145237D01*
X116202381Y-115726190D01*
X116150000Y-115621428D01*
X116097619Y-115569047D01*
X115992857Y-115516666D01*
X115835714Y-115516666D01*
X115730952Y-115569047D01*
X115678571Y-115621428D01*
X115626190Y-115726190D01*
X115626190Y-116145237D01*
D14*
X152954000Y-88000000D02*
X153970000Y-88762000D01*
X153970000Y-88762000D02*
X153970000Y-87238000D01*
X153970000Y-87238000D02*
X152954000Y-88000000D01*
X152192000Y-90540000D02*
X151430000Y-89524000D01*
X151430000Y-89524000D02*
X150668000Y-90540000D01*
X150668000Y-90540000D02*
X152192000Y-90540000D01*
D15*
X167564000Y-114000000D02*
X167564000Y-104000000D01*
D16*
X163540000Y-113064000D02*
X161000000Y-113064000D01*
X163540000Y-110016000D02*
X161000000Y-110016000D01*
X163540000Y-107984000D02*
X161000000Y-107984000D01*
X163540000Y-104936000D02*
X161000000Y-104936000D01*
X167096000Y-106460000D02*
G75*
G03X167096000Y-106460000I-2032000J0D01*
G01*
X167096000Y-111540000D02*
G75*
G03X167096000Y-111540000I-2032000J0D01*
G01*
X165064000Y-103920000D02*
X161000000Y-103920000D01*
X161000000Y-103920000D02*
X161000000Y-105444000D01*
X161000000Y-105444000D02*
X161000000Y-113572000D01*
X161000000Y-113572000D02*
X161000000Y-114080000D01*
X161000000Y-114080000D02*
X165064000Y-114080000D01*
X170144000Y-103920000D02*
X170144000Y-114080000D01*
X170144000Y-114080000D02*
X165064000Y-114080000D01*
X170144000Y-103920000D02*
X165064000Y-103920000D01*
D14*
X152700000Y-80554000D02*
X127300000Y-80554000D01*
X127300000Y-80554000D02*
X127300000Y-100112000D01*
X152700000Y-80554000D02*
X152700000Y-100112000D01*
X152700000Y-100112000D02*
X127300000Y-100112000D01*
X127300000Y-100112000D02*
X127300000Y-97572000D01*
X120380000Y-140230000D02*
X135620000Y-140230000D01*
X120380000Y-138325000D02*
X135620000Y-138325000D01*
X135620000Y-138325000D02*
X135620000Y-144675000D01*
X135620000Y-144675000D02*
X120380000Y-144675000D01*
X120380000Y-144675000D02*
X120380000Y-138325000D01*
X120126000Y-141500000D02*
X119110000Y-140738000D01*
X119110000Y-140738000D02*
X119110000Y-142262000D01*
X119110000Y-142262000D02*
X120126000Y-141500000D01*
X120888000Y-138960000D02*
X121650000Y-139976000D01*
X121650000Y-139976000D02*
X122412000Y-138960000D01*
X122412000Y-138960000D02*
X120888000Y-138960000D01*
X114770000Y-112007000D02*
X114770000Y-127120000D01*
X116675000Y-111880000D02*
X116675000Y-127120000D01*
X116675000Y-127120000D02*
X110325000Y-127120000D01*
X110325000Y-127120000D02*
X110325000Y-111880000D01*
X110325000Y-111880000D02*
X116675000Y-111880000D01*
X113500000Y-111626000D02*
X114262000Y-110610000D01*
X114262000Y-110610000D02*
X112738000Y-110610000D01*
X112738000Y-110610000D02*
X113500000Y-111626000D01*
X116040000Y-112388000D02*
X115024000Y-113150000D01*
X115024000Y-113150000D02*
X116040000Y-113912000D01*
X116040000Y-113912000D02*
X116040000Y-112388000D01*
X165230000Y-136350000D02*
X165230000Y-123650000D01*
X163325000Y-136350000D02*
X163325000Y-123650000D01*
X163325000Y-123650000D02*
X169675000Y-123650000D01*
X169675000Y-123650000D02*
X169675000Y-136350000D01*
X169675000Y-136350000D02*
X163325000Y-136350000D01*
X165738000Y-137620000D02*
X166500000Y-136604000D01*
X166500000Y-136604000D02*
X167262000Y-137620000D01*
X167262000Y-137620000D02*
X165738000Y-137620000D01*
X163960000Y-135842000D02*
X163960000Y-134318000D01*
X163960000Y-134318000D02*
X164976000Y-135080000D01*
X164976000Y-135080000D02*
X163960000Y-135842000D01*
X165230000Y-122683000D02*
X165230000Y-115190000D01*
X163325000Y-122810000D02*
X163325000Y-115190000D01*
X163325000Y-115190000D02*
X169675000Y-115190000D01*
X169675000Y-115190000D02*
X169675000Y-122810000D01*
X169675000Y-122810000D02*
X163325000Y-122810000D01*
X165484000Y-124080000D02*
X166500000Y-123064000D01*
X166500000Y-123064000D02*
X167262000Y-124080000D01*
X167262000Y-124080000D02*
X165484000Y-124080000D01*
X163960000Y-122302000D02*
X163960000Y-120778000D01*
X163960000Y-120778000D02*
X164976000Y-121540000D01*
X164976000Y-121540000D02*
X163960000Y-122302000D01*
D15*
X167564000Y-103000000D02*
X167564000Y-93000000D01*
D16*
X163540000Y-102064000D02*
X161000000Y-102064000D01*
X163540000Y-99016000D02*
X161000000Y-99016000D01*
X163540000Y-96984000D02*
X161000000Y-96984000D01*
X163540000Y-93936000D02*
X161000000Y-93936000D01*
X167096000Y-95460000D02*
G75*
G03X167096000Y-95460000I-2032000J0D01*
G01*
X167096000Y-100540000D02*
G75*
G03X167096000Y-100540000I-2032000J0D01*
G01*
X165064000Y-92920000D02*
X161000000Y-92920000D01*
X161000000Y-92920000D02*
X161000000Y-94444000D01*
X161000000Y-94444000D02*
X161000000Y-102572000D01*
X161000000Y-102572000D02*
X161000000Y-103080000D01*
X161000000Y-103080000D02*
X165064000Y-103080000D01*
X170144000Y-92920000D02*
X170144000Y-103080000D01*
X170144000Y-103080000D02*
X165064000Y-103080000D01*
X170144000Y-92920000D02*
X165064000Y-92920000D01*
D12*
X169171143Y-107107143D02*
X169242571Y-107321429D01*
X169242571Y-107678572D01*
X169171143Y-107821429D01*
X169099714Y-107892858D01*
X168956857Y-107964286D01*
X168814000Y-107964286D01*
X168671143Y-107892858D01*
X168599714Y-107821429D01*
X168528286Y-107678572D01*
X168456857Y-107392858D01*
X168385429Y-107250000D01*
X168314000Y-107178572D01*
X168171143Y-107107143D01*
X168028286Y-107107143D01*
X167885429Y-107178572D01*
X167814000Y-107250000D01*
X167742571Y-107392858D01*
X167742571Y-107750000D01*
X167814000Y-107964286D01*
X169242571Y-108607143D02*
X167742571Y-108607143D01*
X167742571Y-109178571D01*
X167814000Y-109321429D01*
X167885429Y-109392857D01*
X168028286Y-109464286D01*
X168242571Y-109464286D01*
X168385429Y-109392857D01*
X168456857Y-109321429D01*
X168528286Y-109178571D01*
X168528286Y-108607143D01*
X169242571Y-110892857D02*
X169242571Y-110035714D01*
X169242571Y-110464286D02*
X167742571Y-110464286D01*
X167956857Y-110321429D01*
X168099714Y-110178571D01*
X168171143Y-110035714D01*
D17*
X146995237Y-86583333D02*
X146519046Y-86583333D01*
X147090475Y-86897619D02*
X146757142Y-85797619D01*
X146423808Y-86897619D01*
X146090475Y-86321429D02*
X145757141Y-86321429D01*
X145614284Y-86897619D02*
X146090475Y-86897619D01*
X146090475Y-85797619D01*
X145614284Y-85797619D01*
X145185713Y-86478571D02*
X144423808Y-86478571D01*
X143947618Y-86897619D02*
X143947618Y-85797619D01*
X143614284Y-86583333D01*
X143280951Y-85797619D01*
X143280951Y-86897619D01*
X142804761Y-86897619D02*
X142804761Y-85797619D01*
X141757142Y-86792857D02*
X141804761Y-86845238D01*
X141947618Y-86897619D01*
X142042856Y-86897619D01*
X142185714Y-86845238D01*
X142280952Y-86740476D01*
X142328571Y-86635714D01*
X142376190Y-86426190D01*
X142376190Y-86269048D01*
X142328571Y-86059524D01*
X142280952Y-85954762D01*
X142185714Y-85850000D01*
X142042856Y-85797619D01*
X141947618Y-85797619D01*
X141804761Y-85850000D01*
X141757142Y-85902381D01*
X140757142Y-86897619D02*
X141090476Y-86373810D01*
X141328571Y-86897619D02*
X141328571Y-85797619D01*
X140947618Y-85797619D01*
X140852380Y-85850000D01*
X140804761Y-85902381D01*
X140757142Y-86007143D01*
X140757142Y-86164286D01*
X140804761Y-86269048D01*
X140852380Y-86321429D01*
X140947618Y-86373810D01*
X141328571Y-86373810D01*
X140138095Y-85797619D02*
X139947618Y-85797619D01*
X139852380Y-85850000D01*
X139757142Y-85954762D01*
X139709523Y-86164286D01*
X139709523Y-86530952D01*
X139757142Y-86740476D01*
X139852380Y-86845238D01*
X139947618Y-86897619D01*
X140138095Y-86897619D01*
X140233333Y-86845238D01*
X140328571Y-86740476D01*
X140376190Y-86530952D01*
X140376190Y-86164286D01*
X140328571Y-85954762D01*
X140233333Y-85850000D01*
X140138095Y-85797619D01*
X139280952Y-86478571D02*
X138519047Y-86478571D01*
X138090476Y-86845238D02*
X137947619Y-86897619D01*
X137709523Y-86897619D01*
X137614285Y-86845238D01*
X137566666Y-86792857D01*
X137519047Y-86688095D01*
X137519047Y-86583333D01*
X137566666Y-86478571D01*
X137614285Y-86426190D01*
X137709523Y-86373810D01*
X137900000Y-86321429D01*
X137995238Y-86269048D01*
X138042857Y-86216667D01*
X138090476Y-86111905D01*
X138090476Y-86007143D01*
X138042857Y-85902381D01*
X137995238Y-85850000D01*
X137900000Y-85797619D01*
X137661904Y-85797619D01*
X137519047Y-85850000D01*
X137090476Y-86897619D02*
X137090476Y-85797619D01*
X136852381Y-85797619D01*
X136709523Y-85850000D01*
X136614285Y-85954762D01*
X136566666Y-86059524D01*
X136519047Y-86269048D01*
X136519047Y-86426190D01*
X136566666Y-86635714D01*
X136614285Y-86740476D01*
X136709523Y-86845238D01*
X136852381Y-86897619D01*
X137090476Y-86897619D01*
X136090476Y-86478571D02*
X135328571Y-86478571D01*
X134852381Y-86897619D02*
X134852381Y-85797619D01*
X134614286Y-85797619D01*
X134471428Y-85850000D01*
X134376190Y-85954762D01*
X134328571Y-86059524D01*
X134280952Y-86269048D01*
X134280952Y-86426190D01*
X134328571Y-86635714D01*
X134376190Y-86740476D01*
X134471428Y-86845238D01*
X134614286Y-86897619D01*
X134852381Y-86897619D01*
X133852381Y-86897619D02*
X133852381Y-85797619D01*
X133376191Y-86897619D02*
X133376191Y-85797619D01*
X132995238Y-85797619D01*
X132900000Y-85850000D01*
X132852381Y-85902381D01*
X132804762Y-86007143D01*
X132804762Y-86164286D01*
X132852381Y-86269048D01*
X132900000Y-86321429D01*
X132995238Y-86373810D01*
X133376191Y-86373810D01*
D12*
X169099714Y-96964286D02*
X169171143Y-96892857D01*
X169242571Y-96678571D01*
X169242571Y-96535714D01*
X169171143Y-96321429D01*
X169028286Y-96178571D01*
X168885429Y-96107143D01*
X168599714Y-96035714D01*
X168385429Y-96035714D01*
X168099714Y-96107143D01*
X167956857Y-96178571D01*
X167814000Y-96321429D01*
X167742571Y-96535714D01*
X167742571Y-96678571D01*
X167814000Y-96892857D01*
X167885429Y-96964286D01*
X169242571Y-97607143D02*
X167742571Y-97607143D01*
X169242571Y-98464286D01*
X167742571Y-98464286D01*
X169242571Y-99964286D02*
X169242571Y-99107143D01*
X169242571Y-99535715D02*
X167742571Y-99535715D01*
X167956857Y-99392858D01*
X168099714Y-99250000D01*
X168171143Y-99107143D01*
M02*
