G04 #@! TF.FileFunction,Copper,L2,Bot,Signal*
%FSLAX46Y46*%
G04 Gerber Fmt 4.6, Leading zero omitted, Abs format (unit mm)*
G04 Created by KiCad (PCBNEW 4.0.1-stable) date 2017/06/24 18:28:34*
%MOMM*%
G01*
G04 APERTURE LIST*
%ADD10C,0.100000*%
%ADD11R,1.500000X1.500000*%
%ADD12C,1.500000*%
%ADD13C,1.397000*%
%ADD14C,2.000000*%
%ADD15C,2.400000*%
%ADD16R,1.397000X1.397000*%
%ADD17C,1.524000*%
%ADD18C,2.300000*%
%ADD19C,1.800000*%
%ADD20C,1.676400*%
%ADD21O,2.500000X1.500000*%
%ADD22C,1.200000*%
%ADD23R,1.500000X2.500000*%
%ADD24O,1.500000X2.500000*%
%ADD25C,5.000000*%
%ADD26O,0.800000X1.200000*%
%ADD27C,1.400000*%
%ADD28R,2.600000X1.400000*%
%ADD29R,1.600000X1.400000*%
%ADD30C,0.600000*%
%ADD31C,0.800000*%
%ADD32C,0.500000*%
%ADD33C,0.300000*%
%ADD34C,0.254000*%
G04 APERTURE END LIST*
D10*
D11*
X151430000Y-94330000D03*
D12*
X148890000Y-94330000D03*
X146350000Y-94330000D03*
X143810000Y-94330000D03*
X141270000Y-94330000D03*
X138730000Y-94330000D03*
X136190000Y-94330000D03*
X133650000Y-94330000D03*
X131110000Y-94330000D03*
X128570000Y-94330000D03*
X148890000Y-81630000D03*
X150160000Y-81630000D03*
X131110000Y-81630000D03*
X129840000Y-81630000D03*
D13*
X112000000Y-122540000D03*
X112000000Y-117460000D03*
D14*
X118750000Y-88750000D03*
X125250000Y-88750000D03*
X125250000Y-93250000D03*
X118750000Y-93250000D03*
D15*
X155350000Y-140460000D03*
X155350000Y-145540000D03*
X142650000Y-140460000D03*
X142650000Y-145540000D03*
D14*
X145750000Y-140750000D03*
X152250000Y-140750000D03*
X152250000Y-145250000D03*
X145750000Y-145250000D03*
D16*
X114690000Y-100490000D03*
D13*
X114690000Y-103030000D03*
X114690000Y-105570000D03*
X114690000Y-108110000D03*
X114690000Y-110650000D03*
X114690000Y-113190000D03*
X114690000Y-115730000D03*
X114690000Y-118270000D03*
X114690000Y-120810000D03*
X114690000Y-123350000D03*
X114690000Y-125890000D03*
X114690000Y-128430000D03*
X114690000Y-130970000D03*
X114690000Y-133510000D03*
X122310000Y-133510000D03*
X122310000Y-130970000D03*
X122310000Y-128430000D03*
X122310000Y-125890000D03*
X122310000Y-123350000D03*
X122310000Y-120810000D03*
X122310000Y-118270000D03*
X122310000Y-115730000D03*
X122310000Y-113190000D03*
X122310000Y-110650000D03*
X122310000Y-108110000D03*
X122310000Y-105570000D03*
X122310000Y-103030000D03*
X122310000Y-100490000D03*
D17*
X134920000Y-89000000D03*
X145080000Y-89000000D03*
D15*
X124650000Y-129540000D03*
X124650000Y-124460000D03*
X137350000Y-129540000D03*
X137350000Y-124460000D03*
D14*
X134250000Y-129250000D03*
X127750000Y-129250000D03*
X127750000Y-124750000D03*
X134250000Y-124750000D03*
D15*
X142650000Y-129540000D03*
X142650000Y-124460000D03*
X155350000Y-129540000D03*
X155350000Y-124460000D03*
D14*
X152250000Y-129250000D03*
X145750000Y-129250000D03*
X145750000Y-124750000D03*
X152250000Y-124750000D03*
D18*
X137000000Y-110000000D03*
X143000000Y-110000000D03*
D13*
X162000000Y-93540000D03*
X162000000Y-88460000D03*
D19*
X169564000Y-125540000D03*
X169564000Y-120460000D03*
D16*
X167810000Y-131190000D03*
D13*
X165270000Y-131190000D03*
X162730000Y-131190000D03*
X160190000Y-131190000D03*
X160190000Y-138810000D03*
X162730000Y-138810000D03*
X165270000Y-138810000D03*
X167810000Y-138810000D03*
D19*
X169564000Y-97540000D03*
X169564000Y-92460000D03*
D11*
X125350000Y-83500000D03*
D12*
X122810000Y-83500000D03*
X120270000Y-83500000D03*
X117730000Y-83500000D03*
X115190000Y-83500000D03*
X112650000Y-83500000D03*
D11*
X146350000Y-83500000D03*
D12*
X143810000Y-83500000D03*
X141270000Y-83500000D03*
X138730000Y-83500000D03*
X136190000Y-83500000D03*
X133650000Y-83500000D03*
D19*
X169564000Y-114080000D03*
X169564000Y-109000000D03*
X169564000Y-103920000D03*
D13*
X116960000Y-96500000D03*
X122040000Y-96500000D03*
D17*
X157000000Y-98580000D03*
X157000000Y-88420000D03*
D13*
X109000000Y-119540000D03*
X109000000Y-114460000D03*
X115960000Y-137000000D03*
X121040000Y-137000000D03*
X144040000Y-97500000D03*
X138960000Y-97500000D03*
X125960000Y-118500000D03*
X131040000Y-118500000D03*
X140000000Y-132540000D03*
X140000000Y-127460000D03*
X158500000Y-127540000D03*
X158500000Y-122460000D03*
D20*
X114000000Y-91270000D03*
X114000000Y-88730000D03*
D17*
X111000000Y-94920000D03*
X111000000Y-105080000D03*
X151920000Y-115500000D03*
X162080000Y-115500000D03*
X162080000Y-113000000D03*
X151920000Y-113000000D03*
X128000000Y-100420000D03*
X128000000Y-110580000D03*
X151920000Y-118000000D03*
X162080000Y-118000000D03*
X140000000Y-147080000D03*
X140000000Y-136920000D03*
X137080000Y-135000000D03*
X126920000Y-135000000D03*
X109000000Y-132080000D03*
X109000000Y-121920000D03*
X153080000Y-135000000D03*
X142920000Y-135000000D03*
X159500000Y-98580000D03*
X159500000Y-88420000D03*
X154500000Y-98580000D03*
X154500000Y-88420000D03*
D15*
X137350000Y-140460000D03*
X137350000Y-145540000D03*
X124650000Y-140460000D03*
X124650000Y-145540000D03*
D14*
X127750000Y-140750000D03*
X134250000Y-140750000D03*
X134250000Y-145250000D03*
X127750000Y-145250000D03*
D17*
X125500000Y-100420000D03*
X125500000Y-110580000D03*
D21*
X107615000Y-101030000D03*
X107615000Y-103570000D03*
X107615000Y-106110000D03*
X107615000Y-108650000D03*
X107615000Y-111190000D03*
X107615000Y-134685000D03*
X107615000Y-137225000D03*
X107615000Y-139765000D03*
X107615000Y-142305000D03*
X107615000Y-95950000D03*
X107615000Y-93410000D03*
X107615000Y-90870000D03*
X107615000Y-98490000D03*
X107615000Y-88330000D03*
D22*
X156500000Y-105595000D03*
X156500000Y-107500000D03*
X156500000Y-109405000D03*
D23*
X165580000Y-83500000D03*
D24*
X163040000Y-83500000D03*
X160500000Y-83500000D03*
X157960000Y-83500000D03*
X155420000Y-83500000D03*
D25*
X108000000Y-83000000D03*
X172000000Y-83000000D03*
X108000000Y-147000000D03*
X172000000Y-147000000D03*
D26*
X113016000Y-125000000D03*
X110984000Y-125000000D03*
D27*
X111000000Y-136500000D03*
X111000000Y-133500000D03*
D13*
X161000000Y-104460000D03*
X161000000Y-109540000D03*
D28*
X160460000Y-144000000D03*
D27*
X165540000Y-144000000D03*
D29*
X162492000Y-144000000D03*
D13*
X161500000Y-127540000D03*
X161500000Y-122460000D03*
X153000000Y-109540000D03*
X153000000Y-104460000D03*
D30*
X139000000Y-103000000D03*
X128400000Y-106900000D03*
X124126000Y-107893000D03*
X120100000Y-118300000D03*
X119400000Y-115800000D03*
X136868300Y-108142300D03*
X137917200Y-106242500D03*
X121000000Y-124800000D03*
X135600000Y-138000000D03*
X135700000Y-112000000D03*
X117700000Y-112000000D03*
X131728000Y-98691100D03*
X146300000Y-97500000D03*
X124900000Y-96400000D03*
X124650000Y-114444000D03*
X119500000Y-138090000D03*
X118500000Y-139306000D03*
D31*
X116960000Y-96500000D02*
X116960000Y-88750000D01*
X158890000Y-144000000D02*
X155350000Y-140460000D01*
X160460000Y-144000000D02*
X158890000Y-144000000D01*
X132400000Y-127400000D02*
X134250000Y-129250000D01*
X132400000Y-119800000D02*
X132400000Y-127400000D01*
X131100000Y-118500000D02*
X132400000Y-119800000D01*
X131040000Y-118500000D02*
X131100000Y-118500000D01*
X139000000Y-103000000D02*
X138960000Y-103000000D01*
X138730000Y-97270000D02*
X138960000Y-97500000D01*
X138730000Y-94330000D02*
X138730000Y-97270000D01*
X162000000Y-88460000D02*
X162000000Y-86100000D01*
X138730000Y-94330000D02*
X138670000Y-94330000D01*
X159300000Y-86100000D02*
X162000000Y-86100000D01*
X157960000Y-84760000D02*
X159300000Y-86100000D01*
X157960000Y-83500000D02*
X157960000Y-84760000D01*
X163204000Y-86100000D02*
X169564000Y-92460000D01*
X162000000Y-86100000D02*
X163204000Y-86100000D01*
X141270000Y-91690000D02*
X141270000Y-83500000D01*
X138730000Y-94230000D02*
X141270000Y-91690000D01*
X138730000Y-94330000D02*
X138730000Y-94230000D01*
X138960000Y-97500000D02*
X138960000Y-103000000D01*
X138960000Y-105860000D02*
X143000000Y-109900000D01*
X138960000Y-103000000D02*
X138960000Y-105860000D01*
X140000000Y-112900000D02*
X140000000Y-127460000D01*
X143000000Y-109900000D02*
X140000000Y-112900000D01*
X143000000Y-109900000D02*
X143000000Y-110000000D01*
X107310000Y-98185000D02*
X107175000Y-98185000D01*
X107615000Y-98490000D02*
X107310000Y-98185000D01*
X155350000Y-129540000D02*
X155350000Y-140460000D01*
X109605000Y-96500000D02*
X107615000Y-98490000D01*
X116960000Y-96500000D02*
X109605000Y-96500000D01*
X155350000Y-128512000D02*
X155350000Y-129540000D01*
X158500000Y-125362000D02*
X155350000Y-128512000D01*
X158500000Y-122460000D02*
X158500000Y-125362000D01*
X114020000Y-88750000D02*
X114000000Y-88730000D01*
X116960000Y-88750000D02*
X114020000Y-88750000D01*
X117000000Y-88790000D02*
X117000000Y-88750000D01*
X116960000Y-88750000D02*
X117000000Y-88790000D01*
X118750000Y-88750000D02*
X117000000Y-88750000D01*
X117000000Y-88750000D02*
X116960000Y-88750000D01*
D32*
X162000000Y-96080000D02*
X162000000Y-93540000D01*
X159500000Y-98580000D02*
X162000000Y-96080000D01*
X154500000Y-98580000D02*
X154525000Y-98580000D01*
X161620000Y-127540000D02*
X165270000Y-131190000D01*
X161500000Y-127540000D02*
X161620000Y-127540000D01*
D33*
X114559000Y-100490000D02*
X114690000Y-100490000D01*
X118750000Y-96298900D02*
X114559000Y-100490000D01*
X118750000Y-93250000D02*
X118750000Y-96298900D01*
X137482000Y-97802200D02*
X128400000Y-106900000D01*
X137482000Y-84748000D02*
X137482000Y-97802200D01*
X138730000Y-83500000D02*
X137482000Y-84748000D01*
X134933000Y-97085800D02*
X124126000Y-107893000D01*
X134933000Y-92068800D02*
X134933000Y-97085800D01*
X136190000Y-90811700D02*
X134933000Y-92068800D01*
X136190000Y-83500000D02*
X136190000Y-90811700D01*
X120986000Y-85323600D02*
X122810000Y-83500000D01*
X120986000Y-95852400D02*
X120986000Y-85323600D01*
X120153000Y-96686100D02*
X120986000Y-95852400D01*
X120100000Y-118300000D02*
X120153000Y-96686100D01*
X119400000Y-96500000D02*
X119400000Y-115800000D01*
X120270000Y-95630000D02*
X119400000Y-96500000D01*
X120270000Y-83500000D02*
X120270000Y-95630000D01*
X123011500Y-127728500D02*
X122310000Y-128430000D01*
X126904200Y-127728500D02*
X123011500Y-127728500D01*
X129153300Y-125479400D02*
X126904200Y-127728500D01*
X129153300Y-118060900D02*
X129153300Y-125479400D01*
X134346700Y-112867500D02*
X129153300Y-118060900D01*
X134346700Y-110451200D02*
X134346700Y-112867500D01*
X136655600Y-108142300D02*
X134346700Y-110451200D01*
X136868300Y-108142300D02*
X136655600Y-108142300D01*
X122310000Y-125890000D02*
X122771000Y-126351000D01*
X125157800Y-126351000D02*
X122771000Y-126351000D01*
X126300000Y-125208800D02*
X125157800Y-126351000D01*
X126300000Y-120206500D02*
X126300000Y-125208800D01*
X133838500Y-112668000D02*
X126300000Y-120206500D01*
X133838500Y-110232800D02*
X133838500Y-112668000D01*
X137828800Y-106242500D02*
X133838500Y-110232800D01*
X137917200Y-106242500D02*
X137828800Y-106242500D01*
X154500000Y-86020300D02*
X154500000Y-88420000D01*
X155420000Y-85100300D02*
X154500000Y-86020300D01*
X155420000Y-83500000D02*
X155420000Y-85100300D01*
X111000000Y-94270000D02*
X111000000Y-94920000D01*
X114000000Y-91270000D02*
X111000000Y-94270000D01*
D32*
X167810000Y-122214000D02*
X169564000Y-120460000D01*
X167810000Y-131190000D02*
X167810000Y-122214000D01*
D31*
X156500000Y-110920000D02*
X151920000Y-115500000D01*
X156500000Y-109405000D02*
X156500000Y-110920000D01*
D32*
X145080000Y-89000000D02*
X143810000Y-89000000D01*
X144040000Y-94560000D02*
X143810000Y-94330000D01*
X144040000Y-97500000D02*
X144040000Y-94560000D01*
X120961000Y-124487000D02*
X121000000Y-124800000D01*
X120961000Y-101727000D02*
X120961000Y-124487000D01*
X121680000Y-101064000D02*
X120961000Y-101727000D01*
X121736000Y-101064000D02*
X122310000Y-100490000D01*
X121680000Y-101064000D02*
X121736000Y-101064000D01*
X114970000Y-130970000D02*
X114690000Y-130970000D01*
X115960000Y-131960000D02*
X114970000Y-130970000D01*
X115960000Y-137000000D02*
X115960000Y-131960000D01*
X122400000Y-100400000D02*
X121680000Y-101064000D01*
X122040000Y-100220000D02*
X122310000Y-100490000D01*
X122040000Y-96500000D02*
X122040000Y-100220000D01*
X143810000Y-83500000D02*
X143810000Y-89000000D01*
X143810000Y-89000000D02*
X143810000Y-94330000D01*
X151000000Y-104460000D02*
X144040000Y-97500000D01*
X153000000Y-104460000D02*
X151000000Y-104460000D01*
X144040000Y-97500000D02*
X144040000Y-97620000D01*
D33*
X114690000Y-133510000D02*
X114690000Y-133710000D01*
X114690000Y-133710000D02*
X114690000Y-133710000D01*
X108525000Y-137225000D02*
X107615000Y-137225000D01*
X109100000Y-137800000D02*
X108525000Y-137225000D01*
X112000000Y-137800000D02*
X109100000Y-137800000D01*
X114690000Y-135110000D02*
X112000000Y-137800000D01*
X114690000Y-133710000D02*
X114690000Y-135110000D01*
X107615000Y-137225000D02*
X107615000Y-136925000D01*
X166500000Y-122420000D02*
X162080000Y-118000000D01*
X166500000Y-132500000D02*
X166500000Y-122420000D01*
X160190000Y-138810000D02*
X166500000Y-132500000D01*
X135600000Y-138000000D02*
X135675000Y-138075000D01*
X135675000Y-138075000D02*
X135700000Y-138075000D01*
X116200000Y-110600000D02*
X117700000Y-112000000D01*
X116181000Y-104521000D02*
X116200000Y-110600000D01*
X114690000Y-103030000D02*
X116181000Y-104521000D01*
X107920000Y-100725000D02*
X107175000Y-100725000D01*
X112385000Y-100725000D02*
X107920000Y-100725000D01*
X114690000Y-103030000D02*
X112385000Y-100725000D01*
X107920000Y-100725000D02*
X107615000Y-101030000D01*
X135700000Y-141403000D02*
X135700000Y-138075000D01*
X140028000Y-145605000D02*
X135700000Y-141403000D01*
X140028000Y-147108000D02*
X140028000Y-145605000D01*
X135700000Y-138075000D02*
X135700000Y-112000000D01*
X140056000Y-147136000D02*
X140028000Y-147108000D01*
X140028000Y-147108000D02*
X140000000Y-147080000D01*
X119615000Y-142305000D02*
X107615000Y-142305000D01*
X126920000Y-135000000D02*
X119615000Y-142305000D01*
X122310000Y-137690000D02*
X122310000Y-133510000D01*
X120000000Y-140000000D02*
X122310000Y-137690000D01*
X108200000Y-140000000D02*
X120000000Y-140000000D01*
X107965000Y-139765000D02*
X108200000Y-140000000D01*
X107615000Y-139765000D02*
X107965000Y-139765000D01*
X120454000Y-131654000D02*
X122310000Y-133510000D01*
X120454000Y-125454000D02*
X120454000Y-131654000D01*
X116139000Y-121139000D02*
X120454000Y-125454000D01*
X116139000Y-112783000D02*
X116139000Y-121139000D01*
X115299000Y-111943000D02*
X116139000Y-112783000D01*
X114300000Y-111943000D02*
X115299000Y-111943000D01*
X111000000Y-108643000D02*
X114300000Y-111943000D01*
X111000000Y-105080000D02*
X111000000Y-108643000D01*
X131728000Y-98692500D02*
X131728000Y-98691100D01*
X122310000Y-108110000D02*
X131728000Y-98692500D01*
X146350000Y-96471100D02*
X146350000Y-94330000D01*
X146300000Y-97500000D02*
X146350000Y-96471100D01*
X112690000Y-103570000D02*
X107615000Y-103570000D01*
X114690000Y-105570000D02*
X112690000Y-103570000D01*
X123684000Y-97523000D02*
X124900000Y-96400000D01*
X123684000Y-104196000D02*
X123684000Y-97523000D01*
X122310000Y-105570000D02*
X123684000Y-104196000D01*
X136190000Y-97170000D02*
X122876000Y-110484000D01*
X136190000Y-94330000D02*
X136190000Y-97170000D01*
X122876000Y-110484000D02*
X122510000Y-110850000D01*
X122476000Y-110484000D02*
X122310000Y-110650000D01*
X122876000Y-110484000D02*
X122476000Y-110484000D01*
X137350000Y-124460000D02*
X137060000Y-124750000D01*
X107605000Y-106105000D02*
X107610000Y-106110000D01*
X107175000Y-106105000D02*
X107605000Y-106105000D01*
X107175000Y-105805000D02*
X107175000Y-106105000D01*
X107615000Y-106110000D02*
X107610000Y-106110000D01*
X107610000Y-106110000D02*
X114690000Y-113190000D01*
X124940000Y-124750000D02*
X124650000Y-124460000D01*
X124650000Y-124460000D02*
X124650000Y-114444000D01*
X119500000Y-125400000D02*
X119500000Y-138090000D01*
X114910000Y-120810000D02*
X119500000Y-125400000D01*
X114690000Y-120810000D02*
X114910000Y-120810000D01*
X113322000Y-119442000D02*
X114690000Y-120810000D01*
X113322000Y-116680000D02*
X113322000Y-119442000D01*
X107732000Y-111090000D02*
X113322000Y-116680000D01*
X107615000Y-111090000D02*
X107732000Y-111090000D01*
X107615000Y-111190000D02*
X107615000Y-111090000D01*
X118500000Y-127100000D02*
X118500000Y-129700000D01*
X114750000Y-123350000D02*
X118500000Y-127100000D01*
X114690000Y-123350000D02*
X114750000Y-123350000D01*
X118500000Y-129700000D02*
X118500000Y-139306000D01*
X113099000Y-129700000D02*
X118500000Y-129700000D01*
X108015000Y-134784000D02*
X113099000Y-129700000D01*
X108015000Y-134685000D02*
X108015000Y-134784000D01*
X107615000Y-134685000D02*
X108015000Y-134685000D01*
X107175000Y-108345000D02*
X107575000Y-108345000D01*
X107975000Y-108415000D02*
X114990000Y-115430000D01*
X107975000Y-108345000D02*
X107975000Y-108415000D01*
X107575000Y-108345000D02*
X107975000Y-108345000D01*
X107615000Y-108385000D02*
X107615000Y-108650000D01*
X107575000Y-108345000D02*
X107615000Y-108385000D01*
X155350000Y-121630000D02*
X161280000Y-115700000D01*
X155350000Y-124460000D02*
X155350000Y-121630000D01*
X162080000Y-114900000D02*
X162080000Y-113000000D01*
X161280000Y-115700000D02*
X162080000Y-114900000D01*
X161880000Y-115700000D02*
X162080000Y-115500000D01*
X161280000Y-115700000D02*
X161880000Y-115700000D01*
X114690000Y-115730000D02*
X114990000Y-115430000D01*
X114990000Y-115430000D02*
X115090000Y-115530000D01*
D32*
X159080000Y-127540000D02*
X162730000Y-131190000D01*
X158500000Y-127540000D02*
X159080000Y-127540000D01*
D34*
G36*
X128666539Y-80844436D02*
X128455241Y-81353298D01*
X128454760Y-81904285D01*
X128665169Y-82413515D01*
X129054436Y-82803461D01*
X129563298Y-83014759D01*
X130114285Y-83015240D01*
X130475260Y-82866089D01*
X130833298Y-83014759D01*
X131384285Y-83015240D01*
X131893515Y-82804831D01*
X132283461Y-82415564D01*
X132494759Y-81906702D01*
X132495240Y-81355715D01*
X132284831Y-80846485D01*
X132148584Y-80710000D01*
X147851209Y-80710000D01*
X147716539Y-80844436D01*
X147505241Y-81353298D01*
X147504760Y-81904285D01*
X147715169Y-82413515D01*
X148104436Y-82803461D01*
X148613298Y-83014759D01*
X149164285Y-83015240D01*
X149525260Y-82866089D01*
X149883298Y-83014759D01*
X150434285Y-83015240D01*
X150943515Y-82804831D01*
X151333461Y-82415564D01*
X151544759Y-81906702D01*
X151545240Y-81355715D01*
X151334831Y-80846485D01*
X151198584Y-80710000D01*
X169856567Y-80710000D01*
X169343826Y-81221847D01*
X168865546Y-82373674D01*
X168864457Y-83620854D01*
X169340727Y-84773515D01*
X170221847Y-85656174D01*
X171373674Y-86134454D01*
X172620854Y-86135543D01*
X173773515Y-85659273D01*
X174290000Y-85143689D01*
X174290000Y-144856567D01*
X173778153Y-144343826D01*
X172626326Y-143865546D01*
X171379146Y-143864457D01*
X170226485Y-144340727D01*
X169343826Y-145221847D01*
X168865546Y-146373674D01*
X168864457Y-147620854D01*
X169340727Y-148773515D01*
X169856311Y-149290000D01*
X110143433Y-149290000D01*
X110656174Y-148778153D01*
X111134454Y-147626326D01*
X111135543Y-146379146D01*
X110938970Y-145903403D01*
X122814682Y-145903403D01*
X123093455Y-146578086D01*
X123609199Y-147094730D01*
X124283395Y-147374681D01*
X125013403Y-147375318D01*
X125688086Y-147096545D01*
X126204730Y-146580801D01*
X126370275Y-146182125D01*
X126822637Y-146635278D01*
X127423352Y-146884716D01*
X128073795Y-146885284D01*
X128674943Y-146636894D01*
X129135278Y-146177363D01*
X129384716Y-145576648D01*
X129385284Y-144926205D01*
X129136894Y-144325057D01*
X128677363Y-143864722D01*
X128076648Y-143615284D01*
X127426205Y-143614716D01*
X126825057Y-143863106D01*
X126364722Y-144322637D01*
X126248309Y-144602991D01*
X126206545Y-144501914D01*
X125690801Y-143985270D01*
X125016605Y-143705319D01*
X124286597Y-143704682D01*
X123611914Y-143983455D01*
X123095270Y-144499199D01*
X122815319Y-145173395D01*
X122814682Y-145903403D01*
X110938970Y-145903403D01*
X110659273Y-145226485D01*
X109778153Y-144343826D01*
X108626326Y-143865546D01*
X107379146Y-143864457D01*
X106226485Y-144340727D01*
X105710000Y-144856311D01*
X105710000Y-142390108D01*
X105798498Y-142835017D01*
X106098728Y-143284343D01*
X106548054Y-143584573D01*
X107078071Y-143690000D01*
X108151929Y-143690000D01*
X108681946Y-143584573D01*
X109131272Y-143284343D01*
X109261128Y-143090000D01*
X119615000Y-143090000D01*
X119915407Y-143030245D01*
X120170079Y-142860079D01*
X121272983Y-141757175D01*
X123532430Y-141757175D01*
X123655565Y-142044788D01*
X124337734Y-142304707D01*
X125067443Y-142283786D01*
X125644435Y-142044788D01*
X125705338Y-141902532D01*
X126777073Y-141902532D01*
X126875736Y-142169387D01*
X127485461Y-142395908D01*
X128135460Y-142371856D01*
X128624264Y-142169387D01*
X128722927Y-141902532D01*
X127750000Y-140929605D01*
X126777073Y-141902532D01*
X125705338Y-141902532D01*
X125767570Y-141757175D01*
X124650000Y-140639605D01*
X123532430Y-141757175D01*
X121272983Y-141757175D01*
X122807443Y-140222715D01*
X122826214Y-140877443D01*
X123065212Y-141454435D01*
X123352825Y-141577570D01*
X124470395Y-140460000D01*
X124829605Y-140460000D01*
X125947175Y-141577570D01*
X126234788Y-141454435D01*
X126246996Y-141422395D01*
X126330613Y-141624264D01*
X126597468Y-141722927D01*
X127570395Y-140750000D01*
X127929605Y-140750000D01*
X128902532Y-141722927D01*
X129169387Y-141624264D01*
X129395908Y-141014539D01*
X129376331Y-140485461D01*
X132604092Y-140485461D01*
X132628144Y-141135460D01*
X132830613Y-141624264D01*
X133097468Y-141722927D01*
X134070395Y-140750000D01*
X133097468Y-139777073D01*
X132830613Y-139875736D01*
X132604092Y-140485461D01*
X129376331Y-140485461D01*
X129371856Y-140364540D01*
X129169387Y-139875736D01*
X128902532Y-139777073D01*
X127929605Y-140750000D01*
X127570395Y-140750000D01*
X126597468Y-139777073D01*
X126394849Y-139851986D01*
X126289425Y-139597468D01*
X126777073Y-139597468D01*
X127750000Y-140570395D01*
X128722927Y-139597468D01*
X128624264Y-139330613D01*
X128014539Y-139104092D01*
X127364540Y-139128144D01*
X126875736Y-139330613D01*
X126777073Y-139597468D01*
X126289425Y-139597468D01*
X126234788Y-139465565D01*
X125947175Y-139342430D01*
X124829605Y-140460000D01*
X124470395Y-140460000D01*
X124456253Y-140445858D01*
X124635858Y-140266253D01*
X124650000Y-140280395D01*
X125767570Y-139162825D01*
X125644435Y-138875212D01*
X124962266Y-138615293D01*
X124398708Y-138631450D01*
X126635601Y-136394557D01*
X126640900Y-136396757D01*
X127196661Y-136397242D01*
X127710303Y-136185010D01*
X128103629Y-135792370D01*
X128316757Y-135279100D01*
X128317242Y-134723339D01*
X128105010Y-134209697D01*
X127712370Y-133816371D01*
X127199100Y-133603243D01*
X126643339Y-133602758D01*
X126129697Y-133814990D01*
X125736371Y-134207630D01*
X125523243Y-134720900D01*
X125522758Y-135276661D01*
X125525805Y-135284037D01*
X123088832Y-137721010D01*
X123095000Y-137690000D01*
X123095000Y-134610579D01*
X123439827Y-134266353D01*
X123643268Y-133776413D01*
X123643731Y-133245914D01*
X123441146Y-132755620D01*
X123066353Y-132380173D01*
X122728554Y-132239906D01*
X123064380Y-132101146D01*
X123439827Y-131726353D01*
X123643268Y-131236413D01*
X123643390Y-131096351D01*
X123655565Y-131124788D01*
X124337734Y-131384707D01*
X125067443Y-131363786D01*
X125644435Y-131124788D01*
X125767570Y-130837175D01*
X124650000Y-129719605D01*
X124635858Y-129733748D01*
X124456253Y-129554143D01*
X124470395Y-129540000D01*
X124456253Y-129525858D01*
X124635858Y-129346253D01*
X124650000Y-129360395D01*
X124664143Y-129346253D01*
X124843748Y-129525858D01*
X124829605Y-129540000D01*
X125947175Y-130657570D01*
X126234788Y-130534435D01*
X126285045Y-130402532D01*
X126777073Y-130402532D01*
X126875736Y-130669387D01*
X127485461Y-130895908D01*
X128135460Y-130871856D01*
X128624264Y-130669387D01*
X128722927Y-130402532D01*
X127750000Y-129429605D01*
X126777073Y-130402532D01*
X126285045Y-130402532D01*
X126383606Y-130143857D01*
X126597468Y-130222927D01*
X127570395Y-129250000D01*
X127929605Y-129250000D01*
X128902532Y-130222927D01*
X129169387Y-130124264D01*
X129395908Y-129514539D01*
X129376331Y-128985461D01*
X132604092Y-128985461D01*
X132628144Y-129635460D01*
X132830613Y-130124264D01*
X133097468Y-130222927D01*
X134070395Y-129250000D01*
X133097468Y-128277073D01*
X132830613Y-128375736D01*
X132604092Y-128985461D01*
X129376331Y-128985461D01*
X129371856Y-128864540D01*
X129169387Y-128375736D01*
X128902532Y-128277073D01*
X127929605Y-129250000D01*
X127570395Y-129250000D01*
X127556253Y-129235858D01*
X127735858Y-129056253D01*
X127750000Y-129070395D01*
X128722927Y-128097468D01*
X128624264Y-127830613D01*
X128105116Y-127637742D01*
X129708379Y-126034479D01*
X129878545Y-125779806D01*
X129938300Y-125479400D01*
X129938300Y-119434188D01*
X130285417Y-119434188D01*
X130347071Y-119669800D01*
X130847480Y-119845927D01*
X131377199Y-119817148D01*
X131732929Y-119669800D01*
X131794583Y-119434188D01*
X131040000Y-118679605D01*
X130285417Y-119434188D01*
X129938300Y-119434188D01*
X129938300Y-119210749D01*
X130105812Y-119254583D01*
X130860395Y-118500000D01*
X131219605Y-118500000D01*
X131974188Y-119254583D01*
X132209800Y-119192929D01*
X132385927Y-118692520D01*
X132357148Y-118162801D01*
X132209800Y-117807071D01*
X131974188Y-117745417D01*
X131219605Y-118500000D01*
X130860395Y-118500000D01*
X130846253Y-118485858D01*
X131025858Y-118306253D01*
X131040000Y-118320395D01*
X131794583Y-117565812D01*
X131732929Y-117330200D01*
X131232520Y-117154073D01*
X131166710Y-117157648D01*
X134901779Y-113422579D01*
X134915000Y-113402792D01*
X134915000Y-123255780D01*
X134576648Y-123115284D01*
X133926205Y-123114716D01*
X133325057Y-123363106D01*
X132864722Y-123822637D01*
X132615284Y-124423352D01*
X132614716Y-125073795D01*
X132863106Y-125674943D01*
X133322637Y-126135278D01*
X133923352Y-126384716D01*
X134573795Y-126385284D01*
X134915000Y-126244301D01*
X134915000Y-127752869D01*
X134514539Y-127604092D01*
X133864540Y-127628144D01*
X133375736Y-127830613D01*
X133277073Y-128097468D01*
X134250000Y-129070395D01*
X134264143Y-129056253D01*
X134443748Y-129235858D01*
X134429605Y-129250000D01*
X134443748Y-129264143D01*
X134264143Y-129443748D01*
X134250000Y-129429605D01*
X133277073Y-130402532D01*
X133375736Y-130669387D01*
X133985461Y-130895908D01*
X134635460Y-130871856D01*
X134915000Y-130756067D01*
X134915000Y-137362668D01*
X134807808Y-137469673D01*
X134665162Y-137813201D01*
X134664838Y-138185167D01*
X134806883Y-138528943D01*
X134915000Y-138637249D01*
X134915000Y-139252869D01*
X134514539Y-139104092D01*
X133864540Y-139128144D01*
X133375736Y-139330613D01*
X133277073Y-139597468D01*
X134250000Y-140570395D01*
X134264143Y-140556253D01*
X134443748Y-140735858D01*
X134429605Y-140750000D01*
X134443748Y-140764143D01*
X134264143Y-140943748D01*
X134250000Y-140929605D01*
X133277073Y-141902532D01*
X133375736Y-142169387D01*
X133985461Y-142395908D01*
X134635460Y-142371856D01*
X135124264Y-142169387D01*
X135187177Y-141999225D01*
X136956558Y-143717094D01*
X136311914Y-143983455D01*
X135795270Y-144499199D01*
X135751952Y-144603519D01*
X135636894Y-144325057D01*
X135177363Y-143864722D01*
X134576648Y-143615284D01*
X133926205Y-143614716D01*
X133325057Y-143863106D01*
X132864722Y-144322637D01*
X132615284Y-144923352D01*
X132614716Y-145573795D01*
X132863106Y-146174943D01*
X133322637Y-146635278D01*
X133923352Y-146884716D01*
X134573795Y-146885284D01*
X135174943Y-146636894D01*
X135630040Y-146182592D01*
X135793455Y-146578086D01*
X136309199Y-147094730D01*
X136983395Y-147374681D01*
X137713403Y-147375318D01*
X138388086Y-147096545D01*
X138603172Y-146881833D01*
X138602758Y-147356661D01*
X138814990Y-147870303D01*
X139207630Y-148263629D01*
X139720900Y-148476757D01*
X140276661Y-148477242D01*
X140790303Y-148265010D01*
X141183629Y-147872370D01*
X141396757Y-147359100D01*
X141397173Y-146882334D01*
X141609199Y-147094730D01*
X142283395Y-147374681D01*
X143013403Y-147375318D01*
X143688086Y-147096545D01*
X144204730Y-146580801D01*
X144370275Y-146182125D01*
X144822637Y-146635278D01*
X145423352Y-146884716D01*
X146073795Y-146885284D01*
X146674943Y-146636894D01*
X147135278Y-146177363D01*
X147384716Y-145576648D01*
X147384718Y-145573795D01*
X150614716Y-145573795D01*
X150863106Y-146174943D01*
X151322637Y-146635278D01*
X151923352Y-146884716D01*
X152573795Y-146885284D01*
X153174943Y-146636894D01*
X153630040Y-146182592D01*
X153793455Y-146578086D01*
X154309199Y-147094730D01*
X154983395Y-147374681D01*
X155713403Y-147375318D01*
X156388086Y-147096545D01*
X156904730Y-146580801D01*
X157184681Y-145906605D01*
X157185318Y-145176597D01*
X156906545Y-144501914D01*
X156690758Y-144285750D01*
X158525000Y-144285750D01*
X158525000Y-144826310D01*
X158621673Y-145059699D01*
X158800302Y-145238327D01*
X159033691Y-145335000D01*
X160174250Y-145335000D01*
X160333000Y-145176250D01*
X160333000Y-144127000D01*
X160587000Y-144127000D01*
X160587000Y-145176250D01*
X160745750Y-145335000D01*
X162206250Y-145335000D01*
X162365000Y-145176250D01*
X162365000Y-144898736D01*
X162395000Y-144826310D01*
X162395000Y-144285750D01*
X162365000Y-144255750D01*
X162365000Y-144127000D01*
X162619000Y-144127000D01*
X162619000Y-145176250D01*
X162777750Y-145335000D01*
X163418309Y-145335000D01*
X163651698Y-145238327D01*
X163830327Y-145059699D01*
X163927000Y-144826310D01*
X163927000Y-144285750D01*
X163905633Y-144264383D01*
X164204769Y-144264383D01*
X164407582Y-144755229D01*
X164782796Y-145131098D01*
X165273287Y-145334768D01*
X165804383Y-145335231D01*
X166295229Y-145132418D01*
X166671098Y-144757204D01*
X166874768Y-144266713D01*
X166875231Y-143735617D01*
X166672418Y-143244771D01*
X166297204Y-142868902D01*
X165806713Y-142665232D01*
X165275617Y-142664769D01*
X164784771Y-142867582D01*
X164408902Y-143242796D01*
X164205232Y-143733287D01*
X164204769Y-144264383D01*
X163905633Y-144264383D01*
X163768250Y-144127000D01*
X162619000Y-144127000D01*
X162365000Y-144127000D01*
X160587000Y-144127000D01*
X160333000Y-144127000D01*
X158683750Y-144127000D01*
X158525000Y-144285750D01*
X156690758Y-144285750D01*
X156390801Y-143985270D01*
X155716605Y-143705319D01*
X154986597Y-143704682D01*
X154311914Y-143983455D01*
X153795270Y-144499199D01*
X153751952Y-144603519D01*
X153636894Y-144325057D01*
X153177363Y-143864722D01*
X152576648Y-143615284D01*
X151926205Y-143614716D01*
X151325057Y-143863106D01*
X150864722Y-144322637D01*
X150615284Y-144923352D01*
X150614716Y-145573795D01*
X147384718Y-145573795D01*
X147385284Y-144926205D01*
X147136894Y-144325057D01*
X146677363Y-143864722D01*
X146076648Y-143615284D01*
X145426205Y-143614716D01*
X144825057Y-143863106D01*
X144364722Y-144322637D01*
X144248309Y-144602991D01*
X144206545Y-144501914D01*
X143690801Y-143985270D01*
X143016605Y-143705319D01*
X142286597Y-143704682D01*
X141611914Y-143983455D01*
X141095270Y-144499199D01*
X140815319Y-145173395D01*
X140814682Y-145903403D01*
X140825482Y-145929541D01*
X140813000Y-145917037D01*
X140813000Y-145605000D01*
X140811849Y-145599213D01*
X140812915Y-145593406D01*
X140782009Y-145449198D01*
X140753245Y-145304594D01*
X140749966Y-145299686D01*
X140748729Y-145293915D01*
X140665002Y-145172529D01*
X140583079Y-145049921D01*
X140578171Y-145046642D01*
X140574820Y-145041783D01*
X138650711Y-143173690D01*
X158525000Y-143173690D01*
X158525000Y-143714250D01*
X158683750Y-143873000D01*
X160333000Y-143873000D01*
X160333000Y-142823750D01*
X160587000Y-142823750D01*
X160587000Y-143873000D01*
X162365000Y-143873000D01*
X162365000Y-143744250D01*
X162395000Y-143714250D01*
X162395000Y-143173690D01*
X162365000Y-143101264D01*
X162365000Y-142823750D01*
X162619000Y-142823750D01*
X162619000Y-143873000D01*
X163768250Y-143873000D01*
X163927000Y-143714250D01*
X163927000Y-143173690D01*
X163830327Y-142940301D01*
X163651698Y-142761673D01*
X163418309Y-142665000D01*
X162777750Y-142665000D01*
X162619000Y-142823750D01*
X162365000Y-142823750D01*
X162206250Y-142665000D01*
X160745750Y-142665000D01*
X160587000Y-142823750D01*
X160333000Y-142823750D01*
X160174250Y-142665000D01*
X159033691Y-142665000D01*
X158800302Y-142761673D01*
X158621673Y-142940301D01*
X158525000Y-143173690D01*
X138650711Y-143173690D01*
X137735078Y-142284714D01*
X137767443Y-142283786D01*
X138344435Y-142044788D01*
X138467570Y-141757175D01*
X141532430Y-141757175D01*
X141655565Y-142044788D01*
X142337734Y-142304707D01*
X143067443Y-142283786D01*
X143644435Y-142044788D01*
X143705338Y-141902532D01*
X144777073Y-141902532D01*
X144875736Y-142169387D01*
X145485461Y-142395908D01*
X146135460Y-142371856D01*
X146624264Y-142169387D01*
X146722927Y-141902532D01*
X151277073Y-141902532D01*
X151375736Y-142169387D01*
X151985461Y-142395908D01*
X152635460Y-142371856D01*
X153124264Y-142169387D01*
X153222927Y-141902532D01*
X153077570Y-141757175D01*
X154232430Y-141757175D01*
X154355565Y-142044788D01*
X155037734Y-142304707D01*
X155767443Y-142283786D01*
X156344435Y-142044788D01*
X156467570Y-141757175D01*
X155350000Y-140639605D01*
X154232430Y-141757175D01*
X153077570Y-141757175D01*
X152250000Y-140929605D01*
X151277073Y-141902532D01*
X146722927Y-141902532D01*
X145750000Y-140929605D01*
X144777073Y-141902532D01*
X143705338Y-141902532D01*
X143767570Y-141757175D01*
X142650000Y-140639605D01*
X141532430Y-141757175D01*
X138467570Y-141757175D01*
X137350000Y-140639605D01*
X137335858Y-140653748D01*
X137156253Y-140474143D01*
X137170395Y-140460000D01*
X137529605Y-140460000D01*
X138647175Y-141577570D01*
X138934788Y-141454435D01*
X139194707Y-140772266D01*
X139176802Y-140147734D01*
X140805293Y-140147734D01*
X140826214Y-140877443D01*
X141065212Y-141454435D01*
X141352825Y-141577570D01*
X142470395Y-140460000D01*
X142829605Y-140460000D01*
X143947175Y-141577570D01*
X144234788Y-141454435D01*
X144246996Y-141422395D01*
X144330613Y-141624264D01*
X144597468Y-141722927D01*
X145570395Y-140750000D01*
X145929605Y-140750000D01*
X146902532Y-141722927D01*
X147169387Y-141624264D01*
X147395908Y-141014539D01*
X147376331Y-140485461D01*
X150604092Y-140485461D01*
X150628144Y-141135460D01*
X150830613Y-141624264D01*
X151097468Y-141722927D01*
X152070395Y-140750000D01*
X152429605Y-140750000D01*
X153402532Y-141722927D01*
X153669387Y-141624264D01*
X153747957Y-141412778D01*
X153765212Y-141454435D01*
X154052825Y-141577570D01*
X155170395Y-140460000D01*
X155529605Y-140460000D01*
X156647175Y-141577570D01*
X156934788Y-141454435D01*
X157194707Y-140772266D01*
X157173786Y-140042557D01*
X156934788Y-139465565D01*
X156647175Y-139342430D01*
X155529605Y-140460000D01*
X155170395Y-140460000D01*
X154052825Y-139342430D01*
X153765212Y-139465565D01*
X153616394Y-139856143D01*
X153402532Y-139777073D01*
X152429605Y-140750000D01*
X152070395Y-140750000D01*
X151097468Y-139777073D01*
X150830613Y-139875736D01*
X150604092Y-140485461D01*
X147376331Y-140485461D01*
X147371856Y-140364540D01*
X147169387Y-139875736D01*
X146902532Y-139777073D01*
X145929605Y-140750000D01*
X145570395Y-140750000D01*
X144597468Y-139777073D01*
X144394849Y-139851986D01*
X144289425Y-139597468D01*
X144777073Y-139597468D01*
X145750000Y-140570395D01*
X146722927Y-139597468D01*
X151277073Y-139597468D01*
X152250000Y-140570395D01*
X153222927Y-139597468D01*
X153124264Y-139330613D01*
X152672631Y-139162825D01*
X154232430Y-139162825D01*
X155350000Y-140280395D01*
X156467570Y-139162825D01*
X156344435Y-138875212D01*
X155662266Y-138615293D01*
X154932557Y-138636214D01*
X154355565Y-138875212D01*
X154232430Y-139162825D01*
X152672631Y-139162825D01*
X152514539Y-139104092D01*
X151864540Y-139128144D01*
X151375736Y-139330613D01*
X151277073Y-139597468D01*
X146722927Y-139597468D01*
X146624264Y-139330613D01*
X146014539Y-139104092D01*
X145364540Y-139128144D01*
X144875736Y-139330613D01*
X144777073Y-139597468D01*
X144289425Y-139597468D01*
X144234788Y-139465565D01*
X143947175Y-139342430D01*
X142829605Y-140460000D01*
X142470395Y-140460000D01*
X141352825Y-139342430D01*
X141065212Y-139465565D01*
X140805293Y-140147734D01*
X139176802Y-140147734D01*
X139173786Y-140042557D01*
X138934788Y-139465565D01*
X138647175Y-139342430D01*
X137529605Y-140460000D01*
X137170395Y-140460000D01*
X137156253Y-140445858D01*
X137335858Y-140266253D01*
X137350000Y-140280395D01*
X138467570Y-139162825D01*
X141532430Y-139162825D01*
X142650000Y-140280395D01*
X143767570Y-139162825D01*
X143644435Y-138875212D01*
X142962266Y-138615293D01*
X142232557Y-138636214D01*
X141655565Y-138875212D01*
X141532430Y-139162825D01*
X138467570Y-139162825D01*
X138344435Y-138875212D01*
X137662266Y-138615293D01*
X136932557Y-138636214D01*
X136485000Y-138821598D01*
X136485000Y-138306822D01*
X136534838Y-138186799D01*
X136535087Y-137900213D01*
X139199392Y-137900213D01*
X139268857Y-138142397D01*
X139792302Y-138329144D01*
X140347368Y-138301362D01*
X140731143Y-138142397D01*
X140800608Y-137900213D01*
X140000000Y-137099605D01*
X139199392Y-137900213D01*
X136535087Y-137900213D01*
X136535162Y-137814833D01*
X136485000Y-137693431D01*
X136485000Y-136712302D01*
X138590856Y-136712302D01*
X138618638Y-137267368D01*
X138777603Y-137651143D01*
X139019787Y-137720608D01*
X139820395Y-136920000D01*
X140179605Y-136920000D01*
X140980213Y-137720608D01*
X141222397Y-137651143D01*
X141409144Y-137127698D01*
X141381362Y-136572632D01*
X141222397Y-136188857D01*
X140980213Y-136119392D01*
X140179605Y-136920000D01*
X139820395Y-136920000D01*
X139019787Y-136119392D01*
X138777603Y-136188857D01*
X138590856Y-136712302D01*
X136485000Y-136712302D01*
X136485000Y-136265584D01*
X136800900Y-136396757D01*
X137356661Y-136397242D01*
X137870303Y-136185010D01*
X138115954Y-135939787D01*
X139199392Y-135939787D01*
X140000000Y-136740395D01*
X140800608Y-135939787D01*
X140731143Y-135697603D01*
X140207698Y-135510856D01*
X139652632Y-135538638D01*
X139268857Y-135697603D01*
X139199392Y-135939787D01*
X138115954Y-135939787D01*
X138263629Y-135792370D01*
X138476757Y-135279100D01*
X138476759Y-135276661D01*
X141522758Y-135276661D01*
X141734990Y-135790303D01*
X142127630Y-136183629D01*
X142640900Y-136396757D01*
X143196661Y-136397242D01*
X143710303Y-136185010D01*
X144103629Y-135792370D01*
X144316757Y-135279100D01*
X144316759Y-135276661D01*
X151682758Y-135276661D01*
X151894990Y-135790303D01*
X152287630Y-136183629D01*
X152800900Y-136396757D01*
X153356661Y-136397242D01*
X153870303Y-136185010D01*
X154263629Y-135792370D01*
X154476757Y-135279100D01*
X154477242Y-134723339D01*
X154265010Y-134209697D01*
X153872370Y-133816371D01*
X153359100Y-133603243D01*
X152803339Y-133602758D01*
X152289697Y-133814990D01*
X151896371Y-134207630D01*
X151683243Y-134720900D01*
X151682758Y-135276661D01*
X144316759Y-135276661D01*
X144317242Y-134723339D01*
X144105010Y-134209697D01*
X143712370Y-133816371D01*
X143199100Y-133603243D01*
X142643339Y-133602758D01*
X142129697Y-133814990D01*
X141736371Y-134207630D01*
X141523243Y-134720900D01*
X141522758Y-135276661D01*
X138476759Y-135276661D01*
X138477242Y-134723339D01*
X138265010Y-134209697D01*
X137872370Y-133816371D01*
X137359100Y-133603243D01*
X136803339Y-133602758D01*
X136485000Y-133734293D01*
X136485000Y-132804086D01*
X138666269Y-132804086D01*
X138868854Y-133294380D01*
X139243647Y-133669827D01*
X139733587Y-133873268D01*
X140264086Y-133873731D01*
X140754380Y-133671146D01*
X141129827Y-133296353D01*
X141333268Y-132806413D01*
X141333731Y-132275914D01*
X141271040Y-132124188D01*
X159435417Y-132124188D01*
X159497071Y-132359800D01*
X159997480Y-132535927D01*
X160527199Y-132507148D01*
X160882929Y-132359800D01*
X160944583Y-132124188D01*
X160190000Y-131369605D01*
X159435417Y-132124188D01*
X141271040Y-132124188D01*
X141131146Y-131785620D01*
X140756353Y-131410173D01*
X140266413Y-131206732D01*
X139735914Y-131206269D01*
X139245620Y-131408854D01*
X138870173Y-131783647D01*
X138666732Y-132273587D01*
X138666269Y-132804086D01*
X136485000Y-132804086D01*
X136485000Y-131174105D01*
X137037734Y-131384707D01*
X137767443Y-131363786D01*
X138344435Y-131124788D01*
X138467570Y-130837175D01*
X141532430Y-130837175D01*
X141655565Y-131124788D01*
X142337734Y-131384707D01*
X143067443Y-131363786D01*
X143644435Y-131124788D01*
X143767570Y-130837175D01*
X142650000Y-129719605D01*
X141532430Y-130837175D01*
X138467570Y-130837175D01*
X137350000Y-129719605D01*
X137335858Y-129733748D01*
X137156253Y-129554143D01*
X137170395Y-129540000D01*
X137529605Y-129540000D01*
X138647175Y-130657570D01*
X138934788Y-130534435D01*
X139194707Y-129852266D01*
X139176802Y-129227734D01*
X140805293Y-129227734D01*
X140826214Y-129957443D01*
X141065212Y-130534435D01*
X141352825Y-130657570D01*
X142470395Y-129540000D01*
X142829605Y-129540000D01*
X143947175Y-130657570D01*
X144234788Y-130534435D01*
X144285045Y-130402532D01*
X144777073Y-130402532D01*
X144875736Y-130669387D01*
X145485461Y-130895908D01*
X146135460Y-130871856D01*
X146624264Y-130669387D01*
X146722927Y-130402532D01*
X151277073Y-130402532D01*
X151375736Y-130669387D01*
X151985461Y-130895908D01*
X152635460Y-130871856D01*
X152719187Y-130837175D01*
X154232430Y-130837175D01*
X154355565Y-131124788D01*
X155037734Y-131384707D01*
X155767443Y-131363786D01*
X156344435Y-131124788D01*
X156398939Y-130997480D01*
X158844073Y-130997480D01*
X158872852Y-131527199D01*
X159020200Y-131882929D01*
X159255812Y-131944583D01*
X160010395Y-131190000D01*
X159255812Y-130435417D01*
X159020200Y-130497071D01*
X158844073Y-130997480D01*
X156398939Y-130997480D01*
X156467570Y-130837175D01*
X155350000Y-129719605D01*
X154232430Y-130837175D01*
X152719187Y-130837175D01*
X153124264Y-130669387D01*
X153222927Y-130402532D01*
X152250000Y-129429605D01*
X151277073Y-130402532D01*
X146722927Y-130402532D01*
X145750000Y-129429605D01*
X144777073Y-130402532D01*
X144285045Y-130402532D01*
X144383606Y-130143857D01*
X144597468Y-130222927D01*
X145570395Y-129250000D01*
X145929605Y-129250000D01*
X146902532Y-130222927D01*
X147169387Y-130124264D01*
X147395908Y-129514539D01*
X147376331Y-128985461D01*
X150604092Y-128985461D01*
X150628144Y-129635460D01*
X150830613Y-130124264D01*
X151097468Y-130222927D01*
X152070395Y-129250000D01*
X152429605Y-129250000D01*
X153402532Y-130222927D01*
X153605151Y-130148014D01*
X153765212Y-130534435D01*
X154052825Y-130657570D01*
X155170395Y-129540000D01*
X155529605Y-129540000D01*
X156647175Y-130657570D01*
X156934788Y-130534435D01*
X157194707Y-129852266D01*
X157173786Y-129122557D01*
X156934788Y-128545565D01*
X156647175Y-128422430D01*
X155529605Y-129540000D01*
X155170395Y-129540000D01*
X154052825Y-128422430D01*
X153765212Y-128545565D01*
X153753004Y-128577605D01*
X153669387Y-128375736D01*
X153402532Y-128277073D01*
X152429605Y-129250000D01*
X152070395Y-129250000D01*
X151097468Y-128277073D01*
X150830613Y-128375736D01*
X150604092Y-128985461D01*
X147376331Y-128985461D01*
X147371856Y-128864540D01*
X147169387Y-128375736D01*
X146902532Y-128277073D01*
X145929605Y-129250000D01*
X145570395Y-129250000D01*
X144597468Y-128277073D01*
X144330613Y-128375736D01*
X144252043Y-128587222D01*
X144234788Y-128545565D01*
X143947175Y-128422430D01*
X142829605Y-129540000D01*
X142470395Y-129540000D01*
X141352825Y-128422430D01*
X141065212Y-128545565D01*
X140805293Y-129227734D01*
X139176802Y-129227734D01*
X139173786Y-129122557D01*
X138934788Y-128545565D01*
X138647175Y-128422430D01*
X137529605Y-129540000D01*
X137170395Y-129540000D01*
X137156253Y-129525858D01*
X137335858Y-129346253D01*
X137350000Y-129360395D01*
X138316207Y-128394188D01*
X139245417Y-128394188D01*
X139307071Y-128629800D01*
X139807480Y-128805927D01*
X140337199Y-128777148D01*
X140692929Y-128629800D01*
X140754583Y-128394188D01*
X140603220Y-128242825D01*
X141532430Y-128242825D01*
X142650000Y-129360395D01*
X143767570Y-128242825D01*
X143705339Y-128097468D01*
X144777073Y-128097468D01*
X145750000Y-129070395D01*
X146722927Y-128097468D01*
X151277073Y-128097468D01*
X152250000Y-129070395D01*
X153077570Y-128242825D01*
X154232430Y-128242825D01*
X155350000Y-129360395D01*
X156467570Y-128242825D01*
X156344435Y-127955212D01*
X155662266Y-127695293D01*
X154932557Y-127716214D01*
X154355565Y-127955212D01*
X154232430Y-128242825D01*
X153077570Y-128242825D01*
X153222927Y-128097468D01*
X153124264Y-127830613D01*
X152514539Y-127604092D01*
X151864540Y-127628144D01*
X151375736Y-127830613D01*
X151277073Y-128097468D01*
X146722927Y-128097468D01*
X146624264Y-127830613D01*
X146014539Y-127604092D01*
X145364540Y-127628144D01*
X144875736Y-127830613D01*
X144777073Y-128097468D01*
X143705339Y-128097468D01*
X143644435Y-127955212D01*
X142962266Y-127695293D01*
X142232557Y-127716214D01*
X141655565Y-127955212D01*
X141532430Y-128242825D01*
X140603220Y-128242825D01*
X140000000Y-127639605D01*
X139245417Y-128394188D01*
X138316207Y-128394188D01*
X138467570Y-128242825D01*
X138344435Y-127955212D01*
X137662266Y-127695293D01*
X136932557Y-127716214D01*
X136485000Y-127901598D01*
X136485000Y-127267480D01*
X138654073Y-127267480D01*
X138682852Y-127797199D01*
X138830200Y-128152929D01*
X139065812Y-128214583D01*
X139820395Y-127460000D01*
X140179605Y-127460000D01*
X140934188Y-128214583D01*
X141169800Y-128152929D01*
X141345927Y-127652520D01*
X141317148Y-127122801D01*
X141169800Y-126767071D01*
X140934188Y-126705417D01*
X140179605Y-127460000D01*
X139820395Y-127460000D01*
X139065812Y-126705417D01*
X138830200Y-126767071D01*
X138654073Y-127267480D01*
X136485000Y-127267480D01*
X136485000Y-126525812D01*
X139245417Y-126525812D01*
X140000000Y-127280395D01*
X140754583Y-126525812D01*
X140692929Y-126290200D01*
X140192520Y-126114073D01*
X139662801Y-126142852D01*
X139307071Y-126290200D01*
X139245417Y-126525812D01*
X136485000Y-126525812D01*
X136485000Y-126087729D01*
X136983395Y-126294681D01*
X137713403Y-126295318D01*
X138388086Y-126016545D01*
X138904730Y-125500801D01*
X139184681Y-124826605D01*
X139184683Y-124823403D01*
X140814682Y-124823403D01*
X141093455Y-125498086D01*
X141609199Y-126014730D01*
X142283395Y-126294681D01*
X143013403Y-126295318D01*
X143688086Y-126016545D01*
X144204730Y-125500801D01*
X144248048Y-125396481D01*
X144363106Y-125674943D01*
X144822637Y-126135278D01*
X145423352Y-126384716D01*
X146073795Y-126385284D01*
X146674943Y-126136894D01*
X147135278Y-125677363D01*
X147384716Y-125076648D01*
X147384718Y-125073795D01*
X150614716Y-125073795D01*
X150863106Y-125674943D01*
X151322637Y-126135278D01*
X151923352Y-126384716D01*
X152573795Y-126385284D01*
X153174943Y-126136894D01*
X153635278Y-125677363D01*
X153751691Y-125397009D01*
X153793455Y-125498086D01*
X154309199Y-126014730D01*
X154983395Y-126294681D01*
X155713403Y-126295318D01*
X156388086Y-126016545D01*
X156904730Y-125500801D01*
X157184681Y-124826605D01*
X157185318Y-124096597D01*
X156906545Y-123421914D01*
X156878868Y-123394188D01*
X157745417Y-123394188D01*
X157807071Y-123629800D01*
X158307480Y-123805927D01*
X158837199Y-123777148D01*
X159192929Y-123629800D01*
X159254583Y-123394188D01*
X158500000Y-122639605D01*
X157745417Y-123394188D01*
X156878868Y-123394188D01*
X156390801Y-122905270D01*
X156135000Y-122799052D01*
X156135000Y-122267480D01*
X157154073Y-122267480D01*
X157182852Y-122797199D01*
X157330200Y-123152929D01*
X157565812Y-123214583D01*
X158320395Y-122460000D01*
X158679605Y-122460000D01*
X159434188Y-123214583D01*
X159669800Y-123152929D01*
X159820738Y-122724086D01*
X160166269Y-122724086D01*
X160368854Y-123214380D01*
X160743647Y-123589827D01*
X161233587Y-123793268D01*
X161764086Y-123793731D01*
X162254380Y-123591146D01*
X162629827Y-123216353D01*
X162833268Y-122726413D01*
X162833731Y-122195914D01*
X162631146Y-121705620D01*
X162256353Y-121330173D01*
X161766413Y-121126732D01*
X161235914Y-121126269D01*
X160745620Y-121328854D01*
X160370173Y-121703647D01*
X160166732Y-122193587D01*
X160166269Y-122724086D01*
X159820738Y-122724086D01*
X159845927Y-122652520D01*
X159817148Y-122122801D01*
X159669800Y-121767071D01*
X159434188Y-121705417D01*
X158679605Y-122460000D01*
X158320395Y-122460000D01*
X157565812Y-121705417D01*
X157330200Y-121767071D01*
X157154073Y-122267480D01*
X156135000Y-122267480D01*
X156135000Y-121955158D01*
X156564346Y-121525812D01*
X157745417Y-121525812D01*
X158500000Y-122280395D01*
X159254583Y-121525812D01*
X159192929Y-121290200D01*
X158692520Y-121114073D01*
X158162801Y-121142852D01*
X157807071Y-121290200D01*
X157745417Y-121525812D01*
X156564346Y-121525812D01*
X161371644Y-116718514D01*
X161447228Y-116749900D01*
X161289697Y-116814990D01*
X160896371Y-117207630D01*
X160683243Y-117720900D01*
X160682758Y-118276661D01*
X160894990Y-118790303D01*
X161287630Y-119183629D01*
X161800900Y-119396757D01*
X162356661Y-119397242D01*
X162364037Y-119394195D01*
X165715000Y-122745158D01*
X165715000Y-129930888D01*
X165536413Y-129856732D01*
X165188007Y-129856428D01*
X162833534Y-127501954D01*
X162833731Y-127275914D01*
X162631146Y-126785620D01*
X162256353Y-126410173D01*
X161766413Y-126206732D01*
X161235914Y-126206269D01*
X160745620Y-126408854D01*
X160370173Y-126783647D01*
X160166732Y-127273587D01*
X160166643Y-127375064D01*
X159705790Y-126914210D01*
X159676074Y-126894355D01*
X159631146Y-126785620D01*
X159256353Y-126410173D01*
X158766413Y-126206732D01*
X158235914Y-126206269D01*
X157745620Y-126408854D01*
X157370173Y-126783647D01*
X157166732Y-127273587D01*
X157166269Y-127804086D01*
X157368854Y-128294380D01*
X157743647Y-128669827D01*
X158233587Y-128873268D01*
X158764086Y-128873731D01*
X159045764Y-128757344D01*
X160145377Y-129856957D01*
X159852801Y-129872852D01*
X159497071Y-130020200D01*
X159435417Y-130255812D01*
X160190000Y-131010395D01*
X160204143Y-130996253D01*
X160383748Y-131175858D01*
X160369605Y-131190000D01*
X161124188Y-131944583D01*
X161359800Y-131882929D01*
X161458083Y-131603688D01*
X161598854Y-131944380D01*
X161973647Y-132319827D01*
X162463587Y-132523268D01*
X162994086Y-132523731D01*
X163484380Y-132321146D01*
X163859827Y-131946353D01*
X164000094Y-131608554D01*
X164138854Y-131944380D01*
X164513647Y-132319827D01*
X165003587Y-132523268D01*
X165366257Y-132523585D01*
X160413148Y-137476694D01*
X159925914Y-137476269D01*
X159435620Y-137678854D01*
X159060173Y-138053647D01*
X158856732Y-138543587D01*
X158856269Y-139074086D01*
X159058854Y-139564380D01*
X159433647Y-139939827D01*
X159923587Y-140143268D01*
X160454086Y-140143731D01*
X160944380Y-139941146D01*
X161319827Y-139566353D01*
X161460094Y-139228554D01*
X161598854Y-139564380D01*
X161973647Y-139939827D01*
X162463587Y-140143268D01*
X162994086Y-140143731D01*
X163484380Y-139941146D01*
X163859827Y-139566353D01*
X164000094Y-139228554D01*
X164138854Y-139564380D01*
X164513647Y-139939827D01*
X165003587Y-140143268D01*
X165534086Y-140143731D01*
X166024380Y-139941146D01*
X166399827Y-139566353D01*
X166540094Y-139228554D01*
X166678854Y-139564380D01*
X167053647Y-139939827D01*
X167543587Y-140143268D01*
X168074086Y-140143731D01*
X168564380Y-139941146D01*
X168939827Y-139566353D01*
X169143268Y-139076413D01*
X169143731Y-138545914D01*
X168941146Y-138055620D01*
X168566353Y-137680173D01*
X168076413Y-137476732D01*
X167545914Y-137476269D01*
X167055620Y-137678854D01*
X166680173Y-138053647D01*
X166539906Y-138391446D01*
X166401146Y-138055620D01*
X166026353Y-137680173D01*
X165536413Y-137476732D01*
X165005914Y-137476269D01*
X164515620Y-137678854D01*
X164140173Y-138053647D01*
X163999906Y-138391446D01*
X163861146Y-138055620D01*
X163486353Y-137680173D01*
X162996413Y-137476732D01*
X162633743Y-137476415D01*
X167055079Y-133055079D01*
X167225245Y-132800406D01*
X167277852Y-132535940D01*
X168508500Y-132535940D01*
X168743817Y-132491662D01*
X168959941Y-132352590D01*
X169104931Y-132140390D01*
X169155940Y-131888500D01*
X169155940Y-130491500D01*
X169111662Y-130256183D01*
X168972590Y-130040059D01*
X168760390Y-129895069D01*
X168695000Y-129881827D01*
X168695000Y-126841233D01*
X169257330Y-127074733D01*
X169867991Y-127075265D01*
X170432371Y-126842068D01*
X170864551Y-126410643D01*
X171098733Y-125846670D01*
X171099265Y-125236009D01*
X170866068Y-124671629D01*
X170434643Y-124239449D01*
X169870670Y-124005267D01*
X169260009Y-124004735D01*
X168695629Y-124237932D01*
X168695000Y-124238560D01*
X168695000Y-122580580D01*
X169280826Y-121994753D01*
X169867991Y-121995265D01*
X170432371Y-121762068D01*
X170864551Y-121330643D01*
X171098733Y-120766670D01*
X171099265Y-120156009D01*
X170866068Y-119591629D01*
X170434643Y-119159449D01*
X169870670Y-118925267D01*
X169260009Y-118924735D01*
X168695629Y-119157932D01*
X168263449Y-119589357D01*
X168029267Y-120153330D01*
X168028753Y-120743668D01*
X167184210Y-121588210D01*
X167021653Y-121831495D01*
X163474557Y-118284399D01*
X163476757Y-118279100D01*
X163477242Y-117723339D01*
X163265010Y-117209697D01*
X162872370Y-116816371D01*
X162712772Y-116750100D01*
X162870303Y-116685010D01*
X163263629Y-116292370D01*
X163476757Y-115779100D01*
X163477242Y-115223339D01*
X163265010Y-114709697D01*
X162939873Y-114383991D01*
X168028735Y-114383991D01*
X168261932Y-114948371D01*
X168693357Y-115380551D01*
X169257330Y-115614733D01*
X169867991Y-115615265D01*
X170432371Y-115382068D01*
X170864551Y-114950643D01*
X171098733Y-114386670D01*
X171099265Y-113776009D01*
X170866068Y-113211629D01*
X170434643Y-112779449D01*
X169870670Y-112545267D01*
X169260009Y-112544735D01*
X168695629Y-112777932D01*
X168263449Y-113209357D01*
X168029267Y-113773330D01*
X168028735Y-114383991D01*
X162939873Y-114383991D01*
X162872370Y-114316371D01*
X162865000Y-114313311D01*
X162865000Y-114187201D01*
X162870303Y-114185010D01*
X163263629Y-113792370D01*
X163476757Y-113279100D01*
X163477242Y-112723339D01*
X163265010Y-112209697D01*
X162872370Y-111816371D01*
X162359100Y-111603243D01*
X161803339Y-111602758D01*
X161289697Y-111814990D01*
X160896371Y-112207630D01*
X160683243Y-112720900D01*
X160682758Y-113276661D01*
X160894990Y-113790303D01*
X161287630Y-114183629D01*
X161295000Y-114186689D01*
X161295000Y-114312799D01*
X161289697Y-114314990D01*
X160896371Y-114707630D01*
X160707600Y-115162242D01*
X154794921Y-121074921D01*
X154624755Y-121329593D01*
X154611473Y-121396367D01*
X154565000Y-121630000D01*
X154565000Y-122798882D01*
X154311914Y-122903455D01*
X153795270Y-123419199D01*
X153629725Y-123817875D01*
X153177363Y-123364722D01*
X152576648Y-123115284D01*
X151926205Y-123114716D01*
X151325057Y-123363106D01*
X150864722Y-123822637D01*
X150615284Y-124423352D01*
X150614716Y-125073795D01*
X147384718Y-125073795D01*
X147385284Y-124426205D01*
X147136894Y-123825057D01*
X146677363Y-123364722D01*
X146076648Y-123115284D01*
X145426205Y-123114716D01*
X144825057Y-123363106D01*
X144369960Y-123817408D01*
X144206545Y-123421914D01*
X143690801Y-122905270D01*
X143016605Y-122625319D01*
X142286597Y-122624682D01*
X141611914Y-122903455D01*
X141095270Y-123419199D01*
X140815319Y-124093395D01*
X140814682Y-124823403D01*
X139184683Y-124823403D01*
X139185318Y-124096597D01*
X138906545Y-123421914D01*
X138390801Y-122905270D01*
X137716605Y-122625319D01*
X136986597Y-122624682D01*
X136485000Y-122831937D01*
X136485000Y-115776661D01*
X150522758Y-115776661D01*
X150734990Y-116290303D01*
X151127630Y-116683629D01*
X151287228Y-116749900D01*
X151129697Y-116814990D01*
X150736371Y-117207630D01*
X150523243Y-117720900D01*
X150522758Y-118276661D01*
X150734990Y-118790303D01*
X151127630Y-119183629D01*
X151640900Y-119396757D01*
X152196661Y-119397242D01*
X152710303Y-119185010D01*
X153103629Y-118792370D01*
X153316757Y-118279100D01*
X153317242Y-117723339D01*
X153105010Y-117209697D01*
X152712370Y-116816371D01*
X152552772Y-116750100D01*
X152710303Y-116685010D01*
X153103629Y-116292370D01*
X153316757Y-115779100D01*
X153316942Y-115566770D01*
X157231853Y-111651858D01*
X157231856Y-111651856D01*
X157456215Y-111316077D01*
X157535001Y-110920000D01*
X157535000Y-110919995D01*
X157535000Y-110116836D01*
X157546371Y-110105485D01*
X157671522Y-109804086D01*
X159666269Y-109804086D01*
X159868854Y-110294380D01*
X160243647Y-110669827D01*
X160733587Y-110873268D01*
X161264086Y-110873731D01*
X161754380Y-110671146D01*
X162129827Y-110296353D01*
X162333268Y-109806413D01*
X162333706Y-109303991D01*
X168028735Y-109303991D01*
X168261932Y-109868371D01*
X168693357Y-110300551D01*
X169257330Y-110534733D01*
X169867991Y-110535265D01*
X170432371Y-110302068D01*
X170864551Y-109870643D01*
X171098733Y-109306670D01*
X171099265Y-108696009D01*
X170866068Y-108131629D01*
X170434643Y-107699449D01*
X169870670Y-107465267D01*
X169260009Y-107464735D01*
X168695629Y-107697932D01*
X168263449Y-108129357D01*
X168029267Y-108693330D01*
X168028735Y-109303991D01*
X162333706Y-109303991D01*
X162333731Y-109275914D01*
X162131146Y-108785620D01*
X161756353Y-108410173D01*
X161266413Y-108206732D01*
X160735914Y-108206269D01*
X160245620Y-108408854D01*
X159870173Y-108783647D01*
X159666732Y-109273587D01*
X159666269Y-109804086D01*
X157671522Y-109804086D01*
X157734785Y-109651734D01*
X157735214Y-109160421D01*
X157547592Y-108706343D01*
X157200485Y-108358629D01*
X157163785Y-108343390D01*
X156500000Y-107679605D01*
X155836881Y-108342724D01*
X155801343Y-108357408D01*
X155453629Y-108704515D01*
X155265215Y-109158266D01*
X155264786Y-109649579D01*
X155452408Y-110103657D01*
X155465000Y-110116271D01*
X155465000Y-110491289D01*
X153301471Y-112654817D01*
X153301362Y-112652632D01*
X153142397Y-112268857D01*
X152900213Y-112199392D01*
X152099605Y-113000000D01*
X152113748Y-113014143D01*
X151934143Y-113193748D01*
X151920000Y-113179605D01*
X151119392Y-113980213D01*
X151188857Y-114222397D01*
X151277367Y-114253974D01*
X151129697Y-114314990D01*
X150736371Y-114707630D01*
X150523243Y-115220900D01*
X150522758Y-115776661D01*
X136485000Y-115776661D01*
X136485000Y-112792302D01*
X150510856Y-112792302D01*
X150538638Y-113347368D01*
X150697603Y-113731143D01*
X150939787Y-113800608D01*
X151740395Y-113000000D01*
X150939787Y-112199392D01*
X150697603Y-112268857D01*
X150510856Y-112792302D01*
X136485000Y-112792302D01*
X136485000Y-112537506D01*
X136492192Y-112530327D01*
X136634838Y-112186799D01*
X136634983Y-112019787D01*
X151119392Y-112019787D01*
X151920000Y-112820395D01*
X152720608Y-112019787D01*
X152651143Y-111777603D01*
X152127698Y-111590856D01*
X151572632Y-111618638D01*
X151188857Y-111777603D01*
X151119392Y-112019787D01*
X136634983Y-112019787D01*
X136635162Y-111814833D01*
X136618424Y-111774325D01*
X136643384Y-111784689D01*
X137353501Y-111785309D01*
X138009800Y-111514132D01*
X138263348Y-111261025D01*
X141918581Y-111261025D01*
X142035601Y-111543446D01*
X142699663Y-111795018D01*
X143409448Y-111773314D01*
X143964399Y-111543446D01*
X144081419Y-111261025D01*
X143000000Y-110179605D01*
X141918581Y-111261025D01*
X138263348Y-111261025D01*
X138512367Y-111012441D01*
X138784689Y-110356616D01*
X138785262Y-109699663D01*
X141204982Y-109699663D01*
X141226686Y-110409448D01*
X141456554Y-110964399D01*
X141738975Y-111081419D01*
X142820395Y-110000000D01*
X143179605Y-110000000D01*
X144261025Y-111081419D01*
X144543446Y-110964399D01*
X144729156Y-110474188D01*
X152245417Y-110474188D01*
X152307071Y-110709800D01*
X152807480Y-110885927D01*
X153337199Y-110857148D01*
X153692929Y-110709800D01*
X153754583Y-110474188D01*
X153000000Y-109719605D01*
X152245417Y-110474188D01*
X144729156Y-110474188D01*
X144795018Y-110300337D01*
X144773314Y-109590552D01*
X144672631Y-109347480D01*
X151654073Y-109347480D01*
X151682852Y-109877199D01*
X151830200Y-110232929D01*
X152065812Y-110294583D01*
X152820395Y-109540000D01*
X153179605Y-109540000D01*
X153934188Y-110294583D01*
X154169800Y-110232929D01*
X154345927Y-109732520D01*
X154317148Y-109202801D01*
X154169800Y-108847071D01*
X153934188Y-108785417D01*
X153179605Y-109540000D01*
X152820395Y-109540000D01*
X152065812Y-108785417D01*
X151830200Y-108847071D01*
X151654073Y-109347480D01*
X144672631Y-109347480D01*
X144543446Y-109035601D01*
X144261025Y-108918581D01*
X143179605Y-110000000D01*
X142820395Y-110000000D01*
X141738975Y-108918581D01*
X141456554Y-109035601D01*
X141204982Y-109699663D01*
X138785262Y-109699663D01*
X138785309Y-109646499D01*
X138514132Y-108990200D01*
X138263345Y-108738975D01*
X141918581Y-108738975D01*
X143000000Y-109820395D01*
X144081419Y-108738975D01*
X144026244Y-108605812D01*
X152245417Y-108605812D01*
X153000000Y-109360395D01*
X153754583Y-108605812D01*
X153692929Y-108370200D01*
X153192520Y-108194073D01*
X152662801Y-108222852D01*
X152307071Y-108370200D01*
X152245417Y-108605812D01*
X144026244Y-108605812D01*
X143964399Y-108456554D01*
X143300337Y-108204982D01*
X142590552Y-108226686D01*
X142035601Y-108456554D01*
X141918581Y-108738975D01*
X138263345Y-108738975D01*
X138012441Y-108487633D01*
X137777771Y-108390190D01*
X137803138Y-108329099D01*
X137803462Y-107957133D01*
X137661417Y-107613357D01*
X137614800Y-107566658D01*
X137850422Y-107331036D01*
X155252193Y-107331036D01*
X155282518Y-107821413D01*
X155411836Y-108133617D01*
X155637265Y-108183130D01*
X156320395Y-107500000D01*
X156679605Y-107500000D01*
X157362735Y-108183130D01*
X157588164Y-108133617D01*
X157747807Y-107668964D01*
X157717482Y-107178587D01*
X157588164Y-106866383D01*
X157362735Y-106816870D01*
X156679605Y-107500000D01*
X156320395Y-107500000D01*
X155637265Y-106816870D01*
X155411836Y-106866383D01*
X155252193Y-107331036D01*
X137850422Y-107331036D01*
X138003882Y-107177576D01*
X138102367Y-107177662D01*
X138446143Y-107035617D01*
X138709392Y-106772827D01*
X138852038Y-106429299D01*
X138852362Y-106057333D01*
X138762389Y-105839579D01*
X155264786Y-105839579D01*
X155452408Y-106293657D01*
X155799515Y-106641371D01*
X155836215Y-106656610D01*
X156500000Y-107320395D01*
X157163119Y-106657276D01*
X157198657Y-106642592D01*
X157546371Y-106295485D01*
X157734785Y-105841734D01*
X157735175Y-105394188D01*
X160245417Y-105394188D01*
X160307071Y-105629800D01*
X160807480Y-105805927D01*
X161337199Y-105777148D01*
X161692929Y-105629800D01*
X161754583Y-105394188D01*
X161000000Y-104639605D01*
X160245417Y-105394188D01*
X157735175Y-105394188D01*
X157735214Y-105350421D01*
X157547592Y-104896343D01*
X157200485Y-104548629D01*
X156746734Y-104360215D01*
X156255421Y-104359786D01*
X155801343Y-104547408D01*
X155453629Y-104894515D01*
X155265215Y-105348266D01*
X155264786Y-105839579D01*
X138762389Y-105839579D01*
X138710317Y-105713557D01*
X138447527Y-105450308D01*
X138103999Y-105307662D01*
X137732033Y-105307338D01*
X137388257Y-105449383D01*
X137125008Y-105712173D01*
X137036983Y-105924159D01*
X133283421Y-109677721D01*
X133113255Y-109932393D01*
X133057905Y-110210657D01*
X133053500Y-110232800D01*
X133053500Y-112342842D01*
X127254756Y-118141586D01*
X127091146Y-117745620D01*
X126716353Y-117370173D01*
X126226413Y-117166732D01*
X125695914Y-117166269D01*
X125435000Y-117274076D01*
X125435000Y-114981506D01*
X125442192Y-114974327D01*
X125584838Y-114630799D01*
X125585162Y-114258833D01*
X125443117Y-113915057D01*
X125180327Y-113651808D01*
X124836799Y-113509162D01*
X124464833Y-113508838D01*
X124121057Y-113650883D01*
X123857808Y-113913673D01*
X123715162Y-114257201D01*
X123714838Y-114629167D01*
X123856883Y-114972943D01*
X123865000Y-114981074D01*
X123865000Y-122798882D01*
X123611914Y-122903455D01*
X123590649Y-122924683D01*
X123479800Y-122657071D01*
X123244188Y-122595417D01*
X122489605Y-123350000D01*
X122503748Y-123364143D01*
X122324143Y-123543748D01*
X122310000Y-123529605D01*
X122295858Y-123543748D01*
X122116253Y-123364143D01*
X122130395Y-123350000D01*
X122116253Y-123335858D01*
X122295858Y-123156253D01*
X122310000Y-123170395D01*
X123064583Y-122415812D01*
X123002929Y-122180200D01*
X122723688Y-122081917D01*
X123064380Y-121941146D01*
X123439827Y-121566353D01*
X123643268Y-121076413D01*
X123643731Y-120545914D01*
X123441146Y-120055620D01*
X123066353Y-119680173D01*
X122728554Y-119539906D01*
X123064380Y-119401146D01*
X123439827Y-119026353D01*
X123643268Y-118536413D01*
X123643731Y-118005914D01*
X123441146Y-117515620D01*
X123066353Y-117140173D01*
X122728554Y-116999906D01*
X123064380Y-116861146D01*
X123439827Y-116486353D01*
X123643268Y-115996413D01*
X123643731Y-115465914D01*
X123441146Y-114975620D01*
X123066353Y-114600173D01*
X122728554Y-114459906D01*
X123064380Y-114321146D01*
X123439827Y-113946353D01*
X123643268Y-113456413D01*
X123643731Y-112925914D01*
X123441146Y-112435620D01*
X123066353Y-112060173D01*
X122728554Y-111919906D01*
X123064380Y-111781146D01*
X123439827Y-111406353D01*
X123643268Y-110916413D01*
X123643346Y-110826812D01*
X124103185Y-110366973D01*
X124102758Y-110856661D01*
X124314990Y-111370303D01*
X124707630Y-111763629D01*
X125220900Y-111976757D01*
X125776661Y-111977242D01*
X126290303Y-111765010D01*
X126683629Y-111372370D01*
X126749900Y-111212772D01*
X126814990Y-111370303D01*
X127207630Y-111763629D01*
X127720900Y-111976757D01*
X128276661Y-111977242D01*
X128790303Y-111765010D01*
X129183629Y-111372370D01*
X129396757Y-110859100D01*
X129397242Y-110303339D01*
X129185010Y-109789697D01*
X128792370Y-109396371D01*
X128279100Y-109183243D01*
X127723339Y-109182758D01*
X127209697Y-109394990D01*
X126816371Y-109787630D01*
X126750100Y-109947228D01*
X126685010Y-109789697D01*
X126292370Y-109396371D01*
X125779100Y-109183243D01*
X125287344Y-109182814D01*
X127464908Y-107005250D01*
X127464838Y-107085167D01*
X127606883Y-107428943D01*
X127869673Y-107692192D01*
X128213201Y-107834838D01*
X128585167Y-107835162D01*
X128928943Y-107693117D01*
X129192192Y-107430327D01*
X129334838Y-107086799D01*
X129334849Y-107074649D01*
X137960303Y-98434188D01*
X138205417Y-98434188D01*
X138267071Y-98669800D01*
X138767480Y-98845927D01*
X139297199Y-98817148D01*
X139652929Y-98669800D01*
X139714583Y-98434188D01*
X138960000Y-97679605D01*
X138205417Y-98434188D01*
X137960303Y-98434188D01*
X138037561Y-98356796D01*
X138122353Y-98229657D01*
X138207245Y-98102606D01*
X138207313Y-98102266D01*
X138207506Y-98101976D01*
X138214688Y-98065707D01*
X138780395Y-97500000D01*
X139139605Y-97500000D01*
X139894188Y-98254583D01*
X140129800Y-98192929D01*
X140305927Y-97692520D01*
X140277148Y-97162801D01*
X140129800Y-96807071D01*
X139894188Y-96745417D01*
X139139605Y-97500000D01*
X138780395Y-97500000D01*
X138766253Y-97485858D01*
X138945858Y-97306253D01*
X138960000Y-97320395D01*
X139714583Y-96565812D01*
X139652929Y-96330200D01*
X139152520Y-96154073D01*
X138622801Y-96182852D01*
X138267071Y-96330200D01*
X138267000Y-96330471D01*
X138267000Y-95635320D01*
X138525171Y-95727201D01*
X139075448Y-95699230D01*
X139453923Y-95542460D01*
X139521912Y-95301517D01*
X138730000Y-94509605D01*
X138715858Y-94523748D01*
X138536253Y-94344143D01*
X138550395Y-94330000D01*
X138909605Y-94330000D01*
X139701517Y-95121912D01*
X139942460Y-95053923D01*
X140001732Y-94887379D01*
X140095169Y-95113515D01*
X140484436Y-95503461D01*
X140993298Y-95714759D01*
X141544285Y-95715240D01*
X142053515Y-95504831D01*
X142443461Y-95115564D01*
X142539976Y-94883130D01*
X142635169Y-95113515D01*
X143024436Y-95503461D01*
X143155000Y-95557676D01*
X143155000Y-96499246D01*
X142910173Y-96743647D01*
X142706732Y-97233587D01*
X142706269Y-97764086D01*
X142908854Y-98254380D01*
X143283647Y-98629827D01*
X143773587Y-98833268D01*
X144121992Y-98833572D01*
X150374208Y-105085787D01*
X150374210Y-105085790D01*
X150661325Y-105277633D01*
X151000000Y-105345000D01*
X151999246Y-105345000D01*
X152243647Y-105589827D01*
X152733587Y-105793268D01*
X153264086Y-105793731D01*
X153754380Y-105591146D01*
X154129827Y-105216353D01*
X154333268Y-104726413D01*
X154333668Y-104267480D01*
X159654073Y-104267480D01*
X159682852Y-104797199D01*
X159830200Y-105152929D01*
X160065812Y-105214583D01*
X160820395Y-104460000D01*
X161179605Y-104460000D01*
X161934188Y-105214583D01*
X162169800Y-105152929D01*
X162223569Y-105000159D01*
X168663446Y-105000159D01*
X168749852Y-105256643D01*
X169323336Y-105466458D01*
X169933460Y-105440839D01*
X170378148Y-105256643D01*
X170464554Y-105000159D01*
X169564000Y-104099605D01*
X168663446Y-105000159D01*
X162223569Y-105000159D01*
X162345927Y-104652520D01*
X162317148Y-104122801D01*
X162169800Y-103767071D01*
X161934188Y-103705417D01*
X161179605Y-104460000D01*
X160820395Y-104460000D01*
X160065812Y-103705417D01*
X159830200Y-103767071D01*
X159654073Y-104267480D01*
X154333668Y-104267480D01*
X154333731Y-104195914D01*
X154131146Y-103705620D01*
X153951652Y-103525812D01*
X160245417Y-103525812D01*
X161000000Y-104280395D01*
X161601059Y-103679336D01*
X168017542Y-103679336D01*
X168043161Y-104289460D01*
X168227357Y-104734148D01*
X168483841Y-104820554D01*
X169384395Y-103920000D01*
X169743605Y-103920000D01*
X170644159Y-104820554D01*
X170900643Y-104734148D01*
X171110458Y-104160664D01*
X171084839Y-103550540D01*
X170900643Y-103105852D01*
X170644159Y-103019446D01*
X169743605Y-103920000D01*
X169384395Y-103920000D01*
X168483841Y-103019446D01*
X168227357Y-103105852D01*
X168017542Y-103679336D01*
X161601059Y-103679336D01*
X161754583Y-103525812D01*
X161692929Y-103290200D01*
X161192520Y-103114073D01*
X160662801Y-103142852D01*
X160307071Y-103290200D01*
X160245417Y-103525812D01*
X153951652Y-103525812D01*
X153756353Y-103330173D01*
X153266413Y-103126732D01*
X152735914Y-103126269D01*
X152245620Y-103328854D01*
X151999044Y-103575000D01*
X151366579Y-103575000D01*
X150631420Y-102839841D01*
X168663446Y-102839841D01*
X169564000Y-103740395D01*
X170464554Y-102839841D01*
X170378148Y-102583357D01*
X169804664Y-102373542D01*
X169194540Y-102399161D01*
X168749852Y-102583357D01*
X168663446Y-102839841D01*
X150631420Y-102839841D01*
X146648240Y-98856661D01*
X153102758Y-98856661D01*
X153314990Y-99370303D01*
X153707630Y-99763629D01*
X154220900Y-99976757D01*
X154776661Y-99977242D01*
X155290303Y-99765010D01*
X155683629Y-99372370D01*
X155749900Y-99212772D01*
X155814990Y-99370303D01*
X156207630Y-99763629D01*
X156720900Y-99976757D01*
X157276661Y-99977242D01*
X157790303Y-99765010D01*
X158183629Y-99372370D01*
X158249900Y-99212772D01*
X158314990Y-99370303D01*
X158707630Y-99763629D01*
X159220900Y-99976757D01*
X159776661Y-99977242D01*
X160290303Y-99765010D01*
X160683629Y-99372370D01*
X160896757Y-98859100D01*
X160897128Y-98434452D01*
X161487588Y-97843991D01*
X168028735Y-97843991D01*
X168261932Y-98408371D01*
X168693357Y-98840551D01*
X169257330Y-99074733D01*
X169867991Y-99075265D01*
X170432371Y-98842068D01*
X170864551Y-98410643D01*
X171098733Y-97846670D01*
X171099265Y-97236009D01*
X170866068Y-96671629D01*
X170434643Y-96239449D01*
X169870670Y-96005267D01*
X169260009Y-96004735D01*
X168695629Y-96237932D01*
X168263449Y-96669357D01*
X168029267Y-97233330D01*
X168028735Y-97843991D01*
X161487588Y-97843991D01*
X162625787Y-96705792D01*
X162625790Y-96705790D01*
X162817633Y-96418675D01*
X162837182Y-96320395D01*
X162885001Y-96080000D01*
X162885000Y-96079995D01*
X162885000Y-94540754D01*
X163129827Y-94296353D01*
X163333268Y-93806413D01*
X163333500Y-93540159D01*
X168663446Y-93540159D01*
X168749852Y-93796643D01*
X169323336Y-94006458D01*
X169933460Y-93980839D01*
X170378148Y-93796643D01*
X170464554Y-93540159D01*
X169564000Y-92639605D01*
X168663446Y-93540159D01*
X163333500Y-93540159D01*
X163333731Y-93275914D01*
X163131146Y-92785620D01*
X162756353Y-92410173D01*
X162296767Y-92219336D01*
X168017542Y-92219336D01*
X168043161Y-92829460D01*
X168227357Y-93274148D01*
X168483841Y-93360554D01*
X169384395Y-92460000D01*
X169743605Y-92460000D01*
X170644159Y-93360554D01*
X170900643Y-93274148D01*
X171110458Y-92700664D01*
X171084839Y-92090540D01*
X170900643Y-91645852D01*
X170644159Y-91559446D01*
X169743605Y-92460000D01*
X169384395Y-92460000D01*
X168483841Y-91559446D01*
X168227357Y-91645852D01*
X168017542Y-92219336D01*
X162296767Y-92219336D01*
X162266413Y-92206732D01*
X161735914Y-92206269D01*
X161245620Y-92408854D01*
X160870173Y-92783647D01*
X160666732Y-93273587D01*
X160666269Y-93804086D01*
X160868854Y-94294380D01*
X161115000Y-94540956D01*
X161115000Y-95713421D01*
X159645294Y-97183126D01*
X159223339Y-97182758D01*
X158709697Y-97394990D01*
X158316371Y-97787630D01*
X158250100Y-97947228D01*
X158185010Y-97789697D01*
X157792370Y-97396371D01*
X157279100Y-97183243D01*
X156723339Y-97182758D01*
X156209697Y-97394990D01*
X155816371Y-97787630D01*
X155750100Y-97947228D01*
X155685010Y-97789697D01*
X155292370Y-97396371D01*
X154779100Y-97183243D01*
X154223339Y-97182758D01*
X153709697Y-97394990D01*
X153316371Y-97787630D01*
X153103243Y-98300900D01*
X153102758Y-98856661D01*
X146648240Y-98856661D01*
X146226516Y-98434937D01*
X146485167Y-98435162D01*
X146828943Y-98293117D01*
X147092192Y-98030327D01*
X147234838Y-97686799D01*
X147235162Y-97314833D01*
X147109683Y-97011149D01*
X147134075Y-96509203D01*
X147131227Y-96490070D01*
X147135000Y-96471100D01*
X147135000Y-95503349D01*
X147523461Y-95115564D01*
X147619976Y-94883130D01*
X147715169Y-95113515D01*
X148104436Y-95503461D01*
X148613298Y-95714759D01*
X149164285Y-95715240D01*
X149673515Y-95504831D01*
X150043080Y-95135909D01*
X150076838Y-95315317D01*
X150215910Y-95531441D01*
X150428110Y-95676431D01*
X150680000Y-95727440D01*
X152180000Y-95727440D01*
X152415317Y-95683162D01*
X152631441Y-95544090D01*
X152776431Y-95331890D01*
X152827440Y-95080000D01*
X152827440Y-93580000D01*
X152783162Y-93344683D01*
X152644090Y-93128559D01*
X152431890Y-92983569D01*
X152180000Y-92932560D01*
X150680000Y-92932560D01*
X150444683Y-92976838D01*
X150228559Y-93115910D01*
X150083569Y-93328110D01*
X150043645Y-93525262D01*
X149675564Y-93156539D01*
X149166702Y-92945241D01*
X148615715Y-92944760D01*
X148106485Y-93155169D01*
X147716539Y-93544436D01*
X147620024Y-93776870D01*
X147524831Y-93546485D01*
X147135564Y-93156539D01*
X146626702Y-92945241D01*
X146075715Y-92944760D01*
X145566485Y-93155169D01*
X145176539Y-93544436D01*
X145080024Y-93776870D01*
X144984831Y-93546485D01*
X144695000Y-93256148D01*
X144695000Y-91379841D01*
X168663446Y-91379841D01*
X169564000Y-92280395D01*
X170464554Y-91379841D01*
X170378148Y-91123357D01*
X169804664Y-90913542D01*
X169194540Y-90939161D01*
X168749852Y-91123357D01*
X168663446Y-91379841D01*
X144695000Y-91379841D01*
X144695000Y-90352784D01*
X144800900Y-90396757D01*
X145356661Y-90397242D01*
X145870303Y-90185010D01*
X146263629Y-89792370D01*
X146476757Y-89279100D01*
X146477242Y-88723339D01*
X146466219Y-88696661D01*
X153102758Y-88696661D01*
X153314990Y-89210303D01*
X153707630Y-89603629D01*
X154220900Y-89816757D01*
X154776661Y-89817242D01*
X155290303Y-89605010D01*
X155683629Y-89212370D01*
X155749900Y-89052772D01*
X155814990Y-89210303D01*
X156207630Y-89603629D01*
X156720900Y-89816757D01*
X157276661Y-89817242D01*
X157790303Y-89605010D01*
X158183629Y-89212370D01*
X158249900Y-89052772D01*
X158314990Y-89210303D01*
X158707630Y-89603629D01*
X159220900Y-89816757D01*
X159776661Y-89817242D01*
X160290303Y-89605010D01*
X160501493Y-89394188D01*
X161245417Y-89394188D01*
X161307071Y-89629800D01*
X161807480Y-89805927D01*
X162337199Y-89777148D01*
X162692929Y-89629800D01*
X162754583Y-89394188D01*
X162000000Y-88639605D01*
X161245417Y-89394188D01*
X160501493Y-89394188D01*
X160683629Y-89212370D01*
X160769331Y-89005977D01*
X160830200Y-89152929D01*
X161065812Y-89214583D01*
X161820395Y-88460000D01*
X162179605Y-88460000D01*
X162934188Y-89214583D01*
X163169800Y-89152929D01*
X163345927Y-88652520D01*
X163317148Y-88122801D01*
X163169800Y-87767071D01*
X162934188Y-87705417D01*
X162179605Y-88460000D01*
X161820395Y-88460000D01*
X161065812Y-87705417D01*
X160830200Y-87767071D01*
X160789524Y-87882640D01*
X160685010Y-87629697D01*
X160581307Y-87525812D01*
X161245417Y-87525812D01*
X162000000Y-88280395D01*
X162754583Y-87525812D01*
X162692929Y-87290200D01*
X162192520Y-87114073D01*
X161662801Y-87142852D01*
X161307071Y-87290200D01*
X161245417Y-87525812D01*
X160581307Y-87525812D01*
X160292370Y-87236371D01*
X159779100Y-87023243D01*
X159223339Y-87022758D01*
X158709697Y-87234990D01*
X158316371Y-87627630D01*
X158250100Y-87787228D01*
X158185010Y-87629697D01*
X157792370Y-87236371D01*
X157279100Y-87023243D01*
X156723339Y-87022758D01*
X156209697Y-87234990D01*
X155816371Y-87627630D01*
X155750100Y-87787228D01*
X155685010Y-87629697D01*
X155292370Y-87236371D01*
X155285000Y-87233311D01*
X155285000Y-86345458D01*
X155975076Y-85655381D01*
X155975079Y-85655379D01*
X156145245Y-85400706D01*
X156194487Y-85153152D01*
X156399343Y-85016272D01*
X156699573Y-84566946D01*
X156701846Y-84555520D01*
X156729028Y-84647349D01*
X157070460Y-85069145D01*
X157547316Y-85328173D01*
X157618815Y-85342318D01*
X157833000Y-85219656D01*
X157833000Y-83627000D01*
X157813000Y-83627000D01*
X157813000Y-83373000D01*
X157833000Y-83373000D01*
X157833000Y-81780344D01*
X158087000Y-81780344D01*
X158087000Y-83373000D01*
X158107000Y-83373000D01*
X158107000Y-83627000D01*
X158087000Y-83627000D01*
X158087000Y-85219656D01*
X158301185Y-85342318D01*
X158372684Y-85328173D01*
X158849540Y-85069145D01*
X159190972Y-84647349D01*
X159218154Y-84555520D01*
X159220427Y-84566946D01*
X159520657Y-85016272D01*
X159969983Y-85316502D01*
X160500000Y-85421929D01*
X161030017Y-85316502D01*
X161479343Y-85016272D01*
X161770000Y-84581273D01*
X162060657Y-85016272D01*
X162509983Y-85316502D01*
X163040000Y-85421929D01*
X163570017Y-85316502D01*
X164019343Y-85016272D01*
X164185790Y-84767166D01*
X164226838Y-84985317D01*
X164365910Y-85201441D01*
X164578110Y-85346431D01*
X164830000Y-85397440D01*
X166330000Y-85397440D01*
X166565317Y-85353162D01*
X166781441Y-85214090D01*
X166926431Y-85001890D01*
X166977440Y-84750000D01*
X166977440Y-82250000D01*
X166933162Y-82014683D01*
X166794090Y-81798559D01*
X166581890Y-81653569D01*
X166330000Y-81602560D01*
X164830000Y-81602560D01*
X164594683Y-81646838D01*
X164378559Y-81785910D01*
X164233569Y-81998110D01*
X164185979Y-82233116D01*
X164019343Y-81983728D01*
X163570017Y-81683498D01*
X163040000Y-81578071D01*
X162509983Y-81683498D01*
X162060657Y-81983728D01*
X161770000Y-82418727D01*
X161479343Y-81983728D01*
X161030017Y-81683498D01*
X160500000Y-81578071D01*
X159969983Y-81683498D01*
X159520657Y-81983728D01*
X159220427Y-82433054D01*
X159218154Y-82444480D01*
X159190972Y-82352651D01*
X158849540Y-81930855D01*
X158372684Y-81671827D01*
X158301185Y-81657682D01*
X158087000Y-81780344D01*
X157833000Y-81780344D01*
X157618815Y-81657682D01*
X157547316Y-81671827D01*
X157070460Y-81930855D01*
X156729028Y-82352651D01*
X156701846Y-82444480D01*
X156699573Y-82433054D01*
X156399343Y-81983728D01*
X155950017Y-81683498D01*
X155420000Y-81578071D01*
X154889983Y-81683498D01*
X154440657Y-81983728D01*
X154140427Y-82433054D01*
X154035000Y-82963071D01*
X154035000Y-84036929D01*
X154140427Y-84566946D01*
X154421917Y-84988226D01*
X153944921Y-85465221D01*
X153774755Y-85719893D01*
X153743158Y-85878740D01*
X153715000Y-86020300D01*
X153715000Y-87232799D01*
X153709697Y-87234990D01*
X153316371Y-87627630D01*
X153103243Y-88140900D01*
X153102758Y-88696661D01*
X146466219Y-88696661D01*
X146265010Y-88209697D01*
X145872370Y-87816371D01*
X145359100Y-87603243D01*
X144803339Y-87602758D01*
X144695000Y-87647523D01*
X144695000Y-84573523D01*
X144963080Y-84305909D01*
X144996838Y-84485317D01*
X145135910Y-84701441D01*
X145348110Y-84846431D01*
X145600000Y-84897440D01*
X147100000Y-84897440D01*
X147335317Y-84853162D01*
X147551441Y-84714090D01*
X147696431Y-84501890D01*
X147747440Y-84250000D01*
X147747440Y-82750000D01*
X147703162Y-82514683D01*
X147564090Y-82298559D01*
X147351890Y-82153569D01*
X147100000Y-82102560D01*
X145600000Y-82102560D01*
X145364683Y-82146838D01*
X145148559Y-82285910D01*
X145003569Y-82498110D01*
X144963645Y-82695262D01*
X144595564Y-82326539D01*
X144086702Y-82115241D01*
X143535715Y-82114760D01*
X143026485Y-82325169D01*
X142636539Y-82714436D01*
X142546623Y-82930979D01*
X142482460Y-82776077D01*
X142241517Y-82708088D01*
X141449605Y-83500000D01*
X142241517Y-84291912D01*
X142482460Y-84223923D01*
X142541732Y-84057379D01*
X142635169Y-84283515D01*
X142925000Y-84573852D01*
X142925000Y-93256477D01*
X142636539Y-93544436D01*
X142540024Y-93776870D01*
X142444831Y-93546485D01*
X142055564Y-93156539D01*
X141546702Y-92945241D01*
X140995715Y-92944760D01*
X140486485Y-93155169D01*
X140096539Y-93544436D01*
X140006623Y-93760979D01*
X139942460Y-93606077D01*
X139701517Y-93538088D01*
X138909605Y-94330000D01*
X138550395Y-94330000D01*
X138536253Y-94315858D01*
X138715858Y-94136253D01*
X138730000Y-94150395D01*
X139521912Y-93358483D01*
X139453923Y-93117540D01*
X138934829Y-92932799D01*
X138384552Y-92960770D01*
X138267000Y-93009462D01*
X138267000Y-85073158D01*
X138455397Y-84884761D01*
X139004285Y-84885240D01*
X139513515Y-84674831D01*
X139717183Y-84471517D01*
X140478088Y-84471517D01*
X140546077Y-84712460D01*
X141065171Y-84897201D01*
X141615448Y-84869230D01*
X141993923Y-84712460D01*
X142061912Y-84471517D01*
X141270000Y-83679605D01*
X140478088Y-84471517D01*
X139717183Y-84471517D01*
X139903461Y-84285564D01*
X139993377Y-84069021D01*
X140057540Y-84223923D01*
X140298483Y-84291912D01*
X141090395Y-83500000D01*
X140298483Y-82708088D01*
X140057540Y-82776077D01*
X139998268Y-82942621D01*
X139904831Y-82716485D01*
X139717157Y-82528483D01*
X140478088Y-82528483D01*
X141270000Y-83320395D01*
X142061912Y-82528483D01*
X141993923Y-82287540D01*
X141474829Y-82102799D01*
X140924552Y-82130770D01*
X140546077Y-82287540D01*
X140478088Y-82528483D01*
X139717157Y-82528483D01*
X139515564Y-82326539D01*
X139006702Y-82115241D01*
X138455715Y-82114760D01*
X137946485Y-82325169D01*
X137556539Y-82714436D01*
X137460024Y-82946870D01*
X137364831Y-82716485D01*
X136975564Y-82326539D01*
X136466702Y-82115241D01*
X135915715Y-82114760D01*
X135406485Y-82325169D01*
X135016539Y-82714436D01*
X134920024Y-82946870D01*
X134824831Y-82716485D01*
X134435564Y-82326539D01*
X133926702Y-82115241D01*
X133375715Y-82114760D01*
X132866485Y-82325169D01*
X132476539Y-82714436D01*
X132265241Y-83223298D01*
X132264760Y-83774285D01*
X132475169Y-84283515D01*
X132864436Y-84673461D01*
X133373298Y-84884759D01*
X133924285Y-84885240D01*
X134433515Y-84674831D01*
X134823461Y-84285564D01*
X134919976Y-84053130D01*
X135015169Y-84283515D01*
X135404436Y-84673461D01*
X135405000Y-84673695D01*
X135405000Y-87688740D01*
X135199100Y-87603243D01*
X134643339Y-87602758D01*
X134129697Y-87814990D01*
X133736371Y-88207630D01*
X133523243Y-88720900D01*
X133522758Y-89276661D01*
X133734990Y-89790303D01*
X134127630Y-90183629D01*
X134640900Y-90396757D01*
X135196661Y-90397242D01*
X135405000Y-90311158D01*
X135405000Y-90486560D01*
X134377899Y-91513743D01*
X134289634Y-91645852D01*
X134207755Y-91768394D01*
X134207752Y-91768408D01*
X134207743Y-91768422D01*
X134177245Y-91921775D01*
X134148000Y-92068800D01*
X134148000Y-93037132D01*
X133926702Y-92945241D01*
X133375715Y-92944760D01*
X132866485Y-93155169D01*
X132476539Y-93544436D01*
X132380024Y-93776870D01*
X132284831Y-93546485D01*
X131895564Y-93156539D01*
X131386702Y-92945241D01*
X130835715Y-92944760D01*
X130326485Y-93155169D01*
X129936539Y-93544436D01*
X129840024Y-93776870D01*
X129744831Y-93546485D01*
X129355564Y-93156539D01*
X128846702Y-92945241D01*
X128295715Y-92944760D01*
X127786485Y-93155169D01*
X127396539Y-93544436D01*
X127185241Y-94053298D01*
X127184760Y-94604285D01*
X127395169Y-95113515D01*
X127784436Y-95503461D01*
X128293298Y-95714759D01*
X128844285Y-95715240D01*
X129353515Y-95504831D01*
X129743461Y-95115564D01*
X129839976Y-94883130D01*
X129935169Y-95113515D01*
X130324436Y-95503461D01*
X130833298Y-95714759D01*
X131384285Y-95715240D01*
X131893515Y-95504831D01*
X132283461Y-95115564D01*
X132379976Y-94883130D01*
X132475169Y-95113515D01*
X132864436Y-95503461D01*
X133373298Y-95714759D01*
X133924285Y-95715240D01*
X134148000Y-95622803D01*
X134148000Y-96760647D01*
X132587020Y-98321656D01*
X132521117Y-98162157D01*
X132258327Y-97898908D01*
X131914799Y-97756262D01*
X131542833Y-97755938D01*
X131199057Y-97897983D01*
X130935808Y-98160773D01*
X130793162Y-98504301D01*
X130793151Y-98517171D01*
X129329896Y-99980348D01*
X129185010Y-99629697D01*
X128792370Y-99236371D01*
X128279100Y-99023243D01*
X127723339Y-99022758D01*
X127209697Y-99234990D01*
X126816371Y-99627630D01*
X126750100Y-99787228D01*
X126685010Y-99629697D01*
X126292370Y-99236371D01*
X125779100Y-99023243D01*
X125223339Y-99022758D01*
X124709697Y-99234990D01*
X124469000Y-99475267D01*
X124469000Y-97866586D01*
X125044471Y-97335127D01*
X125085167Y-97335162D01*
X125428943Y-97193117D01*
X125692192Y-96930327D01*
X125834838Y-96586799D01*
X125835162Y-96214833D01*
X125693117Y-95871057D01*
X125430327Y-95607808D01*
X125086799Y-95465162D01*
X124714833Y-95464838D01*
X124371057Y-95606883D01*
X124107808Y-95869673D01*
X123977560Y-96183343D01*
X123373290Y-96741398D01*
X123373731Y-96235914D01*
X123171146Y-95745620D01*
X122796353Y-95370173D01*
X122306413Y-95166732D01*
X121775914Y-95166269D01*
X121771000Y-95168299D01*
X121771000Y-93573795D01*
X123614716Y-93573795D01*
X123863106Y-94174943D01*
X124322637Y-94635278D01*
X124923352Y-94884716D01*
X125573795Y-94885284D01*
X126174943Y-94636894D01*
X126635278Y-94177363D01*
X126884716Y-93576648D01*
X126885284Y-92926205D01*
X126636894Y-92325057D01*
X126177363Y-91864722D01*
X125576648Y-91615284D01*
X124926205Y-91614716D01*
X124325057Y-91863106D01*
X123864722Y-92322637D01*
X123615284Y-92923352D01*
X123614716Y-93573795D01*
X121771000Y-93573795D01*
X121771000Y-89902532D01*
X124277073Y-89902532D01*
X124375736Y-90169387D01*
X124985461Y-90395908D01*
X125635460Y-90371856D01*
X126124264Y-90169387D01*
X126222927Y-89902532D01*
X125250000Y-88929605D01*
X124277073Y-89902532D01*
X121771000Y-89902532D01*
X121771000Y-88485461D01*
X123604092Y-88485461D01*
X123628144Y-89135460D01*
X123830613Y-89624264D01*
X124097468Y-89722927D01*
X125070395Y-88750000D01*
X125429605Y-88750000D01*
X126402532Y-89722927D01*
X126669387Y-89624264D01*
X126895908Y-89014539D01*
X126871856Y-88364540D01*
X126669387Y-87875736D01*
X126402532Y-87777073D01*
X125429605Y-88750000D01*
X125070395Y-88750000D01*
X124097468Y-87777073D01*
X123830613Y-87875736D01*
X123604092Y-88485461D01*
X121771000Y-88485461D01*
X121771000Y-87597468D01*
X124277073Y-87597468D01*
X125250000Y-88570395D01*
X126222927Y-87597468D01*
X126124264Y-87330613D01*
X125514539Y-87104092D01*
X124864540Y-87128144D01*
X124375736Y-87330613D01*
X124277073Y-87597468D01*
X121771000Y-87597468D01*
X121771000Y-85648808D01*
X122535215Y-84884761D01*
X123084285Y-84885240D01*
X123593515Y-84674831D01*
X123963080Y-84305909D01*
X123996838Y-84485317D01*
X124135910Y-84701441D01*
X124348110Y-84846431D01*
X124600000Y-84897440D01*
X126100000Y-84897440D01*
X126335317Y-84853162D01*
X126551441Y-84714090D01*
X126696431Y-84501890D01*
X126747440Y-84250000D01*
X126747440Y-82750000D01*
X126703162Y-82514683D01*
X126564090Y-82298559D01*
X126351890Y-82153569D01*
X126100000Y-82102560D01*
X124600000Y-82102560D01*
X124364683Y-82146838D01*
X124148559Y-82285910D01*
X124003569Y-82498110D01*
X123963645Y-82695262D01*
X123595564Y-82326539D01*
X123086702Y-82115241D01*
X122535715Y-82114760D01*
X122026485Y-82325169D01*
X121636539Y-82714436D01*
X121540024Y-82946870D01*
X121444831Y-82716485D01*
X121055564Y-82326539D01*
X120546702Y-82115241D01*
X119995715Y-82114760D01*
X119486485Y-82325169D01*
X119096539Y-82714436D01*
X119000024Y-82946870D01*
X118904831Y-82716485D01*
X118515564Y-82326539D01*
X118006702Y-82115241D01*
X117455715Y-82114760D01*
X116946485Y-82325169D01*
X116556539Y-82714436D01*
X116460024Y-82946870D01*
X116364831Y-82716485D01*
X115975564Y-82326539D01*
X115466702Y-82115241D01*
X114915715Y-82114760D01*
X114406485Y-82325169D01*
X114016539Y-82714436D01*
X113926623Y-82930979D01*
X113862460Y-82776077D01*
X113621517Y-82708088D01*
X112829605Y-83500000D01*
X113621517Y-84291912D01*
X113862460Y-84223923D01*
X113921732Y-84057379D01*
X114015169Y-84283515D01*
X114404436Y-84673461D01*
X114913298Y-84884759D01*
X115464285Y-84885240D01*
X115973515Y-84674831D01*
X116363461Y-84285564D01*
X116459976Y-84053130D01*
X116555169Y-84283515D01*
X116944436Y-84673461D01*
X117453298Y-84884759D01*
X118004285Y-84885240D01*
X118513515Y-84674831D01*
X118903461Y-84285564D01*
X118999976Y-84053130D01*
X119095169Y-84283515D01*
X119484436Y-84673461D01*
X119485000Y-84673695D01*
X119485000Y-87278875D01*
X119014539Y-87104092D01*
X118364540Y-87128144D01*
X117875736Y-87330613D01*
X117777073Y-87597468D01*
X118750000Y-88570395D01*
X118764143Y-88556253D01*
X118943748Y-88735858D01*
X118929605Y-88750000D01*
X118943748Y-88764143D01*
X118764143Y-88943748D01*
X118750000Y-88929605D01*
X117777073Y-89902532D01*
X117875736Y-90169387D01*
X118485461Y-90395908D01*
X119135460Y-90371856D01*
X119485000Y-90227072D01*
X119485000Y-91784846D01*
X119076648Y-91615284D01*
X118426205Y-91614716D01*
X117825057Y-91863106D01*
X117364722Y-92322637D01*
X117115284Y-92923352D01*
X117114716Y-93573795D01*
X117363106Y-94174943D01*
X117822637Y-94635278D01*
X117965000Y-94694392D01*
X117965000Y-95763947D01*
X117894188Y-95745417D01*
X117139605Y-96500000D01*
X117153748Y-96514143D01*
X116974143Y-96693748D01*
X116960000Y-96679605D01*
X116205417Y-97434188D01*
X116267071Y-97669800D01*
X116268490Y-97670299D01*
X114794764Y-99144060D01*
X113991500Y-99144060D01*
X113756183Y-99188338D01*
X113540059Y-99327410D01*
X113395069Y-99539610D01*
X113344060Y-99791500D01*
X113344060Y-100573902D01*
X112940079Y-100169921D01*
X112685407Y-99999755D01*
X112385000Y-99940000D01*
X108965662Y-99940000D01*
X108681946Y-99750427D01*
X108670520Y-99748154D01*
X108762349Y-99720972D01*
X109184145Y-99379540D01*
X109443173Y-98902684D01*
X109457318Y-98831185D01*
X109334656Y-98617000D01*
X107742000Y-98617000D01*
X107742000Y-98637000D01*
X107488000Y-98637000D01*
X107488000Y-98617000D01*
X105895344Y-98617000D01*
X105772682Y-98831185D01*
X105786827Y-98902684D01*
X106045855Y-99379540D01*
X106467651Y-99720972D01*
X106559480Y-99748154D01*
X106548054Y-99750427D01*
X106098728Y-100050657D01*
X105798498Y-100499983D01*
X105710000Y-100944892D01*
X105710000Y-96035108D01*
X105798498Y-96480017D01*
X106098728Y-96929343D01*
X106548054Y-97229573D01*
X106559480Y-97231846D01*
X106467651Y-97259028D01*
X106045855Y-97600460D01*
X105786827Y-98077316D01*
X105772682Y-98148815D01*
X105895344Y-98363000D01*
X107488000Y-98363000D01*
X107488000Y-98343000D01*
X107742000Y-98343000D01*
X107742000Y-98363000D01*
X109334656Y-98363000D01*
X109457318Y-98148815D01*
X109443173Y-98077316D01*
X109184145Y-97600460D01*
X108762349Y-97259028D01*
X108670520Y-97231846D01*
X108681946Y-97229573D01*
X109131272Y-96929343D01*
X109431502Y-96480017D01*
X109536929Y-95950000D01*
X109431502Y-95419983D01*
X109282284Y-95196661D01*
X109602758Y-95196661D01*
X109814990Y-95710303D01*
X110207630Y-96103629D01*
X110720900Y-96316757D01*
X111276661Y-96317242D01*
X111300286Y-96307480D01*
X115614073Y-96307480D01*
X115642852Y-96837199D01*
X115790200Y-97192929D01*
X116025812Y-97254583D01*
X116780395Y-96500000D01*
X116025812Y-95745417D01*
X115790200Y-95807071D01*
X115614073Y-96307480D01*
X111300286Y-96307480D01*
X111790303Y-96105010D01*
X112183629Y-95712370D01*
X112244485Y-95565812D01*
X116205417Y-95565812D01*
X116960000Y-96320395D01*
X117714583Y-95565812D01*
X117652929Y-95330200D01*
X117152520Y-95154073D01*
X116622801Y-95182852D01*
X116267071Y-95330200D01*
X116205417Y-95565812D01*
X112244485Y-95565812D01*
X112396757Y-95199100D01*
X112397242Y-94643339D01*
X112204147Y-94176011D01*
X113657301Y-92722857D01*
X113705677Y-92742944D01*
X114291752Y-92743455D01*
X114833411Y-92519647D01*
X115248190Y-92105591D01*
X115472944Y-91564323D01*
X115473455Y-90978248D01*
X115249647Y-90436589D01*
X114835591Y-90021810D01*
X114782005Y-89999559D01*
X114855808Y-89765413D01*
X114000000Y-88909605D01*
X113144192Y-89765413D01*
X113217871Y-89999164D01*
X113166589Y-90020353D01*
X112751810Y-90434409D01*
X112527056Y-90975677D01*
X112526545Y-91561752D01*
X112547463Y-91612379D01*
X110576349Y-93583493D01*
X110209697Y-93734990D01*
X109816371Y-94127630D01*
X109603243Y-94640900D01*
X109602758Y-95196661D01*
X109282284Y-95196661D01*
X109131272Y-94970657D01*
X108696273Y-94680000D01*
X109131272Y-94389343D01*
X109431502Y-93940017D01*
X109536929Y-93410000D01*
X109431502Y-92879983D01*
X109131272Y-92430657D01*
X108696273Y-92140000D01*
X109131272Y-91849343D01*
X109431502Y-91400017D01*
X109536929Y-90870000D01*
X109431502Y-90339983D01*
X109131272Y-89890657D01*
X108681946Y-89590427D01*
X108670520Y-89588154D01*
X108762349Y-89560972D01*
X109184145Y-89219540D01*
X109443173Y-88742684D01*
X109457318Y-88671185D01*
X109361629Y-88504097D01*
X112515023Y-88504097D01*
X112541611Y-89089569D01*
X112714510Y-89506983D01*
X112964587Y-89585808D01*
X113820395Y-88730000D01*
X114179605Y-88730000D01*
X115035413Y-89585808D01*
X115285490Y-89506983D01*
X115484977Y-88955903D01*
X115463613Y-88485461D01*
X117104092Y-88485461D01*
X117128144Y-89135460D01*
X117330613Y-89624264D01*
X117597468Y-89722927D01*
X118570395Y-88750000D01*
X117597468Y-87777073D01*
X117330613Y-87875736D01*
X117104092Y-88485461D01*
X115463613Y-88485461D01*
X115458389Y-88370431D01*
X115285490Y-87953017D01*
X115035413Y-87874192D01*
X114179605Y-88730000D01*
X113820395Y-88730000D01*
X112964587Y-87874192D01*
X112714510Y-87953017D01*
X112515023Y-88504097D01*
X109361629Y-88504097D01*
X109334656Y-88457000D01*
X107742000Y-88457000D01*
X107742000Y-88477000D01*
X107488000Y-88477000D01*
X107488000Y-88457000D01*
X105895344Y-88457000D01*
X105772682Y-88671185D01*
X105786827Y-88742684D01*
X106045855Y-89219540D01*
X106467651Y-89560972D01*
X106559480Y-89588154D01*
X106548054Y-89590427D01*
X106098728Y-89890657D01*
X105798498Y-90339983D01*
X105710000Y-90784892D01*
X105710000Y-87988815D01*
X105772682Y-87988815D01*
X105895344Y-88203000D01*
X107488000Y-88203000D01*
X107488000Y-86945000D01*
X107742000Y-86945000D01*
X107742000Y-88203000D01*
X109334656Y-88203000D01*
X109457318Y-87988815D01*
X109443173Y-87917316D01*
X109322187Y-87694587D01*
X113144192Y-87694587D01*
X114000000Y-88550395D01*
X114855808Y-87694587D01*
X114776983Y-87444510D01*
X114225903Y-87245023D01*
X113640431Y-87271611D01*
X113223017Y-87444510D01*
X113144192Y-87694587D01*
X109322187Y-87694587D01*
X109184145Y-87440460D01*
X108762349Y-87099028D01*
X108242000Y-86945000D01*
X107742000Y-86945000D01*
X107488000Y-86945000D01*
X106988000Y-86945000D01*
X106467651Y-87099028D01*
X106045855Y-87440460D01*
X105786827Y-87917316D01*
X105772682Y-87988815D01*
X105710000Y-87988815D01*
X105710000Y-85143433D01*
X106221847Y-85656174D01*
X107373674Y-86134454D01*
X108620854Y-86135543D01*
X109773515Y-85659273D01*
X110656174Y-84778153D01*
X110783500Y-84471517D01*
X111858088Y-84471517D01*
X111926077Y-84712460D01*
X112445171Y-84897201D01*
X112995448Y-84869230D01*
X113373923Y-84712460D01*
X113441912Y-84471517D01*
X112650000Y-83679605D01*
X111858088Y-84471517D01*
X110783500Y-84471517D01*
X111134454Y-83626326D01*
X111134743Y-83295171D01*
X111252799Y-83295171D01*
X111280770Y-83845448D01*
X111437540Y-84223923D01*
X111678483Y-84291912D01*
X112470395Y-83500000D01*
X111678483Y-82708088D01*
X111437540Y-82776077D01*
X111252799Y-83295171D01*
X111134743Y-83295171D01*
X111135412Y-82528483D01*
X111858088Y-82528483D01*
X112650000Y-83320395D01*
X113441912Y-82528483D01*
X113373923Y-82287540D01*
X112854829Y-82102799D01*
X112304552Y-82130770D01*
X111926077Y-82287540D01*
X111858088Y-82528483D01*
X111135412Y-82528483D01*
X111135543Y-82379146D01*
X110659273Y-81226485D01*
X110143689Y-80710000D01*
X128801209Y-80710000D01*
X128666539Y-80844436D01*
X128666539Y-80844436D01*
G37*
X128666539Y-80844436D02*
X128455241Y-81353298D01*
X128454760Y-81904285D01*
X128665169Y-82413515D01*
X129054436Y-82803461D01*
X129563298Y-83014759D01*
X130114285Y-83015240D01*
X130475260Y-82866089D01*
X130833298Y-83014759D01*
X131384285Y-83015240D01*
X131893515Y-82804831D01*
X132283461Y-82415564D01*
X132494759Y-81906702D01*
X132495240Y-81355715D01*
X132284831Y-80846485D01*
X132148584Y-80710000D01*
X147851209Y-80710000D01*
X147716539Y-80844436D01*
X147505241Y-81353298D01*
X147504760Y-81904285D01*
X147715169Y-82413515D01*
X148104436Y-82803461D01*
X148613298Y-83014759D01*
X149164285Y-83015240D01*
X149525260Y-82866089D01*
X149883298Y-83014759D01*
X150434285Y-83015240D01*
X150943515Y-82804831D01*
X151333461Y-82415564D01*
X151544759Y-81906702D01*
X151545240Y-81355715D01*
X151334831Y-80846485D01*
X151198584Y-80710000D01*
X169856567Y-80710000D01*
X169343826Y-81221847D01*
X168865546Y-82373674D01*
X168864457Y-83620854D01*
X169340727Y-84773515D01*
X170221847Y-85656174D01*
X171373674Y-86134454D01*
X172620854Y-86135543D01*
X173773515Y-85659273D01*
X174290000Y-85143689D01*
X174290000Y-144856567D01*
X173778153Y-144343826D01*
X172626326Y-143865546D01*
X171379146Y-143864457D01*
X170226485Y-144340727D01*
X169343826Y-145221847D01*
X168865546Y-146373674D01*
X168864457Y-147620854D01*
X169340727Y-148773515D01*
X169856311Y-149290000D01*
X110143433Y-149290000D01*
X110656174Y-148778153D01*
X111134454Y-147626326D01*
X111135543Y-146379146D01*
X110938970Y-145903403D01*
X122814682Y-145903403D01*
X123093455Y-146578086D01*
X123609199Y-147094730D01*
X124283395Y-147374681D01*
X125013403Y-147375318D01*
X125688086Y-147096545D01*
X126204730Y-146580801D01*
X126370275Y-146182125D01*
X126822637Y-146635278D01*
X127423352Y-146884716D01*
X128073795Y-146885284D01*
X128674943Y-146636894D01*
X129135278Y-146177363D01*
X129384716Y-145576648D01*
X129385284Y-144926205D01*
X129136894Y-144325057D01*
X128677363Y-143864722D01*
X128076648Y-143615284D01*
X127426205Y-143614716D01*
X126825057Y-143863106D01*
X126364722Y-144322637D01*
X126248309Y-144602991D01*
X126206545Y-144501914D01*
X125690801Y-143985270D01*
X125016605Y-143705319D01*
X124286597Y-143704682D01*
X123611914Y-143983455D01*
X123095270Y-144499199D01*
X122815319Y-145173395D01*
X122814682Y-145903403D01*
X110938970Y-145903403D01*
X110659273Y-145226485D01*
X109778153Y-144343826D01*
X108626326Y-143865546D01*
X107379146Y-143864457D01*
X106226485Y-144340727D01*
X105710000Y-144856311D01*
X105710000Y-142390108D01*
X105798498Y-142835017D01*
X106098728Y-143284343D01*
X106548054Y-143584573D01*
X107078071Y-143690000D01*
X108151929Y-143690000D01*
X108681946Y-143584573D01*
X109131272Y-143284343D01*
X109261128Y-143090000D01*
X119615000Y-143090000D01*
X119915407Y-143030245D01*
X120170079Y-142860079D01*
X121272983Y-141757175D01*
X123532430Y-141757175D01*
X123655565Y-142044788D01*
X124337734Y-142304707D01*
X125067443Y-142283786D01*
X125644435Y-142044788D01*
X125705338Y-141902532D01*
X126777073Y-141902532D01*
X126875736Y-142169387D01*
X127485461Y-142395908D01*
X128135460Y-142371856D01*
X128624264Y-142169387D01*
X128722927Y-141902532D01*
X127750000Y-140929605D01*
X126777073Y-141902532D01*
X125705338Y-141902532D01*
X125767570Y-141757175D01*
X124650000Y-140639605D01*
X123532430Y-141757175D01*
X121272983Y-141757175D01*
X122807443Y-140222715D01*
X122826214Y-140877443D01*
X123065212Y-141454435D01*
X123352825Y-141577570D01*
X124470395Y-140460000D01*
X124829605Y-140460000D01*
X125947175Y-141577570D01*
X126234788Y-141454435D01*
X126246996Y-141422395D01*
X126330613Y-141624264D01*
X126597468Y-141722927D01*
X127570395Y-140750000D01*
X127929605Y-140750000D01*
X128902532Y-141722927D01*
X129169387Y-141624264D01*
X129395908Y-141014539D01*
X129376331Y-140485461D01*
X132604092Y-140485461D01*
X132628144Y-141135460D01*
X132830613Y-141624264D01*
X133097468Y-141722927D01*
X134070395Y-140750000D01*
X133097468Y-139777073D01*
X132830613Y-139875736D01*
X132604092Y-140485461D01*
X129376331Y-140485461D01*
X129371856Y-140364540D01*
X129169387Y-139875736D01*
X128902532Y-139777073D01*
X127929605Y-140750000D01*
X127570395Y-140750000D01*
X126597468Y-139777073D01*
X126394849Y-139851986D01*
X126289425Y-139597468D01*
X126777073Y-139597468D01*
X127750000Y-140570395D01*
X128722927Y-139597468D01*
X128624264Y-139330613D01*
X128014539Y-139104092D01*
X127364540Y-139128144D01*
X126875736Y-139330613D01*
X126777073Y-139597468D01*
X126289425Y-139597468D01*
X126234788Y-139465565D01*
X125947175Y-139342430D01*
X124829605Y-140460000D01*
X124470395Y-140460000D01*
X124456253Y-140445858D01*
X124635858Y-140266253D01*
X124650000Y-140280395D01*
X125767570Y-139162825D01*
X125644435Y-138875212D01*
X124962266Y-138615293D01*
X124398708Y-138631450D01*
X126635601Y-136394557D01*
X126640900Y-136396757D01*
X127196661Y-136397242D01*
X127710303Y-136185010D01*
X128103629Y-135792370D01*
X128316757Y-135279100D01*
X128317242Y-134723339D01*
X128105010Y-134209697D01*
X127712370Y-133816371D01*
X127199100Y-133603243D01*
X126643339Y-133602758D01*
X126129697Y-133814990D01*
X125736371Y-134207630D01*
X125523243Y-134720900D01*
X125522758Y-135276661D01*
X125525805Y-135284037D01*
X123088832Y-137721010D01*
X123095000Y-137690000D01*
X123095000Y-134610579D01*
X123439827Y-134266353D01*
X123643268Y-133776413D01*
X123643731Y-133245914D01*
X123441146Y-132755620D01*
X123066353Y-132380173D01*
X122728554Y-132239906D01*
X123064380Y-132101146D01*
X123439827Y-131726353D01*
X123643268Y-131236413D01*
X123643390Y-131096351D01*
X123655565Y-131124788D01*
X124337734Y-131384707D01*
X125067443Y-131363786D01*
X125644435Y-131124788D01*
X125767570Y-130837175D01*
X124650000Y-129719605D01*
X124635858Y-129733748D01*
X124456253Y-129554143D01*
X124470395Y-129540000D01*
X124456253Y-129525858D01*
X124635858Y-129346253D01*
X124650000Y-129360395D01*
X124664143Y-129346253D01*
X124843748Y-129525858D01*
X124829605Y-129540000D01*
X125947175Y-130657570D01*
X126234788Y-130534435D01*
X126285045Y-130402532D01*
X126777073Y-130402532D01*
X126875736Y-130669387D01*
X127485461Y-130895908D01*
X128135460Y-130871856D01*
X128624264Y-130669387D01*
X128722927Y-130402532D01*
X127750000Y-129429605D01*
X126777073Y-130402532D01*
X126285045Y-130402532D01*
X126383606Y-130143857D01*
X126597468Y-130222927D01*
X127570395Y-129250000D01*
X127929605Y-129250000D01*
X128902532Y-130222927D01*
X129169387Y-130124264D01*
X129395908Y-129514539D01*
X129376331Y-128985461D01*
X132604092Y-128985461D01*
X132628144Y-129635460D01*
X132830613Y-130124264D01*
X133097468Y-130222927D01*
X134070395Y-129250000D01*
X133097468Y-128277073D01*
X132830613Y-128375736D01*
X132604092Y-128985461D01*
X129376331Y-128985461D01*
X129371856Y-128864540D01*
X129169387Y-128375736D01*
X128902532Y-128277073D01*
X127929605Y-129250000D01*
X127570395Y-129250000D01*
X127556253Y-129235858D01*
X127735858Y-129056253D01*
X127750000Y-129070395D01*
X128722927Y-128097468D01*
X128624264Y-127830613D01*
X128105116Y-127637742D01*
X129708379Y-126034479D01*
X129878545Y-125779806D01*
X129938300Y-125479400D01*
X129938300Y-119434188D01*
X130285417Y-119434188D01*
X130347071Y-119669800D01*
X130847480Y-119845927D01*
X131377199Y-119817148D01*
X131732929Y-119669800D01*
X131794583Y-119434188D01*
X131040000Y-118679605D01*
X130285417Y-119434188D01*
X129938300Y-119434188D01*
X129938300Y-119210749D01*
X130105812Y-119254583D01*
X130860395Y-118500000D01*
X131219605Y-118500000D01*
X131974188Y-119254583D01*
X132209800Y-119192929D01*
X132385927Y-118692520D01*
X132357148Y-118162801D01*
X132209800Y-117807071D01*
X131974188Y-117745417D01*
X131219605Y-118500000D01*
X130860395Y-118500000D01*
X130846253Y-118485858D01*
X131025858Y-118306253D01*
X131040000Y-118320395D01*
X131794583Y-117565812D01*
X131732929Y-117330200D01*
X131232520Y-117154073D01*
X131166710Y-117157648D01*
X134901779Y-113422579D01*
X134915000Y-113402792D01*
X134915000Y-123255780D01*
X134576648Y-123115284D01*
X133926205Y-123114716D01*
X133325057Y-123363106D01*
X132864722Y-123822637D01*
X132615284Y-124423352D01*
X132614716Y-125073795D01*
X132863106Y-125674943D01*
X133322637Y-126135278D01*
X133923352Y-126384716D01*
X134573795Y-126385284D01*
X134915000Y-126244301D01*
X134915000Y-127752869D01*
X134514539Y-127604092D01*
X133864540Y-127628144D01*
X133375736Y-127830613D01*
X133277073Y-128097468D01*
X134250000Y-129070395D01*
X134264143Y-129056253D01*
X134443748Y-129235858D01*
X134429605Y-129250000D01*
X134443748Y-129264143D01*
X134264143Y-129443748D01*
X134250000Y-129429605D01*
X133277073Y-130402532D01*
X133375736Y-130669387D01*
X133985461Y-130895908D01*
X134635460Y-130871856D01*
X134915000Y-130756067D01*
X134915000Y-137362668D01*
X134807808Y-137469673D01*
X134665162Y-137813201D01*
X134664838Y-138185167D01*
X134806883Y-138528943D01*
X134915000Y-138637249D01*
X134915000Y-139252869D01*
X134514539Y-139104092D01*
X133864540Y-139128144D01*
X133375736Y-139330613D01*
X133277073Y-139597468D01*
X134250000Y-140570395D01*
X134264143Y-140556253D01*
X134443748Y-140735858D01*
X134429605Y-140750000D01*
X134443748Y-140764143D01*
X134264143Y-140943748D01*
X134250000Y-140929605D01*
X133277073Y-141902532D01*
X133375736Y-142169387D01*
X133985461Y-142395908D01*
X134635460Y-142371856D01*
X135124264Y-142169387D01*
X135187177Y-141999225D01*
X136956558Y-143717094D01*
X136311914Y-143983455D01*
X135795270Y-144499199D01*
X135751952Y-144603519D01*
X135636894Y-144325057D01*
X135177363Y-143864722D01*
X134576648Y-143615284D01*
X133926205Y-143614716D01*
X133325057Y-143863106D01*
X132864722Y-144322637D01*
X132615284Y-144923352D01*
X132614716Y-145573795D01*
X132863106Y-146174943D01*
X133322637Y-146635278D01*
X133923352Y-146884716D01*
X134573795Y-146885284D01*
X135174943Y-146636894D01*
X135630040Y-146182592D01*
X135793455Y-146578086D01*
X136309199Y-147094730D01*
X136983395Y-147374681D01*
X137713403Y-147375318D01*
X138388086Y-147096545D01*
X138603172Y-146881833D01*
X138602758Y-147356661D01*
X138814990Y-147870303D01*
X139207630Y-148263629D01*
X139720900Y-148476757D01*
X140276661Y-148477242D01*
X140790303Y-148265010D01*
X141183629Y-147872370D01*
X141396757Y-147359100D01*
X141397173Y-146882334D01*
X141609199Y-147094730D01*
X142283395Y-147374681D01*
X143013403Y-147375318D01*
X143688086Y-147096545D01*
X144204730Y-146580801D01*
X144370275Y-146182125D01*
X144822637Y-146635278D01*
X145423352Y-146884716D01*
X146073795Y-146885284D01*
X146674943Y-146636894D01*
X147135278Y-146177363D01*
X147384716Y-145576648D01*
X147384718Y-145573795D01*
X150614716Y-145573795D01*
X150863106Y-146174943D01*
X151322637Y-146635278D01*
X151923352Y-146884716D01*
X152573795Y-146885284D01*
X153174943Y-146636894D01*
X153630040Y-146182592D01*
X153793455Y-146578086D01*
X154309199Y-147094730D01*
X154983395Y-147374681D01*
X155713403Y-147375318D01*
X156388086Y-147096545D01*
X156904730Y-146580801D01*
X157184681Y-145906605D01*
X157185318Y-145176597D01*
X156906545Y-144501914D01*
X156690758Y-144285750D01*
X158525000Y-144285750D01*
X158525000Y-144826310D01*
X158621673Y-145059699D01*
X158800302Y-145238327D01*
X159033691Y-145335000D01*
X160174250Y-145335000D01*
X160333000Y-145176250D01*
X160333000Y-144127000D01*
X160587000Y-144127000D01*
X160587000Y-145176250D01*
X160745750Y-145335000D01*
X162206250Y-145335000D01*
X162365000Y-145176250D01*
X162365000Y-144898736D01*
X162395000Y-144826310D01*
X162395000Y-144285750D01*
X162365000Y-144255750D01*
X162365000Y-144127000D01*
X162619000Y-144127000D01*
X162619000Y-145176250D01*
X162777750Y-145335000D01*
X163418309Y-145335000D01*
X163651698Y-145238327D01*
X163830327Y-145059699D01*
X163927000Y-144826310D01*
X163927000Y-144285750D01*
X163905633Y-144264383D01*
X164204769Y-144264383D01*
X164407582Y-144755229D01*
X164782796Y-145131098D01*
X165273287Y-145334768D01*
X165804383Y-145335231D01*
X166295229Y-145132418D01*
X166671098Y-144757204D01*
X166874768Y-144266713D01*
X166875231Y-143735617D01*
X166672418Y-143244771D01*
X166297204Y-142868902D01*
X165806713Y-142665232D01*
X165275617Y-142664769D01*
X164784771Y-142867582D01*
X164408902Y-143242796D01*
X164205232Y-143733287D01*
X164204769Y-144264383D01*
X163905633Y-144264383D01*
X163768250Y-144127000D01*
X162619000Y-144127000D01*
X162365000Y-144127000D01*
X160587000Y-144127000D01*
X160333000Y-144127000D01*
X158683750Y-144127000D01*
X158525000Y-144285750D01*
X156690758Y-144285750D01*
X156390801Y-143985270D01*
X155716605Y-143705319D01*
X154986597Y-143704682D01*
X154311914Y-143983455D01*
X153795270Y-144499199D01*
X153751952Y-144603519D01*
X153636894Y-144325057D01*
X153177363Y-143864722D01*
X152576648Y-143615284D01*
X151926205Y-143614716D01*
X151325057Y-143863106D01*
X150864722Y-144322637D01*
X150615284Y-144923352D01*
X150614716Y-145573795D01*
X147384718Y-145573795D01*
X147385284Y-144926205D01*
X147136894Y-144325057D01*
X146677363Y-143864722D01*
X146076648Y-143615284D01*
X145426205Y-143614716D01*
X144825057Y-143863106D01*
X144364722Y-144322637D01*
X144248309Y-144602991D01*
X144206545Y-144501914D01*
X143690801Y-143985270D01*
X143016605Y-143705319D01*
X142286597Y-143704682D01*
X141611914Y-143983455D01*
X141095270Y-144499199D01*
X140815319Y-145173395D01*
X140814682Y-145903403D01*
X140825482Y-145929541D01*
X140813000Y-145917037D01*
X140813000Y-145605000D01*
X140811849Y-145599213D01*
X140812915Y-145593406D01*
X140782009Y-145449198D01*
X140753245Y-145304594D01*
X140749966Y-145299686D01*
X140748729Y-145293915D01*
X140665002Y-145172529D01*
X140583079Y-145049921D01*
X140578171Y-145046642D01*
X140574820Y-145041783D01*
X138650711Y-143173690D01*
X158525000Y-143173690D01*
X158525000Y-143714250D01*
X158683750Y-143873000D01*
X160333000Y-143873000D01*
X160333000Y-142823750D01*
X160587000Y-142823750D01*
X160587000Y-143873000D01*
X162365000Y-143873000D01*
X162365000Y-143744250D01*
X162395000Y-143714250D01*
X162395000Y-143173690D01*
X162365000Y-143101264D01*
X162365000Y-142823750D01*
X162619000Y-142823750D01*
X162619000Y-143873000D01*
X163768250Y-143873000D01*
X163927000Y-143714250D01*
X163927000Y-143173690D01*
X163830327Y-142940301D01*
X163651698Y-142761673D01*
X163418309Y-142665000D01*
X162777750Y-142665000D01*
X162619000Y-142823750D01*
X162365000Y-142823750D01*
X162206250Y-142665000D01*
X160745750Y-142665000D01*
X160587000Y-142823750D01*
X160333000Y-142823750D01*
X160174250Y-142665000D01*
X159033691Y-142665000D01*
X158800302Y-142761673D01*
X158621673Y-142940301D01*
X158525000Y-143173690D01*
X138650711Y-143173690D01*
X137735078Y-142284714D01*
X137767443Y-142283786D01*
X138344435Y-142044788D01*
X138467570Y-141757175D01*
X141532430Y-141757175D01*
X141655565Y-142044788D01*
X142337734Y-142304707D01*
X143067443Y-142283786D01*
X143644435Y-142044788D01*
X143705338Y-141902532D01*
X144777073Y-141902532D01*
X144875736Y-142169387D01*
X145485461Y-142395908D01*
X146135460Y-142371856D01*
X146624264Y-142169387D01*
X146722927Y-141902532D01*
X151277073Y-141902532D01*
X151375736Y-142169387D01*
X151985461Y-142395908D01*
X152635460Y-142371856D01*
X153124264Y-142169387D01*
X153222927Y-141902532D01*
X153077570Y-141757175D01*
X154232430Y-141757175D01*
X154355565Y-142044788D01*
X155037734Y-142304707D01*
X155767443Y-142283786D01*
X156344435Y-142044788D01*
X156467570Y-141757175D01*
X155350000Y-140639605D01*
X154232430Y-141757175D01*
X153077570Y-141757175D01*
X152250000Y-140929605D01*
X151277073Y-141902532D01*
X146722927Y-141902532D01*
X145750000Y-140929605D01*
X144777073Y-141902532D01*
X143705338Y-141902532D01*
X143767570Y-141757175D01*
X142650000Y-140639605D01*
X141532430Y-141757175D01*
X138467570Y-141757175D01*
X137350000Y-140639605D01*
X137335858Y-140653748D01*
X137156253Y-140474143D01*
X137170395Y-140460000D01*
X137529605Y-140460000D01*
X138647175Y-141577570D01*
X138934788Y-141454435D01*
X139194707Y-140772266D01*
X139176802Y-140147734D01*
X140805293Y-140147734D01*
X140826214Y-140877443D01*
X141065212Y-141454435D01*
X141352825Y-141577570D01*
X142470395Y-140460000D01*
X142829605Y-140460000D01*
X143947175Y-141577570D01*
X144234788Y-141454435D01*
X144246996Y-141422395D01*
X144330613Y-141624264D01*
X144597468Y-141722927D01*
X145570395Y-140750000D01*
X145929605Y-140750000D01*
X146902532Y-141722927D01*
X147169387Y-141624264D01*
X147395908Y-141014539D01*
X147376331Y-140485461D01*
X150604092Y-140485461D01*
X150628144Y-141135460D01*
X150830613Y-141624264D01*
X151097468Y-141722927D01*
X152070395Y-140750000D01*
X152429605Y-140750000D01*
X153402532Y-141722927D01*
X153669387Y-141624264D01*
X153747957Y-141412778D01*
X153765212Y-141454435D01*
X154052825Y-141577570D01*
X155170395Y-140460000D01*
X155529605Y-140460000D01*
X156647175Y-141577570D01*
X156934788Y-141454435D01*
X157194707Y-140772266D01*
X157173786Y-140042557D01*
X156934788Y-139465565D01*
X156647175Y-139342430D01*
X155529605Y-140460000D01*
X155170395Y-140460000D01*
X154052825Y-139342430D01*
X153765212Y-139465565D01*
X153616394Y-139856143D01*
X153402532Y-139777073D01*
X152429605Y-140750000D01*
X152070395Y-140750000D01*
X151097468Y-139777073D01*
X150830613Y-139875736D01*
X150604092Y-140485461D01*
X147376331Y-140485461D01*
X147371856Y-140364540D01*
X147169387Y-139875736D01*
X146902532Y-139777073D01*
X145929605Y-140750000D01*
X145570395Y-140750000D01*
X144597468Y-139777073D01*
X144394849Y-139851986D01*
X144289425Y-139597468D01*
X144777073Y-139597468D01*
X145750000Y-140570395D01*
X146722927Y-139597468D01*
X151277073Y-139597468D01*
X152250000Y-140570395D01*
X153222927Y-139597468D01*
X153124264Y-139330613D01*
X152672631Y-139162825D01*
X154232430Y-139162825D01*
X155350000Y-140280395D01*
X156467570Y-139162825D01*
X156344435Y-138875212D01*
X155662266Y-138615293D01*
X154932557Y-138636214D01*
X154355565Y-138875212D01*
X154232430Y-139162825D01*
X152672631Y-139162825D01*
X152514539Y-139104092D01*
X151864540Y-139128144D01*
X151375736Y-139330613D01*
X151277073Y-139597468D01*
X146722927Y-139597468D01*
X146624264Y-139330613D01*
X146014539Y-139104092D01*
X145364540Y-139128144D01*
X144875736Y-139330613D01*
X144777073Y-139597468D01*
X144289425Y-139597468D01*
X144234788Y-139465565D01*
X143947175Y-139342430D01*
X142829605Y-140460000D01*
X142470395Y-140460000D01*
X141352825Y-139342430D01*
X141065212Y-139465565D01*
X140805293Y-140147734D01*
X139176802Y-140147734D01*
X139173786Y-140042557D01*
X138934788Y-139465565D01*
X138647175Y-139342430D01*
X137529605Y-140460000D01*
X137170395Y-140460000D01*
X137156253Y-140445858D01*
X137335858Y-140266253D01*
X137350000Y-140280395D01*
X138467570Y-139162825D01*
X141532430Y-139162825D01*
X142650000Y-140280395D01*
X143767570Y-139162825D01*
X143644435Y-138875212D01*
X142962266Y-138615293D01*
X142232557Y-138636214D01*
X141655565Y-138875212D01*
X141532430Y-139162825D01*
X138467570Y-139162825D01*
X138344435Y-138875212D01*
X137662266Y-138615293D01*
X136932557Y-138636214D01*
X136485000Y-138821598D01*
X136485000Y-138306822D01*
X136534838Y-138186799D01*
X136535087Y-137900213D01*
X139199392Y-137900213D01*
X139268857Y-138142397D01*
X139792302Y-138329144D01*
X140347368Y-138301362D01*
X140731143Y-138142397D01*
X140800608Y-137900213D01*
X140000000Y-137099605D01*
X139199392Y-137900213D01*
X136535087Y-137900213D01*
X136535162Y-137814833D01*
X136485000Y-137693431D01*
X136485000Y-136712302D01*
X138590856Y-136712302D01*
X138618638Y-137267368D01*
X138777603Y-137651143D01*
X139019787Y-137720608D01*
X139820395Y-136920000D01*
X140179605Y-136920000D01*
X140980213Y-137720608D01*
X141222397Y-137651143D01*
X141409144Y-137127698D01*
X141381362Y-136572632D01*
X141222397Y-136188857D01*
X140980213Y-136119392D01*
X140179605Y-136920000D01*
X139820395Y-136920000D01*
X139019787Y-136119392D01*
X138777603Y-136188857D01*
X138590856Y-136712302D01*
X136485000Y-136712302D01*
X136485000Y-136265584D01*
X136800900Y-136396757D01*
X137356661Y-136397242D01*
X137870303Y-136185010D01*
X138115954Y-135939787D01*
X139199392Y-135939787D01*
X140000000Y-136740395D01*
X140800608Y-135939787D01*
X140731143Y-135697603D01*
X140207698Y-135510856D01*
X139652632Y-135538638D01*
X139268857Y-135697603D01*
X139199392Y-135939787D01*
X138115954Y-135939787D01*
X138263629Y-135792370D01*
X138476757Y-135279100D01*
X138476759Y-135276661D01*
X141522758Y-135276661D01*
X141734990Y-135790303D01*
X142127630Y-136183629D01*
X142640900Y-136396757D01*
X143196661Y-136397242D01*
X143710303Y-136185010D01*
X144103629Y-135792370D01*
X144316757Y-135279100D01*
X144316759Y-135276661D01*
X151682758Y-135276661D01*
X151894990Y-135790303D01*
X152287630Y-136183629D01*
X152800900Y-136396757D01*
X153356661Y-136397242D01*
X153870303Y-136185010D01*
X154263629Y-135792370D01*
X154476757Y-135279100D01*
X154477242Y-134723339D01*
X154265010Y-134209697D01*
X153872370Y-133816371D01*
X153359100Y-133603243D01*
X152803339Y-133602758D01*
X152289697Y-133814990D01*
X151896371Y-134207630D01*
X151683243Y-134720900D01*
X151682758Y-135276661D01*
X144316759Y-135276661D01*
X144317242Y-134723339D01*
X144105010Y-134209697D01*
X143712370Y-133816371D01*
X143199100Y-133603243D01*
X142643339Y-133602758D01*
X142129697Y-133814990D01*
X141736371Y-134207630D01*
X141523243Y-134720900D01*
X141522758Y-135276661D01*
X138476759Y-135276661D01*
X138477242Y-134723339D01*
X138265010Y-134209697D01*
X137872370Y-133816371D01*
X137359100Y-133603243D01*
X136803339Y-133602758D01*
X136485000Y-133734293D01*
X136485000Y-132804086D01*
X138666269Y-132804086D01*
X138868854Y-133294380D01*
X139243647Y-133669827D01*
X139733587Y-133873268D01*
X140264086Y-133873731D01*
X140754380Y-133671146D01*
X141129827Y-133296353D01*
X141333268Y-132806413D01*
X141333731Y-132275914D01*
X141271040Y-132124188D01*
X159435417Y-132124188D01*
X159497071Y-132359800D01*
X159997480Y-132535927D01*
X160527199Y-132507148D01*
X160882929Y-132359800D01*
X160944583Y-132124188D01*
X160190000Y-131369605D01*
X159435417Y-132124188D01*
X141271040Y-132124188D01*
X141131146Y-131785620D01*
X140756353Y-131410173D01*
X140266413Y-131206732D01*
X139735914Y-131206269D01*
X139245620Y-131408854D01*
X138870173Y-131783647D01*
X138666732Y-132273587D01*
X138666269Y-132804086D01*
X136485000Y-132804086D01*
X136485000Y-131174105D01*
X137037734Y-131384707D01*
X137767443Y-131363786D01*
X138344435Y-131124788D01*
X138467570Y-130837175D01*
X141532430Y-130837175D01*
X141655565Y-131124788D01*
X142337734Y-131384707D01*
X143067443Y-131363786D01*
X143644435Y-131124788D01*
X143767570Y-130837175D01*
X142650000Y-129719605D01*
X141532430Y-130837175D01*
X138467570Y-130837175D01*
X137350000Y-129719605D01*
X137335858Y-129733748D01*
X137156253Y-129554143D01*
X137170395Y-129540000D01*
X137529605Y-129540000D01*
X138647175Y-130657570D01*
X138934788Y-130534435D01*
X139194707Y-129852266D01*
X139176802Y-129227734D01*
X140805293Y-129227734D01*
X140826214Y-129957443D01*
X141065212Y-130534435D01*
X141352825Y-130657570D01*
X142470395Y-129540000D01*
X142829605Y-129540000D01*
X143947175Y-130657570D01*
X144234788Y-130534435D01*
X144285045Y-130402532D01*
X144777073Y-130402532D01*
X144875736Y-130669387D01*
X145485461Y-130895908D01*
X146135460Y-130871856D01*
X146624264Y-130669387D01*
X146722927Y-130402532D01*
X151277073Y-130402532D01*
X151375736Y-130669387D01*
X151985461Y-130895908D01*
X152635460Y-130871856D01*
X152719187Y-130837175D01*
X154232430Y-130837175D01*
X154355565Y-131124788D01*
X155037734Y-131384707D01*
X155767443Y-131363786D01*
X156344435Y-131124788D01*
X156398939Y-130997480D01*
X158844073Y-130997480D01*
X158872852Y-131527199D01*
X159020200Y-131882929D01*
X159255812Y-131944583D01*
X160010395Y-131190000D01*
X159255812Y-130435417D01*
X159020200Y-130497071D01*
X158844073Y-130997480D01*
X156398939Y-130997480D01*
X156467570Y-130837175D01*
X155350000Y-129719605D01*
X154232430Y-130837175D01*
X152719187Y-130837175D01*
X153124264Y-130669387D01*
X153222927Y-130402532D01*
X152250000Y-129429605D01*
X151277073Y-130402532D01*
X146722927Y-130402532D01*
X145750000Y-129429605D01*
X144777073Y-130402532D01*
X144285045Y-130402532D01*
X144383606Y-130143857D01*
X144597468Y-130222927D01*
X145570395Y-129250000D01*
X145929605Y-129250000D01*
X146902532Y-130222927D01*
X147169387Y-130124264D01*
X147395908Y-129514539D01*
X147376331Y-128985461D01*
X150604092Y-128985461D01*
X150628144Y-129635460D01*
X150830613Y-130124264D01*
X151097468Y-130222927D01*
X152070395Y-129250000D01*
X152429605Y-129250000D01*
X153402532Y-130222927D01*
X153605151Y-130148014D01*
X153765212Y-130534435D01*
X154052825Y-130657570D01*
X155170395Y-129540000D01*
X155529605Y-129540000D01*
X156647175Y-130657570D01*
X156934788Y-130534435D01*
X157194707Y-129852266D01*
X157173786Y-129122557D01*
X156934788Y-128545565D01*
X156647175Y-128422430D01*
X155529605Y-129540000D01*
X155170395Y-129540000D01*
X154052825Y-128422430D01*
X153765212Y-128545565D01*
X153753004Y-128577605D01*
X153669387Y-128375736D01*
X153402532Y-128277073D01*
X152429605Y-129250000D01*
X152070395Y-129250000D01*
X151097468Y-128277073D01*
X150830613Y-128375736D01*
X150604092Y-128985461D01*
X147376331Y-128985461D01*
X147371856Y-128864540D01*
X147169387Y-128375736D01*
X146902532Y-128277073D01*
X145929605Y-129250000D01*
X145570395Y-129250000D01*
X144597468Y-128277073D01*
X144330613Y-128375736D01*
X144252043Y-128587222D01*
X144234788Y-128545565D01*
X143947175Y-128422430D01*
X142829605Y-129540000D01*
X142470395Y-129540000D01*
X141352825Y-128422430D01*
X141065212Y-128545565D01*
X140805293Y-129227734D01*
X139176802Y-129227734D01*
X139173786Y-129122557D01*
X138934788Y-128545565D01*
X138647175Y-128422430D01*
X137529605Y-129540000D01*
X137170395Y-129540000D01*
X137156253Y-129525858D01*
X137335858Y-129346253D01*
X137350000Y-129360395D01*
X138316207Y-128394188D01*
X139245417Y-128394188D01*
X139307071Y-128629800D01*
X139807480Y-128805927D01*
X140337199Y-128777148D01*
X140692929Y-128629800D01*
X140754583Y-128394188D01*
X140603220Y-128242825D01*
X141532430Y-128242825D01*
X142650000Y-129360395D01*
X143767570Y-128242825D01*
X143705339Y-128097468D01*
X144777073Y-128097468D01*
X145750000Y-129070395D01*
X146722927Y-128097468D01*
X151277073Y-128097468D01*
X152250000Y-129070395D01*
X153077570Y-128242825D01*
X154232430Y-128242825D01*
X155350000Y-129360395D01*
X156467570Y-128242825D01*
X156344435Y-127955212D01*
X155662266Y-127695293D01*
X154932557Y-127716214D01*
X154355565Y-127955212D01*
X154232430Y-128242825D01*
X153077570Y-128242825D01*
X153222927Y-128097468D01*
X153124264Y-127830613D01*
X152514539Y-127604092D01*
X151864540Y-127628144D01*
X151375736Y-127830613D01*
X151277073Y-128097468D01*
X146722927Y-128097468D01*
X146624264Y-127830613D01*
X146014539Y-127604092D01*
X145364540Y-127628144D01*
X144875736Y-127830613D01*
X144777073Y-128097468D01*
X143705339Y-128097468D01*
X143644435Y-127955212D01*
X142962266Y-127695293D01*
X142232557Y-127716214D01*
X141655565Y-127955212D01*
X141532430Y-128242825D01*
X140603220Y-128242825D01*
X140000000Y-127639605D01*
X139245417Y-128394188D01*
X138316207Y-128394188D01*
X138467570Y-128242825D01*
X138344435Y-127955212D01*
X137662266Y-127695293D01*
X136932557Y-127716214D01*
X136485000Y-127901598D01*
X136485000Y-127267480D01*
X138654073Y-127267480D01*
X138682852Y-127797199D01*
X138830200Y-128152929D01*
X139065812Y-128214583D01*
X139820395Y-127460000D01*
X140179605Y-127460000D01*
X140934188Y-128214583D01*
X141169800Y-128152929D01*
X141345927Y-127652520D01*
X141317148Y-127122801D01*
X141169800Y-126767071D01*
X140934188Y-126705417D01*
X140179605Y-127460000D01*
X139820395Y-127460000D01*
X139065812Y-126705417D01*
X138830200Y-126767071D01*
X138654073Y-127267480D01*
X136485000Y-127267480D01*
X136485000Y-126525812D01*
X139245417Y-126525812D01*
X140000000Y-127280395D01*
X140754583Y-126525812D01*
X140692929Y-126290200D01*
X140192520Y-126114073D01*
X139662801Y-126142852D01*
X139307071Y-126290200D01*
X139245417Y-126525812D01*
X136485000Y-126525812D01*
X136485000Y-126087729D01*
X136983395Y-126294681D01*
X137713403Y-126295318D01*
X138388086Y-126016545D01*
X138904730Y-125500801D01*
X139184681Y-124826605D01*
X139184683Y-124823403D01*
X140814682Y-124823403D01*
X141093455Y-125498086D01*
X141609199Y-126014730D01*
X142283395Y-126294681D01*
X143013403Y-126295318D01*
X143688086Y-126016545D01*
X144204730Y-125500801D01*
X144248048Y-125396481D01*
X144363106Y-125674943D01*
X144822637Y-126135278D01*
X145423352Y-126384716D01*
X146073795Y-126385284D01*
X146674943Y-126136894D01*
X147135278Y-125677363D01*
X147384716Y-125076648D01*
X147384718Y-125073795D01*
X150614716Y-125073795D01*
X150863106Y-125674943D01*
X151322637Y-126135278D01*
X151923352Y-126384716D01*
X152573795Y-126385284D01*
X153174943Y-126136894D01*
X153635278Y-125677363D01*
X153751691Y-125397009D01*
X153793455Y-125498086D01*
X154309199Y-126014730D01*
X154983395Y-126294681D01*
X155713403Y-126295318D01*
X156388086Y-126016545D01*
X156904730Y-125500801D01*
X157184681Y-124826605D01*
X157185318Y-124096597D01*
X156906545Y-123421914D01*
X156878868Y-123394188D01*
X157745417Y-123394188D01*
X157807071Y-123629800D01*
X158307480Y-123805927D01*
X158837199Y-123777148D01*
X159192929Y-123629800D01*
X159254583Y-123394188D01*
X158500000Y-122639605D01*
X157745417Y-123394188D01*
X156878868Y-123394188D01*
X156390801Y-122905270D01*
X156135000Y-122799052D01*
X156135000Y-122267480D01*
X157154073Y-122267480D01*
X157182852Y-122797199D01*
X157330200Y-123152929D01*
X157565812Y-123214583D01*
X158320395Y-122460000D01*
X158679605Y-122460000D01*
X159434188Y-123214583D01*
X159669800Y-123152929D01*
X159820738Y-122724086D01*
X160166269Y-122724086D01*
X160368854Y-123214380D01*
X160743647Y-123589827D01*
X161233587Y-123793268D01*
X161764086Y-123793731D01*
X162254380Y-123591146D01*
X162629827Y-123216353D01*
X162833268Y-122726413D01*
X162833731Y-122195914D01*
X162631146Y-121705620D01*
X162256353Y-121330173D01*
X161766413Y-121126732D01*
X161235914Y-121126269D01*
X160745620Y-121328854D01*
X160370173Y-121703647D01*
X160166732Y-122193587D01*
X160166269Y-122724086D01*
X159820738Y-122724086D01*
X159845927Y-122652520D01*
X159817148Y-122122801D01*
X159669800Y-121767071D01*
X159434188Y-121705417D01*
X158679605Y-122460000D01*
X158320395Y-122460000D01*
X157565812Y-121705417D01*
X157330200Y-121767071D01*
X157154073Y-122267480D01*
X156135000Y-122267480D01*
X156135000Y-121955158D01*
X156564346Y-121525812D01*
X157745417Y-121525812D01*
X158500000Y-122280395D01*
X159254583Y-121525812D01*
X159192929Y-121290200D01*
X158692520Y-121114073D01*
X158162801Y-121142852D01*
X157807071Y-121290200D01*
X157745417Y-121525812D01*
X156564346Y-121525812D01*
X161371644Y-116718514D01*
X161447228Y-116749900D01*
X161289697Y-116814990D01*
X160896371Y-117207630D01*
X160683243Y-117720900D01*
X160682758Y-118276661D01*
X160894990Y-118790303D01*
X161287630Y-119183629D01*
X161800900Y-119396757D01*
X162356661Y-119397242D01*
X162364037Y-119394195D01*
X165715000Y-122745158D01*
X165715000Y-129930888D01*
X165536413Y-129856732D01*
X165188007Y-129856428D01*
X162833534Y-127501954D01*
X162833731Y-127275914D01*
X162631146Y-126785620D01*
X162256353Y-126410173D01*
X161766413Y-126206732D01*
X161235914Y-126206269D01*
X160745620Y-126408854D01*
X160370173Y-126783647D01*
X160166732Y-127273587D01*
X160166643Y-127375064D01*
X159705790Y-126914210D01*
X159676074Y-126894355D01*
X159631146Y-126785620D01*
X159256353Y-126410173D01*
X158766413Y-126206732D01*
X158235914Y-126206269D01*
X157745620Y-126408854D01*
X157370173Y-126783647D01*
X157166732Y-127273587D01*
X157166269Y-127804086D01*
X157368854Y-128294380D01*
X157743647Y-128669827D01*
X158233587Y-128873268D01*
X158764086Y-128873731D01*
X159045764Y-128757344D01*
X160145377Y-129856957D01*
X159852801Y-129872852D01*
X159497071Y-130020200D01*
X159435417Y-130255812D01*
X160190000Y-131010395D01*
X160204143Y-130996253D01*
X160383748Y-131175858D01*
X160369605Y-131190000D01*
X161124188Y-131944583D01*
X161359800Y-131882929D01*
X161458083Y-131603688D01*
X161598854Y-131944380D01*
X161973647Y-132319827D01*
X162463587Y-132523268D01*
X162994086Y-132523731D01*
X163484380Y-132321146D01*
X163859827Y-131946353D01*
X164000094Y-131608554D01*
X164138854Y-131944380D01*
X164513647Y-132319827D01*
X165003587Y-132523268D01*
X165366257Y-132523585D01*
X160413148Y-137476694D01*
X159925914Y-137476269D01*
X159435620Y-137678854D01*
X159060173Y-138053647D01*
X158856732Y-138543587D01*
X158856269Y-139074086D01*
X159058854Y-139564380D01*
X159433647Y-139939827D01*
X159923587Y-140143268D01*
X160454086Y-140143731D01*
X160944380Y-139941146D01*
X161319827Y-139566353D01*
X161460094Y-139228554D01*
X161598854Y-139564380D01*
X161973647Y-139939827D01*
X162463587Y-140143268D01*
X162994086Y-140143731D01*
X163484380Y-139941146D01*
X163859827Y-139566353D01*
X164000094Y-139228554D01*
X164138854Y-139564380D01*
X164513647Y-139939827D01*
X165003587Y-140143268D01*
X165534086Y-140143731D01*
X166024380Y-139941146D01*
X166399827Y-139566353D01*
X166540094Y-139228554D01*
X166678854Y-139564380D01*
X167053647Y-139939827D01*
X167543587Y-140143268D01*
X168074086Y-140143731D01*
X168564380Y-139941146D01*
X168939827Y-139566353D01*
X169143268Y-139076413D01*
X169143731Y-138545914D01*
X168941146Y-138055620D01*
X168566353Y-137680173D01*
X168076413Y-137476732D01*
X167545914Y-137476269D01*
X167055620Y-137678854D01*
X166680173Y-138053647D01*
X166539906Y-138391446D01*
X166401146Y-138055620D01*
X166026353Y-137680173D01*
X165536413Y-137476732D01*
X165005914Y-137476269D01*
X164515620Y-137678854D01*
X164140173Y-138053647D01*
X163999906Y-138391446D01*
X163861146Y-138055620D01*
X163486353Y-137680173D01*
X162996413Y-137476732D01*
X162633743Y-137476415D01*
X167055079Y-133055079D01*
X167225245Y-132800406D01*
X167277852Y-132535940D01*
X168508500Y-132535940D01*
X168743817Y-132491662D01*
X168959941Y-132352590D01*
X169104931Y-132140390D01*
X169155940Y-131888500D01*
X169155940Y-130491500D01*
X169111662Y-130256183D01*
X168972590Y-130040059D01*
X168760390Y-129895069D01*
X168695000Y-129881827D01*
X168695000Y-126841233D01*
X169257330Y-127074733D01*
X169867991Y-127075265D01*
X170432371Y-126842068D01*
X170864551Y-126410643D01*
X171098733Y-125846670D01*
X171099265Y-125236009D01*
X170866068Y-124671629D01*
X170434643Y-124239449D01*
X169870670Y-124005267D01*
X169260009Y-124004735D01*
X168695629Y-124237932D01*
X168695000Y-124238560D01*
X168695000Y-122580580D01*
X169280826Y-121994753D01*
X169867991Y-121995265D01*
X170432371Y-121762068D01*
X170864551Y-121330643D01*
X171098733Y-120766670D01*
X171099265Y-120156009D01*
X170866068Y-119591629D01*
X170434643Y-119159449D01*
X169870670Y-118925267D01*
X169260009Y-118924735D01*
X168695629Y-119157932D01*
X168263449Y-119589357D01*
X168029267Y-120153330D01*
X168028753Y-120743668D01*
X167184210Y-121588210D01*
X167021653Y-121831495D01*
X163474557Y-118284399D01*
X163476757Y-118279100D01*
X163477242Y-117723339D01*
X163265010Y-117209697D01*
X162872370Y-116816371D01*
X162712772Y-116750100D01*
X162870303Y-116685010D01*
X163263629Y-116292370D01*
X163476757Y-115779100D01*
X163477242Y-115223339D01*
X163265010Y-114709697D01*
X162939873Y-114383991D01*
X168028735Y-114383991D01*
X168261932Y-114948371D01*
X168693357Y-115380551D01*
X169257330Y-115614733D01*
X169867991Y-115615265D01*
X170432371Y-115382068D01*
X170864551Y-114950643D01*
X171098733Y-114386670D01*
X171099265Y-113776009D01*
X170866068Y-113211629D01*
X170434643Y-112779449D01*
X169870670Y-112545267D01*
X169260009Y-112544735D01*
X168695629Y-112777932D01*
X168263449Y-113209357D01*
X168029267Y-113773330D01*
X168028735Y-114383991D01*
X162939873Y-114383991D01*
X162872370Y-114316371D01*
X162865000Y-114313311D01*
X162865000Y-114187201D01*
X162870303Y-114185010D01*
X163263629Y-113792370D01*
X163476757Y-113279100D01*
X163477242Y-112723339D01*
X163265010Y-112209697D01*
X162872370Y-111816371D01*
X162359100Y-111603243D01*
X161803339Y-111602758D01*
X161289697Y-111814990D01*
X160896371Y-112207630D01*
X160683243Y-112720900D01*
X160682758Y-113276661D01*
X160894990Y-113790303D01*
X161287630Y-114183629D01*
X161295000Y-114186689D01*
X161295000Y-114312799D01*
X161289697Y-114314990D01*
X160896371Y-114707630D01*
X160707600Y-115162242D01*
X154794921Y-121074921D01*
X154624755Y-121329593D01*
X154611473Y-121396367D01*
X154565000Y-121630000D01*
X154565000Y-122798882D01*
X154311914Y-122903455D01*
X153795270Y-123419199D01*
X153629725Y-123817875D01*
X153177363Y-123364722D01*
X152576648Y-123115284D01*
X151926205Y-123114716D01*
X151325057Y-123363106D01*
X150864722Y-123822637D01*
X150615284Y-124423352D01*
X150614716Y-125073795D01*
X147384718Y-125073795D01*
X147385284Y-124426205D01*
X147136894Y-123825057D01*
X146677363Y-123364722D01*
X146076648Y-123115284D01*
X145426205Y-123114716D01*
X144825057Y-123363106D01*
X144369960Y-123817408D01*
X144206545Y-123421914D01*
X143690801Y-122905270D01*
X143016605Y-122625319D01*
X142286597Y-122624682D01*
X141611914Y-122903455D01*
X141095270Y-123419199D01*
X140815319Y-124093395D01*
X140814682Y-124823403D01*
X139184683Y-124823403D01*
X139185318Y-124096597D01*
X138906545Y-123421914D01*
X138390801Y-122905270D01*
X137716605Y-122625319D01*
X136986597Y-122624682D01*
X136485000Y-122831937D01*
X136485000Y-115776661D01*
X150522758Y-115776661D01*
X150734990Y-116290303D01*
X151127630Y-116683629D01*
X151287228Y-116749900D01*
X151129697Y-116814990D01*
X150736371Y-117207630D01*
X150523243Y-117720900D01*
X150522758Y-118276661D01*
X150734990Y-118790303D01*
X151127630Y-119183629D01*
X151640900Y-119396757D01*
X152196661Y-119397242D01*
X152710303Y-119185010D01*
X153103629Y-118792370D01*
X153316757Y-118279100D01*
X153317242Y-117723339D01*
X153105010Y-117209697D01*
X152712370Y-116816371D01*
X152552772Y-116750100D01*
X152710303Y-116685010D01*
X153103629Y-116292370D01*
X153316757Y-115779100D01*
X153316942Y-115566770D01*
X157231853Y-111651858D01*
X157231856Y-111651856D01*
X157456215Y-111316077D01*
X157535001Y-110920000D01*
X157535000Y-110919995D01*
X157535000Y-110116836D01*
X157546371Y-110105485D01*
X157671522Y-109804086D01*
X159666269Y-109804086D01*
X159868854Y-110294380D01*
X160243647Y-110669827D01*
X160733587Y-110873268D01*
X161264086Y-110873731D01*
X161754380Y-110671146D01*
X162129827Y-110296353D01*
X162333268Y-109806413D01*
X162333706Y-109303991D01*
X168028735Y-109303991D01*
X168261932Y-109868371D01*
X168693357Y-110300551D01*
X169257330Y-110534733D01*
X169867991Y-110535265D01*
X170432371Y-110302068D01*
X170864551Y-109870643D01*
X171098733Y-109306670D01*
X171099265Y-108696009D01*
X170866068Y-108131629D01*
X170434643Y-107699449D01*
X169870670Y-107465267D01*
X169260009Y-107464735D01*
X168695629Y-107697932D01*
X168263449Y-108129357D01*
X168029267Y-108693330D01*
X168028735Y-109303991D01*
X162333706Y-109303991D01*
X162333731Y-109275914D01*
X162131146Y-108785620D01*
X161756353Y-108410173D01*
X161266413Y-108206732D01*
X160735914Y-108206269D01*
X160245620Y-108408854D01*
X159870173Y-108783647D01*
X159666732Y-109273587D01*
X159666269Y-109804086D01*
X157671522Y-109804086D01*
X157734785Y-109651734D01*
X157735214Y-109160421D01*
X157547592Y-108706343D01*
X157200485Y-108358629D01*
X157163785Y-108343390D01*
X156500000Y-107679605D01*
X155836881Y-108342724D01*
X155801343Y-108357408D01*
X155453629Y-108704515D01*
X155265215Y-109158266D01*
X155264786Y-109649579D01*
X155452408Y-110103657D01*
X155465000Y-110116271D01*
X155465000Y-110491289D01*
X153301471Y-112654817D01*
X153301362Y-112652632D01*
X153142397Y-112268857D01*
X152900213Y-112199392D01*
X152099605Y-113000000D01*
X152113748Y-113014143D01*
X151934143Y-113193748D01*
X151920000Y-113179605D01*
X151119392Y-113980213D01*
X151188857Y-114222397D01*
X151277367Y-114253974D01*
X151129697Y-114314990D01*
X150736371Y-114707630D01*
X150523243Y-115220900D01*
X150522758Y-115776661D01*
X136485000Y-115776661D01*
X136485000Y-112792302D01*
X150510856Y-112792302D01*
X150538638Y-113347368D01*
X150697603Y-113731143D01*
X150939787Y-113800608D01*
X151740395Y-113000000D01*
X150939787Y-112199392D01*
X150697603Y-112268857D01*
X150510856Y-112792302D01*
X136485000Y-112792302D01*
X136485000Y-112537506D01*
X136492192Y-112530327D01*
X136634838Y-112186799D01*
X136634983Y-112019787D01*
X151119392Y-112019787D01*
X151920000Y-112820395D01*
X152720608Y-112019787D01*
X152651143Y-111777603D01*
X152127698Y-111590856D01*
X151572632Y-111618638D01*
X151188857Y-111777603D01*
X151119392Y-112019787D01*
X136634983Y-112019787D01*
X136635162Y-111814833D01*
X136618424Y-111774325D01*
X136643384Y-111784689D01*
X137353501Y-111785309D01*
X138009800Y-111514132D01*
X138263348Y-111261025D01*
X141918581Y-111261025D01*
X142035601Y-111543446D01*
X142699663Y-111795018D01*
X143409448Y-111773314D01*
X143964399Y-111543446D01*
X144081419Y-111261025D01*
X143000000Y-110179605D01*
X141918581Y-111261025D01*
X138263348Y-111261025D01*
X138512367Y-111012441D01*
X138784689Y-110356616D01*
X138785262Y-109699663D01*
X141204982Y-109699663D01*
X141226686Y-110409448D01*
X141456554Y-110964399D01*
X141738975Y-111081419D01*
X142820395Y-110000000D01*
X143179605Y-110000000D01*
X144261025Y-111081419D01*
X144543446Y-110964399D01*
X144729156Y-110474188D01*
X152245417Y-110474188D01*
X152307071Y-110709800D01*
X152807480Y-110885927D01*
X153337199Y-110857148D01*
X153692929Y-110709800D01*
X153754583Y-110474188D01*
X153000000Y-109719605D01*
X152245417Y-110474188D01*
X144729156Y-110474188D01*
X144795018Y-110300337D01*
X144773314Y-109590552D01*
X144672631Y-109347480D01*
X151654073Y-109347480D01*
X151682852Y-109877199D01*
X151830200Y-110232929D01*
X152065812Y-110294583D01*
X152820395Y-109540000D01*
X153179605Y-109540000D01*
X153934188Y-110294583D01*
X154169800Y-110232929D01*
X154345927Y-109732520D01*
X154317148Y-109202801D01*
X154169800Y-108847071D01*
X153934188Y-108785417D01*
X153179605Y-109540000D01*
X152820395Y-109540000D01*
X152065812Y-108785417D01*
X151830200Y-108847071D01*
X151654073Y-109347480D01*
X144672631Y-109347480D01*
X144543446Y-109035601D01*
X144261025Y-108918581D01*
X143179605Y-110000000D01*
X142820395Y-110000000D01*
X141738975Y-108918581D01*
X141456554Y-109035601D01*
X141204982Y-109699663D01*
X138785262Y-109699663D01*
X138785309Y-109646499D01*
X138514132Y-108990200D01*
X138263345Y-108738975D01*
X141918581Y-108738975D01*
X143000000Y-109820395D01*
X144081419Y-108738975D01*
X144026244Y-108605812D01*
X152245417Y-108605812D01*
X153000000Y-109360395D01*
X153754583Y-108605812D01*
X153692929Y-108370200D01*
X153192520Y-108194073D01*
X152662801Y-108222852D01*
X152307071Y-108370200D01*
X152245417Y-108605812D01*
X144026244Y-108605812D01*
X143964399Y-108456554D01*
X143300337Y-108204982D01*
X142590552Y-108226686D01*
X142035601Y-108456554D01*
X141918581Y-108738975D01*
X138263345Y-108738975D01*
X138012441Y-108487633D01*
X137777771Y-108390190D01*
X137803138Y-108329099D01*
X137803462Y-107957133D01*
X137661417Y-107613357D01*
X137614800Y-107566658D01*
X137850422Y-107331036D01*
X155252193Y-107331036D01*
X155282518Y-107821413D01*
X155411836Y-108133617D01*
X155637265Y-108183130D01*
X156320395Y-107500000D01*
X156679605Y-107500000D01*
X157362735Y-108183130D01*
X157588164Y-108133617D01*
X157747807Y-107668964D01*
X157717482Y-107178587D01*
X157588164Y-106866383D01*
X157362735Y-106816870D01*
X156679605Y-107500000D01*
X156320395Y-107500000D01*
X155637265Y-106816870D01*
X155411836Y-106866383D01*
X155252193Y-107331036D01*
X137850422Y-107331036D01*
X138003882Y-107177576D01*
X138102367Y-107177662D01*
X138446143Y-107035617D01*
X138709392Y-106772827D01*
X138852038Y-106429299D01*
X138852362Y-106057333D01*
X138762389Y-105839579D01*
X155264786Y-105839579D01*
X155452408Y-106293657D01*
X155799515Y-106641371D01*
X155836215Y-106656610D01*
X156500000Y-107320395D01*
X157163119Y-106657276D01*
X157198657Y-106642592D01*
X157546371Y-106295485D01*
X157734785Y-105841734D01*
X157735175Y-105394188D01*
X160245417Y-105394188D01*
X160307071Y-105629800D01*
X160807480Y-105805927D01*
X161337199Y-105777148D01*
X161692929Y-105629800D01*
X161754583Y-105394188D01*
X161000000Y-104639605D01*
X160245417Y-105394188D01*
X157735175Y-105394188D01*
X157735214Y-105350421D01*
X157547592Y-104896343D01*
X157200485Y-104548629D01*
X156746734Y-104360215D01*
X156255421Y-104359786D01*
X155801343Y-104547408D01*
X155453629Y-104894515D01*
X155265215Y-105348266D01*
X155264786Y-105839579D01*
X138762389Y-105839579D01*
X138710317Y-105713557D01*
X138447527Y-105450308D01*
X138103999Y-105307662D01*
X137732033Y-105307338D01*
X137388257Y-105449383D01*
X137125008Y-105712173D01*
X137036983Y-105924159D01*
X133283421Y-109677721D01*
X133113255Y-109932393D01*
X133057905Y-110210657D01*
X133053500Y-110232800D01*
X133053500Y-112342842D01*
X127254756Y-118141586D01*
X127091146Y-117745620D01*
X126716353Y-117370173D01*
X126226413Y-117166732D01*
X125695914Y-117166269D01*
X125435000Y-117274076D01*
X125435000Y-114981506D01*
X125442192Y-114974327D01*
X125584838Y-114630799D01*
X125585162Y-114258833D01*
X125443117Y-113915057D01*
X125180327Y-113651808D01*
X124836799Y-113509162D01*
X124464833Y-113508838D01*
X124121057Y-113650883D01*
X123857808Y-113913673D01*
X123715162Y-114257201D01*
X123714838Y-114629167D01*
X123856883Y-114972943D01*
X123865000Y-114981074D01*
X123865000Y-122798882D01*
X123611914Y-122903455D01*
X123590649Y-122924683D01*
X123479800Y-122657071D01*
X123244188Y-122595417D01*
X122489605Y-123350000D01*
X122503748Y-123364143D01*
X122324143Y-123543748D01*
X122310000Y-123529605D01*
X122295858Y-123543748D01*
X122116253Y-123364143D01*
X122130395Y-123350000D01*
X122116253Y-123335858D01*
X122295858Y-123156253D01*
X122310000Y-123170395D01*
X123064583Y-122415812D01*
X123002929Y-122180200D01*
X122723688Y-122081917D01*
X123064380Y-121941146D01*
X123439827Y-121566353D01*
X123643268Y-121076413D01*
X123643731Y-120545914D01*
X123441146Y-120055620D01*
X123066353Y-119680173D01*
X122728554Y-119539906D01*
X123064380Y-119401146D01*
X123439827Y-119026353D01*
X123643268Y-118536413D01*
X123643731Y-118005914D01*
X123441146Y-117515620D01*
X123066353Y-117140173D01*
X122728554Y-116999906D01*
X123064380Y-116861146D01*
X123439827Y-116486353D01*
X123643268Y-115996413D01*
X123643731Y-115465914D01*
X123441146Y-114975620D01*
X123066353Y-114600173D01*
X122728554Y-114459906D01*
X123064380Y-114321146D01*
X123439827Y-113946353D01*
X123643268Y-113456413D01*
X123643731Y-112925914D01*
X123441146Y-112435620D01*
X123066353Y-112060173D01*
X122728554Y-111919906D01*
X123064380Y-111781146D01*
X123439827Y-111406353D01*
X123643268Y-110916413D01*
X123643346Y-110826812D01*
X124103185Y-110366973D01*
X124102758Y-110856661D01*
X124314990Y-111370303D01*
X124707630Y-111763629D01*
X125220900Y-111976757D01*
X125776661Y-111977242D01*
X126290303Y-111765010D01*
X126683629Y-111372370D01*
X126749900Y-111212772D01*
X126814990Y-111370303D01*
X127207630Y-111763629D01*
X127720900Y-111976757D01*
X128276661Y-111977242D01*
X128790303Y-111765010D01*
X129183629Y-111372370D01*
X129396757Y-110859100D01*
X129397242Y-110303339D01*
X129185010Y-109789697D01*
X128792370Y-109396371D01*
X128279100Y-109183243D01*
X127723339Y-109182758D01*
X127209697Y-109394990D01*
X126816371Y-109787630D01*
X126750100Y-109947228D01*
X126685010Y-109789697D01*
X126292370Y-109396371D01*
X125779100Y-109183243D01*
X125287344Y-109182814D01*
X127464908Y-107005250D01*
X127464838Y-107085167D01*
X127606883Y-107428943D01*
X127869673Y-107692192D01*
X128213201Y-107834838D01*
X128585167Y-107835162D01*
X128928943Y-107693117D01*
X129192192Y-107430327D01*
X129334838Y-107086799D01*
X129334849Y-107074649D01*
X137960303Y-98434188D01*
X138205417Y-98434188D01*
X138267071Y-98669800D01*
X138767480Y-98845927D01*
X139297199Y-98817148D01*
X139652929Y-98669800D01*
X139714583Y-98434188D01*
X138960000Y-97679605D01*
X138205417Y-98434188D01*
X137960303Y-98434188D01*
X138037561Y-98356796D01*
X138122353Y-98229657D01*
X138207245Y-98102606D01*
X138207313Y-98102266D01*
X138207506Y-98101976D01*
X138214688Y-98065707D01*
X138780395Y-97500000D01*
X139139605Y-97500000D01*
X139894188Y-98254583D01*
X140129800Y-98192929D01*
X140305927Y-97692520D01*
X140277148Y-97162801D01*
X140129800Y-96807071D01*
X139894188Y-96745417D01*
X139139605Y-97500000D01*
X138780395Y-97500000D01*
X138766253Y-97485858D01*
X138945858Y-97306253D01*
X138960000Y-97320395D01*
X139714583Y-96565812D01*
X139652929Y-96330200D01*
X139152520Y-96154073D01*
X138622801Y-96182852D01*
X138267071Y-96330200D01*
X138267000Y-96330471D01*
X138267000Y-95635320D01*
X138525171Y-95727201D01*
X139075448Y-95699230D01*
X139453923Y-95542460D01*
X139521912Y-95301517D01*
X138730000Y-94509605D01*
X138715858Y-94523748D01*
X138536253Y-94344143D01*
X138550395Y-94330000D01*
X138909605Y-94330000D01*
X139701517Y-95121912D01*
X139942460Y-95053923D01*
X140001732Y-94887379D01*
X140095169Y-95113515D01*
X140484436Y-95503461D01*
X140993298Y-95714759D01*
X141544285Y-95715240D01*
X142053515Y-95504831D01*
X142443461Y-95115564D01*
X142539976Y-94883130D01*
X142635169Y-95113515D01*
X143024436Y-95503461D01*
X143155000Y-95557676D01*
X143155000Y-96499246D01*
X142910173Y-96743647D01*
X142706732Y-97233587D01*
X142706269Y-97764086D01*
X142908854Y-98254380D01*
X143283647Y-98629827D01*
X143773587Y-98833268D01*
X144121992Y-98833572D01*
X150374208Y-105085787D01*
X150374210Y-105085790D01*
X150661325Y-105277633D01*
X151000000Y-105345000D01*
X151999246Y-105345000D01*
X152243647Y-105589827D01*
X152733587Y-105793268D01*
X153264086Y-105793731D01*
X153754380Y-105591146D01*
X154129827Y-105216353D01*
X154333268Y-104726413D01*
X154333668Y-104267480D01*
X159654073Y-104267480D01*
X159682852Y-104797199D01*
X159830200Y-105152929D01*
X160065812Y-105214583D01*
X160820395Y-104460000D01*
X161179605Y-104460000D01*
X161934188Y-105214583D01*
X162169800Y-105152929D01*
X162223569Y-105000159D01*
X168663446Y-105000159D01*
X168749852Y-105256643D01*
X169323336Y-105466458D01*
X169933460Y-105440839D01*
X170378148Y-105256643D01*
X170464554Y-105000159D01*
X169564000Y-104099605D01*
X168663446Y-105000159D01*
X162223569Y-105000159D01*
X162345927Y-104652520D01*
X162317148Y-104122801D01*
X162169800Y-103767071D01*
X161934188Y-103705417D01*
X161179605Y-104460000D01*
X160820395Y-104460000D01*
X160065812Y-103705417D01*
X159830200Y-103767071D01*
X159654073Y-104267480D01*
X154333668Y-104267480D01*
X154333731Y-104195914D01*
X154131146Y-103705620D01*
X153951652Y-103525812D01*
X160245417Y-103525812D01*
X161000000Y-104280395D01*
X161601059Y-103679336D01*
X168017542Y-103679336D01*
X168043161Y-104289460D01*
X168227357Y-104734148D01*
X168483841Y-104820554D01*
X169384395Y-103920000D01*
X169743605Y-103920000D01*
X170644159Y-104820554D01*
X170900643Y-104734148D01*
X171110458Y-104160664D01*
X171084839Y-103550540D01*
X170900643Y-103105852D01*
X170644159Y-103019446D01*
X169743605Y-103920000D01*
X169384395Y-103920000D01*
X168483841Y-103019446D01*
X168227357Y-103105852D01*
X168017542Y-103679336D01*
X161601059Y-103679336D01*
X161754583Y-103525812D01*
X161692929Y-103290200D01*
X161192520Y-103114073D01*
X160662801Y-103142852D01*
X160307071Y-103290200D01*
X160245417Y-103525812D01*
X153951652Y-103525812D01*
X153756353Y-103330173D01*
X153266413Y-103126732D01*
X152735914Y-103126269D01*
X152245620Y-103328854D01*
X151999044Y-103575000D01*
X151366579Y-103575000D01*
X150631420Y-102839841D01*
X168663446Y-102839841D01*
X169564000Y-103740395D01*
X170464554Y-102839841D01*
X170378148Y-102583357D01*
X169804664Y-102373542D01*
X169194540Y-102399161D01*
X168749852Y-102583357D01*
X168663446Y-102839841D01*
X150631420Y-102839841D01*
X146648240Y-98856661D01*
X153102758Y-98856661D01*
X153314990Y-99370303D01*
X153707630Y-99763629D01*
X154220900Y-99976757D01*
X154776661Y-99977242D01*
X155290303Y-99765010D01*
X155683629Y-99372370D01*
X155749900Y-99212772D01*
X155814990Y-99370303D01*
X156207630Y-99763629D01*
X156720900Y-99976757D01*
X157276661Y-99977242D01*
X157790303Y-99765010D01*
X158183629Y-99372370D01*
X158249900Y-99212772D01*
X158314990Y-99370303D01*
X158707630Y-99763629D01*
X159220900Y-99976757D01*
X159776661Y-99977242D01*
X160290303Y-99765010D01*
X160683629Y-99372370D01*
X160896757Y-98859100D01*
X160897128Y-98434452D01*
X161487588Y-97843991D01*
X168028735Y-97843991D01*
X168261932Y-98408371D01*
X168693357Y-98840551D01*
X169257330Y-99074733D01*
X169867991Y-99075265D01*
X170432371Y-98842068D01*
X170864551Y-98410643D01*
X171098733Y-97846670D01*
X171099265Y-97236009D01*
X170866068Y-96671629D01*
X170434643Y-96239449D01*
X169870670Y-96005267D01*
X169260009Y-96004735D01*
X168695629Y-96237932D01*
X168263449Y-96669357D01*
X168029267Y-97233330D01*
X168028735Y-97843991D01*
X161487588Y-97843991D01*
X162625787Y-96705792D01*
X162625790Y-96705790D01*
X162817633Y-96418675D01*
X162837182Y-96320395D01*
X162885001Y-96080000D01*
X162885000Y-96079995D01*
X162885000Y-94540754D01*
X163129827Y-94296353D01*
X163333268Y-93806413D01*
X163333500Y-93540159D01*
X168663446Y-93540159D01*
X168749852Y-93796643D01*
X169323336Y-94006458D01*
X169933460Y-93980839D01*
X170378148Y-93796643D01*
X170464554Y-93540159D01*
X169564000Y-92639605D01*
X168663446Y-93540159D01*
X163333500Y-93540159D01*
X163333731Y-93275914D01*
X163131146Y-92785620D01*
X162756353Y-92410173D01*
X162296767Y-92219336D01*
X168017542Y-92219336D01*
X168043161Y-92829460D01*
X168227357Y-93274148D01*
X168483841Y-93360554D01*
X169384395Y-92460000D01*
X169743605Y-92460000D01*
X170644159Y-93360554D01*
X170900643Y-93274148D01*
X171110458Y-92700664D01*
X171084839Y-92090540D01*
X170900643Y-91645852D01*
X170644159Y-91559446D01*
X169743605Y-92460000D01*
X169384395Y-92460000D01*
X168483841Y-91559446D01*
X168227357Y-91645852D01*
X168017542Y-92219336D01*
X162296767Y-92219336D01*
X162266413Y-92206732D01*
X161735914Y-92206269D01*
X161245620Y-92408854D01*
X160870173Y-92783647D01*
X160666732Y-93273587D01*
X160666269Y-93804086D01*
X160868854Y-94294380D01*
X161115000Y-94540956D01*
X161115000Y-95713421D01*
X159645294Y-97183126D01*
X159223339Y-97182758D01*
X158709697Y-97394990D01*
X158316371Y-97787630D01*
X158250100Y-97947228D01*
X158185010Y-97789697D01*
X157792370Y-97396371D01*
X157279100Y-97183243D01*
X156723339Y-97182758D01*
X156209697Y-97394990D01*
X155816371Y-97787630D01*
X155750100Y-97947228D01*
X155685010Y-97789697D01*
X155292370Y-97396371D01*
X154779100Y-97183243D01*
X154223339Y-97182758D01*
X153709697Y-97394990D01*
X153316371Y-97787630D01*
X153103243Y-98300900D01*
X153102758Y-98856661D01*
X146648240Y-98856661D01*
X146226516Y-98434937D01*
X146485167Y-98435162D01*
X146828943Y-98293117D01*
X147092192Y-98030327D01*
X147234838Y-97686799D01*
X147235162Y-97314833D01*
X147109683Y-97011149D01*
X147134075Y-96509203D01*
X147131227Y-96490070D01*
X147135000Y-96471100D01*
X147135000Y-95503349D01*
X147523461Y-95115564D01*
X147619976Y-94883130D01*
X147715169Y-95113515D01*
X148104436Y-95503461D01*
X148613298Y-95714759D01*
X149164285Y-95715240D01*
X149673515Y-95504831D01*
X150043080Y-95135909D01*
X150076838Y-95315317D01*
X150215910Y-95531441D01*
X150428110Y-95676431D01*
X150680000Y-95727440D01*
X152180000Y-95727440D01*
X152415317Y-95683162D01*
X152631441Y-95544090D01*
X152776431Y-95331890D01*
X152827440Y-95080000D01*
X152827440Y-93580000D01*
X152783162Y-93344683D01*
X152644090Y-93128559D01*
X152431890Y-92983569D01*
X152180000Y-92932560D01*
X150680000Y-92932560D01*
X150444683Y-92976838D01*
X150228559Y-93115910D01*
X150083569Y-93328110D01*
X150043645Y-93525262D01*
X149675564Y-93156539D01*
X149166702Y-92945241D01*
X148615715Y-92944760D01*
X148106485Y-93155169D01*
X147716539Y-93544436D01*
X147620024Y-93776870D01*
X147524831Y-93546485D01*
X147135564Y-93156539D01*
X146626702Y-92945241D01*
X146075715Y-92944760D01*
X145566485Y-93155169D01*
X145176539Y-93544436D01*
X145080024Y-93776870D01*
X144984831Y-93546485D01*
X144695000Y-93256148D01*
X144695000Y-91379841D01*
X168663446Y-91379841D01*
X169564000Y-92280395D01*
X170464554Y-91379841D01*
X170378148Y-91123357D01*
X169804664Y-90913542D01*
X169194540Y-90939161D01*
X168749852Y-91123357D01*
X168663446Y-91379841D01*
X144695000Y-91379841D01*
X144695000Y-90352784D01*
X144800900Y-90396757D01*
X145356661Y-90397242D01*
X145870303Y-90185010D01*
X146263629Y-89792370D01*
X146476757Y-89279100D01*
X146477242Y-88723339D01*
X146466219Y-88696661D01*
X153102758Y-88696661D01*
X153314990Y-89210303D01*
X153707630Y-89603629D01*
X154220900Y-89816757D01*
X154776661Y-89817242D01*
X155290303Y-89605010D01*
X155683629Y-89212370D01*
X155749900Y-89052772D01*
X155814990Y-89210303D01*
X156207630Y-89603629D01*
X156720900Y-89816757D01*
X157276661Y-89817242D01*
X157790303Y-89605010D01*
X158183629Y-89212370D01*
X158249900Y-89052772D01*
X158314990Y-89210303D01*
X158707630Y-89603629D01*
X159220900Y-89816757D01*
X159776661Y-89817242D01*
X160290303Y-89605010D01*
X160501493Y-89394188D01*
X161245417Y-89394188D01*
X161307071Y-89629800D01*
X161807480Y-89805927D01*
X162337199Y-89777148D01*
X162692929Y-89629800D01*
X162754583Y-89394188D01*
X162000000Y-88639605D01*
X161245417Y-89394188D01*
X160501493Y-89394188D01*
X160683629Y-89212370D01*
X160769331Y-89005977D01*
X160830200Y-89152929D01*
X161065812Y-89214583D01*
X161820395Y-88460000D01*
X162179605Y-88460000D01*
X162934188Y-89214583D01*
X163169800Y-89152929D01*
X163345927Y-88652520D01*
X163317148Y-88122801D01*
X163169800Y-87767071D01*
X162934188Y-87705417D01*
X162179605Y-88460000D01*
X161820395Y-88460000D01*
X161065812Y-87705417D01*
X160830200Y-87767071D01*
X160789524Y-87882640D01*
X160685010Y-87629697D01*
X160581307Y-87525812D01*
X161245417Y-87525812D01*
X162000000Y-88280395D01*
X162754583Y-87525812D01*
X162692929Y-87290200D01*
X162192520Y-87114073D01*
X161662801Y-87142852D01*
X161307071Y-87290200D01*
X161245417Y-87525812D01*
X160581307Y-87525812D01*
X160292370Y-87236371D01*
X159779100Y-87023243D01*
X159223339Y-87022758D01*
X158709697Y-87234990D01*
X158316371Y-87627630D01*
X158250100Y-87787228D01*
X158185010Y-87629697D01*
X157792370Y-87236371D01*
X157279100Y-87023243D01*
X156723339Y-87022758D01*
X156209697Y-87234990D01*
X155816371Y-87627630D01*
X155750100Y-87787228D01*
X155685010Y-87629697D01*
X155292370Y-87236371D01*
X155285000Y-87233311D01*
X155285000Y-86345458D01*
X155975076Y-85655381D01*
X155975079Y-85655379D01*
X156145245Y-85400706D01*
X156194487Y-85153152D01*
X156399343Y-85016272D01*
X156699573Y-84566946D01*
X156701846Y-84555520D01*
X156729028Y-84647349D01*
X157070460Y-85069145D01*
X157547316Y-85328173D01*
X157618815Y-85342318D01*
X157833000Y-85219656D01*
X157833000Y-83627000D01*
X157813000Y-83627000D01*
X157813000Y-83373000D01*
X157833000Y-83373000D01*
X157833000Y-81780344D01*
X158087000Y-81780344D01*
X158087000Y-83373000D01*
X158107000Y-83373000D01*
X158107000Y-83627000D01*
X158087000Y-83627000D01*
X158087000Y-85219656D01*
X158301185Y-85342318D01*
X158372684Y-85328173D01*
X158849540Y-85069145D01*
X159190972Y-84647349D01*
X159218154Y-84555520D01*
X159220427Y-84566946D01*
X159520657Y-85016272D01*
X159969983Y-85316502D01*
X160500000Y-85421929D01*
X161030017Y-85316502D01*
X161479343Y-85016272D01*
X161770000Y-84581273D01*
X162060657Y-85016272D01*
X162509983Y-85316502D01*
X163040000Y-85421929D01*
X163570017Y-85316502D01*
X164019343Y-85016272D01*
X164185790Y-84767166D01*
X164226838Y-84985317D01*
X164365910Y-85201441D01*
X164578110Y-85346431D01*
X164830000Y-85397440D01*
X166330000Y-85397440D01*
X166565317Y-85353162D01*
X166781441Y-85214090D01*
X166926431Y-85001890D01*
X166977440Y-84750000D01*
X166977440Y-82250000D01*
X166933162Y-82014683D01*
X166794090Y-81798559D01*
X166581890Y-81653569D01*
X166330000Y-81602560D01*
X164830000Y-81602560D01*
X164594683Y-81646838D01*
X164378559Y-81785910D01*
X164233569Y-81998110D01*
X164185979Y-82233116D01*
X164019343Y-81983728D01*
X163570017Y-81683498D01*
X163040000Y-81578071D01*
X162509983Y-81683498D01*
X162060657Y-81983728D01*
X161770000Y-82418727D01*
X161479343Y-81983728D01*
X161030017Y-81683498D01*
X160500000Y-81578071D01*
X159969983Y-81683498D01*
X159520657Y-81983728D01*
X159220427Y-82433054D01*
X159218154Y-82444480D01*
X159190972Y-82352651D01*
X158849540Y-81930855D01*
X158372684Y-81671827D01*
X158301185Y-81657682D01*
X158087000Y-81780344D01*
X157833000Y-81780344D01*
X157618815Y-81657682D01*
X157547316Y-81671827D01*
X157070460Y-81930855D01*
X156729028Y-82352651D01*
X156701846Y-82444480D01*
X156699573Y-82433054D01*
X156399343Y-81983728D01*
X155950017Y-81683498D01*
X155420000Y-81578071D01*
X154889983Y-81683498D01*
X154440657Y-81983728D01*
X154140427Y-82433054D01*
X154035000Y-82963071D01*
X154035000Y-84036929D01*
X154140427Y-84566946D01*
X154421917Y-84988226D01*
X153944921Y-85465221D01*
X153774755Y-85719893D01*
X153743158Y-85878740D01*
X153715000Y-86020300D01*
X153715000Y-87232799D01*
X153709697Y-87234990D01*
X153316371Y-87627630D01*
X153103243Y-88140900D01*
X153102758Y-88696661D01*
X146466219Y-88696661D01*
X146265010Y-88209697D01*
X145872370Y-87816371D01*
X145359100Y-87603243D01*
X144803339Y-87602758D01*
X144695000Y-87647523D01*
X144695000Y-84573523D01*
X144963080Y-84305909D01*
X144996838Y-84485317D01*
X145135910Y-84701441D01*
X145348110Y-84846431D01*
X145600000Y-84897440D01*
X147100000Y-84897440D01*
X147335317Y-84853162D01*
X147551441Y-84714090D01*
X147696431Y-84501890D01*
X147747440Y-84250000D01*
X147747440Y-82750000D01*
X147703162Y-82514683D01*
X147564090Y-82298559D01*
X147351890Y-82153569D01*
X147100000Y-82102560D01*
X145600000Y-82102560D01*
X145364683Y-82146838D01*
X145148559Y-82285910D01*
X145003569Y-82498110D01*
X144963645Y-82695262D01*
X144595564Y-82326539D01*
X144086702Y-82115241D01*
X143535715Y-82114760D01*
X143026485Y-82325169D01*
X142636539Y-82714436D01*
X142546623Y-82930979D01*
X142482460Y-82776077D01*
X142241517Y-82708088D01*
X141449605Y-83500000D01*
X142241517Y-84291912D01*
X142482460Y-84223923D01*
X142541732Y-84057379D01*
X142635169Y-84283515D01*
X142925000Y-84573852D01*
X142925000Y-93256477D01*
X142636539Y-93544436D01*
X142540024Y-93776870D01*
X142444831Y-93546485D01*
X142055564Y-93156539D01*
X141546702Y-92945241D01*
X140995715Y-92944760D01*
X140486485Y-93155169D01*
X140096539Y-93544436D01*
X140006623Y-93760979D01*
X139942460Y-93606077D01*
X139701517Y-93538088D01*
X138909605Y-94330000D01*
X138550395Y-94330000D01*
X138536253Y-94315858D01*
X138715858Y-94136253D01*
X138730000Y-94150395D01*
X139521912Y-93358483D01*
X139453923Y-93117540D01*
X138934829Y-92932799D01*
X138384552Y-92960770D01*
X138267000Y-93009462D01*
X138267000Y-85073158D01*
X138455397Y-84884761D01*
X139004285Y-84885240D01*
X139513515Y-84674831D01*
X139717183Y-84471517D01*
X140478088Y-84471517D01*
X140546077Y-84712460D01*
X141065171Y-84897201D01*
X141615448Y-84869230D01*
X141993923Y-84712460D01*
X142061912Y-84471517D01*
X141270000Y-83679605D01*
X140478088Y-84471517D01*
X139717183Y-84471517D01*
X139903461Y-84285564D01*
X139993377Y-84069021D01*
X140057540Y-84223923D01*
X140298483Y-84291912D01*
X141090395Y-83500000D01*
X140298483Y-82708088D01*
X140057540Y-82776077D01*
X139998268Y-82942621D01*
X139904831Y-82716485D01*
X139717157Y-82528483D01*
X140478088Y-82528483D01*
X141270000Y-83320395D01*
X142061912Y-82528483D01*
X141993923Y-82287540D01*
X141474829Y-82102799D01*
X140924552Y-82130770D01*
X140546077Y-82287540D01*
X140478088Y-82528483D01*
X139717157Y-82528483D01*
X139515564Y-82326539D01*
X139006702Y-82115241D01*
X138455715Y-82114760D01*
X137946485Y-82325169D01*
X137556539Y-82714436D01*
X137460024Y-82946870D01*
X137364831Y-82716485D01*
X136975564Y-82326539D01*
X136466702Y-82115241D01*
X135915715Y-82114760D01*
X135406485Y-82325169D01*
X135016539Y-82714436D01*
X134920024Y-82946870D01*
X134824831Y-82716485D01*
X134435564Y-82326539D01*
X133926702Y-82115241D01*
X133375715Y-82114760D01*
X132866485Y-82325169D01*
X132476539Y-82714436D01*
X132265241Y-83223298D01*
X132264760Y-83774285D01*
X132475169Y-84283515D01*
X132864436Y-84673461D01*
X133373298Y-84884759D01*
X133924285Y-84885240D01*
X134433515Y-84674831D01*
X134823461Y-84285564D01*
X134919976Y-84053130D01*
X135015169Y-84283515D01*
X135404436Y-84673461D01*
X135405000Y-84673695D01*
X135405000Y-87688740D01*
X135199100Y-87603243D01*
X134643339Y-87602758D01*
X134129697Y-87814990D01*
X133736371Y-88207630D01*
X133523243Y-88720900D01*
X133522758Y-89276661D01*
X133734990Y-89790303D01*
X134127630Y-90183629D01*
X134640900Y-90396757D01*
X135196661Y-90397242D01*
X135405000Y-90311158D01*
X135405000Y-90486560D01*
X134377899Y-91513743D01*
X134289634Y-91645852D01*
X134207755Y-91768394D01*
X134207752Y-91768408D01*
X134207743Y-91768422D01*
X134177245Y-91921775D01*
X134148000Y-92068800D01*
X134148000Y-93037132D01*
X133926702Y-92945241D01*
X133375715Y-92944760D01*
X132866485Y-93155169D01*
X132476539Y-93544436D01*
X132380024Y-93776870D01*
X132284831Y-93546485D01*
X131895564Y-93156539D01*
X131386702Y-92945241D01*
X130835715Y-92944760D01*
X130326485Y-93155169D01*
X129936539Y-93544436D01*
X129840024Y-93776870D01*
X129744831Y-93546485D01*
X129355564Y-93156539D01*
X128846702Y-92945241D01*
X128295715Y-92944760D01*
X127786485Y-93155169D01*
X127396539Y-93544436D01*
X127185241Y-94053298D01*
X127184760Y-94604285D01*
X127395169Y-95113515D01*
X127784436Y-95503461D01*
X128293298Y-95714759D01*
X128844285Y-95715240D01*
X129353515Y-95504831D01*
X129743461Y-95115564D01*
X129839976Y-94883130D01*
X129935169Y-95113515D01*
X130324436Y-95503461D01*
X130833298Y-95714759D01*
X131384285Y-95715240D01*
X131893515Y-95504831D01*
X132283461Y-95115564D01*
X132379976Y-94883130D01*
X132475169Y-95113515D01*
X132864436Y-95503461D01*
X133373298Y-95714759D01*
X133924285Y-95715240D01*
X134148000Y-95622803D01*
X134148000Y-96760647D01*
X132587020Y-98321656D01*
X132521117Y-98162157D01*
X132258327Y-97898908D01*
X131914799Y-97756262D01*
X131542833Y-97755938D01*
X131199057Y-97897983D01*
X130935808Y-98160773D01*
X130793162Y-98504301D01*
X130793151Y-98517171D01*
X129329896Y-99980348D01*
X129185010Y-99629697D01*
X128792370Y-99236371D01*
X128279100Y-99023243D01*
X127723339Y-99022758D01*
X127209697Y-99234990D01*
X126816371Y-99627630D01*
X126750100Y-99787228D01*
X126685010Y-99629697D01*
X126292370Y-99236371D01*
X125779100Y-99023243D01*
X125223339Y-99022758D01*
X124709697Y-99234990D01*
X124469000Y-99475267D01*
X124469000Y-97866586D01*
X125044471Y-97335127D01*
X125085167Y-97335162D01*
X125428943Y-97193117D01*
X125692192Y-96930327D01*
X125834838Y-96586799D01*
X125835162Y-96214833D01*
X125693117Y-95871057D01*
X125430327Y-95607808D01*
X125086799Y-95465162D01*
X124714833Y-95464838D01*
X124371057Y-95606883D01*
X124107808Y-95869673D01*
X123977560Y-96183343D01*
X123373290Y-96741398D01*
X123373731Y-96235914D01*
X123171146Y-95745620D01*
X122796353Y-95370173D01*
X122306413Y-95166732D01*
X121775914Y-95166269D01*
X121771000Y-95168299D01*
X121771000Y-93573795D01*
X123614716Y-93573795D01*
X123863106Y-94174943D01*
X124322637Y-94635278D01*
X124923352Y-94884716D01*
X125573795Y-94885284D01*
X126174943Y-94636894D01*
X126635278Y-94177363D01*
X126884716Y-93576648D01*
X126885284Y-92926205D01*
X126636894Y-92325057D01*
X126177363Y-91864722D01*
X125576648Y-91615284D01*
X124926205Y-91614716D01*
X124325057Y-91863106D01*
X123864722Y-92322637D01*
X123615284Y-92923352D01*
X123614716Y-93573795D01*
X121771000Y-93573795D01*
X121771000Y-89902532D01*
X124277073Y-89902532D01*
X124375736Y-90169387D01*
X124985461Y-90395908D01*
X125635460Y-90371856D01*
X126124264Y-90169387D01*
X126222927Y-89902532D01*
X125250000Y-88929605D01*
X124277073Y-89902532D01*
X121771000Y-89902532D01*
X121771000Y-88485461D01*
X123604092Y-88485461D01*
X123628144Y-89135460D01*
X123830613Y-89624264D01*
X124097468Y-89722927D01*
X125070395Y-88750000D01*
X125429605Y-88750000D01*
X126402532Y-89722927D01*
X126669387Y-89624264D01*
X126895908Y-89014539D01*
X126871856Y-88364540D01*
X126669387Y-87875736D01*
X126402532Y-87777073D01*
X125429605Y-88750000D01*
X125070395Y-88750000D01*
X124097468Y-87777073D01*
X123830613Y-87875736D01*
X123604092Y-88485461D01*
X121771000Y-88485461D01*
X121771000Y-87597468D01*
X124277073Y-87597468D01*
X125250000Y-88570395D01*
X126222927Y-87597468D01*
X126124264Y-87330613D01*
X125514539Y-87104092D01*
X124864540Y-87128144D01*
X124375736Y-87330613D01*
X124277073Y-87597468D01*
X121771000Y-87597468D01*
X121771000Y-85648808D01*
X122535215Y-84884761D01*
X123084285Y-84885240D01*
X123593515Y-84674831D01*
X123963080Y-84305909D01*
X123996838Y-84485317D01*
X124135910Y-84701441D01*
X124348110Y-84846431D01*
X124600000Y-84897440D01*
X126100000Y-84897440D01*
X126335317Y-84853162D01*
X126551441Y-84714090D01*
X126696431Y-84501890D01*
X126747440Y-84250000D01*
X126747440Y-82750000D01*
X126703162Y-82514683D01*
X126564090Y-82298559D01*
X126351890Y-82153569D01*
X126100000Y-82102560D01*
X124600000Y-82102560D01*
X124364683Y-82146838D01*
X124148559Y-82285910D01*
X124003569Y-82498110D01*
X123963645Y-82695262D01*
X123595564Y-82326539D01*
X123086702Y-82115241D01*
X122535715Y-82114760D01*
X122026485Y-82325169D01*
X121636539Y-82714436D01*
X121540024Y-82946870D01*
X121444831Y-82716485D01*
X121055564Y-82326539D01*
X120546702Y-82115241D01*
X119995715Y-82114760D01*
X119486485Y-82325169D01*
X119096539Y-82714436D01*
X119000024Y-82946870D01*
X118904831Y-82716485D01*
X118515564Y-82326539D01*
X118006702Y-82115241D01*
X117455715Y-82114760D01*
X116946485Y-82325169D01*
X116556539Y-82714436D01*
X116460024Y-82946870D01*
X116364831Y-82716485D01*
X115975564Y-82326539D01*
X115466702Y-82115241D01*
X114915715Y-82114760D01*
X114406485Y-82325169D01*
X114016539Y-82714436D01*
X113926623Y-82930979D01*
X113862460Y-82776077D01*
X113621517Y-82708088D01*
X112829605Y-83500000D01*
X113621517Y-84291912D01*
X113862460Y-84223923D01*
X113921732Y-84057379D01*
X114015169Y-84283515D01*
X114404436Y-84673461D01*
X114913298Y-84884759D01*
X115464285Y-84885240D01*
X115973515Y-84674831D01*
X116363461Y-84285564D01*
X116459976Y-84053130D01*
X116555169Y-84283515D01*
X116944436Y-84673461D01*
X117453298Y-84884759D01*
X118004285Y-84885240D01*
X118513515Y-84674831D01*
X118903461Y-84285564D01*
X118999976Y-84053130D01*
X119095169Y-84283515D01*
X119484436Y-84673461D01*
X119485000Y-84673695D01*
X119485000Y-87278875D01*
X119014539Y-87104092D01*
X118364540Y-87128144D01*
X117875736Y-87330613D01*
X117777073Y-87597468D01*
X118750000Y-88570395D01*
X118764143Y-88556253D01*
X118943748Y-88735858D01*
X118929605Y-88750000D01*
X118943748Y-88764143D01*
X118764143Y-88943748D01*
X118750000Y-88929605D01*
X117777073Y-89902532D01*
X117875736Y-90169387D01*
X118485461Y-90395908D01*
X119135460Y-90371856D01*
X119485000Y-90227072D01*
X119485000Y-91784846D01*
X119076648Y-91615284D01*
X118426205Y-91614716D01*
X117825057Y-91863106D01*
X117364722Y-92322637D01*
X117115284Y-92923352D01*
X117114716Y-93573795D01*
X117363106Y-94174943D01*
X117822637Y-94635278D01*
X117965000Y-94694392D01*
X117965000Y-95763947D01*
X117894188Y-95745417D01*
X117139605Y-96500000D01*
X117153748Y-96514143D01*
X116974143Y-96693748D01*
X116960000Y-96679605D01*
X116205417Y-97434188D01*
X116267071Y-97669800D01*
X116268490Y-97670299D01*
X114794764Y-99144060D01*
X113991500Y-99144060D01*
X113756183Y-99188338D01*
X113540059Y-99327410D01*
X113395069Y-99539610D01*
X113344060Y-99791500D01*
X113344060Y-100573902D01*
X112940079Y-100169921D01*
X112685407Y-99999755D01*
X112385000Y-99940000D01*
X108965662Y-99940000D01*
X108681946Y-99750427D01*
X108670520Y-99748154D01*
X108762349Y-99720972D01*
X109184145Y-99379540D01*
X109443173Y-98902684D01*
X109457318Y-98831185D01*
X109334656Y-98617000D01*
X107742000Y-98617000D01*
X107742000Y-98637000D01*
X107488000Y-98637000D01*
X107488000Y-98617000D01*
X105895344Y-98617000D01*
X105772682Y-98831185D01*
X105786827Y-98902684D01*
X106045855Y-99379540D01*
X106467651Y-99720972D01*
X106559480Y-99748154D01*
X106548054Y-99750427D01*
X106098728Y-100050657D01*
X105798498Y-100499983D01*
X105710000Y-100944892D01*
X105710000Y-96035108D01*
X105798498Y-96480017D01*
X106098728Y-96929343D01*
X106548054Y-97229573D01*
X106559480Y-97231846D01*
X106467651Y-97259028D01*
X106045855Y-97600460D01*
X105786827Y-98077316D01*
X105772682Y-98148815D01*
X105895344Y-98363000D01*
X107488000Y-98363000D01*
X107488000Y-98343000D01*
X107742000Y-98343000D01*
X107742000Y-98363000D01*
X109334656Y-98363000D01*
X109457318Y-98148815D01*
X109443173Y-98077316D01*
X109184145Y-97600460D01*
X108762349Y-97259028D01*
X108670520Y-97231846D01*
X108681946Y-97229573D01*
X109131272Y-96929343D01*
X109431502Y-96480017D01*
X109536929Y-95950000D01*
X109431502Y-95419983D01*
X109282284Y-95196661D01*
X109602758Y-95196661D01*
X109814990Y-95710303D01*
X110207630Y-96103629D01*
X110720900Y-96316757D01*
X111276661Y-96317242D01*
X111300286Y-96307480D01*
X115614073Y-96307480D01*
X115642852Y-96837199D01*
X115790200Y-97192929D01*
X116025812Y-97254583D01*
X116780395Y-96500000D01*
X116025812Y-95745417D01*
X115790200Y-95807071D01*
X115614073Y-96307480D01*
X111300286Y-96307480D01*
X111790303Y-96105010D01*
X112183629Y-95712370D01*
X112244485Y-95565812D01*
X116205417Y-95565812D01*
X116960000Y-96320395D01*
X117714583Y-95565812D01*
X117652929Y-95330200D01*
X117152520Y-95154073D01*
X116622801Y-95182852D01*
X116267071Y-95330200D01*
X116205417Y-95565812D01*
X112244485Y-95565812D01*
X112396757Y-95199100D01*
X112397242Y-94643339D01*
X112204147Y-94176011D01*
X113657301Y-92722857D01*
X113705677Y-92742944D01*
X114291752Y-92743455D01*
X114833411Y-92519647D01*
X115248190Y-92105591D01*
X115472944Y-91564323D01*
X115473455Y-90978248D01*
X115249647Y-90436589D01*
X114835591Y-90021810D01*
X114782005Y-89999559D01*
X114855808Y-89765413D01*
X114000000Y-88909605D01*
X113144192Y-89765413D01*
X113217871Y-89999164D01*
X113166589Y-90020353D01*
X112751810Y-90434409D01*
X112527056Y-90975677D01*
X112526545Y-91561752D01*
X112547463Y-91612379D01*
X110576349Y-93583493D01*
X110209697Y-93734990D01*
X109816371Y-94127630D01*
X109603243Y-94640900D01*
X109602758Y-95196661D01*
X109282284Y-95196661D01*
X109131272Y-94970657D01*
X108696273Y-94680000D01*
X109131272Y-94389343D01*
X109431502Y-93940017D01*
X109536929Y-93410000D01*
X109431502Y-92879983D01*
X109131272Y-92430657D01*
X108696273Y-92140000D01*
X109131272Y-91849343D01*
X109431502Y-91400017D01*
X109536929Y-90870000D01*
X109431502Y-90339983D01*
X109131272Y-89890657D01*
X108681946Y-89590427D01*
X108670520Y-89588154D01*
X108762349Y-89560972D01*
X109184145Y-89219540D01*
X109443173Y-88742684D01*
X109457318Y-88671185D01*
X109361629Y-88504097D01*
X112515023Y-88504097D01*
X112541611Y-89089569D01*
X112714510Y-89506983D01*
X112964587Y-89585808D01*
X113820395Y-88730000D01*
X114179605Y-88730000D01*
X115035413Y-89585808D01*
X115285490Y-89506983D01*
X115484977Y-88955903D01*
X115463613Y-88485461D01*
X117104092Y-88485461D01*
X117128144Y-89135460D01*
X117330613Y-89624264D01*
X117597468Y-89722927D01*
X118570395Y-88750000D01*
X117597468Y-87777073D01*
X117330613Y-87875736D01*
X117104092Y-88485461D01*
X115463613Y-88485461D01*
X115458389Y-88370431D01*
X115285490Y-87953017D01*
X115035413Y-87874192D01*
X114179605Y-88730000D01*
X113820395Y-88730000D01*
X112964587Y-87874192D01*
X112714510Y-87953017D01*
X112515023Y-88504097D01*
X109361629Y-88504097D01*
X109334656Y-88457000D01*
X107742000Y-88457000D01*
X107742000Y-88477000D01*
X107488000Y-88477000D01*
X107488000Y-88457000D01*
X105895344Y-88457000D01*
X105772682Y-88671185D01*
X105786827Y-88742684D01*
X106045855Y-89219540D01*
X106467651Y-89560972D01*
X106559480Y-89588154D01*
X106548054Y-89590427D01*
X106098728Y-89890657D01*
X105798498Y-90339983D01*
X105710000Y-90784892D01*
X105710000Y-87988815D01*
X105772682Y-87988815D01*
X105895344Y-88203000D01*
X107488000Y-88203000D01*
X107488000Y-86945000D01*
X107742000Y-86945000D01*
X107742000Y-88203000D01*
X109334656Y-88203000D01*
X109457318Y-87988815D01*
X109443173Y-87917316D01*
X109322187Y-87694587D01*
X113144192Y-87694587D01*
X114000000Y-88550395D01*
X114855808Y-87694587D01*
X114776983Y-87444510D01*
X114225903Y-87245023D01*
X113640431Y-87271611D01*
X113223017Y-87444510D01*
X113144192Y-87694587D01*
X109322187Y-87694587D01*
X109184145Y-87440460D01*
X108762349Y-87099028D01*
X108242000Y-86945000D01*
X107742000Y-86945000D01*
X107488000Y-86945000D01*
X106988000Y-86945000D01*
X106467651Y-87099028D01*
X106045855Y-87440460D01*
X105786827Y-87917316D01*
X105772682Y-87988815D01*
X105710000Y-87988815D01*
X105710000Y-85143433D01*
X106221847Y-85656174D01*
X107373674Y-86134454D01*
X108620854Y-86135543D01*
X109773515Y-85659273D01*
X110656174Y-84778153D01*
X110783500Y-84471517D01*
X111858088Y-84471517D01*
X111926077Y-84712460D01*
X112445171Y-84897201D01*
X112995448Y-84869230D01*
X113373923Y-84712460D01*
X113441912Y-84471517D01*
X112650000Y-83679605D01*
X111858088Y-84471517D01*
X110783500Y-84471517D01*
X111134454Y-83626326D01*
X111134743Y-83295171D01*
X111252799Y-83295171D01*
X111280770Y-83845448D01*
X111437540Y-84223923D01*
X111678483Y-84291912D01*
X112470395Y-83500000D01*
X111678483Y-82708088D01*
X111437540Y-82776077D01*
X111252799Y-83295171D01*
X111134743Y-83295171D01*
X111135412Y-82528483D01*
X111858088Y-82528483D01*
X112650000Y-83320395D01*
X113441912Y-82528483D01*
X113373923Y-82287540D01*
X112854829Y-82102799D01*
X112304552Y-82130770D01*
X111926077Y-82287540D01*
X111858088Y-82528483D01*
X111135412Y-82528483D01*
X111135543Y-82379146D01*
X110659273Y-81226485D01*
X110143689Y-80710000D01*
X128801209Y-80710000D01*
X128666539Y-80844436D01*
G36*
X121233748Y-136985858D02*
X121219605Y-137000000D01*
X121233748Y-137014143D01*
X121054143Y-137193748D01*
X121040000Y-137179605D01*
X121025858Y-137193748D01*
X120846253Y-137014143D01*
X120860395Y-137000000D01*
X120846253Y-136985858D01*
X121025858Y-136806253D01*
X121040000Y-136820395D01*
X121054143Y-136806253D01*
X121233748Y-136985858D01*
X121233748Y-136985858D01*
G37*
X121233748Y-136985858D02*
X121219605Y-137000000D01*
X121233748Y-137014143D01*
X121054143Y-137193748D01*
X121040000Y-137179605D01*
X121025858Y-137193748D01*
X120846253Y-137014143D01*
X120860395Y-137000000D01*
X120846253Y-136985858D01*
X121025858Y-136806253D01*
X121040000Y-136820395D01*
X121054143Y-136806253D01*
X121233748Y-136985858D01*
G36*
X105798498Y-111720017D02*
X106098728Y-112169343D01*
X106548054Y-112469573D01*
X107078071Y-112575000D01*
X108106842Y-112575000D01*
X108674081Y-113142239D01*
X108662801Y-113142852D01*
X108307071Y-113290200D01*
X108245417Y-113525812D01*
X109000000Y-114280395D01*
X109014143Y-114266253D01*
X109193748Y-114445858D01*
X109179605Y-114460000D01*
X109934188Y-115214583D01*
X110169800Y-115152929D01*
X110303866Y-114772024D01*
X111674081Y-116142239D01*
X111662801Y-116142852D01*
X111307071Y-116290200D01*
X111245417Y-116525812D01*
X112000000Y-117280395D01*
X112014143Y-117266253D01*
X112193748Y-117445858D01*
X112179605Y-117460000D01*
X112193748Y-117474143D01*
X112014143Y-117653748D01*
X112000000Y-117639605D01*
X111245417Y-118394188D01*
X111307071Y-118629800D01*
X111807480Y-118805927D01*
X112337199Y-118777148D01*
X112537000Y-118694388D01*
X112537000Y-119442000D01*
X112596755Y-119742407D01*
X112766921Y-119997079D01*
X113356694Y-120586852D01*
X113356269Y-121074086D01*
X113558854Y-121564380D01*
X113933647Y-121939827D01*
X114271446Y-122080094D01*
X113935620Y-122218854D01*
X113560173Y-122593647D01*
X113356732Y-123083587D01*
X113356269Y-123614086D01*
X113452281Y-123846453D01*
X113412077Y-123819590D01*
X113016000Y-123740805D01*
X112619923Y-123819590D01*
X112284144Y-124043949D01*
X112059785Y-124379728D01*
X112000000Y-124680286D01*
X111940215Y-124379728D01*
X111715856Y-124043949D01*
X111380077Y-123819590D01*
X110984000Y-123740805D01*
X110587923Y-123819590D01*
X110252144Y-124043949D01*
X110027785Y-124379728D01*
X109949000Y-124775805D01*
X109949000Y-125224195D01*
X110027785Y-125620272D01*
X110252144Y-125956051D01*
X110587923Y-126180410D01*
X110984000Y-126259195D01*
X111380077Y-126180410D01*
X111715856Y-125956051D01*
X111940215Y-125620272D01*
X112000000Y-125319714D01*
X112059785Y-125620272D01*
X112284144Y-125956051D01*
X112619923Y-126180410D01*
X113016000Y-126259195D01*
X113370558Y-126188669D01*
X113558854Y-126644380D01*
X113933647Y-127019827D01*
X114271446Y-127160094D01*
X113935620Y-127298854D01*
X113560173Y-127673647D01*
X113356732Y-128163587D01*
X113356269Y-128694086D01*
X113447549Y-128915000D01*
X113099000Y-128915000D01*
X112798594Y-128974755D01*
X112543921Y-129144921D01*
X110247619Y-131441223D01*
X110185010Y-131289697D01*
X109792370Y-130896371D01*
X109279100Y-130683243D01*
X108723339Y-130682758D01*
X108209697Y-130894990D01*
X107816371Y-131287630D01*
X107603243Y-131800900D01*
X107602758Y-132356661D01*
X107814990Y-132870303D01*
X108207630Y-133263629D01*
X108361373Y-133327469D01*
X108349536Y-133339306D01*
X108151929Y-133300000D01*
X107078071Y-133300000D01*
X106548054Y-133405427D01*
X106098728Y-133705657D01*
X105798498Y-134154983D01*
X105710000Y-134599892D01*
X105710000Y-122196661D01*
X107602758Y-122196661D01*
X107814990Y-122710303D01*
X108207630Y-123103629D01*
X108720900Y-123316757D01*
X109276661Y-123317242D01*
X109790303Y-123105010D01*
X110091752Y-122804086D01*
X110666269Y-122804086D01*
X110868854Y-123294380D01*
X111243647Y-123669827D01*
X111733587Y-123873268D01*
X112264086Y-123873731D01*
X112754380Y-123671146D01*
X113129827Y-123296353D01*
X113333268Y-122806413D01*
X113333731Y-122275914D01*
X113131146Y-121785620D01*
X112756353Y-121410173D01*
X112266413Y-121206732D01*
X111735914Y-121206269D01*
X111245620Y-121408854D01*
X110870173Y-121783647D01*
X110666732Y-122273587D01*
X110666269Y-122804086D01*
X110091752Y-122804086D01*
X110183629Y-122712370D01*
X110396757Y-122199100D01*
X110397242Y-121643339D01*
X110185010Y-121129697D01*
X109792370Y-120736371D01*
X109694688Y-120695810D01*
X109754380Y-120671146D01*
X110129827Y-120296353D01*
X110333268Y-119806413D01*
X110333731Y-119275914D01*
X110131146Y-118785620D01*
X109756353Y-118410173D01*
X109266413Y-118206732D01*
X108735914Y-118206269D01*
X108245620Y-118408854D01*
X107870173Y-118783647D01*
X107666732Y-119273587D01*
X107666269Y-119804086D01*
X107868854Y-120294380D01*
X108243647Y-120669827D01*
X108305373Y-120695458D01*
X108209697Y-120734990D01*
X107816371Y-121127630D01*
X107603243Y-121640900D01*
X107602758Y-122196661D01*
X105710000Y-122196661D01*
X105710000Y-117267480D01*
X110654073Y-117267480D01*
X110682852Y-117797199D01*
X110830200Y-118152929D01*
X111065812Y-118214583D01*
X111820395Y-117460000D01*
X111065812Y-116705417D01*
X110830200Y-116767071D01*
X110654073Y-117267480D01*
X105710000Y-117267480D01*
X105710000Y-115394188D01*
X108245417Y-115394188D01*
X108307071Y-115629800D01*
X108807480Y-115805927D01*
X109337199Y-115777148D01*
X109692929Y-115629800D01*
X109754583Y-115394188D01*
X109000000Y-114639605D01*
X108245417Y-115394188D01*
X105710000Y-115394188D01*
X105710000Y-114267480D01*
X107654073Y-114267480D01*
X107682852Y-114797199D01*
X107830200Y-115152929D01*
X108065812Y-115214583D01*
X108820395Y-114460000D01*
X108065812Y-113705417D01*
X107830200Y-113767071D01*
X107654073Y-114267480D01*
X105710000Y-114267480D01*
X105710000Y-111275108D01*
X105798498Y-111720017D01*
X105798498Y-111720017D01*
G37*
X105798498Y-111720017D02*
X106098728Y-112169343D01*
X106548054Y-112469573D01*
X107078071Y-112575000D01*
X108106842Y-112575000D01*
X108674081Y-113142239D01*
X108662801Y-113142852D01*
X108307071Y-113290200D01*
X108245417Y-113525812D01*
X109000000Y-114280395D01*
X109014143Y-114266253D01*
X109193748Y-114445858D01*
X109179605Y-114460000D01*
X109934188Y-115214583D01*
X110169800Y-115152929D01*
X110303866Y-114772024D01*
X111674081Y-116142239D01*
X111662801Y-116142852D01*
X111307071Y-116290200D01*
X111245417Y-116525812D01*
X112000000Y-117280395D01*
X112014143Y-117266253D01*
X112193748Y-117445858D01*
X112179605Y-117460000D01*
X112193748Y-117474143D01*
X112014143Y-117653748D01*
X112000000Y-117639605D01*
X111245417Y-118394188D01*
X111307071Y-118629800D01*
X111807480Y-118805927D01*
X112337199Y-118777148D01*
X112537000Y-118694388D01*
X112537000Y-119442000D01*
X112596755Y-119742407D01*
X112766921Y-119997079D01*
X113356694Y-120586852D01*
X113356269Y-121074086D01*
X113558854Y-121564380D01*
X113933647Y-121939827D01*
X114271446Y-122080094D01*
X113935620Y-122218854D01*
X113560173Y-122593647D01*
X113356732Y-123083587D01*
X113356269Y-123614086D01*
X113452281Y-123846453D01*
X113412077Y-123819590D01*
X113016000Y-123740805D01*
X112619923Y-123819590D01*
X112284144Y-124043949D01*
X112059785Y-124379728D01*
X112000000Y-124680286D01*
X111940215Y-124379728D01*
X111715856Y-124043949D01*
X111380077Y-123819590D01*
X110984000Y-123740805D01*
X110587923Y-123819590D01*
X110252144Y-124043949D01*
X110027785Y-124379728D01*
X109949000Y-124775805D01*
X109949000Y-125224195D01*
X110027785Y-125620272D01*
X110252144Y-125956051D01*
X110587923Y-126180410D01*
X110984000Y-126259195D01*
X111380077Y-126180410D01*
X111715856Y-125956051D01*
X111940215Y-125620272D01*
X112000000Y-125319714D01*
X112059785Y-125620272D01*
X112284144Y-125956051D01*
X112619923Y-126180410D01*
X113016000Y-126259195D01*
X113370558Y-126188669D01*
X113558854Y-126644380D01*
X113933647Y-127019827D01*
X114271446Y-127160094D01*
X113935620Y-127298854D01*
X113560173Y-127673647D01*
X113356732Y-128163587D01*
X113356269Y-128694086D01*
X113447549Y-128915000D01*
X113099000Y-128915000D01*
X112798594Y-128974755D01*
X112543921Y-129144921D01*
X110247619Y-131441223D01*
X110185010Y-131289697D01*
X109792370Y-130896371D01*
X109279100Y-130683243D01*
X108723339Y-130682758D01*
X108209697Y-130894990D01*
X107816371Y-131287630D01*
X107603243Y-131800900D01*
X107602758Y-132356661D01*
X107814990Y-132870303D01*
X108207630Y-133263629D01*
X108361373Y-133327469D01*
X108349536Y-133339306D01*
X108151929Y-133300000D01*
X107078071Y-133300000D01*
X106548054Y-133405427D01*
X106098728Y-133705657D01*
X105798498Y-134154983D01*
X105710000Y-134599892D01*
X105710000Y-122196661D01*
X107602758Y-122196661D01*
X107814990Y-122710303D01*
X108207630Y-123103629D01*
X108720900Y-123316757D01*
X109276661Y-123317242D01*
X109790303Y-123105010D01*
X110091752Y-122804086D01*
X110666269Y-122804086D01*
X110868854Y-123294380D01*
X111243647Y-123669827D01*
X111733587Y-123873268D01*
X112264086Y-123873731D01*
X112754380Y-123671146D01*
X113129827Y-123296353D01*
X113333268Y-122806413D01*
X113333731Y-122275914D01*
X113131146Y-121785620D01*
X112756353Y-121410173D01*
X112266413Y-121206732D01*
X111735914Y-121206269D01*
X111245620Y-121408854D01*
X110870173Y-121783647D01*
X110666732Y-122273587D01*
X110666269Y-122804086D01*
X110091752Y-122804086D01*
X110183629Y-122712370D01*
X110396757Y-122199100D01*
X110397242Y-121643339D01*
X110185010Y-121129697D01*
X109792370Y-120736371D01*
X109694688Y-120695810D01*
X109754380Y-120671146D01*
X110129827Y-120296353D01*
X110333268Y-119806413D01*
X110333731Y-119275914D01*
X110131146Y-118785620D01*
X109756353Y-118410173D01*
X109266413Y-118206732D01*
X108735914Y-118206269D01*
X108245620Y-118408854D01*
X107870173Y-118783647D01*
X107666732Y-119273587D01*
X107666269Y-119804086D01*
X107868854Y-120294380D01*
X108243647Y-120669827D01*
X108305373Y-120695458D01*
X108209697Y-120734990D01*
X107816371Y-121127630D01*
X107603243Y-121640900D01*
X107602758Y-122196661D01*
X105710000Y-122196661D01*
X105710000Y-117267480D01*
X110654073Y-117267480D01*
X110682852Y-117797199D01*
X110830200Y-118152929D01*
X111065812Y-118214583D01*
X111820395Y-117460000D01*
X111065812Y-116705417D01*
X110830200Y-116767071D01*
X110654073Y-117267480D01*
X105710000Y-117267480D01*
X105710000Y-115394188D01*
X108245417Y-115394188D01*
X108307071Y-115629800D01*
X108807480Y-115805927D01*
X109337199Y-115777148D01*
X109692929Y-115629800D01*
X109754583Y-115394188D01*
X109000000Y-114639605D01*
X108245417Y-115394188D01*
X105710000Y-115394188D01*
X105710000Y-114267480D01*
X107654073Y-114267480D01*
X107682852Y-114797199D01*
X107830200Y-115152929D01*
X108065812Y-115214583D01*
X108820395Y-114460000D01*
X108065812Y-113705417D01*
X107830200Y-113767071D01*
X107654073Y-114267480D01*
X105710000Y-114267480D01*
X105710000Y-111275108D01*
X105798498Y-111720017D01*
G36*
X114883748Y-118255858D02*
X114869605Y-118270000D01*
X114883748Y-118284143D01*
X114704143Y-118463748D01*
X114690000Y-118449605D01*
X114675858Y-118463748D01*
X114496253Y-118284143D01*
X114510395Y-118270000D01*
X114496253Y-118255858D01*
X114675858Y-118076253D01*
X114690000Y-118090395D01*
X114704143Y-118076253D01*
X114883748Y-118255858D01*
X114883748Y-118255858D01*
G37*
X114883748Y-118255858D02*
X114869605Y-118270000D01*
X114883748Y-118284143D01*
X114704143Y-118463748D01*
X114690000Y-118449605D01*
X114675858Y-118463748D01*
X114496253Y-118284143D01*
X114510395Y-118270000D01*
X114496253Y-118255858D01*
X114675858Y-118076253D01*
X114690000Y-118090395D01*
X114704143Y-118076253D01*
X114883748Y-118255858D01*
G36*
X122503748Y-103015858D02*
X122489605Y-103030000D01*
X122503748Y-103044143D01*
X122324143Y-103223748D01*
X122310000Y-103209605D01*
X122295858Y-103223748D01*
X122116253Y-103044143D01*
X122130395Y-103030000D01*
X122116253Y-103015858D01*
X122295858Y-102836253D01*
X122310000Y-102850395D01*
X122324143Y-102836253D01*
X122503748Y-103015858D01*
X122503748Y-103015858D01*
G37*
X122503748Y-103015858D02*
X122489605Y-103030000D01*
X122503748Y-103044143D01*
X122324143Y-103223748D01*
X122310000Y-103209605D01*
X122295858Y-103223748D01*
X122116253Y-103044143D01*
X122130395Y-103030000D01*
X122116253Y-103015858D01*
X122295858Y-102836253D01*
X122310000Y-102850395D01*
X122324143Y-102836253D01*
X122503748Y-103015858D01*
M02*
