G04 #@! TF.FileFunction,Legend,Top*
%FSLAX46Y46*%
G04 Gerber Fmt 4.6, Leading zero omitted, Abs format (unit mm)*
G04 Created by KiCad (PCBNEW 4.0.1-stable) date 2017/06/24 18:28:35*
%MOMM*%
G01*
G04 APERTURE LIST*
%ADD10C,0.100000*%
%ADD11C,0.200000*%
%ADD12C,0.170000*%
%ADD13C,0.180000*%
%ADD14C,0.300000*%
%ADD15C,0.304800*%
%ADD16C,0.250000*%
%ADD17C,0.254000*%
%ADD18C,0.381000*%
%ADD19C,0.150000*%
%ADD20C,0.203200*%
%ADD21C,0.076200*%
%ADD22C,0.152400*%
%ADD23C,0.285750*%
G04 APERTURE END LIST*
D10*
D11*
X158600000Y-89600000D02*
X160400000Y-97400000D01*
X156200000Y-89600000D02*
X157800000Y-97400000D01*
X153600000Y-89600000D02*
X155400000Y-97400000D01*
D12*
X136983333Y-81202381D02*
X136983333Y-82302381D01*
X136716667Y-82302381D01*
X136650000Y-82250000D01*
X136616667Y-82197619D01*
X136583333Y-82092857D01*
X136583333Y-81935714D01*
X136616667Y-81830952D01*
X136650000Y-81778571D01*
X136716667Y-81726190D01*
X136983333Y-81726190D01*
X135916667Y-82250000D02*
X135983333Y-82302381D01*
X136083333Y-82302381D01*
X136183333Y-82250000D01*
X136250000Y-82145238D01*
X136283333Y-82040476D01*
X136316667Y-81830952D01*
X136316667Y-81673810D01*
X136283333Y-81464286D01*
X136250000Y-81359524D01*
X136183333Y-81254762D01*
X136083333Y-81202381D01*
X136016667Y-81202381D01*
X135916667Y-81254762D01*
X135883333Y-81307143D01*
X135883333Y-81673810D01*
X136016667Y-81673810D01*
X135183333Y-81307143D02*
X135216667Y-81254762D01*
X135316667Y-81202381D01*
X135383333Y-81202381D01*
X135483333Y-81254762D01*
X135550000Y-81359524D01*
X135583333Y-81464286D01*
X135616667Y-81673810D01*
X135616667Y-81830952D01*
X135583333Y-82040476D01*
X135550000Y-82145238D01*
X135483333Y-82250000D01*
X135383333Y-82302381D01*
X135316667Y-82302381D01*
X135216667Y-82250000D01*
X135183333Y-82197619D01*
X139583333Y-81202381D02*
X139583333Y-82302381D01*
X139316667Y-82302381D01*
X139250000Y-82250000D01*
X139216667Y-82197619D01*
X139183333Y-82092857D01*
X139183333Y-81935714D01*
X139216667Y-81830952D01*
X139250000Y-81778571D01*
X139316667Y-81726190D01*
X139583333Y-81726190D01*
X138516667Y-82250000D02*
X138583333Y-82302381D01*
X138683333Y-82302381D01*
X138783333Y-82250000D01*
X138850000Y-82145238D01*
X138883333Y-82040476D01*
X138916667Y-81830952D01*
X138916667Y-81673810D01*
X138883333Y-81464286D01*
X138850000Y-81359524D01*
X138783333Y-81254762D01*
X138683333Y-81202381D01*
X138616667Y-81202381D01*
X138516667Y-81254762D01*
X138483333Y-81307143D01*
X138483333Y-81673810D01*
X138616667Y-81673810D01*
X138183333Y-81202381D02*
X138183333Y-82302381D01*
X138016667Y-82302381D01*
X137916667Y-82250000D01*
X137850000Y-82145238D01*
X137816667Y-82040476D01*
X137783333Y-81830952D01*
X137783333Y-81673810D01*
X137816667Y-81464286D01*
X137850000Y-81359524D01*
X137916667Y-81254762D01*
X138016667Y-81202381D01*
X138183333Y-81202381D01*
X144633333Y-82302381D02*
X144400000Y-81202381D01*
X144166667Y-82302381D01*
X143533333Y-81307143D02*
X143566667Y-81254762D01*
X143666667Y-81202381D01*
X143733333Y-81202381D01*
X143833333Y-81254762D01*
X143900000Y-81359524D01*
X143933333Y-81464286D01*
X143966667Y-81673810D01*
X143966667Y-81830952D01*
X143933333Y-82040476D01*
X143900000Y-82145238D01*
X143833333Y-82250000D01*
X143733333Y-82302381D01*
X143666667Y-82302381D01*
X143566667Y-82250000D01*
X143533333Y-82197619D01*
X142833333Y-81307143D02*
X142866667Y-81254762D01*
X142966667Y-81202381D01*
X143033333Y-81202381D01*
X143133333Y-81254762D01*
X143200000Y-81359524D01*
X143233333Y-81464286D01*
X143266667Y-81673810D01*
X143266667Y-81830952D01*
X143233333Y-82040476D01*
X143200000Y-82145238D01*
X143133333Y-82250000D01*
X143033333Y-82302381D01*
X142966667Y-82302381D01*
X142866667Y-82250000D01*
X142833333Y-82197619D01*
X147233333Y-81102381D02*
X147233333Y-82202381D01*
X147000000Y-81416667D01*
X146766667Y-82202381D01*
X146766667Y-81102381D01*
X146033333Y-81207143D02*
X146066667Y-81154762D01*
X146166667Y-81102381D01*
X146233333Y-81102381D01*
X146333333Y-81154762D01*
X146400000Y-81259524D01*
X146433333Y-81364286D01*
X146466667Y-81573810D01*
X146466667Y-81730952D01*
X146433333Y-81940476D01*
X146400000Y-82045238D01*
X146333333Y-82150000D01*
X146233333Y-82202381D01*
X146166667Y-82202381D01*
X146066667Y-82150000D01*
X146033333Y-82097619D01*
X145333333Y-81102381D02*
X145566667Y-81626190D01*
X145733333Y-81102381D02*
X145733333Y-82202381D01*
X145466667Y-82202381D01*
X145400000Y-82150000D01*
X145366667Y-82097619D01*
X145333333Y-81992857D01*
X145333333Y-81835714D01*
X145366667Y-81730952D01*
X145400000Y-81678571D01*
X145466667Y-81626190D01*
X145733333Y-81626190D01*
X147400000Y-82392000D02*
X145200000Y-82392000D01*
X155683333Y-80702381D02*
X155916667Y-81226190D01*
X156083333Y-80702381D02*
X156083333Y-81802381D01*
X155816667Y-81802381D01*
X155750000Y-81750000D01*
X155716667Y-81697619D01*
X155683333Y-81592857D01*
X155683333Y-81435714D01*
X155716667Y-81330952D01*
X155750000Y-81278571D01*
X155816667Y-81226190D01*
X156083333Y-81226190D01*
X155416667Y-80754762D02*
X155316667Y-80702381D01*
X155150000Y-80702381D01*
X155083333Y-80754762D01*
X155050000Y-80807143D01*
X155016667Y-80911905D01*
X155016667Y-81016667D01*
X155050000Y-81121429D01*
X155083333Y-81173810D01*
X155150000Y-81226190D01*
X155283333Y-81278571D01*
X155350000Y-81330952D01*
X155383333Y-81383333D01*
X155416667Y-81488095D01*
X155416667Y-81592857D01*
X155383333Y-81697619D01*
X155350000Y-81750000D01*
X155283333Y-81802381D01*
X155116667Y-81802381D01*
X155016667Y-81750000D01*
X154816666Y-81802381D02*
X154416666Y-81802381D01*
X154616666Y-80702381D02*
X154616666Y-81802381D01*
X156250000Y-81992000D02*
X154350000Y-81992000D01*
X166433333Y-81902381D02*
X166200000Y-80802381D01*
X165966667Y-81902381D01*
X165733333Y-80802381D02*
X165733333Y-81902381D01*
X165566667Y-81902381D01*
X165466667Y-81850000D01*
X165400000Y-81745238D01*
X165366667Y-81640476D01*
X165333333Y-81430952D01*
X165333333Y-81273810D01*
X165366667Y-81064286D01*
X165400000Y-80959524D01*
X165466667Y-80854762D01*
X165566667Y-80802381D01*
X165733333Y-80802381D01*
X165033333Y-80802381D02*
X165033333Y-81902381D01*
X164866667Y-81902381D01*
X164766667Y-81850000D01*
X164700000Y-81745238D01*
X164666667Y-81640476D01*
X164633333Y-81430952D01*
X164633333Y-81273810D01*
X164666667Y-81064286D01*
X164700000Y-80959524D01*
X164766667Y-80854762D01*
X164866667Y-80802381D01*
X165033333Y-80802381D01*
X161350000Y-80954762D02*
X161250000Y-80902381D01*
X161083333Y-80902381D01*
X161016666Y-80954762D01*
X160983333Y-81007143D01*
X160950000Y-81111905D01*
X160950000Y-81216667D01*
X160983333Y-81321429D01*
X161016666Y-81373810D01*
X161083333Y-81426190D01*
X161216666Y-81478571D01*
X161283333Y-81530952D01*
X161316666Y-81583333D01*
X161350000Y-81688095D01*
X161350000Y-81792857D01*
X161316666Y-81897619D01*
X161283333Y-81950000D01*
X161216666Y-82002381D01*
X161050000Y-82002381D01*
X160950000Y-81950000D01*
X160649999Y-80902381D02*
X160649999Y-82002381D01*
X160483333Y-82002381D01*
X160383333Y-81950000D01*
X160316666Y-81845238D01*
X160283333Y-81740476D01*
X160249999Y-81530952D01*
X160249999Y-81373810D01*
X160283333Y-81164286D01*
X160316666Y-81059524D01*
X160383333Y-80954762D01*
X160483333Y-80902381D01*
X160649999Y-80902381D01*
X159983333Y-81216667D02*
X159649999Y-81216667D01*
X160049999Y-80902381D02*
X159816666Y-82002381D01*
X159583333Y-80902381D01*
X163833334Y-80954762D02*
X163733334Y-80902381D01*
X163566667Y-80902381D01*
X163500000Y-80954762D01*
X163466667Y-81007143D01*
X163433334Y-81111905D01*
X163433334Y-81216667D01*
X163466667Y-81321429D01*
X163500000Y-81373810D01*
X163566667Y-81426190D01*
X163700000Y-81478571D01*
X163766667Y-81530952D01*
X163800000Y-81583333D01*
X163833334Y-81688095D01*
X163833334Y-81792857D01*
X163800000Y-81897619D01*
X163766667Y-81950000D01*
X163700000Y-82002381D01*
X163533334Y-82002381D01*
X163433334Y-81950000D01*
X162733333Y-81007143D02*
X162766667Y-80954762D01*
X162866667Y-80902381D01*
X162933333Y-80902381D01*
X163033333Y-80954762D01*
X163100000Y-81059524D01*
X163133333Y-81164286D01*
X163166667Y-81373810D01*
X163166667Y-81530952D01*
X163133333Y-81740476D01*
X163100000Y-81845238D01*
X163033333Y-81950000D01*
X162933333Y-82002381D01*
X162866667Y-82002381D01*
X162766667Y-81950000D01*
X162733333Y-81897619D01*
X162100000Y-80902381D02*
X162433333Y-80902381D01*
X162433333Y-82002381D01*
X120416666Y-81202381D02*
X120650000Y-81726190D01*
X120816666Y-81202381D02*
X120816666Y-82302381D01*
X120550000Y-82302381D01*
X120483333Y-82250000D01*
X120450000Y-82197619D01*
X120416666Y-82092857D01*
X120416666Y-81935714D01*
X120450000Y-81830952D01*
X120483333Y-81778571D01*
X120550000Y-81726190D01*
X120816666Y-81726190D01*
X120183333Y-82302381D02*
X119716666Y-81202381D01*
X119716666Y-82302381D02*
X120183333Y-81202381D01*
X123233333Y-82302381D02*
X122833333Y-82302381D01*
X123033333Y-81202381D02*
X123033333Y-82302381D01*
X122666667Y-82302381D02*
X122200000Y-81202381D01*
X122200000Y-82302381D02*
X122666667Y-81202381D01*
X113233333Y-82250000D02*
X113299999Y-82302381D01*
X113399999Y-82302381D01*
X113499999Y-82250000D01*
X113566666Y-82145238D01*
X113599999Y-82040476D01*
X113633333Y-81830952D01*
X113633333Y-81673810D01*
X113599999Y-81464286D01*
X113566666Y-81359524D01*
X113499999Y-81254762D01*
X113399999Y-81202381D01*
X113333333Y-81202381D01*
X113233333Y-81254762D01*
X113199999Y-81307143D01*
X113199999Y-81673810D01*
X113333333Y-81673810D01*
X112899999Y-81202381D02*
X112899999Y-82302381D01*
X112499999Y-81202381D01*
X112499999Y-82302381D01*
X112166666Y-81202381D02*
X112166666Y-82302381D01*
X112000000Y-82302381D01*
X111900000Y-82250000D01*
X111833333Y-82145238D01*
X111800000Y-82040476D01*
X111766666Y-81830952D01*
X111766666Y-81673810D01*
X111800000Y-81464286D01*
X111833333Y-81359524D01*
X111900000Y-81254762D01*
X112000000Y-81202381D01*
X112166666Y-81202381D01*
X141733333Y-82250000D02*
X141799999Y-82302381D01*
X141899999Y-82302381D01*
X141999999Y-82250000D01*
X142066666Y-82145238D01*
X142099999Y-82040476D01*
X142133333Y-81830952D01*
X142133333Y-81673810D01*
X142099999Y-81464286D01*
X142066666Y-81359524D01*
X141999999Y-81254762D01*
X141899999Y-81202381D01*
X141833333Y-81202381D01*
X141733333Y-81254762D01*
X141699999Y-81307143D01*
X141699999Y-81673810D01*
X141833333Y-81673810D01*
X141399999Y-81202381D02*
X141399999Y-82302381D01*
X140999999Y-81202381D01*
X140999999Y-82302381D01*
X140666666Y-81202381D02*
X140666666Y-82302381D01*
X140500000Y-82302381D01*
X140400000Y-82250000D01*
X140333333Y-82145238D01*
X140300000Y-82040476D01*
X140266666Y-81830952D01*
X140266666Y-81673810D01*
X140300000Y-81464286D01*
X140333333Y-81359524D01*
X140400000Y-81254762D01*
X140500000Y-81202381D01*
X140666666Y-81202381D01*
X158533333Y-81950000D02*
X158599999Y-82002381D01*
X158699999Y-82002381D01*
X158799999Y-81950000D01*
X158866666Y-81845238D01*
X158899999Y-81740476D01*
X158933333Y-81530952D01*
X158933333Y-81373810D01*
X158899999Y-81164286D01*
X158866666Y-81059524D01*
X158799999Y-80954762D01*
X158699999Y-80902381D01*
X158633333Y-80902381D01*
X158533333Y-80954762D01*
X158499999Y-81007143D01*
X158499999Y-81373810D01*
X158633333Y-81373810D01*
X158199999Y-80902381D02*
X158199999Y-82002381D01*
X157799999Y-80902381D01*
X157799999Y-82002381D01*
X157466666Y-80902381D02*
X157466666Y-82002381D01*
X157300000Y-82002381D01*
X157200000Y-81950000D01*
X157133333Y-81845238D01*
X157100000Y-81740476D01*
X157066666Y-81530952D01*
X157066666Y-81373810D01*
X157100000Y-81164286D01*
X157133333Y-81059524D01*
X157200000Y-80954762D01*
X157300000Y-80902381D01*
X157466666Y-80902381D01*
D11*
X141223809Y-85102381D02*
X141223809Y-86202381D01*
X140071428Y-85207143D02*
X140123809Y-85154762D01*
X140280952Y-85102381D01*
X140385714Y-85102381D01*
X140542856Y-85154762D01*
X140647618Y-85259524D01*
X140699999Y-85364286D01*
X140752380Y-85573810D01*
X140752380Y-85730952D01*
X140699999Y-85940476D01*
X140647618Y-86045238D01*
X140542856Y-86150000D01*
X140385714Y-86202381D01*
X140280952Y-86202381D01*
X140123809Y-86150000D01*
X140071428Y-86097619D01*
X139652380Y-85154762D02*
X139495237Y-85102381D01*
X139233333Y-85102381D01*
X139128571Y-85154762D01*
X139076190Y-85207143D01*
X139023809Y-85311905D01*
X139023809Y-85416667D01*
X139076190Y-85521429D01*
X139128571Y-85573810D01*
X139233333Y-85626190D01*
X139442856Y-85678571D01*
X139547618Y-85730952D01*
X139599999Y-85783333D01*
X139652380Y-85888095D01*
X139652380Y-85992857D01*
X139599999Y-86097619D01*
X139547618Y-86150000D01*
X139442856Y-86202381D01*
X139180952Y-86202381D01*
X139023809Y-86150000D01*
X138552380Y-85102381D02*
X138552380Y-86202381D01*
X138133333Y-86202381D01*
X138028571Y-86150000D01*
X137976190Y-86097619D01*
X137923809Y-85992857D01*
X137923809Y-85835714D01*
X137976190Y-85730952D01*
X138028571Y-85678571D01*
X138133333Y-85626190D01*
X138552380Y-85626190D01*
X163750000Y-103911905D02*
X163697619Y-104016667D01*
X163697619Y-104173810D01*
X163750000Y-104330952D01*
X163854762Y-104435714D01*
X163959524Y-104488095D01*
X164169048Y-104540476D01*
X164326190Y-104540476D01*
X164535714Y-104488095D01*
X164640476Y-104435714D01*
X164745238Y-104330952D01*
X164797619Y-104173810D01*
X164797619Y-104069048D01*
X164745238Y-103911905D01*
X164692857Y-103859524D01*
X164326190Y-103859524D01*
X164326190Y-104069048D01*
X165204988Y-104100000D02*
G75*
G03X165204988Y-104100000I-1004988J0D01*
G01*
D13*
X119307143Y-85247619D02*
X119821428Y-85247619D01*
X119564286Y-85247619D02*
X119564286Y-86247619D01*
X119650000Y-86104762D01*
X119735714Y-86009524D01*
X119821428Y-85961905D01*
X118450000Y-85247619D02*
X118964285Y-85247619D01*
X118707143Y-85247619D02*
X118707143Y-86247619D01*
X118792857Y-86104762D01*
X118878571Y-86009524D01*
X118964285Y-85961905D01*
X117635714Y-86247619D02*
X118064285Y-86247619D01*
X118107142Y-85771429D01*
X118064285Y-85819048D01*
X117978571Y-85866667D01*
X117764285Y-85866667D01*
X117678571Y-85819048D01*
X117635714Y-85771429D01*
X117592857Y-85676190D01*
X117592857Y-85438095D01*
X117635714Y-85342857D01*
X117678571Y-85295238D01*
X117764285Y-85247619D01*
X117978571Y-85247619D01*
X118064285Y-85295238D01*
X118107142Y-85342857D01*
X117249999Y-86152381D02*
X117207142Y-86200000D01*
X117121428Y-86247619D01*
X116907142Y-86247619D01*
X116821428Y-86200000D01*
X116778571Y-86152381D01*
X116735714Y-86057143D01*
X116735714Y-85961905D01*
X116778571Y-85819048D01*
X117292857Y-85247619D01*
X116735714Y-85247619D01*
X116178571Y-86247619D02*
X116092856Y-86247619D01*
X116007142Y-86200000D01*
X115964285Y-86152381D01*
X115921428Y-86057143D01*
X115878571Y-85866667D01*
X115878571Y-85628571D01*
X115921428Y-85438095D01*
X115964285Y-85342857D01*
X116007142Y-85295238D01*
X116092856Y-85247619D01*
X116178571Y-85247619D01*
X116264285Y-85295238D01*
X116307142Y-85342857D01*
X116349999Y-85438095D01*
X116392856Y-85628571D01*
X116392856Y-85866667D01*
X116349999Y-86057143D01*
X116307142Y-86152381D01*
X116264285Y-86200000D01*
X116178571Y-86247619D01*
X115321428Y-86247619D02*
X115235713Y-86247619D01*
X115149999Y-86200000D01*
X115107142Y-86152381D01*
X115064285Y-86057143D01*
X115021428Y-85866667D01*
X115021428Y-85628571D01*
X115064285Y-85438095D01*
X115107142Y-85342857D01*
X115149999Y-85295238D01*
X115235713Y-85247619D01*
X115321428Y-85247619D01*
X115407142Y-85295238D01*
X115449999Y-85342857D01*
X115492856Y-85438095D01*
X115535713Y-85628571D01*
X115535713Y-85866667D01*
X115492856Y-86057143D01*
X115449999Y-86152381D01*
X115407142Y-86200000D01*
X115321428Y-86247619D01*
X113949999Y-85247619D02*
X113949999Y-86247619D01*
X113949999Y-85866667D02*
X113864285Y-85914286D01*
X113692856Y-85914286D01*
X113607142Y-85866667D01*
X113564285Y-85819048D01*
X113521428Y-85723810D01*
X113521428Y-85438095D01*
X113564285Y-85342857D01*
X113607142Y-85295238D01*
X113692856Y-85247619D01*
X113864285Y-85247619D01*
X113949999Y-85295238D01*
X113135713Y-85914286D02*
X113135713Y-84914286D01*
X113135713Y-85866667D02*
X113049999Y-85914286D01*
X112878570Y-85914286D01*
X112792856Y-85866667D01*
X112749999Y-85819048D01*
X112707142Y-85723810D01*
X112707142Y-85438095D01*
X112749999Y-85342857D01*
X112792856Y-85295238D01*
X112878570Y-85247619D01*
X113049999Y-85247619D01*
X113135713Y-85295238D01*
X112364284Y-85295238D02*
X112278570Y-85247619D01*
X112107142Y-85247619D01*
X112021427Y-85295238D01*
X111978570Y-85390476D01*
X111978570Y-85438095D01*
X112021427Y-85533333D01*
X112107142Y-85580952D01*
X112235713Y-85580952D01*
X112321427Y-85628571D01*
X112364284Y-85723810D01*
X112364284Y-85771429D01*
X112321427Y-85866667D01*
X112235713Y-85914286D01*
X112107142Y-85914286D01*
X112021427Y-85866667D01*
D14*
X164214286Y-91609524D02*
X164214286Y-90390476D01*
X164214286Y-99409524D02*
X164214286Y-98190476D01*
X164823810Y-98800000D02*
X163604762Y-98800000D01*
D11*
X165200000Y-127900000D02*
G75*
G03X165200000Y-127900000I-1000000J0D01*
G01*
X165200000Y-91000000D02*
G75*
G03X165200000Y-91000000I-1000000J0D01*
G01*
X165200000Y-98800000D02*
G75*
G03X165200000Y-98800000I-1000000J0D01*
G01*
X165200000Y-118400000D02*
G75*
G03X165200000Y-118400000I-1000000J0D01*
G01*
X123935714Y-86202381D02*
X123935714Y-85311905D01*
X123892857Y-85207143D01*
X123850000Y-85154762D01*
X123764286Y-85102381D01*
X123592857Y-85102381D01*
X123507143Y-85154762D01*
X123464286Y-85207143D01*
X123421429Y-85311905D01*
X123421429Y-86202381D01*
X123035714Y-85416667D02*
X122607143Y-85416667D01*
X123121429Y-85102381D02*
X122821429Y-86202381D01*
X122521429Y-85102381D01*
X121707143Y-85102381D02*
X122007143Y-85626190D01*
X122221428Y-85102381D02*
X122221428Y-86202381D01*
X121878571Y-86202381D01*
X121792857Y-86150000D01*
X121750000Y-86097619D01*
X121707143Y-85992857D01*
X121707143Y-85835714D01*
X121750000Y-85730952D01*
X121792857Y-85678571D01*
X121878571Y-85626190D01*
X122221428Y-85626190D01*
X121450000Y-86202381D02*
X120935714Y-86202381D01*
X121192857Y-85102381D02*
X121192857Y-86202381D01*
X163997619Y-112290476D02*
X165097619Y-111923809D01*
X163997619Y-111557143D01*
X163997619Y-110980952D02*
X163997619Y-110771429D01*
X164050000Y-110666667D01*
X164154762Y-110561905D01*
X164364286Y-110509524D01*
X164730952Y-110509524D01*
X164940476Y-110561905D01*
X165045238Y-110666667D01*
X165097619Y-110771429D01*
X165097619Y-110980952D01*
X165045238Y-111085714D01*
X164940476Y-111190476D01*
X164730952Y-111242857D01*
X164364286Y-111242857D01*
X164154762Y-111190476D01*
X164050000Y-111085714D01*
X163997619Y-110980952D01*
X165097619Y-109514286D02*
X165097619Y-110038095D01*
X163997619Y-110038095D01*
X163997619Y-109147619D02*
X164888095Y-109147619D01*
X164992857Y-109095238D01*
X165045238Y-109042857D01*
X165097619Y-108938095D01*
X165097619Y-108728572D01*
X165045238Y-108623810D01*
X164992857Y-108571429D01*
X164888095Y-108519048D01*
X163997619Y-108519048D01*
X165097619Y-107995238D02*
X163997619Y-107995238D01*
X164783333Y-107628572D01*
X163997619Y-107261905D01*
X165097619Y-107261905D01*
X164521429Y-106738095D02*
X164521429Y-106371429D01*
X165097619Y-106214286D02*
X165097619Y-106738095D01*
X163997619Y-106738095D01*
X163997619Y-106214286D01*
X164797619Y-128188095D02*
X163697619Y-128188095D01*
X163697619Y-127769048D01*
X163750000Y-127664286D01*
X163802381Y-127611905D01*
X163907143Y-127559524D01*
X164064286Y-127559524D01*
X164169048Y-127611905D01*
X164221429Y-127664286D01*
X164273810Y-127769048D01*
X164273810Y-128188095D01*
X164797619Y-118714285D02*
X163697619Y-118714285D01*
X164797619Y-118085714D01*
X163697619Y-118085714D01*
X164897619Y-97440476D02*
X163797619Y-97440476D01*
X163797619Y-97021429D01*
X163850000Y-96916667D01*
X163902381Y-96864286D01*
X164007143Y-96811905D01*
X164164286Y-96811905D01*
X164269048Y-96864286D01*
X164321429Y-96916667D01*
X164373810Y-97021429D01*
X164373810Y-97440476D01*
X163797619Y-96130952D02*
X163797619Y-95921429D01*
X163850000Y-95816667D01*
X163954762Y-95711905D01*
X164164286Y-95659524D01*
X164530952Y-95659524D01*
X164740476Y-95711905D01*
X164845238Y-95816667D01*
X164897619Y-95921429D01*
X164897619Y-96130952D01*
X164845238Y-96235714D01*
X164740476Y-96340476D01*
X164530952Y-96392857D01*
X164164286Y-96392857D01*
X163954762Y-96340476D01*
X163850000Y-96235714D01*
X163797619Y-96130952D01*
X163797619Y-95292857D02*
X164897619Y-95030952D01*
X164111905Y-94821429D01*
X164897619Y-94611905D01*
X163797619Y-94350000D01*
X164321429Y-93930952D02*
X164321429Y-93564286D01*
X164897619Y-93407143D02*
X164897619Y-93930952D01*
X163797619Y-93930952D01*
X163797619Y-93407143D01*
X164897619Y-92307143D02*
X164373810Y-92673809D01*
X164897619Y-92935714D02*
X163797619Y-92935714D01*
X163797619Y-92516667D01*
X163850000Y-92411905D01*
X163902381Y-92359524D01*
X164007143Y-92307143D01*
X164164286Y-92307143D01*
X164269048Y-92359524D01*
X164321429Y-92411905D01*
X164373810Y-92516667D01*
X164373810Y-92935714D01*
X164945238Y-126630952D02*
X164997619Y-126473809D01*
X164997619Y-126211905D01*
X164945238Y-126107143D01*
X164892857Y-126054762D01*
X164788095Y-126002381D01*
X164683333Y-126002381D01*
X164578571Y-126054762D01*
X164526190Y-126107143D01*
X164473810Y-126211905D01*
X164421429Y-126421428D01*
X164369048Y-126526190D01*
X164316667Y-126578571D01*
X164211905Y-126630952D01*
X164107143Y-126630952D01*
X164002381Y-126578571D01*
X163950000Y-126526190D01*
X163897619Y-126421428D01*
X163897619Y-126159524D01*
X163950000Y-126002381D01*
X164997619Y-125530952D02*
X163897619Y-125530952D01*
X163897619Y-125111905D01*
X163950000Y-125007143D01*
X164002381Y-124954762D01*
X164107143Y-124902381D01*
X164264286Y-124902381D01*
X164369048Y-124954762D01*
X164421429Y-125007143D01*
X164473810Y-125111905D01*
X164473810Y-125530952D01*
X164421429Y-124430952D02*
X164421429Y-124064286D01*
X164997619Y-123907143D02*
X164997619Y-124430952D01*
X163897619Y-124430952D01*
X163897619Y-123907143D01*
X164683333Y-123488095D02*
X164683333Y-122964286D01*
X164997619Y-123592857D02*
X163897619Y-123226190D01*
X164997619Y-122859524D01*
X164997619Y-122492857D02*
X163897619Y-122492857D01*
X164997619Y-121864286D02*
X164369048Y-122335714D01*
X163897619Y-121864286D02*
X164526190Y-122492857D01*
X164421429Y-121392857D02*
X164421429Y-121026191D01*
X164997619Y-120869048D02*
X164997619Y-121392857D01*
X163897619Y-121392857D01*
X163897619Y-120869048D01*
X164997619Y-119769048D02*
X164473810Y-120135714D01*
X164997619Y-120397619D02*
X163897619Y-120397619D01*
X163897619Y-119978572D01*
X163950000Y-119873810D01*
X164002381Y-119821429D01*
X164107143Y-119769048D01*
X164264286Y-119769048D01*
X164369048Y-119821429D01*
X164421429Y-119873810D01*
X164473810Y-119978572D01*
X164473810Y-120397619D01*
X144814286Y-92645238D02*
X144971429Y-92697619D01*
X145233333Y-92697619D01*
X145338095Y-92645238D01*
X145390476Y-92592857D01*
X145442857Y-92488095D01*
X145442857Y-92383333D01*
X145390476Y-92278571D01*
X145338095Y-92226190D01*
X145233333Y-92173810D01*
X145023810Y-92121429D01*
X144919048Y-92069048D01*
X144866667Y-92016667D01*
X144814286Y-91911905D01*
X144814286Y-91807143D01*
X144866667Y-91702381D01*
X144919048Y-91650000D01*
X145023810Y-91597619D01*
X145285714Y-91597619D01*
X145442857Y-91650000D01*
X145914286Y-92697619D02*
X145914286Y-91597619D01*
X146176191Y-91597619D01*
X146333333Y-91650000D01*
X146438095Y-91754762D01*
X146490476Y-91859524D01*
X146542857Y-92069048D01*
X146542857Y-92226190D01*
X146490476Y-92435714D01*
X146438095Y-92540476D01*
X146333333Y-92645238D01*
X146176191Y-92697619D01*
X145914286Y-92697619D01*
X147014286Y-92278571D02*
X147852381Y-92278571D01*
X149004762Y-92592857D02*
X148952381Y-92645238D01*
X148795238Y-92697619D01*
X148690476Y-92697619D01*
X148533334Y-92645238D01*
X148428572Y-92540476D01*
X148376191Y-92435714D01*
X148323810Y-92226190D01*
X148323810Y-92069048D01*
X148376191Y-91859524D01*
X148428572Y-91754762D01*
X148533334Y-91650000D01*
X148690476Y-91597619D01*
X148795238Y-91597619D01*
X148952381Y-91650000D01*
X149004762Y-91702381D01*
X149423810Y-92383333D02*
X149947619Y-92383333D01*
X149319048Y-92697619D02*
X149685715Y-91597619D01*
X150052381Y-92697619D01*
X151047619Y-92697619D02*
X150680953Y-92173810D01*
X150419048Y-92697619D02*
X150419048Y-91597619D01*
X150838095Y-91597619D01*
X150942857Y-91650000D01*
X150995238Y-91702381D01*
X151047619Y-91807143D01*
X151047619Y-91964286D01*
X150995238Y-92069048D01*
X150942857Y-92121429D01*
X150838095Y-92173810D01*
X150419048Y-92173810D01*
X151519048Y-92697619D02*
X151519048Y-91597619D01*
X151780953Y-91597619D01*
X151938095Y-91650000D01*
X152042857Y-91754762D01*
X152095238Y-91859524D01*
X152147619Y-92069048D01*
X152147619Y-92226190D01*
X152095238Y-92435714D01*
X152042857Y-92540476D01*
X151938095Y-92645238D01*
X151780953Y-92697619D01*
X151519048Y-92697619D01*
X163176191Y-85202381D02*
X163700000Y-85202381D01*
X163700000Y-86302381D01*
X162180953Y-85307143D02*
X162233334Y-85254762D01*
X162390477Y-85202381D01*
X162495239Y-85202381D01*
X162652381Y-85254762D01*
X162757143Y-85359524D01*
X162809524Y-85464286D01*
X162861905Y-85673810D01*
X162861905Y-85830952D01*
X162809524Y-86040476D01*
X162757143Y-86145238D01*
X162652381Y-86250000D01*
X162495239Y-86302381D01*
X162390477Y-86302381D01*
X162233334Y-86250000D01*
X162180953Y-86197619D01*
X161709524Y-85202381D02*
X161709524Y-86302381D01*
X161447619Y-86302381D01*
X161290477Y-86250000D01*
X161185715Y-86145238D01*
X161133334Y-86040476D01*
X161080953Y-85830952D01*
X161080953Y-85673810D01*
X161133334Y-85464286D01*
X161185715Y-85359524D01*
X161290477Y-85254762D01*
X161447619Y-85202381D01*
X161709524Y-85202381D01*
X160609524Y-85621429D02*
X159771429Y-85621429D01*
X159247619Y-85202381D02*
X159247619Y-86302381D01*
X158776190Y-86197619D02*
X158723809Y-86250000D01*
X158619047Y-86302381D01*
X158357143Y-86302381D01*
X158252381Y-86250000D01*
X158200000Y-86197619D01*
X158147619Y-86092857D01*
X158147619Y-85988095D01*
X158200000Y-85830952D01*
X158828571Y-85202381D01*
X158147619Y-85202381D01*
X157047619Y-85307143D02*
X157100000Y-85254762D01*
X157257143Y-85202381D01*
X157361905Y-85202381D01*
X157519047Y-85254762D01*
X157623809Y-85359524D01*
X157676190Y-85464286D01*
X157728571Y-85673810D01*
X157728571Y-85830952D01*
X157676190Y-86040476D01*
X157623809Y-86145238D01*
X157519047Y-86250000D01*
X157361905Y-86302381D01*
X157257143Y-86302381D01*
X157100000Y-86250000D01*
X157047619Y-86197619D01*
D15*
X110730000Y-123810000D02*
X110730000Y-116190000D01*
X110730000Y-116190000D02*
X113270000Y-116190000D01*
X113270000Y-116190000D02*
X113270000Y-123810000D01*
X113270000Y-123810000D02*
X110730000Y-123810000D01*
X111365000Y-123810000D02*
X110730000Y-123175000D01*
D16*
X124000000Y-91000000D02*
G75*
G03X124000000Y-91000000I-2000000J0D01*
G01*
X122000000Y-88000000D02*
X125000000Y-88000000D01*
X125000000Y-88000000D02*
X125000000Y-94000000D01*
X125000000Y-94000000D02*
X119000000Y-94000000D01*
X119000000Y-94000000D02*
X119000000Y-88000000D01*
X119000000Y-88000000D02*
X122000000Y-88000000D01*
D17*
X153579050Y-143000000D02*
G75*
G03X153579050Y-143000000I-4579050J0D01*
G01*
X142650000Y-136650000D02*
X155350000Y-136650000D01*
X155350000Y-136650000D02*
X155350000Y-149350000D01*
X155350000Y-149350000D02*
X142650000Y-149350000D01*
X142650000Y-149350000D02*
X142650000Y-136650000D01*
D16*
X117104536Y-99200000D02*
G75*
G03X117104536Y-99200000I-1104536J0D01*
G01*
D18*
X121040000Y-99220000D02*
X121040000Y-134780000D01*
D19*
X121040000Y-134780000D02*
X115960000Y-134780000D01*
D18*
X115960000Y-134780000D02*
X115960000Y-99220000D01*
X119770000Y-99220000D02*
X119770000Y-100490000D01*
X119770000Y-100490000D02*
X117230000Y-100490000D01*
X117230000Y-100490000D02*
X117230000Y-99220000D01*
X121040000Y-134780000D02*
X115960000Y-134780000D01*
X115960000Y-99220000D02*
X121040000Y-99220000D01*
D15*
X134920000Y-89000000D02*
X135936000Y-89000000D01*
X135936000Y-89000000D02*
X135936000Y-87984000D01*
X135936000Y-87984000D02*
X144064000Y-87984000D01*
X144064000Y-87984000D02*
X144064000Y-90016000D01*
X144064000Y-90016000D02*
X135936000Y-90016000D01*
X135936000Y-90016000D02*
X135936000Y-89000000D01*
X135936000Y-88492000D02*
X136444000Y-87984000D01*
X145080000Y-89000000D02*
X144064000Y-89000000D01*
D17*
X135579050Y-127000000D02*
G75*
G03X135579050Y-127000000I-4579050J0D01*
G01*
X137350000Y-133350000D02*
X124650000Y-133350000D01*
X124650000Y-133350000D02*
X124650000Y-120650000D01*
X124650000Y-120650000D02*
X137350000Y-120650000D01*
X137350000Y-120650000D02*
X137350000Y-133350000D01*
X153579050Y-127000000D02*
G75*
G03X153579050Y-127000000I-4579050J0D01*
G01*
X155350000Y-133350000D02*
X142650000Y-133350000D01*
X142650000Y-133350000D02*
X142650000Y-120650000D01*
X142650000Y-120650000D02*
X155350000Y-120650000D01*
X155350000Y-120650000D02*
X155350000Y-133350000D01*
D16*
X142000000Y-112000000D02*
X144000000Y-112000000D01*
X136000000Y-112000000D02*
X138000000Y-112000000D01*
X137000000Y-111000000D02*
X137000000Y-113000000D01*
X149200000Y-105200000D02*
X149200000Y-114800000D01*
X150500000Y-110000000D02*
G75*
G03X150500000Y-110000000I-10500000J0D01*
G01*
D15*
X160730000Y-94810000D02*
X160730000Y-87190000D01*
X160730000Y-87190000D02*
X163270000Y-87190000D01*
X163270000Y-87190000D02*
X163270000Y-94810000D01*
X163270000Y-94810000D02*
X160730000Y-94810000D01*
X161365000Y-94810000D02*
X160730000Y-94175000D01*
D16*
X171596000Y-120460000D02*
G75*
G03X171596000Y-120460000I-2032000J0D01*
G01*
X171611813Y-125540000D02*
G75*
G03X171611813Y-125540000I-2047813J0D01*
G01*
X168040000Y-127064000D02*
X165500000Y-127064000D01*
X168040000Y-124016000D02*
X165500000Y-124016000D01*
X168040000Y-121984000D02*
X165500000Y-121984000D01*
X168040000Y-118936000D02*
X165500000Y-118936000D01*
X172104000Y-128080000D02*
X172104000Y-117920000D01*
X174644000Y-128080000D02*
X174644000Y-117920000D01*
X174644000Y-117920000D02*
X165500000Y-117920000D01*
X165500000Y-117920000D02*
X165500000Y-128080000D01*
X165500000Y-128080000D02*
X174644000Y-128080000D01*
X170204536Y-132500000D02*
G75*
G03X170204536Y-132500000I-1104536J0D01*
G01*
X158920000Y-137540000D02*
X169080000Y-137540000D01*
X169080000Y-132460000D02*
X158920000Y-132460000D01*
X169080000Y-133730000D02*
X168318000Y-133730000D01*
X169080000Y-136270000D02*
X168318000Y-136270000D01*
X168318000Y-136270000D02*
X168318000Y-133730000D01*
X169080000Y-137540000D02*
X169080000Y-132460000D01*
X158920000Y-137540000D02*
X158920000Y-132460000D01*
X171596000Y-92460000D02*
G75*
G03X171596000Y-92460000I-2032000J0D01*
G01*
X171596000Y-97540000D02*
G75*
G03X171596000Y-97540000I-2032000J0D01*
G01*
X168040000Y-99064000D02*
X165500000Y-99064000D01*
X168040000Y-96016000D02*
X165500000Y-96016000D01*
X168040000Y-93984000D02*
X165500000Y-93984000D01*
X168040000Y-90936000D02*
X165500000Y-90936000D01*
X172104000Y-100080000D02*
X172104000Y-89920000D01*
X174644000Y-100080000D02*
X174644000Y-89920000D01*
X174644000Y-89920000D02*
X165500000Y-89920000D01*
X165500000Y-89920000D02*
X165500000Y-100080000D01*
X165500000Y-100080000D02*
X174644000Y-100080000D01*
X127890000Y-84262000D02*
X126874000Y-83500000D01*
X126874000Y-83500000D02*
X127890000Y-82738000D01*
X127890000Y-82738000D02*
X127890000Y-84262000D01*
X126112000Y-86040000D02*
X124588000Y-86040000D01*
X124588000Y-86040000D02*
X125350000Y-85024000D01*
X125350000Y-85024000D02*
X126112000Y-86040000D01*
D17*
X119000000Y-80325000D02*
X111380000Y-80325000D01*
X119000000Y-84770000D02*
X111380000Y-84770000D01*
X119000000Y-86675000D02*
X111380000Y-86675000D01*
X126620000Y-86675000D02*
X126620000Y-80325000D01*
X111380000Y-86675000D02*
X111380000Y-80325000D01*
X119000000Y-84770000D02*
X126620000Y-84770000D01*
X126620000Y-86675000D02*
X119000000Y-86675000D01*
X119000000Y-80325000D02*
X126620000Y-80325000D01*
D16*
X148890000Y-84262000D02*
X147874000Y-83500000D01*
X147874000Y-83500000D02*
X148890000Y-82738000D01*
X148890000Y-82738000D02*
X148890000Y-84262000D01*
X147112000Y-86040000D02*
X145588000Y-86040000D01*
X145588000Y-86040000D02*
X146350000Y-85024000D01*
X146350000Y-85024000D02*
X147112000Y-86040000D01*
D17*
X140000000Y-80325000D02*
X132380000Y-80325000D01*
X140000000Y-84770000D02*
X132380000Y-84770000D01*
X140000000Y-86675000D02*
X132380000Y-86675000D01*
X147620000Y-86675000D02*
X147620000Y-80325000D01*
X132380000Y-86675000D02*
X132380000Y-80325000D01*
X140000000Y-84770000D02*
X147620000Y-84770000D01*
X147620000Y-86675000D02*
X140000000Y-86675000D01*
X140000000Y-80325000D02*
X147620000Y-80325000D01*
D16*
X171596000Y-114080000D02*
G75*
G03X171596000Y-114080000I-2032000J0D01*
G01*
X171611813Y-103920000D02*
G75*
G03X171611813Y-103920000I-2047813J0D01*
G01*
X171611813Y-109000000D02*
G75*
G03X171611813Y-109000000I-2047813J0D01*
G01*
X168040000Y-115604000D02*
X165500000Y-115604000D01*
X168040000Y-112556000D02*
X165500000Y-112556000D01*
X168040000Y-110524000D02*
X165500000Y-110524000D01*
X167786000Y-107476000D02*
X165500000Y-107476000D01*
X167786000Y-105444000D02*
X165500000Y-105444000D01*
X168040000Y-102396000D02*
X165500000Y-102396000D01*
X172104000Y-116620000D02*
X172104000Y-101380000D01*
X174644000Y-116620000D02*
X174644000Y-101380000D01*
X174644000Y-101380000D02*
X165500000Y-101380000D01*
X165500000Y-101380000D02*
X165500000Y-116620000D01*
X165500000Y-116620000D02*
X174644000Y-116620000D01*
D15*
X115690000Y-95230000D02*
X123310000Y-95230000D01*
X123310000Y-95230000D02*
X123310000Y-97770000D01*
X123310000Y-97770000D02*
X115690000Y-97770000D01*
X115690000Y-97770000D02*
X115690000Y-95230000D01*
X115690000Y-95865000D02*
X116325000Y-95230000D01*
X157000000Y-98580000D02*
X157000000Y-97564000D01*
X157000000Y-97564000D02*
X155984000Y-97564000D01*
X155984000Y-97564000D02*
X155984000Y-89436000D01*
X155984000Y-89436000D02*
X158016000Y-89436000D01*
X158016000Y-89436000D02*
X158016000Y-97564000D01*
X158016000Y-97564000D02*
X157000000Y-97564000D01*
X156492000Y-97564000D02*
X155984000Y-97056000D01*
X157000000Y-88420000D02*
X157000000Y-89436000D01*
X107730000Y-120810000D02*
X107730000Y-113190000D01*
X107730000Y-113190000D02*
X110270000Y-113190000D01*
X110270000Y-113190000D02*
X110270000Y-120810000D01*
X110270000Y-120810000D02*
X107730000Y-120810000D01*
X108365000Y-120810000D02*
X107730000Y-120175000D01*
X114690000Y-135730000D02*
X122310000Y-135730000D01*
X122310000Y-135730000D02*
X122310000Y-138270000D01*
X122310000Y-138270000D02*
X114690000Y-138270000D01*
X114690000Y-138270000D02*
X114690000Y-135730000D01*
X114690000Y-136365000D02*
X115325000Y-135730000D01*
X145310000Y-98770000D02*
X137690000Y-98770000D01*
X137690000Y-98770000D02*
X137690000Y-96230000D01*
X137690000Y-96230000D02*
X145310000Y-96230000D01*
X145310000Y-96230000D02*
X145310000Y-98770000D01*
X145310000Y-98135000D02*
X144675000Y-98770000D01*
X124690000Y-117230000D02*
X132310000Y-117230000D01*
X132310000Y-117230000D02*
X132310000Y-119770000D01*
X132310000Y-119770000D02*
X124690000Y-119770000D01*
X124690000Y-119770000D02*
X124690000Y-117230000D01*
X124690000Y-117865000D02*
X125325000Y-117230000D01*
X138730000Y-133810000D02*
X138730000Y-126190000D01*
X138730000Y-126190000D02*
X141270000Y-126190000D01*
X141270000Y-126190000D02*
X141270000Y-133810000D01*
X141270000Y-133810000D02*
X138730000Y-133810000D01*
X139365000Y-133810000D02*
X138730000Y-133175000D01*
X157230000Y-128810000D02*
X157230000Y-121190000D01*
X157230000Y-121190000D02*
X159770000Y-121190000D01*
X159770000Y-121190000D02*
X159770000Y-128810000D01*
X159770000Y-128810000D02*
X157230000Y-128810000D01*
X157865000Y-128810000D02*
X157230000Y-128175000D01*
D20*
X115905000Y-87155200D02*
X112095000Y-87155200D01*
D21*
X115796051Y-89746000D02*
G75*
G03X115796051Y-89746000I-1796051J0D01*
G01*
D17*
X112092332Y-87208003D02*
G75*
G03X115905000Y-87206000I1907668J-2537997D01*
G01*
D22*
X112857000Y-89746000D02*
G75*
G03X114000000Y-90889000I1143000J0D01*
G01*
X115143000Y-89746000D02*
G75*
G03X114000000Y-88603000I-1143000J0D01*
G01*
X112349000Y-89746000D02*
G75*
G03X114000000Y-91397000I1651000J0D01*
G01*
X115651000Y-89746000D02*
G75*
G03X114000000Y-88095000I-1651000J0D01*
G01*
X111841000Y-89746000D02*
G75*
G03X114000000Y-91905000I2159000J0D01*
G01*
X116159000Y-89746000D02*
G75*
G03X114000000Y-87587000I-2159000J0D01*
G01*
D15*
X111000000Y-94920000D02*
X111000000Y-95936000D01*
X111000000Y-95936000D02*
X112016000Y-95936000D01*
X112016000Y-95936000D02*
X112016000Y-104064000D01*
X112016000Y-104064000D02*
X109984000Y-104064000D01*
X109984000Y-104064000D02*
X109984000Y-95936000D01*
X109984000Y-95936000D02*
X111000000Y-95936000D01*
X111508000Y-95936000D02*
X112016000Y-96444000D01*
X111000000Y-105080000D02*
X111000000Y-104064000D01*
X151920000Y-115500000D02*
X152936000Y-115500000D01*
X152936000Y-115500000D02*
X152936000Y-114484000D01*
X152936000Y-114484000D02*
X161064000Y-114484000D01*
X161064000Y-114484000D02*
X161064000Y-116516000D01*
X161064000Y-116516000D02*
X152936000Y-116516000D01*
X152936000Y-116516000D02*
X152936000Y-115500000D01*
X152936000Y-114992000D02*
X153444000Y-114484000D01*
X162080000Y-115500000D02*
X161064000Y-115500000D01*
X162080000Y-113000000D02*
X161064000Y-113000000D01*
X161064000Y-113000000D02*
X161064000Y-114016000D01*
X161064000Y-114016000D02*
X152936000Y-114016000D01*
X152936000Y-114016000D02*
X152936000Y-111984000D01*
X152936000Y-111984000D02*
X161064000Y-111984000D01*
X161064000Y-111984000D02*
X161064000Y-113000000D01*
X161064000Y-113508000D02*
X160556000Y-114016000D01*
X151920000Y-113000000D02*
X152936000Y-113000000D01*
X128000000Y-100420000D02*
X128000000Y-101436000D01*
X128000000Y-101436000D02*
X129016000Y-101436000D01*
X129016000Y-101436000D02*
X129016000Y-109564000D01*
X129016000Y-109564000D02*
X126984000Y-109564000D01*
X126984000Y-109564000D02*
X126984000Y-101436000D01*
X126984000Y-101436000D02*
X128000000Y-101436000D01*
X128508000Y-101436000D02*
X129016000Y-101944000D01*
X128000000Y-110580000D02*
X128000000Y-109564000D01*
X151920000Y-118000000D02*
X152936000Y-118000000D01*
X152936000Y-118000000D02*
X152936000Y-116984000D01*
X152936000Y-116984000D02*
X161064000Y-116984000D01*
X161064000Y-116984000D02*
X161064000Y-119016000D01*
X161064000Y-119016000D02*
X152936000Y-119016000D01*
X152936000Y-119016000D02*
X152936000Y-118000000D01*
X152936000Y-117492000D02*
X153444000Y-116984000D01*
X162080000Y-118000000D02*
X161064000Y-118000000D01*
X140000000Y-147080000D02*
X140000000Y-146064000D01*
X140000000Y-146064000D02*
X138984000Y-146064000D01*
X138984000Y-146064000D02*
X138984000Y-137936000D01*
X138984000Y-137936000D02*
X141016000Y-137936000D01*
X141016000Y-137936000D02*
X141016000Y-146064000D01*
X141016000Y-146064000D02*
X140000000Y-146064000D01*
X139492000Y-146064000D02*
X138984000Y-145556000D01*
X140000000Y-136920000D02*
X140000000Y-137936000D01*
X137080000Y-135000000D02*
X136064000Y-135000000D01*
X136064000Y-135000000D02*
X136064000Y-136016000D01*
X136064000Y-136016000D02*
X127936000Y-136016000D01*
X127936000Y-136016000D02*
X127936000Y-133984000D01*
X127936000Y-133984000D02*
X136064000Y-133984000D01*
X136064000Y-133984000D02*
X136064000Y-135000000D01*
X136064000Y-135508000D02*
X135556000Y-136016000D01*
X126920000Y-135000000D02*
X127936000Y-135000000D01*
X109000000Y-132080000D02*
X109000000Y-131064000D01*
X109000000Y-131064000D02*
X107984000Y-131064000D01*
X107984000Y-131064000D02*
X107984000Y-122936000D01*
X107984000Y-122936000D02*
X110016000Y-122936000D01*
X110016000Y-122936000D02*
X110016000Y-131064000D01*
X110016000Y-131064000D02*
X109000000Y-131064000D01*
X108492000Y-131064000D02*
X107984000Y-130556000D01*
X109000000Y-121920000D02*
X109000000Y-122936000D01*
X153080000Y-135000000D02*
X152064000Y-135000000D01*
X152064000Y-135000000D02*
X152064000Y-136016000D01*
X152064000Y-136016000D02*
X143936000Y-136016000D01*
X143936000Y-136016000D02*
X143936000Y-133984000D01*
X143936000Y-133984000D02*
X152064000Y-133984000D01*
X152064000Y-133984000D02*
X152064000Y-135000000D01*
X152064000Y-135508000D02*
X151556000Y-136016000D01*
X142920000Y-135000000D02*
X143936000Y-135000000D01*
X159500000Y-98580000D02*
X159500000Y-97564000D01*
X159500000Y-97564000D02*
X158484000Y-97564000D01*
X158484000Y-97564000D02*
X158484000Y-89436000D01*
X158484000Y-89436000D02*
X160516000Y-89436000D01*
X160516000Y-89436000D02*
X160516000Y-97564000D01*
X160516000Y-97564000D02*
X159500000Y-97564000D01*
X158992000Y-97564000D02*
X158484000Y-97056000D01*
X159500000Y-88420000D02*
X159500000Y-89436000D01*
X154500000Y-98580000D02*
X154500000Y-97564000D01*
X154500000Y-97564000D02*
X153484000Y-97564000D01*
X153484000Y-97564000D02*
X153484000Y-89436000D01*
X153484000Y-89436000D02*
X155516000Y-89436000D01*
X155516000Y-89436000D02*
X155516000Y-97564000D01*
X155516000Y-97564000D02*
X154500000Y-97564000D01*
X153992000Y-97564000D02*
X153484000Y-97056000D01*
X154500000Y-88420000D02*
X154500000Y-89436000D01*
D17*
X135579050Y-143000000D02*
G75*
G03X135579050Y-143000000I-4579050J0D01*
G01*
X124650000Y-136650000D02*
X137350000Y-136650000D01*
X137350000Y-136650000D02*
X137350000Y-149350000D01*
X137350000Y-149350000D02*
X124650000Y-149350000D01*
X124650000Y-149350000D02*
X124650000Y-136650000D01*
D16*
X126500000Y-102900000D02*
X124500000Y-102900000D01*
X126500000Y-102700000D02*
X124500000Y-102700000D01*
X126500000Y-102300000D02*
X124500000Y-102300000D01*
X126500000Y-102500000D02*
X124500000Y-102500000D01*
D15*
X125500000Y-100420000D02*
X125500000Y-101436000D01*
X125500000Y-101436000D02*
X126516000Y-101436000D01*
X126516000Y-101436000D02*
X126516000Y-109564000D01*
X126516000Y-109564000D02*
X124484000Y-109564000D01*
X124484000Y-109564000D02*
X124484000Y-101436000D01*
X124484000Y-101436000D02*
X125500000Y-101436000D01*
X125500000Y-110580000D02*
X125500000Y-109564000D01*
D16*
X156500000Y-105000000D02*
X155000000Y-105500000D01*
X155000000Y-105500000D02*
X155000000Y-109500000D01*
X155000000Y-109500000D02*
X156500000Y-110000000D01*
X159000000Y-107500000D02*
G75*
G03X156500000Y-105000000I-2500000J0D01*
G01*
X156500000Y-110000000D02*
G75*
G03X159000000Y-107500000I0J2500000D01*
G01*
X168120000Y-84262000D02*
X167104000Y-83500000D01*
X167104000Y-83500000D02*
X168120000Y-82738000D01*
X168120000Y-82738000D02*
X168120000Y-84262000D01*
X166342000Y-86040000D02*
X165072000Y-86040000D01*
D17*
X165072000Y-86040000D02*
X164818000Y-86040000D01*
D16*
X164818000Y-86040000D02*
X165580000Y-85024000D01*
X165580000Y-85024000D02*
X166342000Y-86040000D01*
D17*
X159230000Y-80325000D02*
X154150000Y-80325000D01*
X159230000Y-84770000D02*
X154150000Y-84770000D01*
X159230000Y-86675000D02*
X154150000Y-86675000D01*
X166850000Y-86675000D02*
X166850000Y-80325000D01*
X154150000Y-86675000D02*
X154150000Y-80325000D01*
X159230000Y-84770000D02*
X166850000Y-84770000D01*
X166850000Y-86675000D02*
X159230000Y-86675000D01*
X159230000Y-80325000D02*
X166850000Y-80325000D01*
D16*
X113000000Y-132000000D02*
X113000000Y-126000000D01*
X111000000Y-132000000D02*
X111000000Y-126000000D01*
X113000000Y-132000000D02*
X111000000Y-132000000D01*
X113000000Y-126000000D02*
X111000000Y-126000000D01*
X112778000Y-136778000D02*
X112778000Y-133222000D01*
X109222000Y-136778000D02*
X109222000Y-133222000D01*
X113500000Y-135000000D02*
G75*
G03X113500000Y-135000000I-2500000J0D01*
G01*
D15*
X162270000Y-103190000D02*
X162270000Y-110810000D01*
X162270000Y-110810000D02*
X159730000Y-110810000D01*
X159730000Y-110810000D02*
X159730000Y-103190000D01*
X159730000Y-103190000D02*
X162270000Y-103190000D01*
X161635000Y-103190000D02*
X162270000Y-103825000D01*
D16*
X160714000Y-147302000D02*
X160714000Y-140698000D01*
X160714000Y-140698000D02*
X160460000Y-140952000D01*
X163000000Y-142476000D02*
X161984000Y-142476000D01*
X165540000Y-142984000D02*
X165540000Y-141968000D01*
X166048000Y-142476000D02*
X165032000Y-142476000D01*
X167000000Y-144000000D02*
G75*
G03X167000000Y-144000000I-4000000J0D01*
G01*
D15*
X160230000Y-128810000D02*
X160230000Y-121190000D01*
X160230000Y-121190000D02*
X162770000Y-121190000D01*
X162770000Y-121190000D02*
X162770000Y-128810000D01*
X162770000Y-128810000D02*
X160230000Y-128810000D01*
X160865000Y-128810000D02*
X160230000Y-128175000D01*
X151730000Y-110810000D02*
X151730000Y-103190000D01*
X151730000Y-103190000D02*
X154270000Y-103190000D01*
X154270000Y-103190000D02*
X154270000Y-110810000D01*
X154270000Y-110810000D02*
X151730000Y-110810000D01*
X152365000Y-110810000D02*
X151730000Y-110175000D01*
D20*
X112362857Y-115169333D02*
X112411238Y-115217714D01*
X112459619Y-115362857D01*
X112459619Y-115459619D01*
X112411238Y-115604761D01*
X112314476Y-115701523D01*
X112217714Y-115749904D01*
X112024190Y-115798285D01*
X111879048Y-115798285D01*
X111685524Y-115749904D01*
X111588762Y-115701523D01*
X111492000Y-115604761D01*
X111443619Y-115459619D01*
X111443619Y-115362857D01*
X111492000Y-115217714D01*
X111540381Y-115169333D01*
X112459619Y-114201714D02*
X112459619Y-114782285D01*
X112459619Y-114491999D02*
X111443619Y-114491999D01*
X111588762Y-114588761D01*
X111685524Y-114685523D01*
X111733905Y-114782285D01*
D19*
X111607143Y-121321429D02*
X111607143Y-120764286D01*
X111950000Y-121064286D01*
X111950000Y-120935714D01*
X111992857Y-120850000D01*
X112035714Y-120807143D01*
X112121429Y-120764286D01*
X112335714Y-120764286D01*
X112421429Y-120807143D01*
X112464286Y-120850000D01*
X112507143Y-120935714D01*
X112507143Y-121192857D01*
X112464286Y-121278571D01*
X112421429Y-121321429D01*
X111607143Y-120464286D02*
X111607143Y-119907143D01*
X111950000Y-120207143D01*
X111950000Y-120078571D01*
X111992857Y-119992857D01*
X112035714Y-119950000D01*
X112121429Y-119907143D01*
X112335714Y-119907143D01*
X112421429Y-119950000D01*
X112464286Y-119992857D01*
X112507143Y-120078571D01*
X112507143Y-120335714D01*
X112464286Y-120421428D01*
X112421429Y-120464286D01*
X111907143Y-119521428D02*
X112807143Y-119521428D01*
X111950000Y-119521428D02*
X111907143Y-119435714D01*
X111907143Y-119264285D01*
X111950000Y-119178571D01*
X111992857Y-119135714D01*
X112078571Y-119092857D01*
X112335714Y-119092857D01*
X112421429Y-119135714D01*
X112464286Y-119178571D01*
X112507143Y-119264285D01*
X112507143Y-119435714D01*
X112464286Y-119521428D01*
X112035714Y-118407142D02*
X112035714Y-118707142D01*
X112507143Y-118707142D02*
X111607143Y-118707142D01*
X111607143Y-118278571D01*
D11*
X125350001Y-91345238D02*
X125507144Y-91397619D01*
X125769048Y-91397619D01*
X125873810Y-91345238D01*
X125926191Y-91292857D01*
X125978572Y-91188095D01*
X125978572Y-91083333D01*
X125926191Y-90978571D01*
X125873810Y-90926190D01*
X125769048Y-90873810D01*
X125559525Y-90821429D01*
X125454763Y-90769048D01*
X125402382Y-90716667D01*
X125350001Y-90611905D01*
X125350001Y-90507143D01*
X125402382Y-90402381D01*
X125454763Y-90350000D01*
X125559525Y-90297619D01*
X125821429Y-90297619D01*
X125978572Y-90350000D01*
X126345239Y-90297619D02*
X126607144Y-91397619D01*
X126816667Y-90611905D01*
X127026191Y-91397619D01*
X127288096Y-90297619D01*
X127445239Y-91502381D02*
X128283334Y-91502381D01*
X129173810Y-91397619D02*
X128807144Y-90873810D01*
X128545239Y-91397619D02*
X128545239Y-90297619D01*
X128964286Y-90297619D01*
X129069048Y-90350000D01*
X129121429Y-90402381D01*
X129173810Y-90507143D01*
X129173810Y-90664286D01*
X129121429Y-90769048D01*
X129069048Y-90821429D01*
X128964286Y-90873810D01*
X128545239Y-90873810D01*
X129645239Y-90821429D02*
X130011905Y-90821429D01*
X130169048Y-91397619D02*
X129645239Y-91397619D01*
X129645239Y-90297619D01*
X130169048Y-90297619D01*
X130588096Y-91345238D02*
X130745239Y-91397619D01*
X131007143Y-91397619D01*
X131111905Y-91345238D01*
X131164286Y-91292857D01*
X131216667Y-91188095D01*
X131216667Y-91083333D01*
X131164286Y-90978571D01*
X131111905Y-90926190D01*
X131007143Y-90873810D01*
X130797620Y-90821429D01*
X130692858Y-90769048D01*
X130640477Y-90716667D01*
X130588096Y-90611905D01*
X130588096Y-90507143D01*
X130640477Y-90402381D01*
X130692858Y-90350000D01*
X130797620Y-90297619D01*
X131059524Y-90297619D01*
X131216667Y-90350000D01*
X131688096Y-90821429D02*
X132054762Y-90821429D01*
X132211905Y-91397619D02*
X131688096Y-91397619D01*
X131688096Y-90297619D01*
X132211905Y-90297619D01*
X132526191Y-90297619D02*
X133154762Y-90297619D01*
X132840477Y-91397619D02*
X132840477Y-90297619D01*
D20*
X145723905Y-143283238D02*
X145869048Y-143331619D01*
X146110952Y-143331619D01*
X146207714Y-143283238D01*
X146256095Y-143234857D01*
X146304476Y-143138095D01*
X146304476Y-143041333D01*
X146256095Y-142944571D01*
X146207714Y-142896190D01*
X146110952Y-142847810D01*
X145917429Y-142799429D01*
X145820667Y-142751048D01*
X145772286Y-142702667D01*
X145723905Y-142605905D01*
X145723905Y-142509143D01*
X145772286Y-142412381D01*
X145820667Y-142364000D01*
X145917429Y-142315619D01*
X146159333Y-142315619D01*
X146304476Y-142364000D01*
X146643143Y-142315619D02*
X146885048Y-143331619D01*
X147078571Y-142605905D01*
X147272095Y-143331619D01*
X147514000Y-142315619D01*
X147659143Y-143428381D02*
X148433238Y-143428381D01*
X148675143Y-143331619D02*
X148675143Y-142315619D01*
X149062190Y-142315619D01*
X149158952Y-142364000D01*
X149207333Y-142412381D01*
X149255714Y-142509143D01*
X149255714Y-142654286D01*
X149207333Y-142751048D01*
X149158952Y-142799429D01*
X149062190Y-142847810D01*
X148675143Y-142847810D01*
X149691143Y-142315619D02*
X149691143Y-143138095D01*
X149739524Y-143234857D01*
X149787905Y-143283238D01*
X149884667Y-143331619D01*
X150078190Y-143331619D01*
X150174952Y-143283238D01*
X150223333Y-143234857D01*
X150271714Y-143138095D01*
X150271714Y-142315619D01*
X150707143Y-143283238D02*
X150852286Y-143331619D01*
X151094190Y-143331619D01*
X151190952Y-143283238D01*
X151239333Y-143234857D01*
X151287714Y-143138095D01*
X151287714Y-143041333D01*
X151239333Y-142944571D01*
X151190952Y-142896190D01*
X151094190Y-142847810D01*
X150900667Y-142799429D01*
X150803905Y-142751048D01*
X150755524Y-142702667D01*
X150707143Y-142605905D01*
X150707143Y-142509143D01*
X150755524Y-142412381D01*
X150803905Y-142364000D01*
X150900667Y-142315619D01*
X151142571Y-142315619D01*
X151287714Y-142364000D01*
X151723143Y-143331619D02*
X151723143Y-142315619D01*
X151723143Y-142799429D02*
X152303714Y-142799429D01*
X152303714Y-143331619D02*
X152303714Y-142315619D01*
D11*
X112397619Y-109038095D02*
X113288095Y-109038095D01*
X113392857Y-108985714D01*
X113445238Y-108933333D01*
X113497619Y-108828571D01*
X113497619Y-108619048D01*
X113445238Y-108514286D01*
X113392857Y-108461905D01*
X113288095Y-108409524D01*
X112397619Y-108409524D01*
X112397619Y-107990476D02*
X112397619Y-107309524D01*
X112816667Y-107676190D01*
X112816667Y-107519048D01*
X112869048Y-107414286D01*
X112921429Y-107361905D01*
X113026190Y-107309524D01*
X113288095Y-107309524D01*
X113392857Y-107361905D01*
X113445238Y-107414286D01*
X113497619Y-107519048D01*
X113497619Y-107833333D01*
X113445238Y-107938095D01*
X113392857Y-107990476D01*
D23*
X119304333Y-124806069D02*
X117526333Y-124806069D01*
X117526333Y-124370641D01*
X117611000Y-124261783D01*
X117695667Y-124207355D01*
X117865000Y-124152926D01*
X118119000Y-124152926D01*
X118288333Y-124207355D01*
X118373000Y-124261783D01*
X118457667Y-124370641D01*
X118457667Y-124806069D01*
X119304333Y-123663069D02*
X117526333Y-123663069D01*
X119135000Y-122465640D02*
X119219667Y-122520069D01*
X119304333Y-122683355D01*
X119304333Y-122792212D01*
X119219667Y-122955497D01*
X119050333Y-123064355D01*
X118881000Y-123118783D01*
X118542333Y-123173212D01*
X118288333Y-123173212D01*
X117949667Y-123118783D01*
X117780333Y-123064355D01*
X117611000Y-122955497D01*
X117526333Y-122792212D01*
X117526333Y-122683355D01*
X117611000Y-122520069D01*
X117695667Y-122465640D01*
X117526333Y-122084640D02*
X117526333Y-121377069D01*
X118203667Y-121758069D01*
X118203667Y-121594783D01*
X118288333Y-121485926D01*
X118373000Y-121431497D01*
X118542333Y-121377069D01*
X118965667Y-121377069D01*
X119135000Y-121431497D01*
X119219667Y-121485926D01*
X119304333Y-121594783D01*
X119304333Y-121921355D01*
X119219667Y-122030212D01*
X119135000Y-122084640D01*
X117695667Y-120941641D02*
X117611000Y-120887212D01*
X117526333Y-120778355D01*
X117526333Y-120506212D01*
X117611000Y-120397355D01*
X117695667Y-120342926D01*
X117865000Y-120288498D01*
X118034333Y-120288498D01*
X118288333Y-120342926D01*
X119304333Y-120996069D01*
X119304333Y-120288498D01*
X119304333Y-119798641D02*
X117526333Y-119798641D01*
X118796333Y-119417641D01*
X117526333Y-119036641D01*
X119304333Y-119036641D01*
X117526333Y-118601212D02*
X119304333Y-117839212D01*
X117526333Y-117839212D02*
X119304333Y-118601212D01*
X119304333Y-116805070D02*
X119304333Y-117458213D01*
X119304333Y-117131641D02*
X117526333Y-117131641D01*
X117780333Y-117240498D01*
X117949667Y-117349356D01*
X118034333Y-117458213D01*
X117526333Y-116424070D02*
X117526333Y-115716499D01*
X118203667Y-116097499D01*
X118203667Y-115934213D01*
X118288333Y-115825356D01*
X118373000Y-115770927D01*
X118542333Y-115716499D01*
X118965667Y-115716499D01*
X119135000Y-115770927D01*
X119219667Y-115825356D01*
X119304333Y-115934213D01*
X119304333Y-116260785D01*
X119219667Y-116369642D01*
X119135000Y-116424070D01*
X117526333Y-115008928D02*
X117526333Y-114900071D01*
X117611000Y-114791214D01*
X117695667Y-114736785D01*
X117865000Y-114682356D01*
X118203667Y-114627928D01*
X118627000Y-114627928D01*
X118965667Y-114682356D01*
X119135000Y-114736785D01*
X119219667Y-114791214D01*
X119304333Y-114900071D01*
X119304333Y-115008928D01*
X119219667Y-115117785D01*
X119135000Y-115172214D01*
X118965667Y-115226642D01*
X118627000Y-115281071D01*
X118203667Y-115281071D01*
X117865000Y-115226642D01*
X117695667Y-115172214D01*
X117611000Y-115117785D01*
X117526333Y-115008928D01*
X118373000Y-113757071D02*
X118373000Y-114138071D01*
X119304333Y-114138071D02*
X117526333Y-114138071D01*
X117526333Y-113593785D01*
X117526333Y-112940643D02*
X117526333Y-112831786D01*
X117611000Y-112722929D01*
X117695667Y-112668500D01*
X117865000Y-112614071D01*
X118203667Y-112559643D01*
X118627000Y-112559643D01*
X118965667Y-112614071D01*
X119135000Y-112668500D01*
X119219667Y-112722929D01*
X119304333Y-112831786D01*
X119304333Y-112940643D01*
X119219667Y-113049500D01*
X119135000Y-113103929D01*
X118965667Y-113158357D01*
X118627000Y-113212786D01*
X118203667Y-113212786D01*
X117865000Y-113158357D01*
X117695667Y-113103929D01*
X117611000Y-113049500D01*
X117526333Y-112940643D01*
X117526333Y-111579929D02*
X117526333Y-111797643D01*
X117611000Y-111906500D01*
X117695667Y-111960929D01*
X117949667Y-112069786D01*
X118288333Y-112124215D01*
X118965667Y-112124215D01*
X119135000Y-112069786D01*
X119219667Y-112015358D01*
X119304333Y-111906500D01*
X119304333Y-111688786D01*
X119219667Y-111579929D01*
X119135000Y-111525500D01*
X118965667Y-111471072D01*
X118542333Y-111471072D01*
X118373000Y-111525500D01*
X118288333Y-111579929D01*
X118203667Y-111688786D01*
X118203667Y-111906500D01*
X118288333Y-112015358D01*
X118373000Y-112069786D01*
X118542333Y-112124215D01*
X118119000Y-110491358D02*
X119304333Y-110491358D01*
X117441667Y-110763501D02*
X118711667Y-111035644D01*
X118711667Y-110328072D01*
X118373000Y-109511644D02*
X118457667Y-109348358D01*
X118542333Y-109293930D01*
X118711667Y-109239501D01*
X118965667Y-109239501D01*
X119135000Y-109293930D01*
X119219667Y-109348358D01*
X119304333Y-109457216D01*
X119304333Y-109892644D01*
X117526333Y-109892644D01*
X117526333Y-109511644D01*
X117611000Y-109402787D01*
X117695667Y-109348358D01*
X117865000Y-109293930D01*
X118034333Y-109293930D01*
X118203667Y-109348358D01*
X118288333Y-109402787D01*
X118373000Y-109511644D01*
X118373000Y-109892644D01*
D20*
X132616667Y-89497619D02*
X132250001Y-88973810D01*
X131988096Y-89497619D02*
X131988096Y-88397619D01*
X132407143Y-88397619D01*
X132511905Y-88450000D01*
X132564286Y-88502381D01*
X132616667Y-88607143D01*
X132616667Y-88764286D01*
X132564286Y-88869048D01*
X132511905Y-88921429D01*
X132407143Y-88973810D01*
X131988096Y-88973810D01*
X133559524Y-88397619D02*
X133350001Y-88397619D01*
X133245239Y-88450000D01*
X133192858Y-88502381D01*
X133088096Y-88659524D01*
X133035715Y-88869048D01*
X133035715Y-89288095D01*
X133088096Y-89392857D01*
X133140477Y-89445238D01*
X133245239Y-89497619D01*
X133454762Y-89497619D01*
X133559524Y-89445238D01*
X133611905Y-89392857D01*
X133664286Y-89288095D01*
X133664286Y-89026190D01*
X133611905Y-88921429D01*
X133559524Y-88869048D01*
X133454762Y-88816667D01*
X133245239Y-88816667D01*
X133140477Y-88869048D01*
X133088096Y-88921429D01*
X133035715Y-89026190D01*
X139240476Y-89497619D02*
X138611905Y-89497619D01*
X138926191Y-89497619D02*
X138926191Y-88397619D01*
X138821429Y-88554762D01*
X138716667Y-88659524D01*
X138611905Y-88711905D01*
X139921429Y-88397619D02*
X140026190Y-88397619D01*
X140130952Y-88450000D01*
X140183333Y-88502381D01*
X140235714Y-88607143D01*
X140288095Y-88816667D01*
X140288095Y-89078571D01*
X140235714Y-89288095D01*
X140183333Y-89392857D01*
X140130952Y-89445238D01*
X140026190Y-89497619D01*
X139921429Y-89497619D01*
X139816667Y-89445238D01*
X139764286Y-89392857D01*
X139711905Y-89288095D01*
X139659524Y-89078571D01*
X139659524Y-88816667D01*
X139711905Y-88607143D01*
X139764286Y-88502381D01*
X139816667Y-88450000D01*
X139921429Y-88397619D01*
X140759524Y-89497619D02*
X140759524Y-88397619D01*
X141388095Y-89497619D02*
X140916667Y-88869048D01*
X141388095Y-88397619D02*
X140759524Y-89026190D01*
X127713905Y-127525238D02*
X127859048Y-127573619D01*
X128100952Y-127573619D01*
X128197714Y-127525238D01*
X128246095Y-127476857D01*
X128294476Y-127380095D01*
X128294476Y-127283333D01*
X128246095Y-127186571D01*
X128197714Y-127138190D01*
X128100952Y-127089810D01*
X127907429Y-127041429D01*
X127810667Y-126993048D01*
X127762286Y-126944667D01*
X127713905Y-126847905D01*
X127713905Y-126751143D01*
X127762286Y-126654381D01*
X127810667Y-126606000D01*
X127907429Y-126557619D01*
X128149333Y-126557619D01*
X128294476Y-126606000D01*
X128633143Y-126557619D02*
X128875048Y-127573619D01*
X129068571Y-126847905D01*
X129262095Y-127573619D01*
X129504000Y-126557619D01*
X129649143Y-127670381D02*
X130423238Y-127670381D01*
X130665143Y-127573619D02*
X130665143Y-126557619D01*
X131052190Y-126557619D01*
X131148952Y-126606000D01*
X131197333Y-126654381D01*
X131245714Y-126751143D01*
X131245714Y-126896286D01*
X131197333Y-126993048D01*
X131148952Y-127041429D01*
X131052190Y-127089810D01*
X130665143Y-127089810D01*
X131681143Y-126557619D02*
X131681143Y-127380095D01*
X131729524Y-127476857D01*
X131777905Y-127525238D01*
X131874667Y-127573619D01*
X132068190Y-127573619D01*
X132164952Y-127525238D01*
X132213333Y-127476857D01*
X132261714Y-127380095D01*
X132261714Y-126557619D01*
X132697143Y-127525238D02*
X132842286Y-127573619D01*
X133084190Y-127573619D01*
X133180952Y-127525238D01*
X133229333Y-127476857D01*
X133277714Y-127380095D01*
X133277714Y-127283333D01*
X133229333Y-127186571D01*
X133180952Y-127138190D01*
X133084190Y-127089810D01*
X132890667Y-127041429D01*
X132793905Y-126993048D01*
X132745524Y-126944667D01*
X132697143Y-126847905D01*
X132697143Y-126751143D01*
X132745524Y-126654381D01*
X132793905Y-126606000D01*
X132890667Y-126557619D01*
X133132571Y-126557619D01*
X133277714Y-126606000D01*
X133713143Y-127573619D02*
X133713143Y-126557619D01*
X133713143Y-127041429D02*
X134293714Y-127041429D01*
X134293714Y-127573619D02*
X134293714Y-126557619D01*
X145647905Y-127525238D02*
X145793048Y-127573619D01*
X146034952Y-127573619D01*
X146131714Y-127525238D01*
X146180095Y-127476857D01*
X146228476Y-127380095D01*
X146228476Y-127283333D01*
X146180095Y-127186571D01*
X146131714Y-127138190D01*
X146034952Y-127089810D01*
X145841429Y-127041429D01*
X145744667Y-126993048D01*
X145696286Y-126944667D01*
X145647905Y-126847905D01*
X145647905Y-126751143D01*
X145696286Y-126654381D01*
X145744667Y-126606000D01*
X145841429Y-126557619D01*
X146083333Y-126557619D01*
X146228476Y-126606000D01*
X146567143Y-126557619D02*
X146809048Y-127573619D01*
X147002571Y-126847905D01*
X147196095Y-127573619D01*
X147438000Y-126557619D01*
X147583143Y-127670381D02*
X148357238Y-127670381D01*
X148599143Y-127573619D02*
X148599143Y-126557619D01*
X148986190Y-126557619D01*
X149082952Y-126606000D01*
X149131333Y-126654381D01*
X149179714Y-126751143D01*
X149179714Y-126896286D01*
X149131333Y-126993048D01*
X149082952Y-127041429D01*
X148986190Y-127089810D01*
X148599143Y-127089810D01*
X149615143Y-126557619D02*
X149615143Y-127380095D01*
X149663524Y-127476857D01*
X149711905Y-127525238D01*
X149808667Y-127573619D01*
X150002190Y-127573619D01*
X150098952Y-127525238D01*
X150147333Y-127476857D01*
X150195714Y-127380095D01*
X150195714Y-126557619D01*
X150631143Y-127525238D02*
X150776286Y-127573619D01*
X151018190Y-127573619D01*
X151114952Y-127525238D01*
X151163333Y-127476857D01*
X151211714Y-127380095D01*
X151211714Y-127283333D01*
X151163333Y-127186571D01*
X151114952Y-127138190D01*
X151018190Y-127089810D01*
X150824667Y-127041429D01*
X150727905Y-126993048D01*
X150679524Y-126944667D01*
X150631143Y-126847905D01*
X150631143Y-126751143D01*
X150679524Y-126654381D01*
X150727905Y-126606000D01*
X150824667Y-126557619D01*
X151066571Y-126557619D01*
X151211714Y-126606000D01*
X151647143Y-127573619D02*
X151647143Y-126557619D01*
X151647143Y-127041429D02*
X152227714Y-127041429D01*
X152227714Y-127573619D02*
X152227714Y-126557619D01*
D11*
X138666667Y-107714286D02*
X138571429Y-107809524D01*
X138285714Y-107904762D01*
X138095238Y-107904762D01*
X137809524Y-107809524D01*
X137619048Y-107619048D01*
X137523809Y-107428571D01*
X137428571Y-107047619D01*
X137428571Y-106761905D01*
X137523809Y-106380952D01*
X137619048Y-106190476D01*
X137809524Y-106000000D01*
X138095238Y-105904762D01*
X138285714Y-105904762D01*
X138571429Y-106000000D01*
X138666667Y-106095238D01*
X139523809Y-107904762D02*
X139523809Y-105904762D01*
X140285714Y-105904762D01*
X140476190Y-106000000D01*
X140571429Y-106095238D01*
X140666667Y-106285714D01*
X140666667Y-106571429D01*
X140571429Y-106761905D01*
X140476190Y-106857143D01*
X140285714Y-106952381D01*
X139523809Y-106952381D01*
X142571429Y-107904762D02*
X141428571Y-107904762D01*
X142000000Y-107904762D02*
X142000000Y-105904762D01*
X141809524Y-106190476D01*
X141619048Y-106380952D01*
X141428571Y-106476190D01*
X139714286Y-114904762D02*
X138571428Y-114904762D01*
X139142857Y-114904762D02*
X139142857Y-112904762D01*
X138952381Y-113190476D01*
X138761905Y-113380952D01*
X138571428Y-113476190D01*
X141238095Y-113857143D02*
X140571428Y-113857143D01*
X140571428Y-114904762D02*
X140571428Y-112904762D01*
X141523809Y-112904762D01*
X162462857Y-96269333D02*
X162511238Y-96317714D01*
X162559619Y-96462857D01*
X162559619Y-96559619D01*
X162511238Y-96704761D01*
X162414476Y-96801523D01*
X162317714Y-96849904D01*
X162124190Y-96898285D01*
X161979048Y-96898285D01*
X161785524Y-96849904D01*
X161688762Y-96801523D01*
X161592000Y-96704761D01*
X161543619Y-96559619D01*
X161543619Y-96462857D01*
X161592000Y-96317714D01*
X161640381Y-96269333D01*
X161543619Y-95350095D02*
X161543619Y-95833904D01*
X162027429Y-95882285D01*
X161979048Y-95833904D01*
X161930667Y-95737142D01*
X161930667Y-95495238D01*
X161979048Y-95398476D01*
X162027429Y-95350095D01*
X162124190Y-95301714D01*
X162366095Y-95301714D01*
X162462857Y-95350095D01*
X162511238Y-95398476D01*
X162559619Y-95495238D01*
X162559619Y-95737142D01*
X162511238Y-95833904D01*
X162462857Y-95882285D01*
D19*
X161507143Y-92078572D02*
X161507143Y-91992857D01*
X161550000Y-91907143D01*
X161592857Y-91864286D01*
X161678571Y-91821429D01*
X161850000Y-91778572D01*
X162064286Y-91778572D01*
X162235714Y-91821429D01*
X162321429Y-91864286D01*
X162364286Y-91907143D01*
X162407143Y-91992857D01*
X162407143Y-92078572D01*
X162364286Y-92164286D01*
X162321429Y-92207143D01*
X162235714Y-92250000D01*
X162064286Y-92292857D01*
X161850000Y-92292857D01*
X161678571Y-92250000D01*
X161592857Y-92207143D01*
X161550000Y-92164286D01*
X161507143Y-92078572D01*
X162321429Y-91392857D02*
X162364286Y-91350000D01*
X162407143Y-91392857D01*
X162364286Y-91435714D01*
X162321429Y-91392857D01*
X162407143Y-91392857D01*
X162407143Y-90492858D02*
X162407143Y-91007143D01*
X162407143Y-90750001D02*
X161507143Y-90750001D01*
X161635714Y-90835715D01*
X161721429Y-90921429D01*
X161764286Y-91007143D01*
X161807143Y-89721429D02*
X162407143Y-89721429D01*
X161807143Y-90107143D02*
X162278571Y-90107143D01*
X162364286Y-90064286D01*
X162407143Y-89978572D01*
X162407143Y-89850000D01*
X162364286Y-89764286D01*
X162321429Y-89721429D01*
X161935714Y-88992857D02*
X161935714Y-89292857D01*
X162407143Y-89292857D02*
X161507143Y-89292857D01*
X161507143Y-88864286D01*
D11*
X169861905Y-136497619D02*
X169861905Y-137388095D01*
X169914286Y-137492857D01*
X169966667Y-137545238D01*
X170071429Y-137597619D01*
X170280952Y-137597619D01*
X170385714Y-137545238D01*
X170438095Y-137492857D01*
X170490476Y-137388095D01*
X170490476Y-136497619D01*
X171485714Y-136864286D02*
X171485714Y-137597619D01*
X171223810Y-136445238D02*
X170961905Y-137230952D01*
X171642857Y-137230952D01*
D16*
X159776191Y-135778571D02*
X159776191Y-134278571D01*
X159776191Y-134992857D02*
X160404762Y-134992857D01*
X160404762Y-135778571D02*
X160404762Y-134278571D01*
X160771429Y-134278571D02*
X161400000Y-134278571D01*
X161085715Y-135778571D02*
X161085715Y-134278571D01*
X161923810Y-134921429D02*
X161819048Y-134850000D01*
X161766667Y-134778571D01*
X161714286Y-134635714D01*
X161714286Y-134564286D01*
X161766667Y-134421429D01*
X161819048Y-134350000D01*
X161923810Y-134278571D01*
X162133333Y-134278571D01*
X162238095Y-134350000D01*
X162290476Y-134421429D01*
X162342857Y-134564286D01*
X162342857Y-134635714D01*
X162290476Y-134778571D01*
X162238095Y-134850000D01*
X162133333Y-134921429D01*
X161923810Y-134921429D01*
X161819048Y-134992857D01*
X161766667Y-135064286D01*
X161714286Y-135207143D01*
X161714286Y-135492857D01*
X161766667Y-135635714D01*
X161819048Y-135707143D01*
X161923810Y-135778571D01*
X162133333Y-135778571D01*
X162238095Y-135707143D01*
X162290476Y-135635714D01*
X162342857Y-135492857D01*
X162342857Y-135207143D01*
X162290476Y-135064286D01*
X162238095Y-134992857D01*
X162133333Y-134921429D01*
X162761905Y-134421429D02*
X162814286Y-134350000D01*
X162919048Y-134278571D01*
X163180952Y-134278571D01*
X163285714Y-134350000D01*
X163338095Y-134421429D01*
X163390476Y-134564286D01*
X163390476Y-134707143D01*
X163338095Y-134921429D01*
X162709524Y-135778571D01*
X163390476Y-135778571D01*
X163704762Y-134278571D02*
X164071429Y-135778571D01*
X164438095Y-134278571D01*
X164700000Y-134278571D02*
X165433333Y-134278571D01*
X164961905Y-135778571D01*
X165747619Y-134278571D02*
X166428571Y-134278571D01*
X166061905Y-134850000D01*
X166219047Y-134850000D01*
X166323809Y-134921429D01*
X166376190Y-134992857D01*
X166428571Y-135135714D01*
X166428571Y-135492857D01*
X166376190Y-135635714D01*
X166323809Y-135707143D01*
X166219047Y-135778571D01*
X165904762Y-135778571D01*
X165800000Y-135707143D01*
X165747619Y-135635714D01*
X166952381Y-135778571D02*
X167161905Y-135778571D01*
X167266666Y-135707143D01*
X167319047Y-135635714D01*
X167423809Y-135421429D01*
X167476190Y-135135714D01*
X167476190Y-134564286D01*
X167423809Y-134421429D01*
X167371428Y-134350000D01*
X167266666Y-134278571D01*
X167057143Y-134278571D01*
X166952381Y-134350000D01*
X166900000Y-134421429D01*
X166847619Y-134564286D01*
X166847619Y-134921429D01*
X166900000Y-135064286D01*
X166952381Y-135135714D01*
X167057143Y-135207143D01*
X167266666Y-135207143D01*
X167371428Y-135135714D01*
X167423809Y-135064286D01*
X167476190Y-134921429D01*
D11*
X127740476Y-86092857D02*
X127688095Y-86145238D01*
X127530952Y-86197619D01*
X127426190Y-86197619D01*
X127269048Y-86145238D01*
X127164286Y-86040476D01*
X127111905Y-85935714D01*
X127059524Y-85726190D01*
X127059524Y-85569048D01*
X127111905Y-85359524D01*
X127164286Y-85254762D01*
X127269048Y-85150000D01*
X127426190Y-85097619D01*
X127530952Y-85097619D01*
X127688095Y-85150000D01*
X127740476Y-85202381D01*
X128211905Y-86197619D02*
X128211905Y-85097619D01*
X128840476Y-86197619D01*
X128840476Y-85097619D01*
X129259524Y-85097619D02*
X129940476Y-85097619D01*
X129573810Y-85516667D01*
X129730952Y-85516667D01*
X129835714Y-85569048D01*
X129888095Y-85621429D01*
X129940476Y-85726190D01*
X129940476Y-85988095D01*
X129888095Y-86092857D01*
X129835714Y-86145238D01*
X129730952Y-86197619D01*
X129416667Y-86197619D01*
X129311905Y-86145238D01*
X129259524Y-86092857D01*
X148840476Y-86092857D02*
X148788095Y-86145238D01*
X148630952Y-86197619D01*
X148526190Y-86197619D01*
X148369048Y-86145238D01*
X148264286Y-86040476D01*
X148211905Y-85935714D01*
X148159524Y-85726190D01*
X148159524Y-85569048D01*
X148211905Y-85359524D01*
X148264286Y-85254762D01*
X148369048Y-85150000D01*
X148526190Y-85097619D01*
X148630952Y-85097619D01*
X148788095Y-85150000D01*
X148840476Y-85202381D01*
X149311905Y-86197619D02*
X149311905Y-85097619D01*
X149940476Y-86197619D01*
X149940476Y-85097619D01*
X150411905Y-85202381D02*
X150464286Y-85150000D01*
X150569048Y-85097619D01*
X150830952Y-85097619D01*
X150935714Y-85150000D01*
X150988095Y-85202381D01*
X151040476Y-85307143D01*
X151040476Y-85411905D01*
X150988095Y-85569048D01*
X150359524Y-86197619D01*
X151040476Y-86197619D01*
D20*
X124430667Y-96962857D02*
X124382286Y-97011238D01*
X124237143Y-97059619D01*
X124140381Y-97059619D01*
X123995239Y-97011238D01*
X123898477Y-96914476D01*
X123850096Y-96817714D01*
X123801715Y-96624190D01*
X123801715Y-96479048D01*
X123850096Y-96285524D01*
X123898477Y-96188762D01*
X123995239Y-96092000D01*
X124140381Y-96043619D01*
X124237143Y-96043619D01*
X124382286Y-96092000D01*
X124430667Y-96140381D01*
X124769334Y-96043619D02*
X125398286Y-96043619D01*
X125059620Y-96430667D01*
X125204762Y-96430667D01*
X125301524Y-96479048D01*
X125349905Y-96527429D01*
X125398286Y-96624190D01*
X125398286Y-96866095D01*
X125349905Y-96962857D01*
X125301524Y-97011238D01*
X125204762Y-97059619D01*
X124914477Y-97059619D01*
X124817715Y-97011238D01*
X124769334Y-96962857D01*
D19*
X118321428Y-96107143D02*
X118407143Y-96107143D01*
X118492857Y-96150000D01*
X118535714Y-96192857D01*
X118578571Y-96278571D01*
X118621428Y-96450000D01*
X118621428Y-96664286D01*
X118578571Y-96835714D01*
X118535714Y-96921429D01*
X118492857Y-96964286D01*
X118407143Y-97007143D01*
X118321428Y-97007143D01*
X118235714Y-96964286D01*
X118192857Y-96921429D01*
X118150000Y-96835714D01*
X118107143Y-96664286D01*
X118107143Y-96450000D01*
X118150000Y-96278571D01*
X118192857Y-96192857D01*
X118235714Y-96150000D01*
X118321428Y-96107143D01*
X119007143Y-96921429D02*
X119050000Y-96964286D01*
X119007143Y-97007143D01*
X118964286Y-96964286D01*
X119007143Y-96921429D01*
X119007143Y-97007143D01*
X119907142Y-97007143D02*
X119392857Y-97007143D01*
X119649999Y-97007143D02*
X119649999Y-96107143D01*
X119564285Y-96235714D01*
X119478571Y-96321429D01*
X119392857Y-96364286D01*
X120678571Y-96407143D02*
X120678571Y-97007143D01*
X120292857Y-96407143D02*
X120292857Y-96878571D01*
X120335714Y-96964286D01*
X120421428Y-97007143D01*
X120550000Y-97007143D01*
X120635714Y-96964286D01*
X120678571Y-96921429D01*
X121407143Y-96535714D02*
X121107143Y-96535714D01*
X121107143Y-97007143D02*
X121107143Y-96107143D01*
X121535714Y-96107143D01*
X157407143Y-101378572D02*
X156978571Y-101678572D01*
X157407143Y-101892857D02*
X156507143Y-101892857D01*
X156507143Y-101550000D01*
X156550000Y-101464286D01*
X156592857Y-101421429D01*
X156678571Y-101378572D01*
X156807143Y-101378572D01*
X156892857Y-101421429D01*
X156935714Y-101464286D01*
X156978571Y-101550000D01*
X156978571Y-101892857D01*
X157407143Y-100521429D02*
X157407143Y-101035714D01*
X157407143Y-100778572D02*
X156507143Y-100778572D01*
X156635714Y-100864286D01*
X156721429Y-100950000D01*
X156764286Y-101035714D01*
X156592857Y-100178571D02*
X156550000Y-100135714D01*
X156507143Y-100050000D01*
X156507143Y-99835714D01*
X156550000Y-99750000D01*
X156592857Y-99707143D01*
X156678571Y-99664286D01*
X156764286Y-99664286D01*
X156892857Y-99707143D01*
X157407143Y-100221429D01*
X157407143Y-99664286D01*
D11*
X157452381Y-94190476D02*
X157452381Y-94761905D01*
X157452381Y-94476191D02*
X156452381Y-94476191D01*
X156595238Y-94571429D01*
X156690476Y-94666667D01*
X156738095Y-94761905D01*
X156452381Y-93571429D02*
X156452381Y-93476190D01*
X156500000Y-93380952D01*
X156547619Y-93333333D01*
X156642857Y-93285714D01*
X156833333Y-93238095D01*
X157071429Y-93238095D01*
X157261905Y-93285714D01*
X157357143Y-93333333D01*
X157404762Y-93380952D01*
X157452381Y-93476190D01*
X157452381Y-93571429D01*
X157404762Y-93666667D01*
X157357143Y-93714286D01*
X157261905Y-93761905D01*
X157071429Y-93809524D01*
X156833333Y-93809524D01*
X156642857Y-93761905D01*
X156547619Y-93714286D01*
X156500000Y-93666667D01*
X156452381Y-93571429D01*
X157452381Y-92809524D02*
X156452381Y-92809524D01*
X157452381Y-92238095D02*
X156880952Y-92666667D01*
X156452381Y-92238095D02*
X157023810Y-92809524D01*
D20*
X110162857Y-112169333D02*
X110211238Y-112217714D01*
X110259619Y-112362857D01*
X110259619Y-112459619D01*
X110211238Y-112604761D01*
X110114476Y-112701523D01*
X110017714Y-112749904D01*
X109824190Y-112798285D01*
X109679048Y-112798285D01*
X109485524Y-112749904D01*
X109388762Y-112701523D01*
X109292000Y-112604761D01*
X109243619Y-112459619D01*
X109243619Y-112362857D01*
X109292000Y-112217714D01*
X109340381Y-112169333D01*
X109340381Y-111782285D02*
X109292000Y-111733904D01*
X109243619Y-111637142D01*
X109243619Y-111395238D01*
X109292000Y-111298476D01*
X109340381Y-111250095D01*
X109437143Y-111201714D01*
X109533905Y-111201714D01*
X109679048Y-111250095D01*
X110259619Y-111830666D01*
X110259619Y-111201714D01*
D19*
X108607143Y-118271429D02*
X108607143Y-117714286D01*
X108950000Y-118014286D01*
X108950000Y-117885714D01*
X108992857Y-117800000D01*
X109035714Y-117757143D01*
X109121429Y-117714286D01*
X109335714Y-117714286D01*
X109421429Y-117757143D01*
X109464286Y-117800000D01*
X109507143Y-117885714D01*
X109507143Y-118142857D01*
X109464286Y-118228571D01*
X109421429Y-118271429D01*
X108607143Y-117414286D02*
X108607143Y-116857143D01*
X108950000Y-117157143D01*
X108950000Y-117028571D01*
X108992857Y-116942857D01*
X109035714Y-116900000D01*
X109121429Y-116857143D01*
X109335714Y-116857143D01*
X109421429Y-116900000D01*
X109464286Y-116942857D01*
X109507143Y-117028571D01*
X109507143Y-117285714D01*
X109464286Y-117371428D01*
X109421429Y-117414286D01*
X108907143Y-116471428D02*
X109807143Y-116471428D01*
X108950000Y-116471428D02*
X108907143Y-116385714D01*
X108907143Y-116214285D01*
X108950000Y-116128571D01*
X108992857Y-116085714D01*
X109078571Y-116042857D01*
X109335714Y-116042857D01*
X109421429Y-116085714D01*
X109464286Y-116128571D01*
X109507143Y-116214285D01*
X109507143Y-116385714D01*
X109464286Y-116471428D01*
X109035714Y-115357142D02*
X109035714Y-115657142D01*
X109507143Y-115657142D02*
X108607143Y-115657142D01*
X108607143Y-115228571D01*
D20*
X118230667Y-139562857D02*
X118182286Y-139611238D01*
X118037143Y-139659619D01*
X117940381Y-139659619D01*
X117795239Y-139611238D01*
X117698477Y-139514476D01*
X117650096Y-139417714D01*
X117601715Y-139224190D01*
X117601715Y-139079048D01*
X117650096Y-138885524D01*
X117698477Y-138788762D01*
X117795239Y-138692000D01*
X117940381Y-138643619D01*
X118037143Y-138643619D01*
X118182286Y-138692000D01*
X118230667Y-138740381D01*
X119101524Y-138982286D02*
X119101524Y-139659619D01*
X118859620Y-138595238D02*
X118617715Y-139320952D01*
X119246667Y-139320952D01*
D19*
X117521428Y-136507143D02*
X117607143Y-136507143D01*
X117692857Y-136550000D01*
X117735714Y-136592857D01*
X117778571Y-136678571D01*
X117821428Y-136850000D01*
X117821428Y-137064286D01*
X117778571Y-137235714D01*
X117735714Y-137321429D01*
X117692857Y-137364286D01*
X117607143Y-137407143D01*
X117521428Y-137407143D01*
X117435714Y-137364286D01*
X117392857Y-137321429D01*
X117350000Y-137235714D01*
X117307143Y-137064286D01*
X117307143Y-136850000D01*
X117350000Y-136678571D01*
X117392857Y-136592857D01*
X117435714Y-136550000D01*
X117521428Y-136507143D01*
X118207143Y-137321429D02*
X118250000Y-137364286D01*
X118207143Y-137407143D01*
X118164286Y-137364286D01*
X118207143Y-137321429D01*
X118207143Y-137407143D01*
X119107142Y-137407143D02*
X118592857Y-137407143D01*
X118849999Y-137407143D02*
X118849999Y-136507143D01*
X118764285Y-136635714D01*
X118678571Y-136721429D01*
X118592857Y-136764286D01*
X119878571Y-136807143D02*
X119878571Y-137407143D01*
X119492857Y-136807143D02*
X119492857Y-137278571D01*
X119535714Y-137364286D01*
X119621428Y-137407143D01*
X119750000Y-137407143D01*
X119835714Y-137364286D01*
X119878571Y-137321429D01*
X120607143Y-136935714D02*
X120307143Y-136935714D01*
X120307143Y-137407143D02*
X120307143Y-136507143D01*
X120735714Y-136507143D01*
D20*
X136230667Y-97862857D02*
X136182286Y-97911238D01*
X136037143Y-97959619D01*
X135940381Y-97959619D01*
X135795239Y-97911238D01*
X135698477Y-97814476D01*
X135650096Y-97717714D01*
X135601715Y-97524190D01*
X135601715Y-97379048D01*
X135650096Y-97185524D01*
X135698477Y-97088762D01*
X135795239Y-96992000D01*
X135940381Y-96943619D01*
X136037143Y-96943619D01*
X136182286Y-96992000D01*
X136230667Y-97040381D01*
X137101524Y-96943619D02*
X136908001Y-96943619D01*
X136811239Y-96992000D01*
X136762858Y-97040381D01*
X136666096Y-97185524D01*
X136617715Y-97379048D01*
X136617715Y-97766095D01*
X136666096Y-97862857D01*
X136714477Y-97911238D01*
X136811239Y-97959619D01*
X137004762Y-97959619D01*
X137101524Y-97911238D01*
X137149905Y-97862857D01*
X137198286Y-97766095D01*
X137198286Y-97524190D01*
X137149905Y-97427429D01*
X137101524Y-97379048D01*
X137004762Y-97330667D01*
X136811239Y-97330667D01*
X136714477Y-97379048D01*
X136666096Y-97427429D01*
X136617715Y-97524190D01*
D13*
X140728572Y-97952381D02*
X140157143Y-97952381D01*
X140442857Y-97952381D02*
X140442857Y-96952381D01*
X140347619Y-97095238D01*
X140252381Y-97190476D01*
X140157143Y-97238095D01*
X141347619Y-96952381D02*
X141442858Y-96952381D01*
X141538096Y-97000000D01*
X141585715Y-97047619D01*
X141633334Y-97142857D01*
X141680953Y-97333333D01*
X141680953Y-97571429D01*
X141633334Y-97761905D01*
X141585715Y-97857143D01*
X141538096Y-97904762D01*
X141442858Y-97952381D01*
X141347619Y-97952381D01*
X141252381Y-97904762D01*
X141204762Y-97857143D01*
X141157143Y-97761905D01*
X141109524Y-97571429D01*
X141109524Y-97333333D01*
X141157143Y-97142857D01*
X141204762Y-97047619D01*
X141252381Y-97000000D01*
X141347619Y-96952381D01*
X142538096Y-97285714D02*
X142538096Y-97952381D01*
X142109524Y-97285714D02*
X142109524Y-97809524D01*
X142157143Y-97904762D01*
X142252381Y-97952381D01*
X142395239Y-97952381D01*
X142490477Y-97904762D01*
X142538096Y-97857143D01*
X143347620Y-97428571D02*
X143014286Y-97428571D01*
X143014286Y-97952381D02*
X143014286Y-96952381D01*
X143490477Y-96952381D01*
D20*
X128430667Y-116762857D02*
X128382286Y-116811238D01*
X128237143Y-116859619D01*
X128140381Y-116859619D01*
X127995239Y-116811238D01*
X127898477Y-116714476D01*
X127850096Y-116617714D01*
X127801715Y-116424190D01*
X127801715Y-116279048D01*
X127850096Y-116085524D01*
X127898477Y-115988762D01*
X127995239Y-115892000D01*
X128140381Y-115843619D01*
X128237143Y-115843619D01*
X128382286Y-115892000D01*
X128430667Y-115940381D01*
X128769334Y-115843619D02*
X129446667Y-115843619D01*
X129011239Y-116859619D01*
X127611429Y-118959619D02*
X127030858Y-118959619D01*
X127321144Y-118959619D02*
X127321144Y-117943619D01*
X127224382Y-118088762D01*
X127127620Y-118185524D01*
X127030858Y-118233905D01*
X128240382Y-117943619D02*
X128337143Y-117943619D01*
X128433905Y-117992000D01*
X128482286Y-118040381D01*
X128530667Y-118137143D01*
X128579048Y-118330667D01*
X128579048Y-118572571D01*
X128530667Y-118766095D01*
X128482286Y-118862857D01*
X128433905Y-118911238D01*
X128337143Y-118959619D01*
X128240382Y-118959619D01*
X128143620Y-118911238D01*
X128095239Y-118862857D01*
X128046858Y-118766095D01*
X127998477Y-118572571D01*
X127998477Y-118330667D01*
X128046858Y-118137143D01*
X128095239Y-118040381D01*
X128143620Y-117992000D01*
X128240382Y-117943619D01*
X129449905Y-118282286D02*
X129449905Y-118959619D01*
X129014477Y-118282286D02*
X129014477Y-118814476D01*
X129062858Y-118911238D01*
X129159620Y-118959619D01*
X129304762Y-118959619D01*
X129401524Y-118911238D01*
X129449905Y-118862857D01*
X130272381Y-118427429D02*
X129933715Y-118427429D01*
X129933715Y-118959619D02*
X129933715Y-117943619D01*
X130417524Y-117943619D01*
D11*
X140357143Y-125142857D02*
X140404762Y-125190476D01*
X140452381Y-125333333D01*
X140452381Y-125428571D01*
X140404762Y-125571429D01*
X140309524Y-125666667D01*
X140214286Y-125714286D01*
X140023810Y-125761905D01*
X139880952Y-125761905D01*
X139690476Y-125714286D01*
X139595238Y-125666667D01*
X139500000Y-125571429D01*
X139452381Y-125428571D01*
X139452381Y-125333333D01*
X139500000Y-125190476D01*
X139547619Y-125142857D01*
X140452381Y-124190476D02*
X140452381Y-124761905D01*
X140452381Y-124476191D02*
X139452381Y-124476191D01*
X139595238Y-124571429D01*
X139690476Y-124666667D01*
X139738095Y-124761905D01*
X139452381Y-123857143D02*
X139452381Y-123238095D01*
X139833333Y-123571429D01*
X139833333Y-123428571D01*
X139880952Y-123333333D01*
X139928571Y-123285714D01*
X140023810Y-123238095D01*
X140261905Y-123238095D01*
X140357143Y-123285714D01*
X140404762Y-123333333D01*
X140452381Y-123428571D01*
X140452381Y-123714286D01*
X140404762Y-123809524D01*
X140357143Y-123857143D01*
D19*
X140507143Y-130435715D02*
X140507143Y-130950000D01*
X140507143Y-130692858D02*
X139607143Y-130692858D01*
X139735714Y-130778572D01*
X139821429Y-130864286D01*
X139864286Y-130950000D01*
X139907143Y-130050000D02*
X140507143Y-130050000D01*
X139992857Y-130050000D02*
X139950000Y-130007143D01*
X139907143Y-129921429D01*
X139907143Y-129792857D01*
X139950000Y-129707143D01*
X140035714Y-129664286D01*
X140507143Y-129664286D01*
X140035714Y-128935714D02*
X140035714Y-129235714D01*
X140507143Y-129235714D02*
X139607143Y-129235714D01*
X139607143Y-128807143D01*
D13*
X157757143Y-120657143D02*
X157709524Y-120704762D01*
X157566667Y-120752381D01*
X157471429Y-120752381D01*
X157328571Y-120704762D01*
X157233333Y-120609524D01*
X157185714Y-120514286D01*
X157138095Y-120323810D01*
X157138095Y-120180952D01*
X157185714Y-119990476D01*
X157233333Y-119895238D01*
X157328571Y-119800000D01*
X157471429Y-119752381D01*
X157566667Y-119752381D01*
X157709524Y-119800000D01*
X157757143Y-119847619D01*
X158709524Y-120752381D02*
X158138095Y-120752381D01*
X158423809Y-120752381D02*
X158423809Y-119752381D01*
X158328571Y-119895238D01*
X158233333Y-119990476D01*
X158138095Y-120038095D01*
X159661905Y-120752381D02*
X159090476Y-120752381D01*
X159376190Y-120752381D02*
X159376190Y-119752381D01*
X159280952Y-119895238D01*
X159185714Y-119990476D01*
X159090476Y-120038095D01*
D11*
X158952381Y-125495238D02*
X158952381Y-126066667D01*
X158952381Y-125780953D02*
X157952381Y-125780953D01*
X158095238Y-125876191D01*
X158190476Y-125971429D01*
X158238095Y-126066667D01*
X158285714Y-124638095D02*
X158952381Y-124638095D01*
X158285714Y-125066667D02*
X158809524Y-125066667D01*
X158904762Y-125019048D01*
X158952381Y-124923810D01*
X158952381Y-124780952D01*
X158904762Y-124685714D01*
X158857143Y-124638095D01*
X158428571Y-123828571D02*
X158428571Y-124161905D01*
X158952381Y-124161905D02*
X157952381Y-124161905D01*
X157952381Y-123685714D01*
X110188096Y-93097619D02*
X110188096Y-91997619D01*
X110450001Y-91997619D01*
X110607143Y-92050000D01*
X110711905Y-92154762D01*
X110764286Y-92259524D01*
X110816667Y-92469048D01*
X110816667Y-92626190D01*
X110764286Y-92835714D01*
X110711905Y-92940476D01*
X110607143Y-93045238D01*
X110450001Y-93097619D01*
X110188096Y-93097619D01*
X111235715Y-92102381D02*
X111288096Y-92050000D01*
X111392858Y-91997619D01*
X111654762Y-91997619D01*
X111759524Y-92050000D01*
X111811905Y-92102381D01*
X111864286Y-92207143D01*
X111864286Y-92311905D01*
X111811905Y-92469048D01*
X111183334Y-93097619D01*
X111864286Y-93097619D01*
X113692857Y-94297619D02*
X113169048Y-94297619D01*
X113169048Y-93197619D01*
X114059524Y-93721429D02*
X114426190Y-93721429D01*
X114583333Y-94297619D02*
X114059524Y-94297619D01*
X114059524Y-93197619D01*
X114583333Y-93197619D01*
X115054762Y-94297619D02*
X115054762Y-93197619D01*
X115316667Y-93197619D01*
X115473809Y-93250000D01*
X115578571Y-93354762D01*
X115630952Y-93459524D01*
X115683333Y-93669048D01*
X115683333Y-93826190D01*
X115630952Y-94035714D01*
X115578571Y-94140476D01*
X115473809Y-94245238D01*
X115316667Y-94297619D01*
X115054762Y-94297619D01*
X113497619Y-98383333D02*
X112973810Y-98749999D01*
X113497619Y-99011904D02*
X112397619Y-99011904D01*
X112397619Y-98592857D01*
X112450000Y-98488095D01*
X112502381Y-98435714D01*
X112607143Y-98383333D01*
X112764286Y-98383333D01*
X112869048Y-98435714D01*
X112921429Y-98488095D01*
X112973810Y-98592857D01*
X112973810Y-99011904D01*
X113497619Y-97335714D02*
X113497619Y-97964285D01*
X113497619Y-97649999D02*
X112397619Y-97649999D01*
X112554762Y-97754761D01*
X112659524Y-97859523D01*
X112711905Y-97964285D01*
X110547619Y-101238095D02*
X110500000Y-101190476D01*
X110452381Y-101095238D01*
X110452381Y-100857142D01*
X110500000Y-100761904D01*
X110547619Y-100714285D01*
X110642857Y-100666666D01*
X110738095Y-100666666D01*
X110880952Y-100714285D01*
X111452381Y-101285714D01*
X111452381Y-100666666D01*
X110547619Y-100285714D02*
X110500000Y-100238095D01*
X110452381Y-100142857D01*
X110452381Y-99904761D01*
X110500000Y-99809523D01*
X110547619Y-99761904D01*
X110642857Y-99714285D01*
X110738095Y-99714285D01*
X110880952Y-99761904D01*
X111452381Y-100333333D01*
X111452381Y-99714285D01*
X110452381Y-99095238D02*
X110452381Y-98999999D01*
X110500000Y-98904761D01*
X110547619Y-98857142D01*
X110642857Y-98809523D01*
X110833333Y-98761904D01*
X111071429Y-98761904D01*
X111261905Y-98809523D01*
X111357143Y-98857142D01*
X111404762Y-98904761D01*
X111452381Y-98999999D01*
X111452381Y-99095238D01*
X111404762Y-99190476D01*
X111357143Y-99238095D01*
X111261905Y-99285714D01*
X111071429Y-99333333D01*
X110833333Y-99333333D01*
X110642857Y-99285714D01*
X110547619Y-99238095D01*
X110500000Y-99190476D01*
X110452381Y-99095238D01*
X149733334Y-116052381D02*
X149400000Y-115576190D01*
X149161905Y-116052381D02*
X149161905Y-115052381D01*
X149542858Y-115052381D01*
X149638096Y-115100000D01*
X149685715Y-115147619D01*
X149733334Y-115242857D01*
X149733334Y-115385714D01*
X149685715Y-115480952D01*
X149638096Y-115528571D01*
X149542858Y-115576190D01*
X149161905Y-115576190D01*
X150114286Y-115147619D02*
X150161905Y-115100000D01*
X150257143Y-115052381D01*
X150495239Y-115052381D01*
X150590477Y-115100000D01*
X150638096Y-115147619D01*
X150685715Y-115242857D01*
X150685715Y-115338095D01*
X150638096Y-115480952D01*
X150066667Y-116052381D01*
X150685715Y-116052381D01*
X155716667Y-115997619D02*
X155088096Y-115997619D01*
X155402382Y-115997619D02*
X155402382Y-114897619D01*
X155297620Y-115054762D01*
X155192858Y-115159524D01*
X155088096Y-115211905D01*
X156397620Y-114897619D02*
X156502381Y-114897619D01*
X156607143Y-114950000D01*
X156659524Y-115002381D01*
X156711905Y-115107143D01*
X156764286Y-115316667D01*
X156764286Y-115578571D01*
X156711905Y-115788095D01*
X156659524Y-115892857D01*
X156607143Y-115945238D01*
X156502381Y-115997619D01*
X156397620Y-115997619D01*
X156292858Y-115945238D01*
X156240477Y-115892857D01*
X156188096Y-115788095D01*
X156135715Y-115578571D01*
X156135715Y-115316667D01*
X156188096Y-115107143D01*
X156240477Y-115002381D01*
X156292858Y-114950000D01*
X156397620Y-114897619D01*
X157445239Y-114897619D02*
X157550000Y-114897619D01*
X157654762Y-114950000D01*
X157707143Y-115002381D01*
X157759524Y-115107143D01*
X157811905Y-115316667D01*
X157811905Y-115578571D01*
X157759524Y-115788095D01*
X157707143Y-115892857D01*
X157654762Y-115945238D01*
X157550000Y-115997619D01*
X157445239Y-115997619D01*
X157340477Y-115945238D01*
X157288096Y-115892857D01*
X157235715Y-115788095D01*
X157183334Y-115578571D01*
X157183334Y-115316667D01*
X157235715Y-115107143D01*
X157288096Y-115002381D01*
X157340477Y-114950000D01*
X157445239Y-114897619D01*
X158283334Y-115997619D02*
X158283334Y-114897619D01*
X158911905Y-115997619D02*
X158440477Y-115369048D01*
X158911905Y-114897619D02*
X158283334Y-115526190D01*
X158033334Y-111552381D02*
X157700000Y-111076190D01*
X157461905Y-111552381D02*
X157461905Y-110552381D01*
X157842858Y-110552381D01*
X157938096Y-110600000D01*
X157985715Y-110647619D01*
X158033334Y-110742857D01*
X158033334Y-110885714D01*
X157985715Y-110980952D01*
X157938096Y-111028571D01*
X157842858Y-111076190D01*
X157461905Y-111076190D01*
X158366667Y-110552381D02*
X158985715Y-110552381D01*
X158652381Y-110933333D01*
X158795239Y-110933333D01*
X158890477Y-110980952D01*
X158938096Y-111028571D01*
X158985715Y-111123810D01*
X158985715Y-111361905D01*
X158938096Y-111457143D01*
X158890477Y-111504762D01*
X158795239Y-111552381D01*
X158509524Y-111552381D01*
X158414286Y-111504762D01*
X158366667Y-111457143D01*
X155716667Y-113497619D02*
X155088096Y-113497619D01*
X155402382Y-113497619D02*
X155402382Y-112397619D01*
X155297620Y-112554762D01*
X155192858Y-112659524D01*
X155088096Y-112711905D01*
X156397620Y-112397619D02*
X156502381Y-112397619D01*
X156607143Y-112450000D01*
X156659524Y-112502381D01*
X156711905Y-112607143D01*
X156764286Y-112816667D01*
X156764286Y-113078571D01*
X156711905Y-113288095D01*
X156659524Y-113392857D01*
X156607143Y-113445238D01*
X156502381Y-113497619D01*
X156397620Y-113497619D01*
X156292858Y-113445238D01*
X156240477Y-113392857D01*
X156188096Y-113288095D01*
X156135715Y-113078571D01*
X156135715Y-112816667D01*
X156188096Y-112607143D01*
X156240477Y-112502381D01*
X156292858Y-112450000D01*
X156397620Y-112397619D01*
X157445239Y-112397619D02*
X157550000Y-112397619D01*
X157654762Y-112450000D01*
X157707143Y-112502381D01*
X157759524Y-112607143D01*
X157811905Y-112816667D01*
X157811905Y-113078571D01*
X157759524Y-113288095D01*
X157707143Y-113392857D01*
X157654762Y-113445238D01*
X157550000Y-113497619D01*
X157445239Y-113497619D01*
X157340477Y-113445238D01*
X157288096Y-113392857D01*
X157235715Y-113288095D01*
X157183334Y-113078571D01*
X157183334Y-112816667D01*
X157235715Y-112607143D01*
X157288096Y-112502381D01*
X157340477Y-112450000D01*
X157445239Y-112397619D01*
X158283334Y-113497619D02*
X158283334Y-112397619D01*
X158911905Y-113497619D02*
X158440477Y-112869048D01*
X158911905Y-112397619D02*
X158283334Y-113026190D01*
D20*
X128497619Y-112883333D02*
X127973810Y-113249999D01*
X128497619Y-113511904D02*
X127397619Y-113511904D01*
X127397619Y-113092857D01*
X127450000Y-112988095D01*
X127502381Y-112935714D01*
X127607143Y-112883333D01*
X127764286Y-112883333D01*
X127869048Y-112935714D01*
X127921429Y-112988095D01*
X127973810Y-113092857D01*
X127973810Y-113511904D01*
X127764286Y-111940476D02*
X128497619Y-111940476D01*
X127345238Y-112202380D02*
X128130952Y-112464285D01*
X128130952Y-111783333D01*
D11*
X128497619Y-106233333D02*
X128497619Y-106861904D01*
X128497619Y-106547618D02*
X127397619Y-106547618D01*
X127554762Y-106652380D01*
X127659524Y-106757142D01*
X127711905Y-106861904D01*
X127397619Y-105552380D02*
X127397619Y-105447619D01*
X127450000Y-105342857D01*
X127502381Y-105290476D01*
X127607143Y-105238095D01*
X127816667Y-105185714D01*
X128078571Y-105185714D01*
X128288095Y-105238095D01*
X128392857Y-105290476D01*
X128445238Y-105342857D01*
X128497619Y-105447619D01*
X128497619Y-105552380D01*
X128445238Y-105657142D01*
X128392857Y-105709523D01*
X128288095Y-105761904D01*
X128078571Y-105814285D01*
X127816667Y-105814285D01*
X127607143Y-105761904D01*
X127502381Y-105709523D01*
X127450000Y-105657142D01*
X127397619Y-105552380D01*
X127397619Y-104504761D02*
X127397619Y-104400000D01*
X127450000Y-104295238D01*
X127502381Y-104242857D01*
X127607143Y-104190476D01*
X127816667Y-104138095D01*
X128078571Y-104138095D01*
X128288095Y-104190476D01*
X128392857Y-104242857D01*
X128445238Y-104295238D01*
X128497619Y-104400000D01*
X128497619Y-104504761D01*
X128445238Y-104609523D01*
X128392857Y-104661904D01*
X128288095Y-104714285D01*
X128078571Y-104766666D01*
X127816667Y-104766666D01*
X127607143Y-104714285D01*
X127502381Y-104661904D01*
X127450000Y-104609523D01*
X127397619Y-104504761D01*
D20*
X149616667Y-118597619D02*
X149250001Y-118073810D01*
X148988096Y-118597619D02*
X148988096Y-117497619D01*
X149407143Y-117497619D01*
X149511905Y-117550000D01*
X149564286Y-117602381D01*
X149616667Y-117707143D01*
X149616667Y-117864286D01*
X149564286Y-117969048D01*
X149511905Y-118021429D01*
X149407143Y-118073810D01*
X148988096Y-118073810D01*
X150611905Y-117497619D02*
X150088096Y-117497619D01*
X150035715Y-118021429D01*
X150088096Y-117969048D01*
X150192858Y-117916667D01*
X150454762Y-117916667D01*
X150559524Y-117969048D01*
X150611905Y-118021429D01*
X150664286Y-118126190D01*
X150664286Y-118388095D01*
X150611905Y-118492857D01*
X150559524Y-118545238D01*
X150454762Y-118597619D01*
X150192858Y-118597619D01*
X150088096Y-118545238D01*
X150035715Y-118492857D01*
D11*
X156240476Y-118497619D02*
X155611905Y-118497619D01*
X155926191Y-118497619D02*
X155926191Y-117397619D01*
X155821429Y-117554762D01*
X155716667Y-117659524D01*
X155611905Y-117711905D01*
X156921429Y-117397619D02*
X157026190Y-117397619D01*
X157130952Y-117450000D01*
X157183333Y-117502381D01*
X157235714Y-117607143D01*
X157288095Y-117816667D01*
X157288095Y-118078571D01*
X157235714Y-118288095D01*
X157183333Y-118392857D01*
X157130952Y-118445238D01*
X157026190Y-118497619D01*
X156921429Y-118497619D01*
X156816667Y-118445238D01*
X156764286Y-118392857D01*
X156711905Y-118288095D01*
X156659524Y-118078571D01*
X156659524Y-117816667D01*
X156711905Y-117607143D01*
X156764286Y-117502381D01*
X156816667Y-117450000D01*
X156921429Y-117397619D01*
X157759524Y-118497619D02*
X157759524Y-117397619D01*
X158388095Y-118497619D02*
X157916667Y-117869048D01*
X158388095Y-117397619D02*
X157759524Y-118026190D01*
X138752381Y-143066666D02*
X138276190Y-143400000D01*
X138752381Y-143638095D02*
X137752381Y-143638095D01*
X137752381Y-143257142D01*
X137800000Y-143161904D01*
X137847619Y-143114285D01*
X137942857Y-143066666D01*
X138085714Y-143066666D01*
X138180952Y-143114285D01*
X138228571Y-143161904D01*
X138276190Y-143257142D01*
X138276190Y-143638095D01*
X137752381Y-142733333D02*
X137752381Y-142066666D01*
X138752381Y-142495238D01*
X140452381Y-142690476D02*
X140452381Y-143261905D01*
X140452381Y-142976191D02*
X139452381Y-142976191D01*
X139595238Y-143071429D01*
X139690476Y-143166667D01*
X139738095Y-143261905D01*
X139452381Y-142071429D02*
X139452381Y-141976190D01*
X139500000Y-141880952D01*
X139547619Y-141833333D01*
X139642857Y-141785714D01*
X139833333Y-141738095D01*
X140071429Y-141738095D01*
X140261905Y-141785714D01*
X140357143Y-141833333D01*
X140404762Y-141880952D01*
X140452381Y-141976190D01*
X140452381Y-142071429D01*
X140404762Y-142166667D01*
X140357143Y-142214286D01*
X140261905Y-142261905D01*
X140071429Y-142309524D01*
X139833333Y-142309524D01*
X139642857Y-142261905D01*
X139547619Y-142214286D01*
X139500000Y-142166667D01*
X139452381Y-142071429D01*
X140452381Y-141309524D02*
X139452381Y-141309524D01*
X140452381Y-140738095D02*
X139880952Y-141166667D01*
X139452381Y-140738095D02*
X140023810Y-141309524D01*
X124633334Y-135552381D02*
X124300000Y-135076190D01*
X124061905Y-135552381D02*
X124061905Y-134552381D01*
X124442858Y-134552381D01*
X124538096Y-134600000D01*
X124585715Y-134647619D01*
X124633334Y-134742857D01*
X124633334Y-134885714D01*
X124585715Y-134980952D01*
X124538096Y-135028571D01*
X124442858Y-135076190D01*
X124061905Y-135076190D01*
X125204762Y-134980952D02*
X125109524Y-134933333D01*
X125061905Y-134885714D01*
X125014286Y-134790476D01*
X125014286Y-134742857D01*
X125061905Y-134647619D01*
X125109524Y-134600000D01*
X125204762Y-134552381D01*
X125395239Y-134552381D01*
X125490477Y-134600000D01*
X125538096Y-134647619D01*
X125585715Y-134742857D01*
X125585715Y-134790476D01*
X125538096Y-134885714D01*
X125490477Y-134933333D01*
X125395239Y-134980952D01*
X125204762Y-134980952D01*
X125109524Y-135028571D01*
X125061905Y-135076190D01*
X125014286Y-135171429D01*
X125014286Y-135361905D01*
X125061905Y-135457143D01*
X125109524Y-135504762D01*
X125204762Y-135552381D01*
X125395239Y-135552381D01*
X125490477Y-135504762D01*
X125538096Y-135457143D01*
X125585715Y-135361905D01*
X125585715Y-135171429D01*
X125538096Y-135076190D01*
X125490477Y-135028571D01*
X125395239Y-134980952D01*
X131309524Y-135452381D02*
X130738095Y-135452381D01*
X131023809Y-135452381D02*
X131023809Y-134452381D01*
X130928571Y-134595238D01*
X130833333Y-134690476D01*
X130738095Y-134738095D01*
X131928571Y-134452381D02*
X132023810Y-134452381D01*
X132119048Y-134500000D01*
X132166667Y-134547619D01*
X132214286Y-134642857D01*
X132261905Y-134833333D01*
X132261905Y-135071429D01*
X132214286Y-135261905D01*
X132166667Y-135357143D01*
X132119048Y-135404762D01*
X132023810Y-135452381D01*
X131928571Y-135452381D01*
X131833333Y-135404762D01*
X131785714Y-135357143D01*
X131738095Y-135261905D01*
X131690476Y-135071429D01*
X131690476Y-134833333D01*
X131738095Y-134642857D01*
X131785714Y-134547619D01*
X131833333Y-134500000D01*
X131928571Y-134452381D01*
X132690476Y-135452381D02*
X132690476Y-134452381D01*
X133261905Y-135452381D02*
X132833333Y-134880952D01*
X133261905Y-134452381D02*
X132690476Y-135023810D01*
D13*
X107652381Y-127166666D02*
X107176190Y-127500000D01*
X107652381Y-127738095D02*
X106652381Y-127738095D01*
X106652381Y-127357142D01*
X106700000Y-127261904D01*
X106747619Y-127214285D01*
X106842857Y-127166666D01*
X106985714Y-127166666D01*
X107080952Y-127214285D01*
X107128571Y-127261904D01*
X107176190Y-127357142D01*
X107176190Y-127738095D01*
X107652381Y-126690476D02*
X107652381Y-126500000D01*
X107604762Y-126404761D01*
X107557143Y-126357142D01*
X107414286Y-126261904D01*
X107223810Y-126214285D01*
X106842857Y-126214285D01*
X106747619Y-126261904D01*
X106700000Y-126309523D01*
X106652381Y-126404761D01*
X106652381Y-126595238D01*
X106700000Y-126690476D01*
X106747619Y-126738095D01*
X106842857Y-126785714D01*
X107080952Y-126785714D01*
X107176190Y-126738095D01*
X107223810Y-126690476D01*
X107271429Y-126595238D01*
X107271429Y-126404761D01*
X107223810Y-126309523D01*
X107176190Y-126261904D01*
X107080952Y-126214285D01*
D11*
X109452381Y-127690476D02*
X109452381Y-128261905D01*
X109452381Y-127976191D02*
X108452381Y-127976191D01*
X108595238Y-128071429D01*
X108690476Y-128166667D01*
X108738095Y-128261905D01*
X108452381Y-127071429D02*
X108452381Y-126976190D01*
X108500000Y-126880952D01*
X108547619Y-126833333D01*
X108642857Y-126785714D01*
X108833333Y-126738095D01*
X109071429Y-126738095D01*
X109261905Y-126785714D01*
X109357143Y-126833333D01*
X109404762Y-126880952D01*
X109452381Y-126976190D01*
X109452381Y-127071429D01*
X109404762Y-127166667D01*
X109357143Y-127214286D01*
X109261905Y-127261905D01*
X109071429Y-127309524D01*
X108833333Y-127309524D01*
X108642857Y-127261905D01*
X108547619Y-127214286D01*
X108500000Y-127166667D01*
X108452381Y-127071429D01*
X109452381Y-126309524D02*
X108452381Y-126309524D01*
X109452381Y-125738095D02*
X108880952Y-126166667D01*
X108452381Y-125738095D02*
X109023810Y-126309524D01*
D19*
X154821428Y-135507143D02*
X154521428Y-135078571D01*
X154307143Y-135507143D02*
X154307143Y-134607143D01*
X154650000Y-134607143D01*
X154735714Y-134650000D01*
X154778571Y-134692857D01*
X154821428Y-134778571D01*
X154821428Y-134907143D01*
X154778571Y-134992857D01*
X154735714Y-135035714D01*
X154650000Y-135078571D01*
X154307143Y-135078571D01*
X155678571Y-135507143D02*
X155164286Y-135507143D01*
X155421428Y-135507143D02*
X155421428Y-134607143D01*
X155335714Y-134735714D01*
X155250000Y-134821429D01*
X155164286Y-134864286D01*
X156235714Y-134607143D02*
X156321429Y-134607143D01*
X156407143Y-134650000D01*
X156450000Y-134692857D01*
X156492857Y-134778571D01*
X156535714Y-134950000D01*
X156535714Y-135164286D01*
X156492857Y-135335714D01*
X156450000Y-135421429D01*
X156407143Y-135464286D01*
X156321429Y-135507143D01*
X156235714Y-135507143D01*
X156150000Y-135464286D01*
X156107143Y-135421429D01*
X156064286Y-135335714D01*
X156021429Y-135164286D01*
X156021429Y-134950000D01*
X156064286Y-134778571D01*
X156107143Y-134692857D01*
X156150000Y-134650000D01*
X156235714Y-134607143D01*
D11*
X147764286Y-135497619D02*
X147135715Y-135497619D01*
X147450001Y-135497619D02*
X147450001Y-134397619D01*
X147345239Y-134554762D01*
X147240477Y-134659524D01*
X147135715Y-134711905D01*
X148235715Y-135497619D02*
X148235715Y-134397619D01*
X148864286Y-135497619D02*
X148392858Y-134869048D01*
X148864286Y-134397619D02*
X148235715Y-135026190D01*
D19*
X159907143Y-101178572D02*
X159478571Y-101478572D01*
X159907143Y-101692857D02*
X159007143Y-101692857D01*
X159007143Y-101350000D01*
X159050000Y-101264286D01*
X159092857Y-101221429D01*
X159178571Y-101178572D01*
X159307143Y-101178572D01*
X159392857Y-101221429D01*
X159435714Y-101264286D01*
X159478571Y-101350000D01*
X159478571Y-101692857D01*
X159907143Y-100321429D02*
X159907143Y-100835714D01*
X159907143Y-100578572D02*
X159007143Y-100578572D01*
X159135714Y-100664286D01*
X159221429Y-100750000D01*
X159264286Y-100835714D01*
X159907143Y-99464286D02*
X159907143Y-99978571D01*
X159907143Y-99721429D02*
X159007143Y-99721429D01*
X159135714Y-99807143D01*
X159221429Y-99892857D01*
X159264286Y-99978571D01*
D11*
X159952381Y-94190476D02*
X159952381Y-94761905D01*
X159952381Y-94476191D02*
X158952381Y-94476191D01*
X159095238Y-94571429D01*
X159190476Y-94666667D01*
X159238095Y-94761905D01*
X158952381Y-93571429D02*
X158952381Y-93476190D01*
X159000000Y-93380952D01*
X159047619Y-93333333D01*
X159142857Y-93285714D01*
X159333333Y-93238095D01*
X159571429Y-93238095D01*
X159761905Y-93285714D01*
X159857143Y-93333333D01*
X159904762Y-93380952D01*
X159952381Y-93476190D01*
X159952381Y-93571429D01*
X159904762Y-93666667D01*
X159857143Y-93714286D01*
X159761905Y-93761905D01*
X159571429Y-93809524D01*
X159333333Y-93809524D01*
X159142857Y-93761905D01*
X159047619Y-93714286D01*
X159000000Y-93666667D01*
X158952381Y-93571429D01*
X159952381Y-92809524D02*
X158952381Y-92809524D01*
X159952381Y-92238095D02*
X159380952Y-92666667D01*
X158952381Y-92238095D02*
X159523810Y-92809524D01*
D19*
X155007143Y-101378572D02*
X154578571Y-101678572D01*
X155007143Y-101892857D02*
X154107143Y-101892857D01*
X154107143Y-101550000D01*
X154150000Y-101464286D01*
X154192857Y-101421429D01*
X154278571Y-101378572D01*
X154407143Y-101378572D01*
X154492857Y-101421429D01*
X154535714Y-101464286D01*
X154578571Y-101550000D01*
X154578571Y-101892857D01*
X155007143Y-100521429D02*
X155007143Y-101035714D01*
X155007143Y-100778572D02*
X154107143Y-100778572D01*
X154235714Y-100864286D01*
X154321429Y-100950000D01*
X154364286Y-101035714D01*
X154107143Y-100221429D02*
X154107143Y-99664286D01*
X154450000Y-99964286D01*
X154450000Y-99835714D01*
X154492857Y-99750000D01*
X154535714Y-99707143D01*
X154621429Y-99664286D01*
X154835714Y-99664286D01*
X154921429Y-99707143D01*
X154964286Y-99750000D01*
X155007143Y-99835714D01*
X155007143Y-100092857D01*
X154964286Y-100178571D01*
X154921429Y-100221429D01*
D11*
X154952381Y-94190476D02*
X154952381Y-94761905D01*
X154952381Y-94476191D02*
X153952381Y-94476191D01*
X154095238Y-94571429D01*
X154190476Y-94666667D01*
X154238095Y-94761905D01*
X153952381Y-93571429D02*
X153952381Y-93476190D01*
X154000000Y-93380952D01*
X154047619Y-93333333D01*
X154142857Y-93285714D01*
X154333333Y-93238095D01*
X154571429Y-93238095D01*
X154761905Y-93285714D01*
X154857143Y-93333333D01*
X154904762Y-93380952D01*
X154952381Y-93476190D01*
X154952381Y-93571429D01*
X154904762Y-93666667D01*
X154857143Y-93714286D01*
X154761905Y-93761905D01*
X154571429Y-93809524D01*
X154333333Y-93809524D01*
X154142857Y-93761905D01*
X154047619Y-93714286D01*
X154000000Y-93666667D01*
X153952381Y-93571429D01*
X154952381Y-92809524D02*
X153952381Y-92809524D01*
X154952381Y-92238095D02*
X154380952Y-92666667D01*
X153952381Y-92238095D02*
X154523810Y-92809524D01*
D20*
X127657905Y-143283238D02*
X127803048Y-143331619D01*
X128044952Y-143331619D01*
X128141714Y-143283238D01*
X128190095Y-143234857D01*
X128238476Y-143138095D01*
X128238476Y-143041333D01*
X128190095Y-142944571D01*
X128141714Y-142896190D01*
X128044952Y-142847810D01*
X127851429Y-142799429D01*
X127754667Y-142751048D01*
X127706286Y-142702667D01*
X127657905Y-142605905D01*
X127657905Y-142509143D01*
X127706286Y-142412381D01*
X127754667Y-142364000D01*
X127851429Y-142315619D01*
X128093333Y-142315619D01*
X128238476Y-142364000D01*
X128577143Y-142315619D02*
X128819048Y-143331619D01*
X129012571Y-142605905D01*
X129206095Y-143331619D01*
X129448000Y-142315619D01*
X129593143Y-143428381D02*
X130367238Y-143428381D01*
X130609143Y-143331619D02*
X130609143Y-142315619D01*
X130996190Y-142315619D01*
X131092952Y-142364000D01*
X131141333Y-142412381D01*
X131189714Y-142509143D01*
X131189714Y-142654286D01*
X131141333Y-142751048D01*
X131092952Y-142799429D01*
X130996190Y-142847810D01*
X130609143Y-142847810D01*
X131625143Y-142315619D02*
X131625143Y-143138095D01*
X131673524Y-143234857D01*
X131721905Y-143283238D01*
X131818667Y-143331619D01*
X132012190Y-143331619D01*
X132108952Y-143283238D01*
X132157333Y-143234857D01*
X132205714Y-143138095D01*
X132205714Y-142315619D01*
X132641143Y-143283238D02*
X132786286Y-143331619D01*
X133028190Y-143331619D01*
X133124952Y-143283238D01*
X133173333Y-143234857D01*
X133221714Y-143138095D01*
X133221714Y-143041333D01*
X133173333Y-142944571D01*
X133124952Y-142896190D01*
X133028190Y-142847810D01*
X132834667Y-142799429D01*
X132737905Y-142751048D01*
X132689524Y-142702667D01*
X132641143Y-142605905D01*
X132641143Y-142509143D01*
X132689524Y-142412381D01*
X132737905Y-142364000D01*
X132834667Y-142315619D01*
X133076571Y-142315619D01*
X133221714Y-142364000D01*
X133657143Y-143331619D02*
X133657143Y-142315619D01*
X133657143Y-142799429D02*
X134237714Y-142799429D01*
X134237714Y-143331619D02*
X134237714Y-142315619D01*
D11*
X125897619Y-113411904D02*
X124797619Y-113411904D01*
X124797619Y-113149999D01*
X124850000Y-112992857D01*
X124954762Y-112888095D01*
X125059524Y-112835714D01*
X125269048Y-112783333D01*
X125426190Y-112783333D01*
X125635714Y-112835714D01*
X125740476Y-112888095D01*
X125845238Y-112992857D01*
X125897619Y-113149999D01*
X125897619Y-113411904D01*
X125897619Y-111735714D02*
X125897619Y-112364285D01*
X125897619Y-112049999D02*
X124797619Y-112049999D01*
X124954762Y-112154761D01*
X125059524Y-112259523D01*
X125111905Y-112364285D01*
X126052381Y-106466666D02*
X126052381Y-107038095D01*
X126052381Y-106752381D02*
X125052381Y-106752381D01*
X125195238Y-106847619D01*
X125290476Y-106942857D01*
X125338095Y-107038095D01*
X126004762Y-106085714D02*
X126052381Y-105942857D01*
X126052381Y-105704761D01*
X126004762Y-105609523D01*
X125957143Y-105561904D01*
X125861905Y-105514285D01*
X125766667Y-105514285D01*
X125671429Y-105561904D01*
X125623810Y-105609523D01*
X125576190Y-105704761D01*
X125528571Y-105895238D01*
X125480952Y-105990476D01*
X125433333Y-106038095D01*
X125338095Y-106085714D01*
X125242857Y-106085714D01*
X125147619Y-106038095D01*
X125100000Y-105990476D01*
X125052381Y-105895238D01*
X125052381Y-105657142D01*
X125100000Y-105514285D01*
X125052381Y-105180952D02*
X125052381Y-104561904D01*
X125433333Y-104895238D01*
X125433333Y-104752380D01*
X125480952Y-104657142D01*
X125528571Y-104609523D01*
X125623810Y-104561904D01*
X125861905Y-104561904D01*
X125957143Y-104609523D01*
X126004762Y-104657142D01*
X126052381Y-104752380D01*
X126052381Y-105038095D01*
X126004762Y-105133333D01*
X125957143Y-105180952D01*
X155938095Y-102552381D02*
X155938095Y-103361905D01*
X155985714Y-103457143D01*
X156033333Y-103504762D01*
X156128571Y-103552381D01*
X156319048Y-103552381D01*
X156414286Y-103504762D01*
X156461905Y-103457143D01*
X156509524Y-103361905D01*
X156509524Y-102552381D01*
X157509524Y-103552381D02*
X156938095Y-103552381D01*
X157223809Y-103552381D02*
X157223809Y-102552381D01*
X157128571Y-102695238D01*
X157033333Y-102790476D01*
X156938095Y-102838095D01*
D13*
X155000000Y-104661905D02*
X154619047Y-104661905D01*
X154619047Y-103861905D01*
X155266666Y-104661905D02*
X155266666Y-103861905D01*
X155571428Y-103861905D01*
X155647619Y-103900000D01*
X155685714Y-103938095D01*
X155723809Y-104014286D01*
X155723809Y-104128571D01*
X155685714Y-104204762D01*
X155647619Y-104242857D01*
X155571428Y-104280952D01*
X155266666Y-104280952D01*
X156028571Y-103938095D02*
X156066666Y-103900000D01*
X156142857Y-103861905D01*
X156333333Y-103861905D01*
X156409523Y-103900000D01*
X156447619Y-103938095D01*
X156485714Y-104014286D01*
X156485714Y-104090476D01*
X156447619Y-104204762D01*
X155990476Y-104661905D01*
X156485714Y-104661905D01*
X156866666Y-104661905D02*
X157019047Y-104661905D01*
X157095238Y-104623810D01*
X157133333Y-104585714D01*
X157209524Y-104471429D01*
X157247619Y-104319048D01*
X157247619Y-104014286D01*
X157209524Y-103938095D01*
X157171428Y-103900000D01*
X157095238Y-103861905D01*
X156942857Y-103861905D01*
X156866666Y-103900000D01*
X156828571Y-103938095D01*
X156790476Y-104014286D01*
X156790476Y-104204762D01*
X156828571Y-104280952D01*
X156866666Y-104319048D01*
X156942857Y-104357143D01*
X157095238Y-104357143D01*
X157171428Y-104319048D01*
X157209524Y-104280952D01*
X157247619Y-104204762D01*
X157971429Y-103861905D02*
X157590476Y-103861905D01*
X157552381Y-104242857D01*
X157590476Y-104204762D01*
X157666667Y-104166667D01*
X157857143Y-104166667D01*
X157933333Y-104204762D01*
X157971429Y-104242857D01*
X158009524Y-104319048D01*
X158009524Y-104509524D01*
X157971429Y-104585714D01*
X157933333Y-104623810D01*
X157857143Y-104661905D01*
X157666667Y-104661905D01*
X157590476Y-104623810D01*
X157552381Y-104585714D01*
X158504762Y-103861905D02*
X158580953Y-103861905D01*
X158657143Y-103900000D01*
X158695238Y-103938095D01*
X158733334Y-104014286D01*
X158771429Y-104166667D01*
X158771429Y-104357143D01*
X158733334Y-104509524D01*
X158695238Y-104585714D01*
X158657143Y-104623810D01*
X158580953Y-104661905D01*
X158504762Y-104661905D01*
X158428572Y-104623810D01*
X158390476Y-104585714D01*
X158352381Y-104509524D01*
X158314286Y-104357143D01*
X158314286Y-104166667D01*
X158352381Y-104014286D01*
X158390476Y-103938095D01*
X158428572Y-103900000D01*
X158504762Y-103861905D01*
X159495239Y-104661905D02*
X159114286Y-104661905D01*
X159114286Y-103861905D01*
D11*
X167940476Y-86092857D02*
X167888095Y-86145238D01*
X167730952Y-86197619D01*
X167626190Y-86197619D01*
X167469048Y-86145238D01*
X167364286Y-86040476D01*
X167311905Y-85935714D01*
X167259524Y-85726190D01*
X167259524Y-85569048D01*
X167311905Y-85359524D01*
X167364286Y-85254762D01*
X167469048Y-85150000D01*
X167626190Y-85097619D01*
X167730952Y-85097619D01*
X167888095Y-85150000D01*
X167940476Y-85202381D01*
X168411905Y-86197619D02*
X168411905Y-85097619D01*
X169040476Y-86197619D01*
X169040476Y-85097619D01*
X170035714Y-85464286D02*
X170035714Y-86197619D01*
X169773810Y-85045238D02*
X169511905Y-85830952D01*
X170192857Y-85830952D01*
D13*
X113778571Y-130228572D02*
X114207143Y-130228572D01*
X113307143Y-130528572D02*
X113778571Y-130228572D01*
X113307143Y-129928572D01*
X114207143Y-129157143D02*
X114207143Y-129671428D01*
X114207143Y-129414286D02*
X113307143Y-129414286D01*
X113435714Y-129500000D01*
X113521429Y-129585714D01*
X113564286Y-129671428D01*
D10*
X111616667Y-131683334D02*
X111616667Y-131250001D01*
X111883333Y-131483334D01*
X111883333Y-131383334D01*
X111916667Y-131316667D01*
X111950000Y-131283334D01*
X112016667Y-131250001D01*
X112183333Y-131250001D01*
X112250000Y-131283334D01*
X112283333Y-131316667D01*
X112316667Y-131383334D01*
X112316667Y-131583334D01*
X112283333Y-131650001D01*
X112250000Y-131683334D01*
X111683333Y-130983334D02*
X111650000Y-130950000D01*
X111616667Y-130883334D01*
X111616667Y-130716667D01*
X111650000Y-130650000D01*
X111683333Y-130616667D01*
X111750000Y-130583334D01*
X111816667Y-130583334D01*
X111916667Y-130616667D01*
X112316667Y-131016667D01*
X112316667Y-130583334D01*
X112250000Y-130283333D02*
X112283333Y-130250000D01*
X112316667Y-130283333D01*
X112283333Y-130316667D01*
X112250000Y-130283333D01*
X112316667Y-130283333D01*
X111616667Y-130016667D02*
X111616667Y-129550000D01*
X112316667Y-129850000D01*
X111616667Y-128983333D02*
X111616667Y-129116667D01*
X111650000Y-129183333D01*
X111683333Y-129216667D01*
X111783333Y-129283333D01*
X111916667Y-129316667D01*
X112183333Y-129316667D01*
X112250000Y-129283333D01*
X112283333Y-129250000D01*
X112316667Y-129183333D01*
X112316667Y-129050000D01*
X112283333Y-128983333D01*
X112250000Y-128950000D01*
X112183333Y-128916667D01*
X112016667Y-128916667D01*
X111950000Y-128950000D01*
X111916667Y-128983333D01*
X111883333Y-129050000D01*
X111883333Y-129183333D01*
X111916667Y-129250000D01*
X111950000Y-129283333D01*
X112016667Y-129316667D01*
X111916667Y-128516666D02*
X111883333Y-128583333D01*
X111850000Y-128616666D01*
X111783333Y-128650000D01*
X111750000Y-128650000D01*
X111683333Y-128616666D01*
X111650000Y-128583333D01*
X111616667Y-128516666D01*
X111616667Y-128383333D01*
X111650000Y-128316666D01*
X111683333Y-128283333D01*
X111750000Y-128250000D01*
X111783333Y-128250000D01*
X111850000Y-128283333D01*
X111883333Y-128316666D01*
X111916667Y-128383333D01*
X111916667Y-128516666D01*
X111950000Y-128583333D01*
X111983333Y-128616666D01*
X112050000Y-128650000D01*
X112183333Y-128650000D01*
X112250000Y-128616666D01*
X112283333Y-128583333D01*
X112316667Y-128516666D01*
X112316667Y-128383333D01*
X112283333Y-128316666D01*
X112250000Y-128283333D01*
X112183333Y-128250000D01*
X112050000Y-128250000D01*
X111983333Y-128283333D01*
X111950000Y-128316666D01*
X111916667Y-128383333D01*
X112316667Y-127949999D02*
X111616667Y-127949999D01*
X112316667Y-127549999D02*
X111916667Y-127849999D01*
X111616667Y-127549999D02*
X112016667Y-127949999D01*
X112316667Y-127249999D02*
X111616667Y-127249999D01*
X112316667Y-126949999D02*
X111950000Y-126949999D01*
X111883333Y-126983333D01*
X111850000Y-127049999D01*
X111850000Y-127149999D01*
X111883333Y-127216666D01*
X111916667Y-127249999D01*
X111850000Y-126683333D02*
X111850000Y-126316666D01*
X112316667Y-126683333D01*
X112316667Y-126316666D01*
D20*
X110638857Y-138562857D02*
X110590476Y-138611238D01*
X110445333Y-138659619D01*
X110348571Y-138659619D01*
X110203429Y-138611238D01*
X110106667Y-138514476D01*
X110058286Y-138417714D01*
X110009905Y-138224190D01*
X110009905Y-138079048D01*
X110058286Y-137885524D01*
X110106667Y-137788762D01*
X110203429Y-137692000D01*
X110348571Y-137643619D01*
X110445333Y-137643619D01*
X110590476Y-137692000D01*
X110638857Y-137740381D01*
X111074286Y-138659619D02*
X111074286Y-137643619D01*
X111316191Y-137643619D01*
X111461333Y-137692000D01*
X111558095Y-137788762D01*
X111606476Y-137885524D01*
X111654857Y-138079048D01*
X111654857Y-138224190D01*
X111606476Y-138417714D01*
X111558095Y-138514476D01*
X111461333Y-138611238D01*
X111316191Y-138659619D01*
X111074286Y-138659619D01*
X112041905Y-138611238D02*
X112187048Y-138659619D01*
X112428952Y-138659619D01*
X112525714Y-138611238D01*
X112574095Y-138562857D01*
X112622476Y-138466095D01*
X112622476Y-138369333D01*
X112574095Y-138272571D01*
X112525714Y-138224190D01*
X112428952Y-138175810D01*
X112235429Y-138127429D01*
X112138667Y-138079048D01*
X112090286Y-138030667D01*
X112041905Y-137933905D01*
X112041905Y-137837143D01*
X112090286Y-137740381D01*
X112138667Y-137692000D01*
X112235429Y-137643619D01*
X112477333Y-137643619D01*
X112622476Y-137692000D01*
X113590095Y-138659619D02*
X113009524Y-138659619D01*
X113299810Y-138659619D02*
X113299810Y-137643619D01*
X113203048Y-137788762D01*
X113106286Y-137885524D01*
X113009524Y-137933905D01*
D11*
X161392857Y-102183333D02*
X161445238Y-102235714D01*
X161497619Y-102392857D01*
X161497619Y-102497619D01*
X161445238Y-102654761D01*
X161340476Y-102759523D01*
X161235714Y-102811904D01*
X161026190Y-102864285D01*
X160869048Y-102864285D01*
X160659524Y-102811904D01*
X160554762Y-102759523D01*
X160450000Y-102654761D01*
X160397619Y-102497619D01*
X160397619Y-102392857D01*
X160450000Y-102235714D01*
X160502381Y-102183333D01*
X161497619Y-101659523D02*
X161497619Y-101449999D01*
X161445238Y-101345238D01*
X161392857Y-101292857D01*
X161235714Y-101188095D01*
X161026190Y-101135714D01*
X160607143Y-101135714D01*
X160502381Y-101188095D01*
X160450000Y-101240476D01*
X160397619Y-101345238D01*
X160397619Y-101554761D01*
X160450000Y-101659523D01*
X160502381Y-101711904D01*
X160607143Y-101764285D01*
X160869048Y-101764285D01*
X160973810Y-101711904D01*
X161026190Y-101659523D01*
X161078571Y-101554761D01*
X161078571Y-101345238D01*
X161026190Y-101240476D01*
X160973810Y-101188095D01*
X160869048Y-101135714D01*
D19*
X161407143Y-107535715D02*
X161407143Y-108050000D01*
X161407143Y-107792858D02*
X160507143Y-107792858D01*
X160635714Y-107878572D01*
X160721429Y-107964286D01*
X160764286Y-108050000D01*
X160807143Y-106764286D02*
X161407143Y-106764286D01*
X160807143Y-107150000D02*
X161278571Y-107150000D01*
X161364286Y-107107143D01*
X161407143Y-107021429D01*
X161407143Y-106892857D01*
X161364286Y-106807143D01*
X161321429Y-106764286D01*
X160935714Y-106035714D02*
X160935714Y-106335714D01*
X161407143Y-106335714D02*
X160507143Y-106335714D01*
X160507143Y-105907143D01*
D13*
X166157143Y-147957143D02*
X166109524Y-148004762D01*
X165966667Y-148052381D01*
X165871429Y-148052381D01*
X165728571Y-148004762D01*
X165633333Y-147909524D01*
X165585714Y-147814286D01*
X165538095Y-147623810D01*
X165538095Y-147480952D01*
X165585714Y-147290476D01*
X165633333Y-147195238D01*
X165728571Y-147100000D01*
X165871429Y-147052381D01*
X165966667Y-147052381D01*
X166109524Y-147100000D01*
X166157143Y-147147619D01*
X167109524Y-148052381D02*
X166538095Y-148052381D01*
X166823809Y-148052381D02*
X166823809Y-147052381D01*
X166728571Y-147195238D01*
X166633333Y-147290476D01*
X166538095Y-147338095D01*
X167490476Y-147147619D02*
X167538095Y-147100000D01*
X167633333Y-147052381D01*
X167871429Y-147052381D01*
X167966667Y-147100000D01*
X168014286Y-147147619D01*
X168061905Y-147242857D01*
X168061905Y-147338095D01*
X168014286Y-147480952D01*
X167442857Y-148052381D01*
X168061905Y-148052381D01*
X160857143Y-120657143D02*
X160809524Y-120704762D01*
X160666667Y-120752381D01*
X160571429Y-120752381D01*
X160428571Y-120704762D01*
X160333333Y-120609524D01*
X160285714Y-120514286D01*
X160238095Y-120323810D01*
X160238095Y-120180952D01*
X160285714Y-119990476D01*
X160333333Y-119895238D01*
X160428571Y-119800000D01*
X160571429Y-119752381D01*
X160666667Y-119752381D01*
X160809524Y-119800000D01*
X160857143Y-119847619D01*
X161809524Y-120752381D02*
X161238095Y-120752381D01*
X161523809Y-120752381D02*
X161523809Y-119752381D01*
X161428571Y-119895238D01*
X161333333Y-119990476D01*
X161238095Y-120038095D01*
X162428571Y-119752381D02*
X162523810Y-119752381D01*
X162619048Y-119800000D01*
X162666667Y-119847619D01*
X162714286Y-119942857D01*
X162761905Y-120133333D01*
X162761905Y-120371429D01*
X162714286Y-120561905D01*
X162666667Y-120657143D01*
X162619048Y-120704762D01*
X162523810Y-120752381D01*
X162428571Y-120752381D01*
X162333333Y-120704762D01*
X162285714Y-120657143D01*
X162238095Y-120561905D01*
X162190476Y-120371429D01*
X162190476Y-120133333D01*
X162238095Y-119942857D01*
X162285714Y-119847619D01*
X162333333Y-119800000D01*
X162428571Y-119752381D01*
D11*
X161952381Y-125595238D02*
X161952381Y-126166667D01*
X161952381Y-125880953D02*
X160952381Y-125880953D01*
X161095238Y-125976191D01*
X161190476Y-126071429D01*
X161238095Y-126166667D01*
X161285714Y-124738095D02*
X161952381Y-124738095D01*
X161285714Y-125166667D02*
X161809524Y-125166667D01*
X161904762Y-125119048D01*
X161952381Y-125023810D01*
X161952381Y-124880952D01*
X161904762Y-124785714D01*
X161857143Y-124738095D01*
X161428571Y-123928571D02*
X161428571Y-124261905D01*
X161952381Y-124261905D02*
X160952381Y-124261905D01*
X160952381Y-123785714D01*
X153292857Y-102183333D02*
X153345238Y-102235714D01*
X153397619Y-102392857D01*
X153397619Y-102497619D01*
X153345238Y-102654761D01*
X153240476Y-102759523D01*
X153135714Y-102811904D01*
X152926190Y-102864285D01*
X152769048Y-102864285D01*
X152559524Y-102811904D01*
X152454762Y-102759523D01*
X152350000Y-102654761D01*
X152297619Y-102497619D01*
X152297619Y-102392857D01*
X152350000Y-102235714D01*
X152402381Y-102183333D01*
X152769048Y-101554761D02*
X152716667Y-101659523D01*
X152664286Y-101711904D01*
X152559524Y-101764285D01*
X152507143Y-101764285D01*
X152402381Y-101711904D01*
X152350000Y-101659523D01*
X152297619Y-101554761D01*
X152297619Y-101345238D01*
X152350000Y-101240476D01*
X152402381Y-101188095D01*
X152507143Y-101135714D01*
X152559524Y-101135714D01*
X152664286Y-101188095D01*
X152716667Y-101240476D01*
X152769048Y-101345238D01*
X152769048Y-101554761D01*
X152821429Y-101659523D01*
X152873810Y-101711904D01*
X152978571Y-101764285D01*
X153188095Y-101764285D01*
X153292857Y-101711904D01*
X153345238Y-101659523D01*
X153397619Y-101554761D01*
X153397619Y-101345238D01*
X153345238Y-101240476D01*
X153292857Y-101188095D01*
X153188095Y-101135714D01*
X152978571Y-101135714D01*
X152873810Y-101188095D01*
X152821429Y-101240476D01*
X152769048Y-101345238D01*
D19*
X153407143Y-107535715D02*
X153407143Y-108050000D01*
X153407143Y-107792858D02*
X152507143Y-107792858D01*
X152635714Y-107878572D01*
X152721429Y-107964286D01*
X152764286Y-108050000D01*
X152807143Y-106764286D02*
X153407143Y-106764286D01*
X152807143Y-107150000D02*
X153278571Y-107150000D01*
X153364286Y-107107143D01*
X153407143Y-107021429D01*
X153407143Y-106892857D01*
X153364286Y-106807143D01*
X153321429Y-106764286D01*
X152935714Y-106035714D02*
X152935714Y-106335714D01*
X153407143Y-106335714D02*
X152507143Y-106335714D01*
X152507143Y-105907143D01*
M02*
