G04 #@! TF.FileFunction,Legend,Bot*
%FSLAX46Y46*%
G04 Gerber Fmt 4.6, Leading zero omitted, Abs format (unit mm)*
G04 Created by KiCad (PCBNEW 4.0.1-stable) date 2017/06/24 18:28:35*
%MOMM*%
G01*
G04 APERTURE LIST*
%ADD10C,0.100000*%
%ADD11C,0.170000*%
%ADD12C,0.200000*%
%ADD13C,0.180000*%
%ADD14C,0.300000*%
%ADD15C,0.250000*%
%ADD16C,0.150000*%
%ADD17C,0.254000*%
G04 APERTURE END LIST*
D10*
D11*
X168021429Y-148497619D02*
X168021429Y-147397619D01*
X167678572Y-147397619D01*
X167592858Y-147450000D01*
X167550001Y-147502381D01*
X167507144Y-147607143D01*
X167507144Y-147764286D01*
X167550001Y-147869048D01*
X167592858Y-147921429D01*
X167678572Y-147973810D01*
X168021429Y-147973810D01*
X167121429Y-148497619D02*
X167121429Y-147397619D01*
X166178573Y-148392857D02*
X166221430Y-148445238D01*
X166350001Y-148497619D01*
X166435715Y-148497619D01*
X166564287Y-148445238D01*
X166650001Y-148340476D01*
X166692858Y-148235714D01*
X166735715Y-148026190D01*
X166735715Y-147869048D01*
X166692858Y-147659524D01*
X166650001Y-147554762D01*
X166564287Y-147450000D01*
X166435715Y-147397619D01*
X166350001Y-147397619D01*
X166221430Y-147450000D01*
X166178573Y-147502381D01*
X165878573Y-147397619D02*
X165321430Y-147397619D01*
X165621430Y-147816667D01*
X165492858Y-147816667D01*
X165407144Y-147869048D01*
X165364287Y-147921429D01*
X165321430Y-148026190D01*
X165321430Y-148288095D01*
X165364287Y-148392857D01*
X165407144Y-148445238D01*
X165492858Y-148497619D01*
X165750001Y-148497619D01*
X165835715Y-148445238D01*
X165878573Y-148392857D01*
X164978572Y-147502381D02*
X164935715Y-147450000D01*
X164850001Y-147397619D01*
X164635715Y-147397619D01*
X164550001Y-147450000D01*
X164507144Y-147502381D01*
X164464287Y-147607143D01*
X164464287Y-147711905D01*
X164507144Y-147869048D01*
X165021430Y-148497619D01*
X164464287Y-148497619D01*
X164078572Y-148497619D02*
X164078572Y-147397619D01*
X163778572Y-148183333D01*
X163478572Y-147397619D01*
X163478572Y-148497619D01*
X163135716Y-147397619D02*
X162535716Y-148497619D01*
X162535716Y-147397619D02*
X163135716Y-148497619D01*
X161721430Y-148497619D02*
X162235715Y-148497619D01*
X161978573Y-148497619D02*
X161978573Y-147397619D01*
X162064287Y-147554762D01*
X162150001Y-147659524D01*
X162235715Y-147711905D01*
X161421430Y-147397619D02*
X160864287Y-147397619D01*
X161164287Y-147816667D01*
X161035715Y-147816667D01*
X160950001Y-147869048D01*
X160907144Y-147921429D01*
X160864287Y-148026190D01*
X160864287Y-148288095D01*
X160907144Y-148392857D01*
X160950001Y-148445238D01*
X161035715Y-148497619D01*
X161292858Y-148497619D01*
X161378572Y-148445238D01*
X161421430Y-148392857D01*
X160307144Y-147397619D02*
X160221429Y-147397619D01*
X160135715Y-147450000D01*
X160092858Y-147502381D01*
X160050001Y-147607143D01*
X160007144Y-147816667D01*
X160007144Y-148078571D01*
X160050001Y-148288095D01*
X160092858Y-148392857D01*
X160135715Y-148445238D01*
X160221429Y-148497619D01*
X160307144Y-148497619D01*
X160392858Y-148445238D01*
X160435715Y-148392857D01*
X160478572Y-148288095D01*
X160521429Y-148078571D01*
X160521429Y-147816667D01*
X160478572Y-147607143D01*
X160435715Y-147502381D01*
X160392858Y-147450000D01*
X160307144Y-147397619D01*
X159835715Y-148602381D02*
X159150001Y-148602381D01*
X158978572Y-148445238D02*
X158850001Y-148497619D01*
X158635715Y-148497619D01*
X158550001Y-148445238D01*
X158507144Y-148392857D01*
X158464287Y-148288095D01*
X158464287Y-148183333D01*
X158507144Y-148078571D01*
X158550001Y-148026190D01*
X158635715Y-147973810D01*
X158807144Y-147921429D01*
X158892858Y-147869048D01*
X158935715Y-147816667D01*
X158978572Y-147711905D01*
X158978572Y-147607143D01*
X158935715Y-147502381D01*
X158892858Y-147450000D01*
X158807144Y-147397619D01*
X158592858Y-147397619D01*
X158464287Y-147450000D01*
X158078572Y-147764286D02*
X158078572Y-148864286D01*
X158078572Y-147816667D02*
X157992858Y-147764286D01*
X157821429Y-147764286D01*
X157735715Y-147816667D01*
X157692858Y-147869048D01*
X157650001Y-147973810D01*
X157650001Y-148288095D01*
X157692858Y-148392857D01*
X157735715Y-148445238D01*
X157821429Y-148497619D01*
X157992858Y-148497619D01*
X158078572Y-148445238D01*
X156921429Y-148445238D02*
X157007143Y-148497619D01*
X157178572Y-148497619D01*
X157264286Y-148445238D01*
X157307143Y-148340476D01*
X157307143Y-147921429D01*
X157264286Y-147816667D01*
X157178572Y-147764286D01*
X157007143Y-147764286D01*
X156921429Y-147816667D01*
X156878572Y-147921429D01*
X156878572Y-148026190D01*
X157307143Y-148130952D01*
X156107143Y-148497619D02*
X156107143Y-147921429D01*
X156150000Y-147816667D01*
X156235714Y-147764286D01*
X156407143Y-147764286D01*
X156492857Y-147816667D01*
X156107143Y-148445238D02*
X156192857Y-148497619D01*
X156407143Y-148497619D01*
X156492857Y-148445238D01*
X156535714Y-148340476D01*
X156535714Y-148235714D01*
X156492857Y-148130952D01*
X156407143Y-148078571D01*
X156192857Y-148078571D01*
X156107143Y-148026190D01*
X155678571Y-148497619D02*
X155678571Y-147397619D01*
X155592857Y-148078571D02*
X155335714Y-148497619D01*
X155335714Y-147764286D02*
X155678571Y-148183333D01*
X154950000Y-148497619D02*
X154950000Y-147764286D01*
X154950000Y-147397619D02*
X154992857Y-147450000D01*
X154950000Y-147502381D01*
X154907143Y-147450000D01*
X154950000Y-147397619D01*
X154950000Y-147502381D01*
X154521429Y-147764286D02*
X154521429Y-148497619D01*
X154521429Y-147869048D02*
X154478572Y-147816667D01*
X154392858Y-147764286D01*
X154264286Y-147764286D01*
X154178572Y-147816667D01*
X154135715Y-147921429D01*
X154135715Y-148497619D01*
X153321429Y-147764286D02*
X153321429Y-148654762D01*
X153364286Y-148759524D01*
X153407143Y-148811905D01*
X153492858Y-148864286D01*
X153621429Y-148864286D01*
X153707143Y-148811905D01*
X153321429Y-148445238D02*
X153407143Y-148497619D01*
X153578572Y-148497619D01*
X153664286Y-148445238D01*
X153707143Y-148392857D01*
X153750000Y-148288095D01*
X153750000Y-147973810D01*
X153707143Y-147869048D01*
X153664286Y-147816667D01*
X153578572Y-147764286D01*
X153407143Y-147764286D01*
X153321429Y-147816667D01*
X152378572Y-148392857D02*
X152421429Y-148445238D01*
X152550000Y-148497619D01*
X152635714Y-148497619D01*
X152764286Y-148445238D01*
X152850000Y-148340476D01*
X152892857Y-148235714D01*
X152935714Y-148026190D01*
X152935714Y-147869048D01*
X152892857Y-147659524D01*
X152850000Y-147554762D01*
X152764286Y-147450000D01*
X152635714Y-147397619D01*
X152550000Y-147397619D01*
X152421429Y-147450000D01*
X152378572Y-147502381D01*
X151864286Y-148497619D02*
X151950000Y-148445238D01*
X151992857Y-148340476D01*
X151992857Y-147397619D01*
X151392857Y-148497619D02*
X151478571Y-148445238D01*
X151521428Y-148392857D01*
X151564285Y-148288095D01*
X151564285Y-147973810D01*
X151521428Y-147869048D01*
X151478571Y-147816667D01*
X151392857Y-147764286D01*
X151264285Y-147764286D01*
X151178571Y-147816667D01*
X151135714Y-147869048D01*
X151092857Y-147973810D01*
X151092857Y-148288095D01*
X151135714Y-148392857D01*
X151178571Y-148445238D01*
X151264285Y-148497619D01*
X151392857Y-148497619D01*
X150321428Y-148445238D02*
X150407142Y-148497619D01*
X150578571Y-148497619D01*
X150664285Y-148445238D01*
X150707142Y-148392857D01*
X150749999Y-148288095D01*
X150749999Y-147973810D01*
X150707142Y-147869048D01*
X150664285Y-147816667D01*
X150578571Y-147764286D01*
X150407142Y-147764286D01*
X150321428Y-147816667D01*
X149935713Y-148497619D02*
X149935713Y-147397619D01*
X149849999Y-148078571D02*
X149592856Y-148497619D01*
X149592856Y-147764286D02*
X149935713Y-148183333D01*
X149249999Y-147502381D02*
X149207142Y-147450000D01*
X149121428Y-147397619D01*
X148907142Y-147397619D01*
X148821428Y-147450000D01*
X148778571Y-147502381D01*
X148735714Y-147607143D01*
X148735714Y-147711905D01*
X148778571Y-147869048D01*
X149292857Y-148497619D01*
X148735714Y-148497619D01*
X148178571Y-147397619D02*
X148092856Y-147397619D01*
X148007142Y-147450000D01*
X147964285Y-147502381D01*
X147921428Y-147607143D01*
X147878571Y-147816667D01*
X147878571Y-148078571D01*
X147921428Y-148288095D01*
X147964285Y-148392857D01*
X148007142Y-148445238D01*
X148092856Y-148497619D01*
X148178571Y-148497619D01*
X148264285Y-148445238D01*
X148307142Y-148392857D01*
X148349999Y-148288095D01*
X148392856Y-148078571D01*
X148392856Y-147816667D01*
X148349999Y-147607143D01*
X148307142Y-147502381D01*
X148264285Y-147450000D01*
X148178571Y-147397619D01*
X147021428Y-148497619D02*
X147535713Y-148497619D01*
X147278571Y-148497619D02*
X147278571Y-147397619D01*
X147364285Y-147554762D01*
X147449999Y-147659524D01*
X147535713Y-147711905D01*
X146721428Y-147397619D02*
X146121428Y-147397619D01*
X146507142Y-148497619D01*
X145607142Y-147397619D02*
X145521427Y-147397619D01*
X145435713Y-147450000D01*
X145392856Y-147502381D01*
X145349999Y-147607143D01*
X145307142Y-147816667D01*
X145307142Y-148078571D01*
X145349999Y-148288095D01*
X145392856Y-148392857D01*
X145435713Y-148445238D01*
X145521427Y-148497619D01*
X145607142Y-148497619D01*
X145692856Y-148445238D01*
X145735713Y-148392857D01*
X145778570Y-148288095D01*
X145821427Y-148078571D01*
X145821427Y-147816667D01*
X145778570Y-147607143D01*
X145735713Y-147502381D01*
X145692856Y-147450000D01*
X145607142Y-147397619D01*
X145007142Y-147397619D02*
X144449999Y-147397619D01*
X144749999Y-147816667D01*
X144621427Y-147816667D01*
X144535713Y-147869048D01*
X144492856Y-147921429D01*
X144449999Y-148026190D01*
X144449999Y-148288095D01*
X144492856Y-148392857D01*
X144535713Y-148445238D01*
X144621427Y-148497619D01*
X144878570Y-148497619D01*
X144964284Y-148445238D01*
X145007142Y-148392857D01*
X143892856Y-147397619D02*
X143807141Y-147397619D01*
X143721427Y-147450000D01*
X143678570Y-147502381D01*
X143635713Y-147607143D01*
X143592856Y-147816667D01*
X143592856Y-148078571D01*
X143635713Y-148288095D01*
X143678570Y-148392857D01*
X143721427Y-148445238D01*
X143807141Y-148497619D01*
X143892856Y-148497619D01*
X143978570Y-148445238D01*
X144021427Y-148392857D01*
X144064284Y-148288095D01*
X144107141Y-148078571D01*
X144107141Y-147816667D01*
X144064284Y-147607143D01*
X144021427Y-147502381D01*
X143978570Y-147450000D01*
X143892856Y-147397619D01*
X142735713Y-148497619D02*
X143249998Y-148497619D01*
X142992856Y-148497619D02*
X142992856Y-147397619D01*
X143078570Y-147554762D01*
X143164284Y-147659524D01*
X143249998Y-147711905D01*
X135216667Y-81202381D02*
X135216667Y-82302381D01*
X135483333Y-82302381D01*
X135550000Y-82250000D01*
X135583333Y-82197619D01*
X135616667Y-82092857D01*
X135616667Y-81935714D01*
X135583333Y-81830952D01*
X135550000Y-81778571D01*
X135483333Y-81726190D01*
X135216667Y-81726190D01*
X136283333Y-82250000D02*
X136216667Y-82302381D01*
X136116667Y-82302381D01*
X136016667Y-82250000D01*
X135950000Y-82145238D01*
X135916667Y-82040476D01*
X135883333Y-81830952D01*
X135883333Y-81673810D01*
X135916667Y-81464286D01*
X135950000Y-81359524D01*
X136016667Y-81254762D01*
X136116667Y-81202381D01*
X136183333Y-81202381D01*
X136283333Y-81254762D01*
X136316667Y-81307143D01*
X136316667Y-81673810D01*
X136183333Y-81673810D01*
X137016667Y-81307143D02*
X136983333Y-81254762D01*
X136883333Y-81202381D01*
X136816667Y-81202381D01*
X136716667Y-81254762D01*
X136650000Y-81359524D01*
X136616667Y-81464286D01*
X136583333Y-81673810D01*
X136583333Y-81830952D01*
X136616667Y-82040476D01*
X136650000Y-82145238D01*
X136716667Y-82250000D01*
X136816667Y-82302381D01*
X136883333Y-82302381D01*
X136983333Y-82250000D01*
X137016667Y-82197619D01*
X137816667Y-81202381D02*
X137816667Y-82302381D01*
X138083333Y-82302381D01*
X138150000Y-82250000D01*
X138183333Y-82197619D01*
X138216667Y-82092857D01*
X138216667Y-81935714D01*
X138183333Y-81830952D01*
X138150000Y-81778571D01*
X138083333Y-81726190D01*
X137816667Y-81726190D01*
X138883333Y-82250000D02*
X138816667Y-82302381D01*
X138716667Y-82302381D01*
X138616667Y-82250000D01*
X138550000Y-82145238D01*
X138516667Y-82040476D01*
X138483333Y-81830952D01*
X138483333Y-81673810D01*
X138516667Y-81464286D01*
X138550000Y-81359524D01*
X138616667Y-81254762D01*
X138716667Y-81202381D01*
X138783333Y-81202381D01*
X138883333Y-81254762D01*
X138916667Y-81307143D01*
X138916667Y-81673810D01*
X138783333Y-81673810D01*
X139216667Y-81202381D02*
X139216667Y-82302381D01*
X139383333Y-82302381D01*
X139483333Y-82250000D01*
X139550000Y-82145238D01*
X139583333Y-82040476D01*
X139616667Y-81830952D01*
X139616667Y-81673810D01*
X139583333Y-81464286D01*
X139550000Y-81359524D01*
X139483333Y-81254762D01*
X139383333Y-81202381D01*
X139216667Y-81202381D01*
X140666667Y-82250000D02*
X140600001Y-82302381D01*
X140500001Y-82302381D01*
X140400001Y-82250000D01*
X140333334Y-82145238D01*
X140300001Y-82040476D01*
X140266667Y-81830952D01*
X140266667Y-81673810D01*
X140300001Y-81464286D01*
X140333334Y-81359524D01*
X140400001Y-81254762D01*
X140500001Y-81202381D01*
X140566667Y-81202381D01*
X140666667Y-81254762D01*
X140700001Y-81307143D01*
X140700001Y-81673810D01*
X140566667Y-81673810D01*
X141000001Y-81202381D02*
X141000001Y-82302381D01*
X141400001Y-81202381D01*
X141400001Y-82302381D01*
X141733334Y-81202381D02*
X141733334Y-82302381D01*
X141900000Y-82302381D01*
X142000000Y-82250000D01*
X142066667Y-82145238D01*
X142100000Y-82040476D01*
X142133334Y-81830952D01*
X142133334Y-81673810D01*
X142100000Y-81464286D01*
X142066667Y-81359524D01*
X142000000Y-81254762D01*
X141900000Y-81202381D01*
X141733334Y-81202381D01*
X142866667Y-82302381D02*
X143100000Y-81202381D01*
X143333333Y-82302381D01*
X143966667Y-81307143D02*
X143933333Y-81254762D01*
X143833333Y-81202381D01*
X143766667Y-81202381D01*
X143666667Y-81254762D01*
X143600000Y-81359524D01*
X143566667Y-81464286D01*
X143533333Y-81673810D01*
X143533333Y-81830952D01*
X143566667Y-82040476D01*
X143600000Y-82145238D01*
X143666667Y-82250000D01*
X143766667Y-82302381D01*
X143833333Y-82302381D01*
X143933333Y-82250000D01*
X143966667Y-82197619D01*
X144666667Y-81307143D02*
X144633333Y-81254762D01*
X144533333Y-81202381D01*
X144466667Y-81202381D01*
X144366667Y-81254762D01*
X144300000Y-81359524D01*
X144266667Y-81464286D01*
X144233333Y-81673810D01*
X144233333Y-81830952D01*
X144266667Y-82040476D01*
X144300000Y-82145238D01*
X144366667Y-82250000D01*
X144466667Y-82302381D01*
X144533333Y-82302381D01*
X144633333Y-82250000D01*
X144666667Y-82197619D01*
X145366667Y-81102381D02*
X145366667Y-82202381D01*
X145600000Y-81416667D01*
X145833333Y-82202381D01*
X145833333Y-81102381D01*
X146566667Y-81207143D02*
X146533333Y-81154762D01*
X146433333Y-81102381D01*
X146366667Y-81102381D01*
X146266667Y-81154762D01*
X146200000Y-81259524D01*
X146166667Y-81364286D01*
X146133333Y-81573810D01*
X146133333Y-81730952D01*
X146166667Y-81940476D01*
X146200000Y-82045238D01*
X146266667Y-82150000D01*
X146366667Y-82202381D01*
X146433333Y-82202381D01*
X146533333Y-82150000D01*
X146566667Y-82097619D01*
X147266667Y-81102381D02*
X147033333Y-81626190D01*
X146866667Y-81102381D02*
X146866667Y-82202381D01*
X147133333Y-82202381D01*
X147200000Y-82150000D01*
X147233333Y-82097619D01*
X147266667Y-81992857D01*
X147266667Y-81835714D01*
X147233333Y-81730952D01*
X147200000Y-81678571D01*
X147133333Y-81626190D01*
X146866667Y-81626190D01*
X145200000Y-82392000D02*
X147400000Y-82392000D01*
X154916667Y-80702381D02*
X154683333Y-81226190D01*
X154516667Y-80702381D02*
X154516667Y-81802381D01*
X154783333Y-81802381D01*
X154850000Y-81750000D01*
X154883333Y-81697619D01*
X154916667Y-81592857D01*
X154916667Y-81435714D01*
X154883333Y-81330952D01*
X154850000Y-81278571D01*
X154783333Y-81226190D01*
X154516667Y-81226190D01*
X155183333Y-80754762D02*
X155283333Y-80702381D01*
X155450000Y-80702381D01*
X155516667Y-80754762D01*
X155550000Y-80807143D01*
X155583333Y-80911905D01*
X155583333Y-81016667D01*
X155550000Y-81121429D01*
X155516667Y-81173810D01*
X155450000Y-81226190D01*
X155316667Y-81278571D01*
X155250000Y-81330952D01*
X155216667Y-81383333D01*
X155183333Y-81488095D01*
X155183333Y-81592857D01*
X155216667Y-81697619D01*
X155250000Y-81750000D01*
X155316667Y-81802381D01*
X155483333Y-81802381D01*
X155583333Y-81750000D01*
X155783334Y-81802381D02*
X156183334Y-81802381D01*
X155983334Y-80702381D02*
X155983334Y-81802381D01*
X154350000Y-81992000D02*
X156250000Y-81992000D01*
X157466667Y-81950000D02*
X157400001Y-82002381D01*
X157300001Y-82002381D01*
X157200001Y-81950000D01*
X157133334Y-81845238D01*
X157100001Y-81740476D01*
X157066667Y-81530952D01*
X157066667Y-81373810D01*
X157100001Y-81164286D01*
X157133334Y-81059524D01*
X157200001Y-80954762D01*
X157300001Y-80902381D01*
X157366667Y-80902381D01*
X157466667Y-80954762D01*
X157500001Y-81007143D01*
X157500001Y-81373810D01*
X157366667Y-81373810D01*
X157800001Y-80902381D02*
X157800001Y-82002381D01*
X158200001Y-80902381D01*
X158200001Y-82002381D01*
X158533334Y-80902381D02*
X158533334Y-82002381D01*
X158700000Y-82002381D01*
X158800000Y-81950000D01*
X158866667Y-81845238D01*
X158900000Y-81740476D01*
X158933334Y-81530952D01*
X158933334Y-81373810D01*
X158900000Y-81164286D01*
X158866667Y-81059524D01*
X158800000Y-80954762D01*
X158700000Y-80902381D01*
X158533334Y-80902381D01*
X159650000Y-80954762D02*
X159750000Y-80902381D01*
X159916667Y-80902381D01*
X159983334Y-80954762D01*
X160016667Y-81007143D01*
X160050000Y-81111905D01*
X160050000Y-81216667D01*
X160016667Y-81321429D01*
X159983334Y-81373810D01*
X159916667Y-81426190D01*
X159783334Y-81478571D01*
X159716667Y-81530952D01*
X159683334Y-81583333D01*
X159650000Y-81688095D01*
X159650000Y-81792857D01*
X159683334Y-81897619D01*
X159716667Y-81950000D01*
X159783334Y-82002381D01*
X159950000Y-82002381D01*
X160050000Y-81950000D01*
X160350001Y-80902381D02*
X160350001Y-82002381D01*
X160516667Y-82002381D01*
X160616667Y-81950000D01*
X160683334Y-81845238D01*
X160716667Y-81740476D01*
X160750001Y-81530952D01*
X160750001Y-81373810D01*
X160716667Y-81164286D01*
X160683334Y-81059524D01*
X160616667Y-80954762D01*
X160516667Y-80902381D01*
X160350001Y-80902381D01*
X161016667Y-81216667D02*
X161350001Y-81216667D01*
X160950001Y-80902381D02*
X161183334Y-82002381D01*
X161416667Y-80902381D01*
X162166666Y-80954762D02*
X162266666Y-80902381D01*
X162433333Y-80902381D01*
X162500000Y-80954762D01*
X162533333Y-81007143D01*
X162566666Y-81111905D01*
X162566666Y-81216667D01*
X162533333Y-81321429D01*
X162500000Y-81373810D01*
X162433333Y-81426190D01*
X162300000Y-81478571D01*
X162233333Y-81530952D01*
X162200000Y-81583333D01*
X162166666Y-81688095D01*
X162166666Y-81792857D01*
X162200000Y-81897619D01*
X162233333Y-81950000D01*
X162300000Y-82002381D01*
X162466666Y-82002381D01*
X162566666Y-81950000D01*
X163266667Y-81007143D02*
X163233333Y-80954762D01*
X163133333Y-80902381D01*
X163066667Y-80902381D01*
X162966667Y-80954762D01*
X162900000Y-81059524D01*
X162866667Y-81164286D01*
X162833333Y-81373810D01*
X162833333Y-81530952D01*
X162866667Y-81740476D01*
X162900000Y-81845238D01*
X162966667Y-81950000D01*
X163066667Y-82002381D01*
X163133333Y-82002381D01*
X163233333Y-81950000D01*
X163266667Y-81897619D01*
X163900000Y-80902381D02*
X163566667Y-80902381D01*
X163566667Y-82002381D01*
X164666667Y-81902381D02*
X164900000Y-80802381D01*
X165133333Y-81902381D01*
X165366667Y-80802381D02*
X165366667Y-81902381D01*
X165533333Y-81902381D01*
X165633333Y-81850000D01*
X165700000Y-81745238D01*
X165733333Y-81640476D01*
X165766667Y-81430952D01*
X165766667Y-81273810D01*
X165733333Y-81064286D01*
X165700000Y-80959524D01*
X165633333Y-80854762D01*
X165533333Y-80802381D01*
X165366667Y-80802381D01*
X166066667Y-80802381D02*
X166066667Y-81902381D01*
X166233333Y-81902381D01*
X166333333Y-81850000D01*
X166400000Y-81745238D01*
X166433333Y-81640476D01*
X166466667Y-81430952D01*
X166466667Y-81273810D01*
X166433333Y-81064286D01*
X166400000Y-80959524D01*
X166333333Y-80854762D01*
X166233333Y-80802381D01*
X166066667Y-80802381D01*
X112166667Y-82250000D02*
X112100001Y-82302381D01*
X112000001Y-82302381D01*
X111900001Y-82250000D01*
X111833334Y-82145238D01*
X111800001Y-82040476D01*
X111766667Y-81830952D01*
X111766667Y-81673810D01*
X111800001Y-81464286D01*
X111833334Y-81359524D01*
X111900001Y-81254762D01*
X112000001Y-81202381D01*
X112066667Y-81202381D01*
X112166667Y-81254762D01*
X112200001Y-81307143D01*
X112200001Y-81673810D01*
X112066667Y-81673810D01*
X112500001Y-81202381D02*
X112500001Y-82302381D01*
X112900001Y-81202381D01*
X112900001Y-82302381D01*
X113233334Y-81202381D02*
X113233334Y-82302381D01*
X113400000Y-82302381D01*
X113500000Y-82250000D01*
X113566667Y-82145238D01*
X113600000Y-82040476D01*
X113633334Y-81830952D01*
X113633334Y-81673810D01*
X113600000Y-81464286D01*
X113566667Y-81359524D01*
X113500000Y-81254762D01*
X113400000Y-81202381D01*
X113233334Y-81202381D01*
X120083334Y-81202381D02*
X119850000Y-81726190D01*
X119683334Y-81202381D02*
X119683334Y-82302381D01*
X119950000Y-82302381D01*
X120016667Y-82250000D01*
X120050000Y-82197619D01*
X120083334Y-82092857D01*
X120083334Y-81935714D01*
X120050000Y-81830952D01*
X120016667Y-81778571D01*
X119950000Y-81726190D01*
X119683334Y-81726190D01*
X120316667Y-82302381D02*
X120783334Y-81202381D01*
X120783334Y-82302381D02*
X120316667Y-81202381D01*
X122266667Y-82302381D02*
X122666667Y-82302381D01*
X122466667Y-81202381D02*
X122466667Y-82302381D01*
X122833333Y-82302381D02*
X123300000Y-81202381D01*
X123300000Y-82302381D02*
X122833333Y-81202381D01*
D12*
X155828571Y-115178571D02*
X155828571Y-113678571D01*
X155314285Y-115178571D02*
X155314285Y-114392857D01*
X155371428Y-114250000D01*
X155485714Y-114178571D01*
X155657142Y-114178571D01*
X155771428Y-114250000D01*
X155828571Y-114321429D01*
X154914285Y-114178571D02*
X154457142Y-114178571D01*
X154742857Y-113678571D02*
X154742857Y-114964286D01*
X154685714Y-115107143D01*
X154571428Y-115178571D01*
X154457142Y-115178571D01*
X154228571Y-114178571D02*
X153771428Y-114178571D01*
X154057143Y-113678571D02*
X154057143Y-114964286D01*
X154000000Y-115107143D01*
X153885714Y-115178571D01*
X153771428Y-115178571D01*
X153371429Y-114178571D02*
X153371429Y-115678571D01*
X153371429Y-114250000D02*
X153257143Y-114178571D01*
X153028572Y-114178571D01*
X152914286Y-114250000D01*
X152857143Y-114321429D01*
X152800000Y-114464286D01*
X152800000Y-114892857D01*
X152857143Y-115035714D01*
X152914286Y-115107143D01*
X153028572Y-115178571D01*
X153257143Y-115178571D01*
X153371429Y-115107143D01*
X152342858Y-115107143D02*
X152228572Y-115178571D01*
X152000000Y-115178571D01*
X151885715Y-115107143D01*
X151828572Y-114964286D01*
X151828572Y-114892857D01*
X151885715Y-114750000D01*
X152000000Y-114678571D01*
X152171429Y-114678571D01*
X152285715Y-114607143D01*
X152342858Y-114464286D01*
X152342858Y-114392857D01*
X152285715Y-114250000D01*
X152171429Y-114178571D01*
X152000000Y-114178571D01*
X151885715Y-114250000D01*
X151314286Y-115035714D02*
X151257143Y-115107143D01*
X151314286Y-115178571D01*
X151371429Y-115107143D01*
X151314286Y-115035714D01*
X151314286Y-115178571D01*
X151314286Y-114250000D02*
X151257143Y-114321429D01*
X151314286Y-114392857D01*
X151371429Y-114321429D01*
X151314286Y-114250000D01*
X151314286Y-114392857D01*
X149885714Y-113607143D02*
X150914285Y-115535714D01*
X148628571Y-113607143D02*
X149657142Y-115535714D01*
X147714285Y-114178571D02*
X147714285Y-115392857D01*
X147771428Y-115535714D01*
X147828571Y-115607143D01*
X147942856Y-115678571D01*
X148114285Y-115678571D01*
X148228571Y-115607143D01*
X147714285Y-115107143D02*
X147828571Y-115178571D01*
X148057142Y-115178571D01*
X148171428Y-115107143D01*
X148228571Y-115035714D01*
X148285714Y-114892857D01*
X148285714Y-114464286D01*
X148228571Y-114321429D01*
X148171428Y-114250000D01*
X148057142Y-114178571D01*
X147828571Y-114178571D01*
X147714285Y-114250000D01*
X147142857Y-115178571D02*
X147142857Y-114178571D01*
X147142857Y-113678571D02*
X147200000Y-113750000D01*
X147142857Y-113821429D01*
X147085714Y-113750000D01*
X147142857Y-113678571D01*
X147142857Y-113821429D01*
X146742856Y-114178571D02*
X146285713Y-114178571D01*
X146571428Y-113678571D02*
X146571428Y-114964286D01*
X146514285Y-115107143D01*
X146399999Y-115178571D01*
X146285713Y-115178571D01*
X145885714Y-115178571D02*
X145885714Y-113678571D01*
X145371428Y-115178571D02*
X145371428Y-114392857D01*
X145428571Y-114250000D01*
X145542857Y-114178571D01*
X145714285Y-114178571D01*
X145828571Y-114250000D01*
X145885714Y-114321429D01*
X144285714Y-114178571D02*
X144285714Y-115178571D01*
X144800000Y-114178571D02*
X144800000Y-114964286D01*
X144742857Y-115107143D01*
X144628571Y-115178571D01*
X144457143Y-115178571D01*
X144342857Y-115107143D01*
X144285714Y-115035714D01*
X143714286Y-115178571D02*
X143714286Y-113678571D01*
X143714286Y-114250000D02*
X143600000Y-114178571D01*
X143371429Y-114178571D01*
X143257143Y-114250000D01*
X143200000Y-114321429D01*
X143142857Y-114464286D01*
X143142857Y-114892857D01*
X143200000Y-115035714D01*
X143257143Y-115107143D01*
X143371429Y-115178571D01*
X143600000Y-115178571D01*
X143714286Y-115107143D01*
X142628572Y-115035714D02*
X142571429Y-115107143D01*
X142628572Y-115178571D01*
X142685715Y-115107143D01*
X142628572Y-115035714D01*
X142628572Y-115178571D01*
X141542857Y-115107143D02*
X141657143Y-115178571D01*
X141885714Y-115178571D01*
X142000000Y-115107143D01*
X142057143Y-115035714D01*
X142114286Y-114892857D01*
X142114286Y-114464286D01*
X142057143Y-114321429D01*
X142000000Y-114250000D01*
X141885714Y-114178571D01*
X141657143Y-114178571D01*
X141542857Y-114250000D01*
X140857143Y-115178571D02*
X140971429Y-115107143D01*
X141028572Y-115035714D01*
X141085715Y-114892857D01*
X141085715Y-114464286D01*
X141028572Y-114321429D01*
X140971429Y-114250000D01*
X140857143Y-114178571D01*
X140685715Y-114178571D01*
X140571429Y-114250000D01*
X140514286Y-114321429D01*
X140457143Y-114464286D01*
X140457143Y-114892857D01*
X140514286Y-115035714D01*
X140571429Y-115107143D01*
X140685715Y-115178571D01*
X140857143Y-115178571D01*
X139942858Y-115178571D02*
X139942858Y-114178571D01*
X139942858Y-114321429D02*
X139885715Y-114250000D01*
X139771429Y-114178571D01*
X139600001Y-114178571D01*
X139485715Y-114250000D01*
X139428572Y-114392857D01*
X139428572Y-115178571D01*
X139428572Y-114392857D02*
X139371429Y-114250000D01*
X139257143Y-114178571D01*
X139085715Y-114178571D01*
X138971429Y-114250000D01*
X138914286Y-114392857D01*
X138914286Y-115178571D01*
X137485715Y-113607143D02*
X138514286Y-115535714D01*
X136400000Y-115035714D02*
X136457143Y-115107143D01*
X136628572Y-115178571D01*
X136742858Y-115178571D01*
X136914286Y-115107143D01*
X137028572Y-114964286D01*
X137085715Y-114821429D01*
X137142858Y-114535714D01*
X137142858Y-114321429D01*
X137085715Y-114035714D01*
X137028572Y-113892857D01*
X136914286Y-113750000D01*
X136742858Y-113678571D01*
X136628572Y-113678571D01*
X136457143Y-113750000D01*
X136400000Y-113821429D01*
X135714286Y-115178571D02*
X135828572Y-115107143D01*
X135885715Y-114964286D01*
X135885715Y-113678571D01*
X135085715Y-115178571D02*
X135200001Y-115107143D01*
X135257144Y-115035714D01*
X135314287Y-114892857D01*
X135314287Y-114464286D01*
X135257144Y-114321429D01*
X135200001Y-114250000D01*
X135085715Y-114178571D01*
X134914287Y-114178571D01*
X134800001Y-114250000D01*
X134742858Y-114321429D01*
X134685715Y-114464286D01*
X134685715Y-114892857D01*
X134742858Y-115035714D01*
X134800001Y-115107143D01*
X134914287Y-115178571D01*
X135085715Y-115178571D01*
X133657144Y-115107143D02*
X133771430Y-115178571D01*
X134000001Y-115178571D01*
X134114287Y-115107143D01*
X134171430Y-115035714D01*
X134228573Y-114892857D01*
X134228573Y-114464286D01*
X134171430Y-114321429D01*
X134114287Y-114250000D01*
X134000001Y-114178571D01*
X133771430Y-114178571D01*
X133657144Y-114250000D01*
X133142859Y-115178571D02*
X133142859Y-113678571D01*
X133028573Y-114607143D02*
X132685716Y-115178571D01*
X132685716Y-114178571D02*
X133142859Y-114750000D01*
X132285715Y-113678571D02*
X132000001Y-115178571D01*
X131771430Y-114107143D01*
X131542858Y-115178571D01*
X131257144Y-113678571D01*
X130628572Y-115178571D02*
X130742858Y-115107143D01*
X130800001Y-115035714D01*
X130857144Y-114892857D01*
X130857144Y-114464286D01*
X130800001Y-114321429D01*
X130742858Y-114250000D01*
X130628572Y-114178571D01*
X130457144Y-114178571D01*
X130342858Y-114250000D01*
X130285715Y-114321429D01*
X130228572Y-114464286D01*
X130228572Y-114892857D01*
X130285715Y-115035714D01*
X130342858Y-115107143D01*
X130457144Y-115178571D01*
X130628572Y-115178571D01*
X129714287Y-115178571D02*
X129714287Y-114178571D01*
X129714287Y-114464286D02*
X129657144Y-114321429D01*
X129600001Y-114250000D01*
X129485715Y-114178571D01*
X129371430Y-114178571D01*
X128971430Y-115178571D02*
X128971430Y-113678571D01*
X128857144Y-114607143D02*
X128514287Y-115178571D01*
X128514287Y-114178571D02*
X128971430Y-114750000D01*
X128057144Y-115107143D02*
X127942858Y-115178571D01*
X127714286Y-115178571D01*
X127600001Y-115107143D01*
X127542858Y-114964286D01*
X127542858Y-114892857D01*
X127600001Y-114750000D01*
X127714286Y-114678571D01*
X127885715Y-114678571D01*
X128000001Y-114607143D01*
X128057144Y-114464286D01*
X128057144Y-114392857D01*
X128000001Y-114250000D01*
X127885715Y-114178571D01*
X127714286Y-114178571D01*
X127600001Y-114250000D01*
X126800000Y-113678571D02*
X126685715Y-113678571D01*
X126571429Y-113750000D01*
X126514286Y-113821429D01*
X126457143Y-113964286D01*
X126400000Y-114250000D01*
X126400000Y-114607143D01*
X126457143Y-114892857D01*
X126514286Y-115035714D01*
X126571429Y-115107143D01*
X126685715Y-115178571D01*
X126800000Y-115178571D01*
X126914286Y-115107143D01*
X126971429Y-115035714D01*
X127028572Y-114892857D01*
X127085715Y-114607143D01*
X127085715Y-114250000D01*
X127028572Y-113964286D01*
X126971429Y-113821429D01*
X126914286Y-113750000D01*
X126800000Y-113678571D01*
X125657143Y-113678571D02*
X125542858Y-113678571D01*
X125428572Y-113750000D01*
X125371429Y-113821429D01*
X125314286Y-113964286D01*
X125257143Y-114250000D01*
X125257143Y-114607143D01*
X125314286Y-114892857D01*
X125371429Y-115035714D01*
X125428572Y-115107143D01*
X125542858Y-115178571D01*
X125657143Y-115178571D01*
X125771429Y-115107143D01*
X125828572Y-115035714D01*
X125885715Y-114892857D01*
X125942858Y-114607143D01*
X125942858Y-114250000D01*
X125885715Y-113964286D01*
X125828572Y-113821429D01*
X125771429Y-113750000D01*
X125657143Y-113678571D01*
X124114286Y-115178571D02*
X124800001Y-115178571D01*
X124457143Y-115178571D02*
X124457143Y-113678571D01*
X124571429Y-113892857D01*
X124685715Y-114035714D01*
X124800001Y-114107143D01*
X165304988Y-103900000D02*
G75*
G03X165304988Y-103900000I-1004988J0D01*
G01*
X163850000Y-104088095D02*
X163797619Y-103983333D01*
X163797619Y-103826190D01*
X163850000Y-103669048D01*
X163954762Y-103564286D01*
X164059524Y-103511905D01*
X164269048Y-103459524D01*
X164426190Y-103459524D01*
X164635714Y-103511905D01*
X164740476Y-103564286D01*
X164845238Y-103669048D01*
X164897619Y-103826190D01*
X164897619Y-103930952D01*
X164845238Y-104088095D01*
X164792857Y-104140476D01*
X164426190Y-104140476D01*
X164426190Y-103930952D01*
D13*
X112692857Y-85247619D02*
X112178572Y-85247619D01*
X112435714Y-85247619D02*
X112435714Y-86247619D01*
X112350000Y-86104762D01*
X112264286Y-86009524D01*
X112178572Y-85961905D01*
X113550000Y-85247619D02*
X113035715Y-85247619D01*
X113292857Y-85247619D02*
X113292857Y-86247619D01*
X113207143Y-86104762D01*
X113121429Y-86009524D01*
X113035715Y-85961905D01*
X114364286Y-86247619D02*
X113935715Y-86247619D01*
X113892858Y-85771429D01*
X113935715Y-85819048D01*
X114021429Y-85866667D01*
X114235715Y-85866667D01*
X114321429Y-85819048D01*
X114364286Y-85771429D01*
X114407143Y-85676190D01*
X114407143Y-85438095D01*
X114364286Y-85342857D01*
X114321429Y-85295238D01*
X114235715Y-85247619D01*
X114021429Y-85247619D01*
X113935715Y-85295238D01*
X113892858Y-85342857D01*
X114750001Y-86152381D02*
X114792858Y-86200000D01*
X114878572Y-86247619D01*
X115092858Y-86247619D01*
X115178572Y-86200000D01*
X115221429Y-86152381D01*
X115264286Y-86057143D01*
X115264286Y-85961905D01*
X115221429Y-85819048D01*
X114707143Y-85247619D01*
X115264286Y-85247619D01*
X115821429Y-86247619D02*
X115907144Y-86247619D01*
X115992858Y-86200000D01*
X116035715Y-86152381D01*
X116078572Y-86057143D01*
X116121429Y-85866667D01*
X116121429Y-85628571D01*
X116078572Y-85438095D01*
X116035715Y-85342857D01*
X115992858Y-85295238D01*
X115907144Y-85247619D01*
X115821429Y-85247619D01*
X115735715Y-85295238D01*
X115692858Y-85342857D01*
X115650001Y-85438095D01*
X115607144Y-85628571D01*
X115607144Y-85866667D01*
X115650001Y-86057143D01*
X115692858Y-86152381D01*
X115735715Y-86200000D01*
X115821429Y-86247619D01*
X116678572Y-86247619D02*
X116764287Y-86247619D01*
X116850001Y-86200000D01*
X116892858Y-86152381D01*
X116935715Y-86057143D01*
X116978572Y-85866667D01*
X116978572Y-85628571D01*
X116935715Y-85438095D01*
X116892858Y-85342857D01*
X116850001Y-85295238D01*
X116764287Y-85247619D01*
X116678572Y-85247619D01*
X116592858Y-85295238D01*
X116550001Y-85342857D01*
X116507144Y-85438095D01*
X116464287Y-85628571D01*
X116464287Y-85866667D01*
X116507144Y-86057143D01*
X116550001Y-86152381D01*
X116592858Y-86200000D01*
X116678572Y-86247619D01*
X118050001Y-85247619D02*
X118050001Y-86247619D01*
X118050001Y-85866667D02*
X118135715Y-85914286D01*
X118307144Y-85914286D01*
X118392858Y-85866667D01*
X118435715Y-85819048D01*
X118478572Y-85723810D01*
X118478572Y-85438095D01*
X118435715Y-85342857D01*
X118392858Y-85295238D01*
X118307144Y-85247619D01*
X118135715Y-85247619D01*
X118050001Y-85295238D01*
X118864287Y-85914286D02*
X118864287Y-84914286D01*
X118864287Y-85866667D02*
X118950001Y-85914286D01*
X119121430Y-85914286D01*
X119207144Y-85866667D01*
X119250001Y-85819048D01*
X119292858Y-85723810D01*
X119292858Y-85438095D01*
X119250001Y-85342857D01*
X119207144Y-85295238D01*
X119121430Y-85247619D01*
X118950001Y-85247619D01*
X118864287Y-85295238D01*
X119635716Y-85295238D02*
X119721430Y-85247619D01*
X119892858Y-85247619D01*
X119978573Y-85295238D01*
X120021430Y-85390476D01*
X120021430Y-85438095D01*
X119978573Y-85533333D01*
X119892858Y-85580952D01*
X119764287Y-85580952D01*
X119678573Y-85628571D01*
X119635716Y-85723810D01*
X119635716Y-85771429D01*
X119678573Y-85866667D01*
X119764287Y-85914286D01*
X119892858Y-85914286D01*
X119978573Y-85866667D01*
D12*
X164945238Y-119669048D02*
X164997619Y-119826191D01*
X164997619Y-120088095D01*
X164945238Y-120192857D01*
X164892857Y-120245238D01*
X164788095Y-120297619D01*
X164683333Y-120297619D01*
X164578571Y-120245238D01*
X164526190Y-120192857D01*
X164473810Y-120088095D01*
X164421429Y-119878572D01*
X164369048Y-119773810D01*
X164316667Y-119721429D01*
X164211905Y-119669048D01*
X164107143Y-119669048D01*
X164002381Y-119721429D01*
X163950000Y-119773810D01*
X163897619Y-119878572D01*
X163897619Y-120140476D01*
X163950000Y-120297619D01*
X164997619Y-120769048D02*
X163897619Y-120769048D01*
X163897619Y-121188095D01*
X163950000Y-121292857D01*
X164002381Y-121345238D01*
X164107143Y-121397619D01*
X164264286Y-121397619D01*
X164369048Y-121345238D01*
X164421429Y-121292857D01*
X164473810Y-121188095D01*
X164473810Y-120769048D01*
X164421429Y-121869048D02*
X164421429Y-122235714D01*
X164997619Y-122392857D02*
X164997619Y-121869048D01*
X163897619Y-121869048D01*
X163897619Y-122392857D01*
X164683333Y-122811905D02*
X164683333Y-123335714D01*
X164997619Y-122707143D02*
X163897619Y-123073810D01*
X164997619Y-123440476D01*
X164997619Y-123807143D02*
X163897619Y-123807143D01*
X164997619Y-124435714D02*
X164369048Y-123964286D01*
X163897619Y-124435714D02*
X164526190Y-123807143D01*
X164421429Y-124907143D02*
X164421429Y-125273809D01*
X164997619Y-125430952D02*
X164997619Y-124907143D01*
X163897619Y-124907143D01*
X163897619Y-125430952D01*
X164997619Y-126530952D02*
X164473810Y-126164286D01*
X164997619Y-125902381D02*
X163897619Y-125902381D01*
X163897619Y-126321428D01*
X163950000Y-126426190D01*
X164002381Y-126478571D01*
X164107143Y-126530952D01*
X164264286Y-126530952D01*
X164369048Y-126478571D01*
X164421429Y-126426190D01*
X164473810Y-126321428D01*
X164473810Y-125902381D01*
X165200000Y-98800000D02*
G75*
G03X165200000Y-98800000I-1000000J0D01*
G01*
X165200000Y-91000000D02*
G75*
G03X165200000Y-91000000I-1000000J0D01*
G01*
X165200000Y-118400000D02*
G75*
G03X165200000Y-118400000I-1000000J0D01*
G01*
X165200000Y-127900000D02*
G75*
G03X165200000Y-127900000I-1000000J0D01*
G01*
D14*
X164214286Y-90390476D02*
X164214286Y-91609524D01*
X164214286Y-98190476D02*
X164214286Y-99409524D01*
X164823810Y-98800000D02*
X163604762Y-98800000D01*
D12*
X164897619Y-92259524D02*
X163797619Y-92259524D01*
X163797619Y-92678571D01*
X163850000Y-92783333D01*
X163902381Y-92835714D01*
X164007143Y-92888095D01*
X164164286Y-92888095D01*
X164269048Y-92835714D01*
X164321429Y-92783333D01*
X164373810Y-92678571D01*
X164373810Y-92259524D01*
X163797619Y-93569048D02*
X163797619Y-93778571D01*
X163850000Y-93883333D01*
X163954762Y-93988095D01*
X164164286Y-94040476D01*
X164530952Y-94040476D01*
X164740476Y-93988095D01*
X164845238Y-93883333D01*
X164897619Y-93778571D01*
X164897619Y-93569048D01*
X164845238Y-93464286D01*
X164740476Y-93359524D01*
X164530952Y-93307143D01*
X164164286Y-93307143D01*
X163954762Y-93359524D01*
X163850000Y-93464286D01*
X163797619Y-93569048D01*
X163797619Y-94407143D02*
X164897619Y-94669048D01*
X164111905Y-94878571D01*
X164897619Y-95088095D01*
X163797619Y-95350000D01*
X164321429Y-95769048D02*
X164321429Y-96135714D01*
X164897619Y-96292857D02*
X164897619Y-95769048D01*
X163797619Y-95769048D01*
X163797619Y-96292857D01*
X164897619Y-97392857D02*
X164373810Y-97026191D01*
X164897619Y-96764286D02*
X163797619Y-96764286D01*
X163797619Y-97183333D01*
X163850000Y-97288095D01*
X163902381Y-97340476D01*
X164007143Y-97392857D01*
X164164286Y-97392857D01*
X164269048Y-97340476D01*
X164321429Y-97288095D01*
X164373810Y-97183333D01*
X164373810Y-96764286D01*
X135866666Y-97545238D02*
X135709523Y-97597619D01*
X135447619Y-97597619D01*
X135342857Y-97545238D01*
X135290476Y-97492857D01*
X135238095Y-97388095D01*
X135238095Y-97283333D01*
X135290476Y-97178571D01*
X135342857Y-97126190D01*
X135447619Y-97073810D01*
X135657142Y-97021429D01*
X135761904Y-96969048D01*
X135814285Y-96916667D01*
X135866666Y-96811905D01*
X135866666Y-96707143D01*
X135814285Y-96602381D01*
X135761904Y-96550000D01*
X135657142Y-96497619D01*
X135395238Y-96497619D01*
X135238095Y-96550000D01*
X134766666Y-97597619D02*
X134766666Y-96497619D01*
X134504761Y-96497619D01*
X134347619Y-96550000D01*
X134242857Y-96654762D01*
X134190476Y-96759524D01*
X134138095Y-96969048D01*
X134138095Y-97126190D01*
X134190476Y-97335714D01*
X134242857Y-97440476D01*
X134347619Y-97545238D01*
X134504761Y-97597619D01*
X134766666Y-97597619D01*
X133666666Y-97178571D02*
X132828571Y-97178571D01*
X131676190Y-97492857D02*
X131728571Y-97545238D01*
X131885714Y-97597619D01*
X131990476Y-97597619D01*
X132147618Y-97545238D01*
X132252380Y-97440476D01*
X132304761Y-97335714D01*
X132357142Y-97126190D01*
X132357142Y-96969048D01*
X132304761Y-96759524D01*
X132252380Y-96654762D01*
X132147618Y-96550000D01*
X131990476Y-96497619D01*
X131885714Y-96497619D01*
X131728571Y-96550000D01*
X131676190Y-96602381D01*
X131257142Y-97283333D02*
X130733333Y-97283333D01*
X131361904Y-97597619D02*
X130995237Y-96497619D01*
X130628571Y-97597619D01*
X129633333Y-97597619D02*
X129999999Y-97073810D01*
X130261904Y-97597619D02*
X130261904Y-96497619D01*
X129842857Y-96497619D01*
X129738095Y-96550000D01*
X129685714Y-96602381D01*
X129633333Y-96707143D01*
X129633333Y-96864286D01*
X129685714Y-96969048D01*
X129738095Y-97021429D01*
X129842857Y-97073810D01*
X130261904Y-97073810D01*
X129161904Y-97597619D02*
X129161904Y-96497619D01*
X128899999Y-96497619D01*
X128742857Y-96550000D01*
X128638095Y-96654762D01*
X128585714Y-96759524D01*
X128533333Y-96969048D01*
X128533333Y-97126190D01*
X128585714Y-97335714D01*
X128638095Y-97440476D01*
X128742857Y-97545238D01*
X128899999Y-97597619D01*
X129161904Y-97597619D01*
X154742856Y-121723810D02*
X154742856Y-120123810D01*
X154228570Y-121723810D02*
X154228570Y-120885714D01*
X154285713Y-120733333D01*
X154399999Y-120657143D01*
X154571427Y-120657143D01*
X154685713Y-120733333D01*
X154742856Y-120809524D01*
X153828570Y-120657143D02*
X153371427Y-120657143D01*
X153657142Y-120123810D02*
X153657142Y-121495238D01*
X153599999Y-121647619D01*
X153485713Y-121723810D01*
X153371427Y-121723810D01*
X153142856Y-120657143D02*
X152685713Y-120657143D01*
X152971428Y-120123810D02*
X152971428Y-121495238D01*
X152914285Y-121647619D01*
X152799999Y-121723810D01*
X152685713Y-121723810D01*
X152285714Y-120657143D02*
X152285714Y-122257143D01*
X152285714Y-120733333D02*
X152171428Y-120657143D01*
X151942857Y-120657143D01*
X151828571Y-120733333D01*
X151771428Y-120809524D01*
X151714285Y-120961905D01*
X151714285Y-121419048D01*
X151771428Y-121571429D01*
X151828571Y-121647619D01*
X151942857Y-121723810D01*
X152171428Y-121723810D01*
X152285714Y-121647619D01*
X151200000Y-121571429D02*
X151142857Y-121647619D01*
X151200000Y-121723810D01*
X151257143Y-121647619D01*
X151200000Y-121571429D01*
X151200000Y-121723810D01*
X151200000Y-120733333D02*
X151142857Y-120809524D01*
X151200000Y-120885714D01*
X151257143Y-120809524D01*
X151200000Y-120733333D01*
X151200000Y-120885714D01*
X149771428Y-120047619D02*
X150799999Y-122104762D01*
X148514285Y-120047619D02*
X149542856Y-122104762D01*
X147599999Y-121647619D02*
X147714285Y-121723810D01*
X147942856Y-121723810D01*
X148057142Y-121647619D01*
X148114285Y-121571429D01*
X148171428Y-121419048D01*
X148171428Y-120961905D01*
X148114285Y-120809524D01*
X148057142Y-120733333D01*
X147942856Y-120657143D01*
X147714285Y-120657143D01*
X147599999Y-120733333D01*
X146914285Y-121723810D02*
X147028571Y-121647619D01*
X147085714Y-121495238D01*
X147085714Y-120123810D01*
X146285714Y-121723810D02*
X146400000Y-121647619D01*
X146457143Y-121571429D01*
X146514286Y-121419048D01*
X146514286Y-120961905D01*
X146457143Y-120809524D01*
X146400000Y-120733333D01*
X146285714Y-120657143D01*
X146114286Y-120657143D01*
X146000000Y-120733333D01*
X145942857Y-120809524D01*
X145885714Y-120961905D01*
X145885714Y-121419048D01*
X145942857Y-121571429D01*
X146000000Y-121647619D01*
X146114286Y-121723810D01*
X146285714Y-121723810D01*
X144857143Y-121647619D02*
X144971429Y-121723810D01*
X145200000Y-121723810D01*
X145314286Y-121647619D01*
X145371429Y-121571429D01*
X145428572Y-121419048D01*
X145428572Y-120961905D01*
X145371429Y-120809524D01*
X145314286Y-120733333D01*
X145200000Y-120657143D01*
X144971429Y-120657143D01*
X144857143Y-120733333D01*
X144342858Y-121723810D02*
X144342858Y-120123810D01*
X144228572Y-121114286D02*
X143885715Y-121723810D01*
X143885715Y-120657143D02*
X144342858Y-121266667D01*
X143485714Y-120657143D02*
X143257143Y-121723810D01*
X143028572Y-120961905D01*
X142800000Y-121723810D01*
X142571429Y-120657143D01*
X141942857Y-121723810D02*
X142057143Y-121647619D01*
X142114286Y-121571429D01*
X142171429Y-121419048D01*
X142171429Y-120961905D01*
X142114286Y-120809524D01*
X142057143Y-120733333D01*
X141942857Y-120657143D01*
X141771429Y-120657143D01*
X141657143Y-120733333D01*
X141600000Y-120809524D01*
X141542857Y-120961905D01*
X141542857Y-121419048D01*
X141600000Y-121571429D01*
X141657143Y-121647619D01*
X141771429Y-121723810D01*
X141942857Y-121723810D01*
X141028572Y-121723810D02*
X141028572Y-120657143D01*
X141028572Y-120961905D02*
X140971429Y-120809524D01*
X140914286Y-120733333D01*
X140800000Y-120657143D01*
X140685715Y-120657143D01*
X140285715Y-121723810D02*
X140285715Y-120123810D01*
X140171429Y-121114286D02*
X139828572Y-121723810D01*
X139828572Y-120657143D02*
X140285715Y-121266667D01*
X139371429Y-121647619D02*
X139257143Y-121723810D01*
X139028571Y-121723810D01*
X138914286Y-121647619D01*
X138857143Y-121495238D01*
X138857143Y-121419048D01*
X138914286Y-121266667D01*
X139028571Y-121190476D01*
X139200000Y-121190476D01*
X139314286Y-121114286D01*
X139371429Y-120961905D01*
X139371429Y-120885714D01*
X139314286Y-120733333D01*
X139200000Y-120657143D01*
X139028571Y-120657143D01*
X138914286Y-120733333D01*
X138114285Y-120123810D02*
X138000000Y-120123810D01*
X137885714Y-120200000D01*
X137828571Y-120276190D01*
X137771428Y-120428571D01*
X137714285Y-120733333D01*
X137714285Y-121114286D01*
X137771428Y-121419048D01*
X137828571Y-121571429D01*
X137885714Y-121647619D01*
X138000000Y-121723810D01*
X138114285Y-121723810D01*
X138228571Y-121647619D01*
X138285714Y-121571429D01*
X138342857Y-121419048D01*
X138400000Y-121114286D01*
X138400000Y-120733333D01*
X138342857Y-120428571D01*
X138285714Y-120276190D01*
X138228571Y-120200000D01*
X138114285Y-120123810D01*
X136571428Y-121723810D02*
X137257143Y-121723810D01*
X136914285Y-121723810D02*
X136914285Y-120123810D01*
X137028571Y-120352381D01*
X137142857Y-120504762D01*
X137257143Y-120580952D01*
X136057143Y-121571429D02*
X136000000Y-121647619D01*
X136057143Y-121723810D01*
X136114286Y-121647619D01*
X136057143Y-121571429D01*
X136057143Y-121723810D01*
X135485714Y-121723810D02*
X135485714Y-120123810D01*
X135485714Y-120733333D02*
X135371428Y-120657143D01*
X135142857Y-120657143D01*
X135028571Y-120733333D01*
X134971428Y-120809524D01*
X134914285Y-120961905D01*
X134914285Y-121419048D01*
X134971428Y-121571429D01*
X135028571Y-121647619D01*
X135142857Y-121723810D01*
X135371428Y-121723810D01*
X135485714Y-121647619D01*
X134228571Y-121723810D02*
X134342857Y-121647619D01*
X134400000Y-121495238D01*
X134400000Y-120123810D01*
X133600000Y-121723810D02*
X133714286Y-121647619D01*
X133771429Y-121571429D01*
X133828572Y-121419048D01*
X133828572Y-120961905D01*
X133771429Y-120809524D01*
X133714286Y-120733333D01*
X133600000Y-120657143D01*
X133428572Y-120657143D01*
X133314286Y-120733333D01*
X133257143Y-120809524D01*
X133200000Y-120961905D01*
X133200000Y-121419048D01*
X133257143Y-121571429D01*
X133314286Y-121647619D01*
X133428572Y-121723810D01*
X133600000Y-121723810D01*
X132171429Y-120657143D02*
X132171429Y-121952381D01*
X132228572Y-122104762D01*
X132285715Y-122180952D01*
X132400000Y-122257143D01*
X132571429Y-122257143D01*
X132685715Y-122180952D01*
X132171429Y-121647619D02*
X132285715Y-121723810D01*
X132514286Y-121723810D01*
X132628572Y-121647619D01*
X132685715Y-121571429D01*
X132742858Y-121419048D01*
X132742858Y-120961905D01*
X132685715Y-120809524D01*
X132628572Y-120733333D01*
X132514286Y-120657143D01*
X132285715Y-120657143D01*
X132171429Y-120733333D01*
X131657144Y-121647619D02*
X131542858Y-121723810D01*
X131314286Y-121723810D01*
X131200001Y-121647619D01*
X131142858Y-121495238D01*
X131142858Y-121419048D01*
X131200001Y-121266667D01*
X131314286Y-121190476D01*
X131485715Y-121190476D01*
X131600001Y-121114286D01*
X131657144Y-120961905D01*
X131657144Y-120885714D01*
X131600001Y-120733333D01*
X131485715Y-120657143D01*
X131314286Y-120657143D01*
X131200001Y-120733333D01*
X130628572Y-120657143D02*
X130628572Y-122257143D01*
X130628572Y-120733333D02*
X130514286Y-120657143D01*
X130285715Y-120657143D01*
X130171429Y-120733333D01*
X130114286Y-120809524D01*
X130057143Y-120961905D01*
X130057143Y-121419048D01*
X130114286Y-121571429D01*
X130171429Y-121647619D01*
X130285715Y-121723810D01*
X130514286Y-121723810D01*
X130628572Y-121647619D01*
X129371429Y-121723810D02*
X129485715Y-121647619D01*
X129542858Y-121571429D01*
X129600001Y-121419048D01*
X129600001Y-120961905D01*
X129542858Y-120809524D01*
X129485715Y-120733333D01*
X129371429Y-120657143D01*
X129200001Y-120657143D01*
X129085715Y-120733333D01*
X129028572Y-120809524D01*
X128971429Y-120961905D01*
X128971429Y-121419048D01*
X129028572Y-121571429D01*
X129085715Y-121647619D01*
X129200001Y-121723810D01*
X129371429Y-121723810D01*
X128628572Y-120657143D02*
X128171429Y-120657143D01*
X128457144Y-120123810D02*
X128457144Y-121495238D01*
X128400001Y-121647619D01*
X128285715Y-121723810D01*
X128171429Y-121723810D01*
X127771430Y-121571429D02*
X127714287Y-121647619D01*
X127771430Y-121723810D01*
X127828573Y-121647619D01*
X127771430Y-121571429D01*
X127771430Y-121723810D01*
X127200001Y-120657143D02*
X127200001Y-122028571D01*
X127257144Y-122180952D01*
X127371429Y-122257143D01*
X127428572Y-122257143D01*
X127200001Y-120123810D02*
X127257144Y-120200000D01*
X127200001Y-120276190D01*
X127142858Y-120200000D01*
X127200001Y-120123810D01*
X127200001Y-120276190D01*
X126628572Y-120657143D02*
X126628572Y-122257143D01*
X126628572Y-120733333D02*
X126514286Y-120657143D01*
X126285715Y-120657143D01*
X126171429Y-120733333D01*
X126114286Y-120809524D01*
X126057143Y-120961905D01*
X126057143Y-121419048D01*
X126114286Y-121571429D01*
X126171429Y-121647619D01*
X126285715Y-121723810D01*
X126514286Y-121723810D01*
X126628572Y-121647619D01*
X124685715Y-120047619D02*
X125714286Y-122104762D01*
X163897619Y-106209524D02*
X164997619Y-106576191D01*
X163897619Y-106942857D01*
X163897619Y-107519048D02*
X163897619Y-107728571D01*
X163950000Y-107833333D01*
X164054762Y-107938095D01*
X164264286Y-107990476D01*
X164630952Y-107990476D01*
X164840476Y-107938095D01*
X164945238Y-107833333D01*
X164997619Y-107728571D01*
X164997619Y-107519048D01*
X164945238Y-107414286D01*
X164840476Y-107309524D01*
X164630952Y-107257143D01*
X164264286Y-107257143D01*
X164054762Y-107309524D01*
X163950000Y-107414286D01*
X163897619Y-107519048D01*
X164997619Y-108985714D02*
X164997619Y-108461905D01*
X163897619Y-108461905D01*
X163897619Y-109352381D02*
X164788095Y-109352381D01*
X164892857Y-109404762D01*
X164945238Y-109457143D01*
X164997619Y-109561905D01*
X164997619Y-109771428D01*
X164945238Y-109876190D01*
X164892857Y-109928571D01*
X164788095Y-109980952D01*
X163897619Y-109980952D01*
X164997619Y-110504762D02*
X163897619Y-110504762D01*
X164683333Y-110871428D01*
X163897619Y-111238095D01*
X164997619Y-111238095D01*
X164421429Y-111761905D02*
X164421429Y-112128571D01*
X164997619Y-112285714D02*
X164997619Y-111761905D01*
X163897619Y-111761905D01*
X163897619Y-112285714D01*
X164797619Y-127611905D02*
X163697619Y-127611905D01*
X163697619Y-128030952D01*
X163750000Y-128135714D01*
X163802381Y-128188095D01*
X163907143Y-128240476D01*
X164064286Y-128240476D01*
X164169048Y-128188095D01*
X164221429Y-128135714D01*
X164273810Y-128030952D01*
X164273810Y-127611905D01*
X164797619Y-118085715D02*
X163697619Y-118085715D01*
X164797619Y-118714286D01*
X163697619Y-118714286D01*
X157523809Y-85202381D02*
X157000000Y-85202381D01*
X157000000Y-86302381D01*
X158519047Y-85307143D02*
X158466666Y-85254762D01*
X158309523Y-85202381D01*
X158204761Y-85202381D01*
X158047619Y-85254762D01*
X157942857Y-85359524D01*
X157890476Y-85464286D01*
X157838095Y-85673810D01*
X157838095Y-85830952D01*
X157890476Y-86040476D01*
X157942857Y-86145238D01*
X158047619Y-86250000D01*
X158204761Y-86302381D01*
X158309523Y-86302381D01*
X158466666Y-86250000D01*
X158519047Y-86197619D01*
X158990476Y-85202381D02*
X158990476Y-86302381D01*
X159252381Y-86302381D01*
X159409523Y-86250000D01*
X159514285Y-86145238D01*
X159566666Y-86040476D01*
X159619047Y-85830952D01*
X159619047Y-85673810D01*
X159566666Y-85464286D01*
X159514285Y-85359524D01*
X159409523Y-85254762D01*
X159252381Y-85202381D01*
X158990476Y-85202381D01*
X160090476Y-85621429D02*
X160928571Y-85621429D01*
X161452381Y-85202381D02*
X161452381Y-86302381D01*
X161923810Y-86197619D02*
X161976191Y-86250000D01*
X162080953Y-86302381D01*
X162342857Y-86302381D01*
X162447619Y-86250000D01*
X162500000Y-86197619D01*
X162552381Y-86092857D01*
X162552381Y-85988095D01*
X162500000Y-85830952D01*
X161871429Y-85202381D01*
X162552381Y-85202381D01*
X163652381Y-85307143D02*
X163600000Y-85254762D01*
X163442857Y-85202381D01*
X163338095Y-85202381D01*
X163180953Y-85254762D01*
X163076191Y-85359524D01*
X163023810Y-85464286D01*
X162971429Y-85673810D01*
X162971429Y-85830952D01*
X163023810Y-86040476D01*
X163076191Y-86145238D01*
X163180953Y-86250000D01*
X163338095Y-86302381D01*
X163442857Y-86302381D01*
X163600000Y-86250000D01*
X163652381Y-86197619D01*
D11*
X121264286Y-86147619D02*
X121264286Y-85338095D01*
X121307143Y-85242857D01*
X121350000Y-85195238D01*
X121435714Y-85147619D01*
X121607143Y-85147619D01*
X121692857Y-85195238D01*
X121735714Y-85242857D01*
X121778571Y-85338095D01*
X121778571Y-86147619D01*
X122164286Y-85433333D02*
X122592857Y-85433333D01*
X122078571Y-85147619D02*
X122378571Y-86147619D01*
X122678571Y-85147619D01*
X123492857Y-85147619D02*
X123192857Y-85623810D01*
X122978572Y-85147619D02*
X122978572Y-86147619D01*
X123321429Y-86147619D01*
X123407143Y-86100000D01*
X123450000Y-86052381D01*
X123492857Y-85957143D01*
X123492857Y-85814286D01*
X123450000Y-85719048D01*
X123407143Y-85671429D01*
X123321429Y-85623810D01*
X122978572Y-85623810D01*
X123750000Y-86147619D02*
X124264286Y-86147619D01*
X124007143Y-85147619D02*
X124007143Y-86147619D01*
D12*
X138476191Y-85102381D02*
X138476191Y-86202381D01*
X139628572Y-85207143D02*
X139576191Y-85154762D01*
X139419048Y-85102381D01*
X139314286Y-85102381D01*
X139157144Y-85154762D01*
X139052382Y-85259524D01*
X139000001Y-85364286D01*
X138947620Y-85573810D01*
X138947620Y-85730952D01*
X139000001Y-85940476D01*
X139052382Y-86045238D01*
X139157144Y-86150000D01*
X139314286Y-86202381D01*
X139419048Y-86202381D01*
X139576191Y-86150000D01*
X139628572Y-86097619D01*
X140047620Y-85154762D02*
X140204763Y-85102381D01*
X140466667Y-85102381D01*
X140571429Y-85154762D01*
X140623810Y-85207143D01*
X140676191Y-85311905D01*
X140676191Y-85416667D01*
X140623810Y-85521429D01*
X140571429Y-85573810D01*
X140466667Y-85626190D01*
X140257144Y-85678571D01*
X140152382Y-85730952D01*
X140100001Y-85783333D01*
X140047620Y-85888095D01*
X140047620Y-85992857D01*
X140100001Y-86097619D01*
X140152382Y-86150000D01*
X140257144Y-86202381D01*
X140519048Y-86202381D01*
X140676191Y-86150000D01*
X141147620Y-85102381D02*
X141147620Y-86202381D01*
X141566667Y-86202381D01*
X141671429Y-86150000D01*
X141723810Y-86097619D01*
X141776191Y-85992857D01*
X141776191Y-85835714D01*
X141723810Y-85730952D01*
X141671429Y-85678571D01*
X141566667Y-85626190D01*
X141147620Y-85626190D01*
D15*
X152700000Y-76042000D02*
X127300000Y-76042000D01*
X127300000Y-76042000D02*
X127300000Y-95600000D01*
X152700000Y-76042000D02*
X152700000Y-95600000D01*
X152700000Y-95600000D02*
X127300000Y-95600000D01*
X127300000Y-95600000D02*
X127300000Y-93060000D01*
D16*
X172064000Y-128000000D02*
X172064000Y-118000000D01*
D17*
X168040000Y-127064000D02*
X165500000Y-127064000D01*
X168040000Y-124016000D02*
X165500000Y-124016000D01*
X168040000Y-121984000D02*
X165500000Y-121984000D01*
X168040000Y-118936000D02*
X165500000Y-118936000D01*
X171596000Y-120460000D02*
G75*
G03X171596000Y-120460000I-2032000J0D01*
G01*
X171596000Y-125540000D02*
G75*
G03X171596000Y-125540000I-2032000J0D01*
G01*
X169564000Y-117920000D02*
X165500000Y-117920000D01*
X165500000Y-117920000D02*
X165500000Y-119444000D01*
X165500000Y-119444000D02*
X165500000Y-127572000D01*
X165500000Y-127572000D02*
X165500000Y-128080000D01*
X165500000Y-128080000D02*
X169564000Y-128080000D01*
X174644000Y-117920000D02*
X174644000Y-128080000D01*
X174644000Y-128080000D02*
X169564000Y-128080000D01*
X174644000Y-117920000D02*
X169564000Y-117920000D01*
D16*
X172064000Y-100000000D02*
X172064000Y-90000000D01*
D17*
X168040000Y-99064000D02*
X165500000Y-99064000D01*
X168040000Y-96016000D02*
X165500000Y-96016000D01*
X168040000Y-93984000D02*
X165500000Y-93984000D01*
X168040000Y-90936000D02*
X165500000Y-90936000D01*
X171596000Y-92460000D02*
G75*
G03X171596000Y-92460000I-2032000J0D01*
G01*
X171596000Y-97540000D02*
G75*
G03X171596000Y-97540000I-2032000J0D01*
G01*
X169564000Y-89920000D02*
X165500000Y-89920000D01*
X165500000Y-89920000D02*
X165500000Y-91444000D01*
X165500000Y-91444000D02*
X165500000Y-99572000D01*
X165500000Y-99572000D02*
X165500000Y-100080000D01*
X165500000Y-100080000D02*
X169564000Y-100080000D01*
X174644000Y-89920000D02*
X174644000Y-100080000D01*
X174644000Y-100080000D02*
X169564000Y-100080000D01*
X174644000Y-89920000D02*
X169564000Y-89920000D01*
D15*
X126620000Y-84770000D02*
X111380000Y-84770000D01*
X126620000Y-86675000D02*
X111380000Y-86675000D01*
X111380000Y-86675000D02*
X111380000Y-80325000D01*
X111380000Y-80325000D02*
X126620000Y-80325000D01*
X126620000Y-80325000D02*
X126620000Y-86675000D01*
X126874000Y-83500000D02*
X127890000Y-84262000D01*
X127890000Y-84262000D02*
X127890000Y-82738000D01*
X127890000Y-82738000D02*
X126874000Y-83500000D01*
X126112000Y-86040000D02*
X125350000Y-85024000D01*
X125350000Y-85024000D02*
X124588000Y-86040000D01*
X124588000Y-86040000D02*
X126112000Y-86040000D01*
X147493000Y-84770000D02*
X132380000Y-84770000D01*
X147620000Y-86675000D02*
X132380000Y-86675000D01*
X132380000Y-86675000D02*
X132380000Y-80325000D01*
X132380000Y-80325000D02*
X147620000Y-80325000D01*
X147620000Y-80325000D02*
X147620000Y-86675000D01*
X147874000Y-83500000D02*
X148890000Y-84262000D01*
X148890000Y-84262000D02*
X148890000Y-82738000D01*
X148890000Y-82738000D02*
X147874000Y-83500000D01*
X147112000Y-86040000D02*
X146350000Y-85024000D01*
X146350000Y-85024000D02*
X145588000Y-86040000D01*
X145588000Y-86040000D02*
X147112000Y-86040000D01*
X172104000Y-101888000D02*
X172104000Y-116620000D01*
X172104000Y-101380000D02*
X172104000Y-101888000D01*
X165500000Y-116620000D02*
X165500000Y-101380000D01*
X174644000Y-116620000D02*
X174644000Y-101380000D01*
X174644000Y-101380000D02*
X165500000Y-101380000D01*
X168040000Y-102396000D02*
X165500000Y-102396000D01*
X168040000Y-105444000D02*
X165500000Y-105444000D01*
X171572046Y-103920000D02*
G75*
G03X171572046Y-103920000I-2008046J0D01*
G01*
D17*
X168040000Y-115604000D02*
X165500000Y-115604000D01*
X168040000Y-112556000D02*
X165500000Y-112556000D01*
X168040000Y-110524000D02*
X165500000Y-110524000D01*
X168040000Y-107476000D02*
X165500000Y-107476000D01*
X171596000Y-109000000D02*
G75*
G03X171596000Y-109000000I-2032000J0D01*
G01*
X171596000Y-114080000D02*
G75*
G03X171596000Y-114080000I-2032000J0D01*
G01*
X165500000Y-116620000D02*
X169564000Y-116620000D01*
X174644000Y-116620000D02*
X169564000Y-116620000D01*
D15*
X166850000Y-84770000D02*
X154150000Y-84770000D01*
X166850000Y-86675000D02*
X154150000Y-86675000D01*
X154150000Y-86675000D02*
X154150000Y-80325000D01*
X154150000Y-80325000D02*
X166850000Y-80325000D01*
X166850000Y-80325000D02*
X166850000Y-86675000D01*
X168120000Y-84262000D02*
X167104000Y-83500000D01*
X167104000Y-83500000D02*
X168120000Y-82738000D01*
X168120000Y-82738000D02*
X168120000Y-84262000D01*
X166342000Y-86040000D02*
X164818000Y-86040000D01*
X164818000Y-86040000D02*
X165580000Y-85024000D01*
X165580000Y-85024000D02*
X166342000Y-86040000D01*
D12*
X147704762Y-92583333D02*
X147180953Y-92583333D01*
X147809524Y-92897619D02*
X147442857Y-91797619D01*
X147076191Y-92897619D01*
X146709524Y-92321429D02*
X146342858Y-92321429D01*
X146185715Y-92897619D02*
X146709524Y-92897619D01*
X146709524Y-91797619D01*
X146185715Y-91797619D01*
X145714286Y-92478571D02*
X144876191Y-92478571D01*
X144352381Y-92897619D02*
X144352381Y-91797619D01*
X143985715Y-92583333D01*
X143619048Y-91797619D01*
X143619048Y-92897619D01*
X143095238Y-92897619D02*
X143095238Y-91797619D01*
X141942857Y-92792857D02*
X141995238Y-92845238D01*
X142152381Y-92897619D01*
X142257143Y-92897619D01*
X142414285Y-92845238D01*
X142519047Y-92740476D01*
X142571428Y-92635714D01*
X142623809Y-92426190D01*
X142623809Y-92269048D01*
X142571428Y-92059524D01*
X142519047Y-91954762D01*
X142414285Y-91850000D01*
X142257143Y-91797619D01*
X142152381Y-91797619D01*
X141995238Y-91850000D01*
X141942857Y-91902381D01*
X140842857Y-92897619D02*
X141209523Y-92373810D01*
X141471428Y-92897619D02*
X141471428Y-91797619D01*
X141052381Y-91797619D01*
X140947619Y-91850000D01*
X140895238Y-91902381D01*
X140842857Y-92007143D01*
X140842857Y-92164286D01*
X140895238Y-92269048D01*
X140947619Y-92321429D01*
X141052381Y-92373810D01*
X141471428Y-92373810D01*
X140161904Y-91797619D02*
X139952381Y-91797619D01*
X139847619Y-91850000D01*
X139742857Y-91954762D01*
X139690476Y-92164286D01*
X139690476Y-92530952D01*
X139742857Y-92740476D01*
X139847619Y-92845238D01*
X139952381Y-92897619D01*
X140161904Y-92897619D01*
X140266666Y-92845238D01*
X140371428Y-92740476D01*
X140423809Y-92530952D01*
X140423809Y-92164286D01*
X140371428Y-91954762D01*
X140266666Y-91850000D01*
X140161904Y-91797619D01*
X139219047Y-92478571D02*
X138380952Y-92478571D01*
X137909523Y-92845238D02*
X137752380Y-92897619D01*
X137490476Y-92897619D01*
X137385714Y-92845238D01*
X137333333Y-92792857D01*
X137280952Y-92688095D01*
X137280952Y-92583333D01*
X137333333Y-92478571D01*
X137385714Y-92426190D01*
X137490476Y-92373810D01*
X137699999Y-92321429D01*
X137804761Y-92269048D01*
X137857142Y-92216667D01*
X137909523Y-92111905D01*
X137909523Y-92007143D01*
X137857142Y-91902381D01*
X137804761Y-91850000D01*
X137699999Y-91797619D01*
X137438095Y-91797619D01*
X137280952Y-91850000D01*
X136809523Y-92897619D02*
X136809523Y-91797619D01*
X136547618Y-91797619D01*
X136390476Y-91850000D01*
X136285714Y-91954762D01*
X136233333Y-92059524D01*
X136180952Y-92269048D01*
X136180952Y-92426190D01*
X136233333Y-92635714D01*
X136285714Y-92740476D01*
X136390476Y-92845238D01*
X136547618Y-92897619D01*
X136809523Y-92897619D01*
X135709523Y-92478571D02*
X134871428Y-92478571D01*
X134347618Y-92897619D02*
X134347618Y-91797619D01*
X134085713Y-91797619D01*
X133928571Y-91850000D01*
X133823809Y-91954762D01*
X133771428Y-92059524D01*
X133719047Y-92269048D01*
X133719047Y-92426190D01*
X133771428Y-92635714D01*
X133823809Y-92740476D01*
X133928571Y-92845238D01*
X134085713Y-92897619D01*
X134347618Y-92897619D01*
X133247618Y-92897619D02*
X133247618Y-91797619D01*
X132723808Y-92897619D02*
X132723808Y-91797619D01*
X132304761Y-91797619D01*
X132199999Y-91850000D01*
X132147618Y-91902381D01*
X132095237Y-92007143D01*
X132095237Y-92164286D01*
X132147618Y-92269048D01*
X132199999Y-92321429D01*
X132304761Y-92373810D01*
X132723808Y-92373810D01*
X173907143Y-121107143D02*
X173978571Y-121321429D01*
X173978571Y-121678572D01*
X173907143Y-121821429D01*
X173835714Y-121892858D01*
X173692857Y-121964286D01*
X173550000Y-121964286D01*
X173407143Y-121892858D01*
X173335714Y-121821429D01*
X173264286Y-121678572D01*
X173192857Y-121392858D01*
X173121429Y-121250000D01*
X173050000Y-121178572D01*
X172907143Y-121107143D01*
X172764286Y-121107143D01*
X172621429Y-121178572D01*
X172550000Y-121250000D01*
X172478571Y-121392858D01*
X172478571Y-121750000D01*
X172550000Y-121964286D01*
X173978571Y-122607143D02*
X172478571Y-122607143D01*
X172478571Y-123178571D01*
X172550000Y-123321429D01*
X172621429Y-123392857D01*
X172764286Y-123464286D01*
X172978571Y-123464286D01*
X173121429Y-123392857D01*
X173192857Y-123321429D01*
X173264286Y-123178571D01*
X173264286Y-122607143D01*
X173978571Y-124892857D02*
X173978571Y-124035714D01*
X173978571Y-124464286D02*
X172478571Y-124464286D01*
X172692857Y-124321429D01*
X172835714Y-124178571D01*
X172907143Y-124035714D01*
X173835714Y-93864286D02*
X173907143Y-93792857D01*
X173978571Y-93578571D01*
X173978571Y-93435714D01*
X173907143Y-93221429D01*
X173764286Y-93078571D01*
X173621429Y-93007143D01*
X173335714Y-92935714D01*
X173121429Y-92935714D01*
X172835714Y-93007143D01*
X172692857Y-93078571D01*
X172550000Y-93221429D01*
X172478571Y-93435714D01*
X172478571Y-93578571D01*
X172550000Y-93792857D01*
X172621429Y-93864286D01*
X173978571Y-94507143D02*
X172478571Y-94507143D01*
X173978571Y-95364286D01*
X172478571Y-95364286D01*
X173978571Y-96864286D02*
X173978571Y-96007143D01*
X173978571Y-96435715D02*
X172478571Y-96435715D01*
X172692857Y-96292858D01*
X172835714Y-96150000D01*
X172907143Y-96007143D01*
X174078571Y-107057144D02*
X173364286Y-106557144D01*
X174078571Y-106200001D02*
X172578571Y-106200001D01*
X172578571Y-106771429D01*
X172650000Y-106914287D01*
X172721429Y-106985715D01*
X172864286Y-107057144D01*
X173078571Y-107057144D01*
X173221429Y-106985715D01*
X173292857Y-106914287D01*
X173364286Y-106771429D01*
X173364286Y-106200001D01*
X172578571Y-107485715D02*
X174078571Y-107985715D01*
X172578571Y-108485715D01*
X174078571Y-109842858D02*
X173364286Y-109342858D01*
X174078571Y-108985715D02*
X172578571Y-108985715D01*
X172578571Y-109557143D01*
X172650000Y-109700001D01*
X172721429Y-109771429D01*
X172864286Y-109842858D01*
X173078571Y-109842858D01*
X173221429Y-109771429D01*
X173292857Y-109700001D01*
X173364286Y-109557143D01*
X173364286Y-108985715D01*
X174078571Y-111271429D02*
X174078571Y-110414286D01*
X174078571Y-110842858D02*
X172578571Y-110842858D01*
X172792857Y-110700001D01*
X172935714Y-110557143D01*
X173007143Y-110414286D01*
X122918571Y-101355000D02*
X122204285Y-101355000D01*
X123061428Y-101783571D02*
X122561428Y-100283571D01*
X122061428Y-101783571D01*
X121561428Y-101783571D02*
X121561428Y-100283571D01*
X120704285Y-101783571D01*
X120704285Y-100283571D01*
X119704285Y-100283571D02*
X119561428Y-100283571D01*
X119418571Y-100355000D01*
X119347142Y-100426429D01*
X119275713Y-100569286D01*
X119204285Y-100855000D01*
X119204285Y-101212143D01*
X119275713Y-101497857D01*
X119347142Y-101640714D01*
X119418571Y-101712143D01*
X119561428Y-101783571D01*
X119704285Y-101783571D01*
X119847142Y-101712143D01*
X119918571Y-101640714D01*
X119989999Y-101497857D01*
X120061428Y-101212143D01*
X120061428Y-100855000D01*
X119989999Y-100569286D01*
X119918571Y-100426429D01*
X119847142Y-100355000D01*
X119704285Y-100283571D01*
X118918571Y-101926429D02*
X117775714Y-101926429D01*
X116561428Y-101640714D02*
X116632857Y-101712143D01*
X116847143Y-101783571D01*
X116990000Y-101783571D01*
X117204285Y-101712143D01*
X117347143Y-101569286D01*
X117418571Y-101426429D01*
X117490000Y-101140714D01*
X117490000Y-100926429D01*
X117418571Y-100640714D01*
X117347143Y-100497857D01*
X117204285Y-100355000D01*
X116990000Y-100283571D01*
X116847143Y-100283571D01*
X116632857Y-100355000D01*
X116561428Y-100426429D01*
X115918571Y-101783571D02*
X115918571Y-100283571D01*
X115561428Y-100283571D01*
X115347143Y-100355000D01*
X115204285Y-100497857D01*
X115132857Y-100640714D01*
X115061428Y-100926429D01*
X115061428Y-101140714D01*
X115132857Y-101426429D01*
X115204285Y-101569286D01*
X115347143Y-101712143D01*
X115561428Y-101783571D01*
X115918571Y-101783571D01*
X114490000Y-101712143D02*
X114275714Y-101783571D01*
X113918571Y-101783571D01*
X113775714Y-101712143D01*
X113704285Y-101640714D01*
X113632857Y-101497857D01*
X113632857Y-101355000D01*
X113704285Y-101212143D01*
X113775714Y-101140714D01*
X113918571Y-101069286D01*
X114204285Y-100997857D01*
X114347143Y-100926429D01*
X114418571Y-100855000D01*
X114490000Y-100712143D01*
X114490000Y-100569286D01*
X114418571Y-100426429D01*
X114347143Y-100355000D01*
X114204285Y-100283571D01*
X113847143Y-100283571D01*
X113632857Y-100355000D01*
X113347143Y-101926429D02*
X112204286Y-101926429D01*
X111847143Y-101783571D02*
X111847143Y-100283571D01*
X111275715Y-100283571D01*
X111132857Y-100355000D01*
X111061429Y-100426429D01*
X110990000Y-100569286D01*
X110990000Y-100783571D01*
X111061429Y-100926429D01*
X111132857Y-100997857D01*
X111275715Y-101069286D01*
X111847143Y-101069286D01*
X110418572Y-100426429D02*
X110347143Y-100355000D01*
X110204286Y-100283571D01*
X109847143Y-100283571D01*
X109704286Y-100355000D01*
X109632857Y-100426429D01*
X109561429Y-100569286D01*
X109561429Y-100712143D01*
X109632857Y-100926429D01*
X110490000Y-101783571D01*
X109561429Y-101783571D01*
X128197141Y-104283571D02*
X128697141Y-103569286D01*
X129054284Y-104283571D02*
X129054284Y-102783571D01*
X128482856Y-102783571D01*
X128339998Y-102855000D01*
X128268570Y-102926429D01*
X128197141Y-103069286D01*
X128197141Y-103283571D01*
X128268570Y-103426429D01*
X128339998Y-103497857D01*
X128482856Y-103569286D01*
X129054284Y-103569286D01*
X127625713Y-103855000D02*
X126911427Y-103855000D01*
X127768570Y-104283571D02*
X127268570Y-102783571D01*
X126768570Y-104283571D01*
X125482856Y-104283571D02*
X126339999Y-104283571D01*
X125911427Y-104283571D02*
X125911427Y-102783571D01*
X126054284Y-102997857D01*
X126197142Y-103140714D01*
X126339999Y-103212143D01*
X125197142Y-104426429D02*
X124054285Y-104426429D01*
X123768571Y-104212143D02*
X123554285Y-104283571D01*
X123197142Y-104283571D01*
X123054285Y-104212143D01*
X122982856Y-104140714D01*
X122911428Y-103997857D01*
X122911428Y-103855000D01*
X122982856Y-103712143D01*
X123054285Y-103640714D01*
X123197142Y-103569286D01*
X123482856Y-103497857D01*
X123625714Y-103426429D01*
X123697142Y-103355000D01*
X123768571Y-103212143D01*
X123768571Y-103069286D01*
X123697142Y-102926429D01*
X123625714Y-102855000D01*
X123482856Y-102783571D01*
X123125714Y-102783571D01*
X122911428Y-102855000D01*
X122268571Y-104283571D02*
X122268571Y-102783571D01*
X121697143Y-102783571D01*
X121554285Y-102855000D01*
X121482857Y-102926429D01*
X121411428Y-103069286D01*
X121411428Y-103283571D01*
X121482857Y-103426429D01*
X121554285Y-103497857D01*
X121697143Y-103569286D01*
X122268571Y-103569286D01*
X120768571Y-104283571D02*
X120768571Y-102783571D01*
X120411428Y-104426429D02*
X119268571Y-104426429D01*
X118982857Y-104212143D02*
X118768571Y-104283571D01*
X118411428Y-104283571D01*
X118268571Y-104212143D01*
X118197142Y-104140714D01*
X118125714Y-103997857D01*
X118125714Y-103855000D01*
X118197142Y-103712143D01*
X118268571Y-103640714D01*
X118411428Y-103569286D01*
X118697142Y-103497857D01*
X118840000Y-103426429D01*
X118911428Y-103355000D01*
X118982857Y-103212143D01*
X118982857Y-103069286D01*
X118911428Y-102926429D01*
X118840000Y-102855000D01*
X118697142Y-102783571D01*
X118340000Y-102783571D01*
X118125714Y-102855000D01*
X117482857Y-104283571D02*
X117482857Y-102783571D01*
X117125714Y-102783571D01*
X116911429Y-102855000D01*
X116768571Y-102997857D01*
X116697143Y-103140714D01*
X116625714Y-103426429D01*
X116625714Y-103640714D01*
X116697143Y-103926429D01*
X116768571Y-104069286D01*
X116911429Y-104212143D01*
X117125714Y-104283571D01*
X117482857Y-104283571D01*
X115697143Y-102783571D02*
X115411429Y-102783571D01*
X115268571Y-102855000D01*
X115125714Y-102997857D01*
X115054286Y-103283571D01*
X115054286Y-103783571D01*
X115125714Y-104069286D01*
X115268571Y-104212143D01*
X115411429Y-104283571D01*
X115697143Y-104283571D01*
X115840000Y-104212143D01*
X115982857Y-104069286D01*
X116054286Y-103783571D01*
X116054286Y-103283571D01*
X115982857Y-102997857D01*
X115840000Y-102855000D01*
X115697143Y-102783571D01*
X114482857Y-102926429D02*
X114411428Y-102855000D01*
X114268571Y-102783571D01*
X113911428Y-102783571D01*
X113768571Y-102855000D01*
X113697142Y-102926429D01*
X113625714Y-103069286D01*
X113625714Y-103212143D01*
X113697142Y-103426429D01*
X114554285Y-104283571D01*
X113625714Y-104283571D01*
X113340000Y-104426429D02*
X112197143Y-104426429D01*
X111840000Y-104283571D02*
X111840000Y-102783571D01*
X111268572Y-102783571D01*
X111125714Y-102855000D01*
X111054286Y-102926429D01*
X110982857Y-103069286D01*
X110982857Y-103283571D01*
X111054286Y-103426429D01*
X111125714Y-103497857D01*
X111268572Y-103569286D01*
X111840000Y-103569286D01*
X110482857Y-102783571D02*
X109554286Y-102783571D01*
X110054286Y-103355000D01*
X109840000Y-103355000D01*
X109697143Y-103426429D01*
X109625714Y-103497857D01*
X109554286Y-103640714D01*
X109554286Y-103997857D01*
X109625714Y-104140714D01*
X109697143Y-104212143D01*
X109840000Y-104283571D01*
X110268572Y-104283571D01*
X110411429Y-104212143D01*
X110482857Y-104140714D01*
X120818570Y-106783571D02*
X121318570Y-106069286D01*
X121675713Y-106783571D02*
X121675713Y-105283571D01*
X121104285Y-105283571D01*
X120961427Y-105355000D01*
X120889999Y-105426429D01*
X120818570Y-105569286D01*
X120818570Y-105783571D01*
X120889999Y-105926429D01*
X120961427Y-105997857D01*
X121104285Y-106069286D01*
X121675713Y-106069286D01*
X119675713Y-105997857D02*
X119461427Y-106069286D01*
X119389999Y-106140714D01*
X119318570Y-106283571D01*
X119318570Y-106497857D01*
X119389999Y-106640714D01*
X119461427Y-106712143D01*
X119604285Y-106783571D01*
X120175713Y-106783571D01*
X120175713Y-105283571D01*
X119675713Y-105283571D01*
X119532856Y-105355000D01*
X119461427Y-105426429D01*
X119389999Y-105569286D01*
X119389999Y-105712143D01*
X119461427Y-105855000D01*
X119532856Y-105926429D01*
X119675713Y-105997857D01*
X120175713Y-105997857D01*
X118747142Y-105426429D02*
X118675713Y-105355000D01*
X118532856Y-105283571D01*
X118175713Y-105283571D01*
X118032856Y-105355000D01*
X117961427Y-105426429D01*
X117889999Y-105569286D01*
X117889999Y-105712143D01*
X117961427Y-105926429D01*
X118818570Y-106783571D01*
X117889999Y-106783571D01*
X117604285Y-106926429D02*
X116461428Y-106926429D01*
X116175714Y-106712143D02*
X115961428Y-106783571D01*
X115604285Y-106783571D01*
X115461428Y-106712143D01*
X115389999Y-106640714D01*
X115318571Y-106497857D01*
X115318571Y-106355000D01*
X115389999Y-106212143D01*
X115461428Y-106140714D01*
X115604285Y-106069286D01*
X115889999Y-105997857D01*
X116032857Y-105926429D01*
X116104285Y-105855000D01*
X116175714Y-105712143D01*
X116175714Y-105569286D01*
X116104285Y-105426429D01*
X116032857Y-105355000D01*
X115889999Y-105283571D01*
X115532857Y-105283571D01*
X115318571Y-105355000D01*
X114818571Y-105283571D02*
X114461428Y-106783571D01*
X114175714Y-105712143D01*
X113890000Y-106783571D01*
X113532857Y-105283571D01*
X113318571Y-106926429D02*
X112175714Y-106926429D01*
X111818571Y-106783571D02*
X111818571Y-105283571D01*
X111247143Y-105283571D01*
X111104285Y-105355000D01*
X111032857Y-105426429D01*
X110961428Y-105569286D01*
X110961428Y-105783571D01*
X111032857Y-105926429D01*
X111104285Y-105997857D01*
X111247143Y-106069286D01*
X111818571Y-106069286D01*
X109675714Y-105283571D02*
X109961428Y-105283571D01*
X110104285Y-105355000D01*
X110175714Y-105426429D01*
X110318571Y-105640714D01*
X110390000Y-105926429D01*
X110390000Y-106497857D01*
X110318571Y-106640714D01*
X110247143Y-106712143D01*
X110104285Y-106783571D01*
X109818571Y-106783571D01*
X109675714Y-106712143D01*
X109604285Y-106640714D01*
X109532857Y-106497857D01*
X109532857Y-106140714D01*
X109604285Y-105997857D01*
X109675714Y-105926429D01*
X109818571Y-105855000D01*
X110104285Y-105855000D01*
X110247143Y-105926429D01*
X110318571Y-105997857D01*
X110390000Y-106140714D01*
X126647142Y-109383571D02*
X127147142Y-108669286D01*
X127504285Y-109383571D02*
X127504285Y-107883571D01*
X126932857Y-107883571D01*
X126789999Y-107955000D01*
X126718571Y-108026429D01*
X126647142Y-108169286D01*
X126647142Y-108383571D01*
X126718571Y-108526429D01*
X126789999Y-108597857D01*
X126932857Y-108669286D01*
X127504285Y-108669286D01*
X125504285Y-108597857D02*
X125289999Y-108669286D01*
X125218571Y-108740714D01*
X125147142Y-108883571D01*
X125147142Y-109097857D01*
X125218571Y-109240714D01*
X125289999Y-109312143D01*
X125432857Y-109383571D01*
X126004285Y-109383571D01*
X126004285Y-107883571D01*
X125504285Y-107883571D01*
X125361428Y-107955000D01*
X125289999Y-108026429D01*
X125218571Y-108169286D01*
X125218571Y-108312143D01*
X125289999Y-108455000D01*
X125361428Y-108526429D01*
X125504285Y-108597857D01*
X126004285Y-108597857D01*
X124647142Y-107883571D02*
X123718571Y-107883571D01*
X124218571Y-108455000D01*
X124004285Y-108455000D01*
X123861428Y-108526429D01*
X123789999Y-108597857D01*
X123718571Y-108740714D01*
X123718571Y-109097857D01*
X123789999Y-109240714D01*
X123861428Y-109312143D01*
X124004285Y-109383571D01*
X124432857Y-109383571D01*
X124575714Y-109312143D01*
X124647142Y-109240714D01*
X122004286Y-107812143D02*
X123290000Y-109740714D01*
X121575714Y-108955000D02*
X120861428Y-108955000D01*
X121718571Y-109383571D02*
X121218571Y-107883571D01*
X120718571Y-109383571D01*
X120218571Y-109383571D02*
X120218571Y-107883571D01*
X119361428Y-109383571D01*
X119361428Y-107883571D01*
X117932856Y-107883571D02*
X118647142Y-107883571D01*
X118718571Y-108597857D01*
X118647142Y-108526429D01*
X118504285Y-108455000D01*
X118147142Y-108455000D01*
X118004285Y-108526429D01*
X117932856Y-108597857D01*
X117861428Y-108740714D01*
X117861428Y-109097857D01*
X117932856Y-109240714D01*
X118004285Y-109312143D01*
X118147142Y-109383571D01*
X118504285Y-109383571D01*
X118647142Y-109312143D01*
X118718571Y-109240714D01*
X117575714Y-109526429D02*
X116432857Y-109526429D01*
X116147143Y-109312143D02*
X115932857Y-109383571D01*
X115575714Y-109383571D01*
X115432857Y-109312143D01*
X115361428Y-109240714D01*
X115290000Y-109097857D01*
X115290000Y-108955000D01*
X115361428Y-108812143D01*
X115432857Y-108740714D01*
X115575714Y-108669286D01*
X115861428Y-108597857D01*
X116004286Y-108526429D01*
X116075714Y-108455000D01*
X116147143Y-108312143D01*
X116147143Y-108169286D01*
X116075714Y-108026429D01*
X116004286Y-107955000D01*
X115861428Y-107883571D01*
X115504286Y-107883571D01*
X115290000Y-107955000D01*
X114790000Y-107883571D02*
X114432857Y-109383571D01*
X114147143Y-108312143D01*
X113861429Y-109383571D01*
X113504286Y-107883571D01*
X113290000Y-109526429D02*
X112147143Y-109526429D01*
X111790000Y-109383571D02*
X111790000Y-107883571D01*
X111218572Y-107883571D01*
X111075714Y-107955000D01*
X111004286Y-108026429D01*
X110932857Y-108169286D01*
X110932857Y-108383571D01*
X111004286Y-108526429D01*
X111075714Y-108597857D01*
X111218572Y-108669286D01*
X111790000Y-108669286D01*
X110432857Y-107883571D02*
X109432857Y-107883571D01*
X110075714Y-109383571D01*
X120571427Y-111978571D02*
X121071427Y-111264286D01*
X121428570Y-111978571D02*
X121428570Y-110478571D01*
X120857142Y-110478571D01*
X120714284Y-110550000D01*
X120642856Y-110621429D01*
X120571427Y-110764286D01*
X120571427Y-110978571D01*
X120642856Y-111121429D01*
X120714284Y-111192857D01*
X120857142Y-111264286D01*
X121428570Y-111264286D01*
X119999999Y-111550000D02*
X119285713Y-111550000D01*
X120142856Y-111978571D02*
X119642856Y-110478571D01*
X119142856Y-111978571D01*
X118714285Y-110621429D02*
X118642856Y-110550000D01*
X118499999Y-110478571D01*
X118142856Y-110478571D01*
X117999999Y-110550000D01*
X117928570Y-110621429D01*
X117857142Y-110764286D01*
X117857142Y-110907143D01*
X117928570Y-111121429D01*
X118785713Y-111978571D01*
X117857142Y-111978571D01*
X117571428Y-112121429D02*
X116428571Y-112121429D01*
X116142857Y-111907143D02*
X115928571Y-111978571D01*
X115571428Y-111978571D01*
X115428571Y-111907143D01*
X115357142Y-111835714D01*
X115285714Y-111692857D01*
X115285714Y-111550000D01*
X115357142Y-111407143D01*
X115428571Y-111335714D01*
X115571428Y-111264286D01*
X115857142Y-111192857D01*
X116000000Y-111121429D01*
X116071428Y-111050000D01*
X116142857Y-110907143D01*
X116142857Y-110764286D01*
X116071428Y-110621429D01*
X116000000Y-110550000D01*
X115857142Y-110478571D01*
X115500000Y-110478571D01*
X115285714Y-110550000D01*
X114785714Y-110478571D02*
X114428571Y-111978571D01*
X114142857Y-110907143D01*
X113857143Y-111978571D01*
X113500000Y-110478571D01*
X113285714Y-112121429D02*
X112142857Y-112121429D01*
X111785714Y-111978571D02*
X111785714Y-110478571D01*
X111214286Y-110478571D01*
X111071428Y-110550000D01*
X111000000Y-110621429D01*
X110928571Y-110764286D01*
X110928571Y-110978571D01*
X111000000Y-111121429D01*
X111071428Y-111192857D01*
X111214286Y-111264286D01*
X111785714Y-111264286D01*
X110214286Y-111978571D02*
X109928571Y-111978571D01*
X109785714Y-111907143D01*
X109714286Y-111835714D01*
X109571428Y-111621429D01*
X109500000Y-111335714D01*
X109500000Y-110764286D01*
X109571428Y-110621429D01*
X109642857Y-110550000D01*
X109785714Y-110478571D01*
X110071428Y-110478571D01*
X110214286Y-110550000D01*
X110285714Y-110621429D01*
X110357143Y-110764286D01*
X110357143Y-111121429D01*
X110285714Y-111264286D01*
X110214286Y-111335714D01*
X110071428Y-111407143D01*
X109785714Y-111407143D01*
X109642857Y-111335714D01*
X109571428Y-111264286D01*
X109500000Y-111121429D01*
X121985713Y-135478571D02*
X122485713Y-134764286D01*
X122842856Y-135478571D02*
X122842856Y-133978571D01*
X122271428Y-133978571D01*
X122128570Y-134050000D01*
X122057142Y-134121429D01*
X121985713Y-134264286D01*
X121985713Y-134478571D01*
X122057142Y-134621429D01*
X122128570Y-134692857D01*
X122271428Y-134764286D01*
X122842856Y-134764286D01*
X121414285Y-135050000D02*
X120699999Y-135050000D01*
X121557142Y-135478571D02*
X121057142Y-133978571D01*
X120557142Y-135478571D01*
X120199999Y-133978571D02*
X119271428Y-133978571D01*
X119771428Y-134550000D01*
X119557142Y-134550000D01*
X119414285Y-134621429D01*
X119342856Y-134692857D01*
X119271428Y-134835714D01*
X119271428Y-135192857D01*
X119342856Y-135335714D01*
X119414285Y-135407143D01*
X119557142Y-135478571D01*
X119985714Y-135478571D01*
X120128571Y-135407143D01*
X120199999Y-135335714D01*
X118985714Y-135621429D02*
X117842857Y-135621429D01*
X117557143Y-135407143D02*
X117342857Y-135478571D01*
X116985714Y-135478571D01*
X116842857Y-135407143D01*
X116771428Y-135335714D01*
X116700000Y-135192857D01*
X116700000Y-135050000D01*
X116771428Y-134907143D01*
X116842857Y-134835714D01*
X116985714Y-134764286D01*
X117271428Y-134692857D01*
X117414286Y-134621429D01*
X117485714Y-134550000D01*
X117557143Y-134407143D01*
X117557143Y-134264286D01*
X117485714Y-134121429D01*
X117414286Y-134050000D01*
X117271428Y-133978571D01*
X116914286Y-133978571D01*
X116700000Y-134050000D01*
X116200000Y-133978571D02*
X115842857Y-135478571D01*
X115557143Y-134407143D01*
X115271429Y-135478571D01*
X114914286Y-133978571D01*
X114700000Y-135621429D02*
X113557143Y-135621429D01*
X113200000Y-135478571D02*
X113200000Y-133978571D01*
X112628572Y-133978571D01*
X112485714Y-134050000D01*
X112414286Y-134121429D01*
X112342857Y-134264286D01*
X112342857Y-134478571D01*
X112414286Y-134621429D01*
X112485714Y-134692857D01*
X112628572Y-134764286D01*
X113200000Y-134764286D01*
X110914286Y-135478571D02*
X111771429Y-135478571D01*
X111342857Y-135478571D02*
X111342857Y-133978571D01*
X111485714Y-134192857D01*
X111628572Y-134335714D01*
X111771429Y-134407143D01*
X109985715Y-133978571D02*
X109842858Y-133978571D01*
X109700001Y-134050000D01*
X109628572Y-134121429D01*
X109557143Y-134264286D01*
X109485715Y-134550000D01*
X109485715Y-134907143D01*
X109557143Y-135192857D01*
X109628572Y-135335714D01*
X109700001Y-135407143D01*
X109842858Y-135478571D01*
X109985715Y-135478571D01*
X110128572Y-135407143D01*
X110200001Y-135335714D01*
X110271429Y-135192857D01*
X110342858Y-134907143D01*
X110342858Y-134550000D01*
X110271429Y-134264286D01*
X110200001Y-134121429D01*
X110128572Y-134050000D01*
X109985715Y-133978571D01*
X126742856Y-138278571D02*
X127242856Y-137564286D01*
X127599999Y-138278571D02*
X127599999Y-136778571D01*
X127028571Y-136778571D01*
X126885713Y-136850000D01*
X126814285Y-136921429D01*
X126742856Y-137064286D01*
X126742856Y-137278571D01*
X126814285Y-137421429D01*
X126885713Y-137492857D01*
X127028571Y-137564286D01*
X127599999Y-137564286D01*
X125599999Y-137492857D02*
X125385713Y-137564286D01*
X125314285Y-137635714D01*
X125242856Y-137778571D01*
X125242856Y-137992857D01*
X125314285Y-138135714D01*
X125385713Y-138207143D01*
X125528571Y-138278571D01*
X126099999Y-138278571D01*
X126099999Y-136778571D01*
X125599999Y-136778571D01*
X125457142Y-136850000D01*
X125385713Y-136921429D01*
X125314285Y-137064286D01*
X125314285Y-137207143D01*
X125385713Y-137350000D01*
X125457142Y-137421429D01*
X125599999Y-137492857D01*
X126099999Y-137492857D01*
X123885713Y-136778571D02*
X124599999Y-136778571D01*
X124671428Y-137492857D01*
X124599999Y-137421429D01*
X124457142Y-137350000D01*
X124099999Y-137350000D01*
X123957142Y-137421429D01*
X123885713Y-137492857D01*
X123814285Y-137635714D01*
X123814285Y-137992857D01*
X123885713Y-138135714D01*
X123957142Y-138207143D01*
X124099999Y-138278571D01*
X124457142Y-138278571D01*
X124599999Y-138207143D01*
X124671428Y-138135714D01*
X123528571Y-138421429D02*
X122385714Y-138421429D01*
X122028571Y-138278571D02*
X122028571Y-136778571D01*
X121457143Y-136778571D01*
X121314285Y-136850000D01*
X121242857Y-136921429D01*
X121171428Y-137064286D01*
X121171428Y-137278571D01*
X121242857Y-137421429D01*
X121314285Y-137492857D01*
X121457143Y-137564286D01*
X122028571Y-137564286D01*
X120242857Y-136778571D02*
X119957143Y-136778571D01*
X119814285Y-136850000D01*
X119671428Y-136992857D01*
X119600000Y-137278571D01*
X119600000Y-137778571D01*
X119671428Y-138064286D01*
X119814285Y-138207143D01*
X119957143Y-138278571D01*
X120242857Y-138278571D01*
X120385714Y-138207143D01*
X120528571Y-138064286D01*
X120600000Y-137778571D01*
X120600000Y-137278571D01*
X120528571Y-136992857D01*
X120385714Y-136850000D01*
X120242857Y-136778571D01*
X119099999Y-136778571D02*
X118742856Y-138278571D01*
X118457142Y-137207143D01*
X118171428Y-138278571D01*
X117814285Y-136778571D01*
X117242856Y-137492857D02*
X116742856Y-137492857D01*
X116528570Y-138278571D02*
X117242856Y-138278571D01*
X117242856Y-136778571D01*
X116528570Y-136778571D01*
X115028570Y-138278571D02*
X115528570Y-137564286D01*
X115885713Y-138278571D02*
X115885713Y-136778571D01*
X115314285Y-136778571D01*
X115171427Y-136850000D01*
X115099999Y-136921429D01*
X115028570Y-137064286D01*
X115028570Y-137278571D01*
X115099999Y-137421429D01*
X115171427Y-137492857D01*
X115314285Y-137564286D01*
X115885713Y-137564286D01*
X114742856Y-138421429D02*
X113599999Y-138421429D01*
X113242856Y-138278571D02*
X113242856Y-136778571D01*
X112671428Y-136778571D01*
X112528570Y-136850000D01*
X112457142Y-136921429D01*
X112385713Y-137064286D01*
X112385713Y-137278571D01*
X112457142Y-137421429D01*
X112528570Y-137492857D01*
X112671428Y-137564286D01*
X113242856Y-137564286D01*
X110957142Y-138278571D02*
X111814285Y-138278571D01*
X111385713Y-138278571D02*
X111385713Y-136778571D01*
X111528570Y-136992857D01*
X111671428Y-137135714D01*
X111814285Y-137207143D01*
X109671428Y-137278571D02*
X109671428Y-138278571D01*
X110028571Y-136707143D02*
X110385714Y-137778571D01*
X109457142Y-137778571D01*
X123157142Y-140678571D02*
X123657142Y-139964286D01*
X124014285Y-140678571D02*
X124014285Y-139178571D01*
X123442857Y-139178571D01*
X123299999Y-139250000D01*
X123228571Y-139321429D01*
X123157142Y-139464286D01*
X123157142Y-139678571D01*
X123228571Y-139821429D01*
X123299999Y-139892857D01*
X123442857Y-139964286D01*
X124014285Y-139964286D01*
X122014285Y-139892857D02*
X121799999Y-139964286D01*
X121728571Y-140035714D01*
X121657142Y-140178571D01*
X121657142Y-140392857D01*
X121728571Y-140535714D01*
X121799999Y-140607143D01*
X121942857Y-140678571D01*
X122514285Y-140678571D01*
X122514285Y-139178571D01*
X122014285Y-139178571D01*
X121871428Y-139250000D01*
X121799999Y-139321429D01*
X121728571Y-139464286D01*
X121728571Y-139607143D01*
X121799999Y-139750000D01*
X121871428Y-139821429D01*
X122014285Y-139892857D01*
X122514285Y-139892857D01*
X120371428Y-139178571D02*
X120657142Y-139178571D01*
X120799999Y-139250000D01*
X120871428Y-139321429D01*
X121014285Y-139535714D01*
X121085714Y-139821429D01*
X121085714Y-140392857D01*
X121014285Y-140535714D01*
X120942857Y-140607143D01*
X120799999Y-140678571D01*
X120514285Y-140678571D01*
X120371428Y-140607143D01*
X120299999Y-140535714D01*
X120228571Y-140392857D01*
X120228571Y-140035714D01*
X120299999Y-139892857D01*
X120371428Y-139821429D01*
X120514285Y-139750000D01*
X120799999Y-139750000D01*
X120942857Y-139821429D01*
X121014285Y-139892857D01*
X121085714Y-140035714D01*
X119942857Y-140821429D02*
X118800000Y-140821429D01*
X117728571Y-140678571D02*
X118442857Y-140678571D01*
X118442857Y-139178571D01*
X117228571Y-139892857D02*
X116728571Y-139892857D01*
X116514285Y-140678571D02*
X117228571Y-140678571D01*
X117228571Y-139178571D01*
X116514285Y-139178571D01*
X115871428Y-140678571D02*
X115871428Y-139178571D01*
X115514285Y-139178571D01*
X115300000Y-139250000D01*
X115157142Y-139392857D01*
X115085714Y-139535714D01*
X115014285Y-139821429D01*
X115014285Y-140035714D01*
X115085714Y-140321429D01*
X115157142Y-140464286D01*
X115300000Y-140607143D01*
X115514285Y-140678571D01*
X115871428Y-140678571D01*
X114728571Y-140821429D02*
X113585714Y-140821429D01*
X113228571Y-140678571D02*
X113228571Y-139178571D01*
X112657143Y-139178571D01*
X112514285Y-139250000D01*
X112442857Y-139321429D01*
X112371428Y-139464286D01*
X112371428Y-139678571D01*
X112442857Y-139821429D01*
X112514285Y-139892857D01*
X112657143Y-139964286D01*
X113228571Y-139964286D01*
X110942857Y-140678571D02*
X111800000Y-140678571D01*
X111371428Y-140678571D02*
X111371428Y-139178571D01*
X111514285Y-139392857D01*
X111657143Y-139535714D01*
X111800000Y-139607143D01*
X109585714Y-139178571D02*
X110300000Y-139178571D01*
X110371429Y-139892857D01*
X110300000Y-139821429D01*
X110157143Y-139750000D01*
X109800000Y-139750000D01*
X109657143Y-139821429D01*
X109585714Y-139892857D01*
X109514286Y-140035714D01*
X109514286Y-140392857D01*
X109585714Y-140535714D01*
X109657143Y-140607143D01*
X109800000Y-140678571D01*
X110157143Y-140678571D01*
X110300000Y-140607143D01*
X110371429Y-140535714D01*
X119297142Y-143058571D02*
X119297142Y-141558571D01*
X118725714Y-141558571D01*
X118582856Y-141630000D01*
X118511428Y-141701429D01*
X118439999Y-141844286D01*
X118439999Y-142058571D01*
X118511428Y-142201429D01*
X118582856Y-142272857D01*
X118725714Y-142344286D01*
X119297142Y-142344286D01*
X117939999Y-141558571D02*
X117582856Y-143058571D01*
X117297142Y-141987143D01*
X117011428Y-143058571D01*
X116654285Y-141558571D01*
X116082856Y-143058571D02*
X116082856Y-141558571D01*
X115582856Y-142630000D01*
X115082856Y-141558571D01*
X115082856Y-143058571D01*
X114725713Y-143201429D02*
X113582856Y-143201429D01*
X113225713Y-143058571D02*
X113225713Y-141558571D01*
X112654285Y-141558571D01*
X112511427Y-141630000D01*
X112439999Y-141701429D01*
X112368570Y-141844286D01*
X112368570Y-142058571D01*
X112439999Y-142201429D01*
X112511427Y-142272857D01*
X112654285Y-142344286D01*
X113225713Y-142344286D01*
X110939999Y-143058571D02*
X111797142Y-143058571D01*
X111368570Y-143058571D02*
X111368570Y-141558571D01*
X111511427Y-141772857D01*
X111654285Y-141915714D01*
X111797142Y-141987143D01*
X109654285Y-141558571D02*
X109939999Y-141558571D01*
X110082856Y-141630000D01*
X110154285Y-141701429D01*
X110297142Y-141915714D01*
X110368571Y-142201429D01*
X110368571Y-142772857D01*
X110297142Y-142915714D01*
X110225714Y-142987143D01*
X110082856Y-143058571D01*
X109797142Y-143058571D01*
X109654285Y-142987143D01*
X109582856Y-142915714D01*
X109511428Y-142772857D01*
X109511428Y-142415714D01*
X109582856Y-142272857D01*
X109654285Y-142201429D01*
X109797142Y-142130000D01*
X110082856Y-142130000D01*
X110225714Y-142201429D01*
X110297142Y-142272857D01*
X110368571Y-142415714D01*
X124392856Y-96807143D02*
X124178570Y-96878571D01*
X123821427Y-96878571D01*
X123678570Y-96807143D01*
X123607141Y-96735714D01*
X123535713Y-96592857D01*
X123535713Y-96450000D01*
X123607141Y-96307143D01*
X123678570Y-96235714D01*
X123821427Y-96164286D01*
X124107141Y-96092857D01*
X124249999Y-96021429D01*
X124321427Y-95950000D01*
X124392856Y-95807143D01*
X124392856Y-95664286D01*
X124321427Y-95521429D01*
X124249999Y-95450000D01*
X124107141Y-95378571D01*
X123749999Y-95378571D01*
X123535713Y-95450000D01*
X122892856Y-96878571D02*
X122892856Y-95378571D01*
X122321428Y-95378571D01*
X122178570Y-95450000D01*
X122107142Y-95521429D01*
X122035713Y-95664286D01*
X122035713Y-95878571D01*
X122107142Y-96021429D01*
X122178570Y-96092857D01*
X122321428Y-96164286D01*
X122892856Y-96164286D01*
X121392856Y-96878571D02*
X121392856Y-95378571D01*
X121035713Y-97021429D02*
X119892856Y-97021429D01*
X119607142Y-96807143D02*
X119392856Y-96878571D01*
X119035713Y-96878571D01*
X118892856Y-96807143D01*
X118821427Y-96735714D01*
X118749999Y-96592857D01*
X118749999Y-96450000D01*
X118821427Y-96307143D01*
X118892856Y-96235714D01*
X119035713Y-96164286D01*
X119321427Y-96092857D01*
X119464285Y-96021429D01*
X119535713Y-95950000D01*
X119607142Y-95807143D01*
X119607142Y-95664286D01*
X119535713Y-95521429D01*
X119464285Y-95450000D01*
X119321427Y-95378571D01*
X118964285Y-95378571D01*
X118749999Y-95450000D01*
X118107142Y-96878571D02*
X118107142Y-95378571D01*
X117749999Y-95378571D01*
X117535714Y-95450000D01*
X117392856Y-95592857D01*
X117321428Y-95735714D01*
X117249999Y-96021429D01*
X117249999Y-96235714D01*
X117321428Y-96521429D01*
X117392856Y-96664286D01*
X117535714Y-96807143D01*
X117749999Y-96878571D01*
X118107142Y-96878571D01*
X116607142Y-96878571D02*
X116607142Y-95378571D01*
X115964285Y-95521429D02*
X115892856Y-95450000D01*
X115749999Y-95378571D01*
X115392856Y-95378571D01*
X115249999Y-95450000D01*
X115178570Y-95521429D01*
X115107142Y-95664286D01*
X115107142Y-95807143D01*
X115178570Y-96021429D01*
X116035713Y-96878571D01*
X115107142Y-96878571D01*
X114821428Y-97021429D02*
X113678571Y-97021429D01*
X113321428Y-96878571D02*
X113321428Y-95378571D01*
X112750000Y-95378571D01*
X112607142Y-95450000D01*
X112535714Y-95521429D01*
X112464285Y-95664286D01*
X112464285Y-95878571D01*
X112535714Y-96021429D01*
X112607142Y-96092857D01*
X112750000Y-96164286D01*
X113321428Y-96164286D01*
X111892857Y-95521429D02*
X111821428Y-95450000D01*
X111678571Y-95378571D01*
X111321428Y-95378571D01*
X111178571Y-95450000D01*
X111107142Y-95521429D01*
X111035714Y-95664286D01*
X111035714Y-95807143D01*
X111107142Y-96021429D01*
X111964285Y-96878571D01*
X111035714Y-96878571D01*
X109750000Y-95878571D02*
X109750000Y-96878571D01*
X110107143Y-95307143D02*
X110464286Y-96378571D01*
X109535714Y-96378571D01*
X119364284Y-93978571D02*
X119864284Y-93264286D01*
X120221427Y-93978571D02*
X120221427Y-92478571D01*
X119649999Y-92478571D01*
X119507141Y-92550000D01*
X119435713Y-92621429D01*
X119364284Y-92764286D01*
X119364284Y-92978571D01*
X119435713Y-93121429D01*
X119507141Y-93192857D01*
X119649999Y-93264286D01*
X120221427Y-93264286D01*
X118221427Y-93192857D02*
X118007141Y-93264286D01*
X117935713Y-93335714D01*
X117864284Y-93478571D01*
X117864284Y-93692857D01*
X117935713Y-93835714D01*
X118007141Y-93907143D01*
X118149999Y-93978571D01*
X118721427Y-93978571D01*
X118721427Y-92478571D01*
X118221427Y-92478571D01*
X118078570Y-92550000D01*
X118007141Y-92621429D01*
X117935713Y-92764286D01*
X117935713Y-92907143D01*
X118007141Y-93050000D01*
X118078570Y-93121429D01*
X118221427Y-93192857D01*
X118721427Y-93192857D01*
X116435713Y-93978571D02*
X117292856Y-93978571D01*
X116864284Y-93978571D02*
X116864284Y-92478571D01*
X117007141Y-92692857D01*
X117149999Y-92835714D01*
X117292856Y-92907143D01*
X115149999Y-92978571D02*
X115149999Y-93978571D01*
X115507142Y-92407143D02*
X115864285Y-93478571D01*
X114935713Y-93478571D01*
X114721428Y-94121429D02*
X113578571Y-94121429D01*
X113221428Y-93978571D02*
X113221428Y-92478571D01*
X112650000Y-92478571D01*
X112507142Y-92550000D01*
X112435714Y-92621429D01*
X112364285Y-92764286D01*
X112364285Y-92978571D01*
X112435714Y-93121429D01*
X112507142Y-93192857D01*
X112650000Y-93264286D01*
X113221428Y-93264286D01*
X111792857Y-92621429D02*
X111721428Y-92550000D01*
X111578571Y-92478571D01*
X111221428Y-92478571D01*
X111078571Y-92550000D01*
X111007142Y-92621429D01*
X110935714Y-92764286D01*
X110935714Y-92907143D01*
X111007142Y-93121429D01*
X111864285Y-93978571D01*
X110935714Y-93978571D01*
X109578571Y-92478571D02*
X110292857Y-92478571D01*
X110364286Y-93192857D01*
X110292857Y-93121429D01*
X110150000Y-93050000D01*
X109792857Y-93050000D01*
X109650000Y-93121429D01*
X109578571Y-93192857D01*
X109507143Y-93335714D01*
X109507143Y-93692857D01*
X109578571Y-93835714D01*
X109650000Y-93907143D01*
X109792857Y-93978571D01*
X110150000Y-93978571D01*
X110292857Y-93907143D01*
X110364286Y-93835714D01*
X125085713Y-91207143D02*
X124871427Y-91278571D01*
X124514284Y-91278571D01*
X124371427Y-91207143D01*
X124299998Y-91135714D01*
X124228570Y-90992857D01*
X124228570Y-90850000D01*
X124299998Y-90707143D01*
X124371427Y-90635714D01*
X124514284Y-90564286D01*
X124799998Y-90492857D01*
X124942856Y-90421429D01*
X125014284Y-90350000D01*
X125085713Y-90207143D01*
X125085713Y-90064286D01*
X125014284Y-89921429D01*
X124942856Y-89850000D01*
X124799998Y-89778571D01*
X124442856Y-89778571D01*
X124228570Y-89850000D01*
X123585713Y-91278571D02*
X123585713Y-89778571D01*
X123014285Y-89778571D01*
X122871427Y-89850000D01*
X122799999Y-89921429D01*
X122728570Y-90064286D01*
X122728570Y-90278571D01*
X122799999Y-90421429D01*
X122871427Y-90492857D01*
X123014285Y-90564286D01*
X123585713Y-90564286D01*
X122085713Y-91278571D02*
X122085713Y-89778571D01*
X121728570Y-91421429D02*
X120585713Y-91421429D01*
X120299999Y-91207143D02*
X120085713Y-91278571D01*
X119728570Y-91278571D01*
X119585713Y-91207143D01*
X119514284Y-91135714D01*
X119442856Y-90992857D01*
X119442856Y-90850000D01*
X119514284Y-90707143D01*
X119585713Y-90635714D01*
X119728570Y-90564286D01*
X120014284Y-90492857D01*
X120157142Y-90421429D01*
X120228570Y-90350000D01*
X120299999Y-90207143D01*
X120299999Y-90064286D01*
X120228570Y-89921429D01*
X120157142Y-89850000D01*
X120014284Y-89778571D01*
X119657142Y-89778571D01*
X119442856Y-89850000D01*
X117942856Y-91135714D02*
X118014285Y-91207143D01*
X118228571Y-91278571D01*
X118371428Y-91278571D01*
X118585713Y-91207143D01*
X118728571Y-91064286D01*
X118799999Y-90921429D01*
X118871428Y-90635714D01*
X118871428Y-90421429D01*
X118799999Y-90135714D01*
X118728571Y-89992857D01*
X118585713Y-89850000D01*
X118371428Y-89778571D01*
X118228571Y-89778571D01*
X118014285Y-89850000D01*
X117942856Y-89921429D01*
X117299999Y-91278571D02*
X117299999Y-89778571D01*
X116442856Y-91278571D02*
X117085713Y-90421429D01*
X116442856Y-89778571D02*
X117299999Y-90635714D01*
X115871428Y-89921429D02*
X115799999Y-89850000D01*
X115657142Y-89778571D01*
X115299999Y-89778571D01*
X115157142Y-89850000D01*
X115085713Y-89921429D01*
X115014285Y-90064286D01*
X115014285Y-90207143D01*
X115085713Y-90421429D01*
X115942856Y-91278571D01*
X115014285Y-91278571D01*
X114728571Y-91421429D02*
X113585714Y-91421429D01*
X113228571Y-91278571D02*
X113228571Y-89778571D01*
X112657143Y-89778571D01*
X112514285Y-89850000D01*
X112442857Y-89921429D01*
X112371428Y-90064286D01*
X112371428Y-90278571D01*
X112442857Y-90421429D01*
X112514285Y-90492857D01*
X112657143Y-90564286D01*
X113228571Y-90564286D01*
X111800000Y-89921429D02*
X111728571Y-89850000D01*
X111585714Y-89778571D01*
X111228571Y-89778571D01*
X111085714Y-89850000D01*
X111014285Y-89921429D01*
X110942857Y-90064286D01*
X110942857Y-90207143D01*
X111014285Y-90421429D01*
X111871428Y-91278571D01*
X110942857Y-91278571D01*
X109657143Y-89778571D02*
X109942857Y-89778571D01*
X110085714Y-89850000D01*
X110157143Y-89921429D01*
X110300000Y-90135714D01*
X110371429Y-90421429D01*
X110371429Y-90992857D01*
X110300000Y-91135714D01*
X110228572Y-91207143D01*
X110085714Y-91278571D01*
X109800000Y-91278571D01*
X109657143Y-91207143D01*
X109585714Y-91135714D01*
X109514286Y-90992857D01*
X109514286Y-90635714D01*
X109585714Y-90492857D01*
X109657143Y-90421429D01*
X109800000Y-90350000D01*
X110085714Y-90350000D01*
X110228572Y-90421429D01*
X110300000Y-90492857D01*
X110371429Y-90635714D01*
X112682857Y-97755000D02*
X112825714Y-97683571D01*
X113040000Y-97683571D01*
X113254285Y-97755000D01*
X113397143Y-97897857D01*
X113468571Y-98040714D01*
X113540000Y-98326429D01*
X113540000Y-98540714D01*
X113468571Y-98826429D01*
X113397143Y-98969286D01*
X113254285Y-99112143D01*
X113040000Y-99183571D01*
X112897143Y-99183571D01*
X112682857Y-99112143D01*
X112611428Y-99040714D01*
X112611428Y-98540714D01*
X112897143Y-98540714D01*
X111968571Y-99183571D02*
X111968571Y-97683571D01*
X111111428Y-99183571D01*
X111111428Y-97683571D01*
X110397142Y-99183571D02*
X110397142Y-97683571D01*
X110039999Y-97683571D01*
X109825714Y-97755000D01*
X109682856Y-97897857D01*
X109611428Y-98040714D01*
X109539999Y-98326429D01*
X109539999Y-98540714D01*
X109611428Y-98826429D01*
X109682856Y-98969286D01*
X109825714Y-99112143D01*
X110039999Y-99183571D01*
X110397142Y-99183571D01*
X112642857Y-87450000D02*
X112785714Y-87378571D01*
X113000000Y-87378571D01*
X113214285Y-87450000D01*
X113357143Y-87592857D01*
X113428571Y-87735714D01*
X113500000Y-88021429D01*
X113500000Y-88235714D01*
X113428571Y-88521429D01*
X113357143Y-88664286D01*
X113214285Y-88807143D01*
X113000000Y-88878571D01*
X112857143Y-88878571D01*
X112642857Y-88807143D01*
X112571428Y-88735714D01*
X112571428Y-88235714D01*
X112857143Y-88235714D01*
X111928571Y-88878571D02*
X111928571Y-87378571D01*
X111071428Y-88878571D01*
X111071428Y-87378571D01*
X110357142Y-88878571D02*
X110357142Y-87378571D01*
X109999999Y-87378571D01*
X109785714Y-87450000D01*
X109642856Y-87592857D01*
X109571428Y-87735714D01*
X109499999Y-88021429D01*
X109499999Y-88235714D01*
X109571428Y-88521429D01*
X109642856Y-88664286D01*
X109785714Y-88807143D01*
X109999999Y-88878571D01*
X110357142Y-88878571D01*
M02*
