M48
;DRILL file {KiCad 4.0.1-stable} date 2017/06/24 18:28:38
;FORMAT={-:-/ absolute / metric / decimal}
FMAT,2
METRIC,TZ
T1C0.400
T2C0.800
T3C0.900
T4C1.000
T5C1.200
T6C1.400
T7C1.500
T8C3.300
%
G90
G05
M71
T1
X110.984Y-125.
X113.016Y-125.
X117.7Y-112.
X118.5Y-139.306
X119.4Y-115.8
X119.5Y-138.09
X120.1Y-118.3
X121.Y-124.8
X124.126Y-107.893
X124.65Y-114.444
X124.9Y-96.4
X128.4Y-106.9
X131.728Y-98.691
X135.6Y-138.
X135.7Y-112.
X136.868Y-108.142
X137.917Y-106.242
X139.Y-103.
X146.3Y-97.5
T2
X109.Y-114.46
X109.Y-119.54
X109.Y-121.92
X109.Y-132.08
X111.Y-94.92
X111.Y-105.08
X111.Y-133.5
X111.Y-136.5
X112.Y-117.46
X112.Y-122.54
X114.69Y-100.49
X114.69Y-103.03
X114.69Y-105.57
X114.69Y-108.11
X114.69Y-110.65
X114.69Y-113.19
X114.69Y-115.73
X114.69Y-118.27
X114.69Y-120.81
X114.69Y-123.35
X114.69Y-125.89
X114.69Y-128.43
X114.69Y-130.97
X114.69Y-133.51
X115.96Y-137.
X116.96Y-96.5
X121.04Y-137.
X122.04Y-96.5
X122.31Y-100.49
X122.31Y-103.03
X122.31Y-105.57
X122.31Y-108.11
X122.31Y-110.65
X122.31Y-113.19
X122.31Y-115.73
X122.31Y-118.27
X122.31Y-120.81
X122.31Y-123.35
X122.31Y-125.89
X122.31Y-128.43
X122.31Y-130.97
X122.31Y-133.51
X125.5Y-100.42
X125.5Y-110.58
X125.96Y-118.5
X126.92Y-135.
X128.Y-100.42
X128.Y-110.58
X131.04Y-118.5
X134.92Y-89.
X137.08Y-135.
X138.96Y-97.5
X140.Y-127.46
X140.Y-132.54
X140.Y-136.92
X140.Y-147.08
X142.92Y-135.
X144.04Y-97.5
X145.08Y-89.
X151.92Y-113.
X151.92Y-115.5
X151.92Y-118.
X153.Y-104.46
X153.Y-109.54
X153.08Y-135.
X154.5Y-88.42
X154.5Y-98.58
X156.5Y-105.595
X156.5Y-107.5
X156.5Y-109.405
X157.Y-88.42
X157.Y-98.58
X158.5Y-122.46
X158.5Y-127.54
X159.5Y-88.42
X159.5Y-98.58
X160.19Y-131.19
X160.19Y-138.81
X160.46Y-144.
X161.Y-104.46
X161.Y-109.54
X161.5Y-122.46
X161.5Y-127.54
X162.Y-88.46
X162.Y-93.54
X162.08Y-113.
X162.08Y-115.5
X162.08Y-118.
X162.492Y-144.
X162.73Y-131.19
X162.73Y-138.81
X165.27Y-131.19
X165.27Y-138.81
X165.54Y-144.
X167.81Y-131.19
X167.81Y-138.81
T3
X114.Y-88.73
X114.Y-91.27
T4
X107.615Y-88.33
X107.615Y-90.87
X107.615Y-93.41
X107.615Y-95.95
X107.615Y-98.49
X107.615Y-101.03
X107.615Y-103.57
X107.615Y-106.11
X107.615Y-108.65
X107.615Y-111.19
X107.615Y-134.685
X107.615Y-137.225
X107.615Y-139.765
X107.615Y-142.305
X112.65Y-83.5
X115.19Y-83.5
X117.73Y-83.5
X120.27Y-83.5
X122.81Y-83.5
X125.35Y-83.5
X128.57Y-94.33
X129.84Y-81.63
X131.11Y-81.63
X131.11Y-94.33
X133.65Y-83.5
X133.65Y-94.33
X136.19Y-83.5
X136.19Y-94.33
X138.73Y-83.5
X138.73Y-94.33
X141.27Y-83.5
X141.27Y-94.33
X143.81Y-83.5
X143.81Y-94.33
X146.35Y-83.5
X146.35Y-94.33
X148.89Y-81.63
X148.89Y-94.33
X150.16Y-81.63
X151.43Y-94.33
X155.42Y-83.5
X157.96Y-83.5
X160.5Y-83.5
X163.04Y-83.5
X165.58Y-83.5
T5
X118.75Y-88.75
X118.75Y-93.25
X125.25Y-88.75
X125.25Y-93.25
X127.75Y-124.75
X127.75Y-129.25
X127.75Y-140.75
X127.75Y-145.25
X134.25Y-124.75
X134.25Y-129.25
X134.25Y-140.75
X134.25Y-145.25
X145.75Y-124.75
X145.75Y-129.25
X145.75Y-140.75
X145.75Y-145.25
X152.25Y-124.75
X152.25Y-129.25
X152.25Y-140.75
X152.25Y-145.25
X169.564Y-92.46
X169.564Y-97.54
X169.564Y-103.92
X169.564Y-109.
X169.564Y-114.08
X169.564Y-120.46
X169.564Y-125.54
T6
X124.65Y-124.46
X124.65Y-129.54
X124.65Y-140.46
X124.65Y-145.54
X137.35Y-124.46
X137.35Y-129.54
X137.35Y-140.46
X137.35Y-145.54
X142.65Y-124.46
X142.65Y-129.54
X142.65Y-140.46
X142.65Y-145.54
X155.35Y-124.46
X155.35Y-129.54
X155.35Y-140.46
X155.35Y-145.54
T7
X137.Y-110.
X143.Y-110.
T8
X108.Y-83.
X108.Y-147.
X172.Y-83.
X172.Y-147.
T0
M30
