G04 #@! TF.FileFunction,Soldermask,Bot*
%FSLAX46Y46*%
G04 Gerber Fmt 4.6, Leading zero omitted, Abs format (unit mm)*
G04 Created by KiCad (PCBNEW 4.0.1-stable) date 2017/06/24 18:28:35*
%MOMM*%
G01*
G04 APERTURE LIST*
%ADD10C,0.100000*%
%ADD11R,1.900000X1.900000*%
%ADD12C,1.900000*%
%ADD13C,1.797000*%
%ADD14C,2.400000*%
%ADD15C,2.800000*%
%ADD16R,1.797000X1.797000*%
%ADD17C,1.924000*%
%ADD18C,2.700000*%
%ADD19C,2.200000*%
%ADD20C,2.076400*%
%ADD21O,2.900000X1.900000*%
%ADD22C,1.600000*%
%ADD23R,1.900000X2.900000*%
%ADD24O,1.900000X2.900000*%
%ADD25C,5.400000*%
%ADD26O,1.200000X1.600000*%
%ADD27C,1.800000*%
%ADD28R,3.000000X1.800000*%
%ADD29R,2.000000X1.800000*%
G04 APERTURE END LIST*
D10*
D11*
X151430000Y-94330000D03*
D12*
X148890000Y-94330000D03*
X146350000Y-94330000D03*
X143810000Y-94330000D03*
X141270000Y-94330000D03*
X138730000Y-94330000D03*
X136190000Y-94330000D03*
X133650000Y-94330000D03*
X131110000Y-94330000D03*
X128570000Y-94330000D03*
X148890000Y-81630000D03*
X150160000Y-81630000D03*
X131110000Y-81630000D03*
X129840000Y-81630000D03*
D13*
X112000000Y-122540000D03*
X112000000Y-117460000D03*
D14*
X118750000Y-88750000D03*
X125250000Y-88750000D03*
X125250000Y-93250000D03*
X118750000Y-93250000D03*
D15*
X155350000Y-140460000D03*
X155350000Y-145540000D03*
X142650000Y-140460000D03*
X142650000Y-145540000D03*
D14*
X145750000Y-140750000D03*
X152250000Y-140750000D03*
X152250000Y-145250000D03*
X145750000Y-145250000D03*
D16*
X114690000Y-100490000D03*
D13*
X114690000Y-103030000D03*
X114690000Y-105570000D03*
X114690000Y-108110000D03*
X114690000Y-110650000D03*
X114690000Y-113190000D03*
X114690000Y-115730000D03*
X114690000Y-118270000D03*
X114690000Y-120810000D03*
X114690000Y-123350000D03*
X114690000Y-125890000D03*
X114690000Y-128430000D03*
X114690000Y-130970000D03*
X114690000Y-133510000D03*
X122310000Y-133510000D03*
X122310000Y-130970000D03*
X122310000Y-128430000D03*
X122310000Y-125890000D03*
X122310000Y-123350000D03*
X122310000Y-120810000D03*
X122310000Y-118270000D03*
X122310000Y-115730000D03*
X122310000Y-113190000D03*
X122310000Y-110650000D03*
X122310000Y-108110000D03*
X122310000Y-105570000D03*
X122310000Y-103030000D03*
X122310000Y-100490000D03*
D17*
X134920000Y-89000000D03*
X145080000Y-89000000D03*
D15*
X124650000Y-129540000D03*
X124650000Y-124460000D03*
X137350000Y-129540000D03*
X137350000Y-124460000D03*
D14*
X134250000Y-129250000D03*
X127750000Y-129250000D03*
X127750000Y-124750000D03*
X134250000Y-124750000D03*
D15*
X142650000Y-129540000D03*
X142650000Y-124460000D03*
X155350000Y-129540000D03*
X155350000Y-124460000D03*
D14*
X152250000Y-129250000D03*
X145750000Y-129250000D03*
X145750000Y-124750000D03*
X152250000Y-124750000D03*
D18*
X137000000Y-110000000D03*
X143000000Y-110000000D03*
D13*
X162000000Y-93540000D03*
X162000000Y-88460000D03*
D19*
X169564000Y-125540000D03*
X169564000Y-120460000D03*
D16*
X167810000Y-131190000D03*
D13*
X165270000Y-131190000D03*
X162730000Y-131190000D03*
X160190000Y-131190000D03*
X160190000Y-138810000D03*
X162730000Y-138810000D03*
X165270000Y-138810000D03*
X167810000Y-138810000D03*
D19*
X169564000Y-97540000D03*
X169564000Y-92460000D03*
D11*
X125350000Y-83500000D03*
D12*
X122810000Y-83500000D03*
X120270000Y-83500000D03*
X117730000Y-83500000D03*
X115190000Y-83500000D03*
X112650000Y-83500000D03*
D11*
X146350000Y-83500000D03*
D12*
X143810000Y-83500000D03*
X141270000Y-83500000D03*
X138730000Y-83500000D03*
X136190000Y-83500000D03*
X133650000Y-83500000D03*
D19*
X169564000Y-114080000D03*
X169564000Y-109000000D03*
X169564000Y-103920000D03*
D13*
X116960000Y-96500000D03*
X122040000Y-96500000D03*
D17*
X157000000Y-98580000D03*
X157000000Y-88420000D03*
D13*
X109000000Y-119540000D03*
X109000000Y-114460000D03*
X115960000Y-137000000D03*
X121040000Y-137000000D03*
X144040000Y-97500000D03*
X138960000Y-97500000D03*
X125960000Y-118500000D03*
X131040000Y-118500000D03*
X140000000Y-132540000D03*
X140000000Y-127460000D03*
X158500000Y-127540000D03*
X158500000Y-122460000D03*
D20*
X114000000Y-91270000D03*
X114000000Y-88730000D03*
D17*
X111000000Y-94920000D03*
X111000000Y-105080000D03*
X151920000Y-115500000D03*
X162080000Y-115500000D03*
X162080000Y-113000000D03*
X151920000Y-113000000D03*
X128000000Y-100420000D03*
X128000000Y-110580000D03*
X151920000Y-118000000D03*
X162080000Y-118000000D03*
X140000000Y-147080000D03*
X140000000Y-136920000D03*
X137080000Y-135000000D03*
X126920000Y-135000000D03*
X109000000Y-132080000D03*
X109000000Y-121920000D03*
X153080000Y-135000000D03*
X142920000Y-135000000D03*
X159500000Y-98580000D03*
X159500000Y-88420000D03*
X154500000Y-98580000D03*
X154500000Y-88420000D03*
D15*
X137350000Y-140460000D03*
X137350000Y-145540000D03*
X124650000Y-140460000D03*
X124650000Y-145540000D03*
D14*
X127750000Y-140750000D03*
X134250000Y-140750000D03*
X134250000Y-145250000D03*
X127750000Y-145250000D03*
D17*
X125500000Y-100420000D03*
X125500000Y-110580000D03*
D21*
X107615000Y-101030000D03*
X107615000Y-103570000D03*
X107615000Y-106110000D03*
X107615000Y-108650000D03*
X107615000Y-111190000D03*
X107615000Y-134685000D03*
X107615000Y-137225000D03*
X107615000Y-139765000D03*
X107615000Y-142305000D03*
X107615000Y-95950000D03*
X107615000Y-93410000D03*
X107615000Y-90870000D03*
X107615000Y-98490000D03*
X107615000Y-88330000D03*
D22*
X156500000Y-105595000D03*
X156500000Y-107500000D03*
X156500000Y-109405000D03*
D23*
X165580000Y-83500000D03*
D24*
X163040000Y-83500000D03*
X160500000Y-83500000D03*
X157960000Y-83500000D03*
X155420000Y-83500000D03*
D25*
X108000000Y-83000000D03*
X172000000Y-83000000D03*
X108000000Y-147000000D03*
X172000000Y-147000000D03*
D26*
X113016000Y-125000000D03*
X110984000Y-125000000D03*
D27*
X111000000Y-136500000D03*
X111000000Y-133500000D03*
D13*
X161000000Y-104460000D03*
X161000000Y-109540000D03*
D28*
X160460000Y-144000000D03*
D27*
X165540000Y-144000000D03*
D29*
X162492000Y-144000000D03*
D13*
X161500000Y-127540000D03*
X161500000Y-122460000D03*
X153000000Y-109540000D03*
X153000000Y-104460000D03*
M02*
